<?xml version="1.0" encoding="utf-8"?>
<!-- Generator: Adobe Illustrator 23.1.1, SVG Export Plug-In . SVG Version: 6.00 Build 0)  -->
<svg version="1.1" xmlns="http://www.w3.org/2000/svg" xmlns:xlink="http://www.w3.org/1999/xlink" x="0px" y="0px"
	 viewBox="0 0 750.1 489" style="enable-background:new 0 0 750.1 489;" xml:space="preserve">
<style type="text/css">
	.st0{display:none;}
	.st1{display:inline;fill:#E4E5E3;}
	.st2{fill:none;stroke:#4C4986;stroke-width:0.3191;stroke-linecap:round;stroke-linejoin:round;}
	.st3{fill:none;stroke:#4C4986;stroke-width:0.3191;stroke-linecap:round;stroke-linejoin:round;stroke-dasharray:0.7197,1.4394;}
	.st4{fill:none;stroke:#D13B55;stroke-width:0.3191;stroke-linecap:round;stroke-linejoin:round;}
	.st5{fill:none;stroke:#D13B55;stroke-width:0.3191;stroke-linecap:round;stroke-linejoin:round;stroke-dasharray:0.7392,1.4783;}
	.st6{fill:none;stroke:#4C4986;stroke-width:0.3191;stroke-linecap:round;stroke-linejoin:round;stroke-dasharray:0.737,1.4739;}
	.st7{fill:none;stroke:#4C4986;stroke-width:0.3191;stroke-linecap:round;stroke-linejoin:round;stroke-dasharray:0.7435,1.4871;}
	.st8{fill:none;stroke:#D13B55;stroke-width:0.3191;stroke-linecap:round;stroke-linejoin:round;stroke-dasharray:0.7388,1.4777;}
	.st9{fill:none;stroke:#4C4986;stroke-width:0.3191;stroke-linecap:round;stroke-linejoin:round;stroke-dasharray:0.8536,1.7072;}
	.st10{fill:none;stroke:#D13B55;stroke-width:0.3191;stroke-linecap:round;stroke-linejoin:round;stroke-dasharray:0.8354,1.6709;}
	.st11{fill:none;stroke:#4C4986;stroke-width:0.3191;stroke-linecap:round;stroke-linejoin:round;stroke-dasharray:0.8363,1.6727;}
	.st12{fill:none;stroke:#4C4986;stroke-width:0.3191;stroke-linecap:round;stroke-linejoin:round;stroke-dasharray:0.8452,1.6904;}
	.st13{fill:none;stroke:#D13B55;stroke-width:0.3191;stroke-linecap:round;stroke-linejoin:round;stroke-dasharray:0.7578,1.5156;}
	.st14{fill:none;stroke:#4C4986;stroke-width:0.3191;stroke-linecap:round;stroke-linejoin:round;stroke-dasharray:0.7664,1.5328;}
	.st15{fill:none;stroke:#D13B55;stroke-width:0.3191;stroke-linecap:round;stroke-linejoin:round;stroke-dasharray:0.7624,1.5249;}
	.st16{fill:none;stroke:#4C4986;stroke-width:0.3191;stroke-linecap:round;stroke-linejoin:round;stroke-dasharray:0.7578,1.5156;}
	.st17{fill:none;stroke:#4C4986;stroke-width:0.3191;stroke-linecap:round;stroke-linejoin:round;stroke-dasharray:0.7605,1.521;}
	.st18{fill:none;stroke:#4C4986;stroke-width:0.3191;stroke-linecap:round;stroke-linejoin:round;stroke-dasharray:0.5508,1.1015;}
	.st19{fill:none;stroke:#D13B55;stroke-width:0.3191;stroke-linecap:round;stroke-linejoin:round;stroke-dasharray:0.5619,1.1237;}
	.st20{fill:none;stroke:#4C4986;stroke-width:0.3191;stroke-linecap:round;stroke-linejoin:round;stroke-dasharray:0.5654,1.1308;}
	.st21{fill:none;stroke:#4C4986;stroke-width:0.3191;stroke-linecap:round;stroke-linejoin:round;stroke-dasharray:0.5646,1.1293;}
	.st22{fill:none;stroke:#4C4986;stroke-width:0.3191;stroke-linecap:round;stroke-linejoin:round;stroke-dasharray:0.8734,1.7468;}
	.st23{fill:none;stroke:#D13B55;stroke-width:0.3191;stroke-linecap:round;stroke-linejoin:round;stroke-dasharray:0.8429,1.6857;}
	.st24{fill:none;stroke:#4C4986;stroke-width:0.3191;stroke-linecap:round;stroke-linejoin:round;stroke-dasharray:0.8346,1.6692;}
	.st25{fill:none;stroke:#4C4986;stroke-width:0.3191;stroke-linecap:round;stroke-linejoin:round;stroke-dasharray:0.8327,1.6654;}
	.st26{fill:none;stroke:#4C4986;stroke-width:0.2939;stroke-linecap:round;stroke-linejoin:round;}
	.st27{fill:none;stroke:#4C4986;stroke-width:0.2939;stroke-linecap:round;stroke-linejoin:round;stroke-dasharray:0.5732,1.1464;}
	.st28{fill:none;stroke:#D13B55;stroke-width:0.2939;stroke-linecap:round;stroke-linejoin:round;}
	.st29{fill:none;stroke:#D13B55;stroke-width:0.2939;stroke-linecap:round;stroke-linejoin:round;stroke-dasharray:0.5788,1.1576;}
	.st30{fill:none;stroke:#4C4986;stroke-width:0.2939;stroke-linecap:round;stroke-linejoin:round;stroke-dasharray:0.571,1.1421;}
	.st31{fill:none;stroke:#D13B55;stroke-width:0.2939;stroke-linecap:round;stroke-linejoin:round;stroke-dasharray:0.5732,1.1464;}
	.st32{fill:none;stroke:#4C4986;stroke-width:0.2939;stroke-linecap:round;stroke-linejoin:round;stroke-dasharray:0.5872,1.1745;}
	.st33{fill:none;stroke:#4C4986;stroke-width:0.4664;stroke-linecap:round;stroke-linejoin:round;}
	.st34{fill:none;stroke:#4C4986;stroke-width:0.4664;stroke-linecap:round;stroke-linejoin:round;stroke-dasharray:0.9756,1.9512;}
	.st35{fill:none;stroke:#D13B55;stroke-width:0.4664;stroke-linecap:round;stroke-linejoin:round;}
	.st36{fill:none;stroke:#D13B55;stroke-width:0.4664;stroke-linecap:round;stroke-linejoin:round;stroke-dasharray:1.0824,2.1648;}
	.st37{fill:none;stroke:#4C4986;stroke-width:0.4664;stroke-linecap:round;stroke-linejoin:round;stroke-dasharray:1.0849,2.1697;}
	.st38{fill:none;stroke:#4C4986;stroke-width:0.4664;stroke-linecap:round;stroke-linejoin:round;stroke-dasharray:1.083,2.1659;}
	.st39{fill:none;stroke:#D13B55;stroke-width:0.4664;stroke-linecap:round;stroke-linejoin:round;stroke-dasharray:1.0794,2.1589;}
	.st40{fill:none;stroke:#4C4986;stroke-width:0.4664;stroke-linecap:round;stroke-linejoin:round;stroke-dasharray:1.227,2.4539;}
	.st41{fill:none;stroke:#D13B55;stroke-width:0.4664;stroke-linecap:round;stroke-linejoin:round;stroke-dasharray:1.2185,2.4371;}
	.st42{fill:none;stroke:#4C4986;stroke-width:0.4664;stroke-linecap:round;stroke-linejoin:round;stroke-dasharray:1.2233,2.4467;}
	.st43{fill:none;stroke:#4C4986;stroke-width:0.4664;stroke-linecap:round;stroke-linejoin:round;stroke-dasharray:1.2327,2.4654;}
	.st44{fill:none;stroke:#D13B55;stroke-width:0.4664;stroke-linecap:round;stroke-linejoin:round;stroke-dasharray:1.1063,2.2125;}
	.st45{fill:none;stroke:#4C4986;stroke-width:0.4664;stroke-linecap:round;stroke-linejoin:round;stroke-dasharray:1.0389,2.0778;}
	.st46{fill:none;stroke:#D13B55;stroke-width:0.4664;stroke-linecap:round;stroke-linejoin:round;stroke-dasharray:1.0953,2.1906;}
	.st47{fill:none;stroke:#4C4986;stroke-width:0.4664;stroke-linecap:round;stroke-linejoin:round;stroke-dasharray:1.1063,2.2125;}
	.st48{fill:none;stroke:#4C4986;stroke-width:0.4664;stroke-linecap:round;stroke-linejoin:round;stroke-dasharray:1.1062,2.2124;}
	.st49{fill:none;stroke:#4C4986;stroke-width:0.4664;stroke-linecap:round;stroke-linejoin:round;stroke-dasharray:0.8286,1.6572;}
	.st50{fill:none;stroke:#D13B55;stroke-width:0.4664;stroke-linecap:round;stroke-linejoin:round;stroke-dasharray:0.8171,1.6341;}
	.st51{fill:none;stroke:#4C4986;stroke-width:0.4664;stroke-linecap:round;stroke-linejoin:round;stroke-dasharray:0.8175,1.635;}
	.st52{fill:none;stroke:#4C4986;stroke-width:0.4664;stroke-linecap:round;stroke-linejoin:round;stroke-dasharray:0.8237,1.6473;}
	.st53{fill:none;stroke:#4C4986;stroke-width:0.4664;stroke-linecap:round;stroke-linejoin:round;stroke-dasharray:1.244,2.488;}
	.st54{fill:none;stroke:#D13B55;stroke-width:0.4664;stroke-linecap:round;stroke-linejoin:round;stroke-dasharray:1.2362,2.4725;}
	.st55{fill:none;stroke:#4C4986;stroke-width:0.4664;stroke-linecap:round;stroke-linejoin:round;stroke-dasharray:1.2355,2.4709;}
	.st56{fill:none;stroke:#4C4986;stroke-width:0.4664;stroke-linecap:round;stroke-linejoin:round;stroke-dasharray:1.2362,2.4725;}
	.st57{fill:none;stroke:#4C4986;stroke-width:0.4295;stroke-linecap:round;stroke-linejoin:round;}
	.st58{fill:none;stroke:#4C4986;stroke-width:0.4295;stroke-linecap:round;stroke-linejoin:round;stroke-dasharray:0.8462,1.6925;}
	.st59{fill:none;stroke:#D13B55;stroke-width:0.4295;stroke-linecap:round;stroke-linejoin:round;}
	.st60{fill:none;stroke:#D13B55;stroke-width:0.4295;stroke-linecap:round;stroke-linejoin:round;stroke-dasharray:0.8023,1.6046;}
	.st61{fill:none;stroke:#4C4986;stroke-width:0.4295;stroke-linecap:round;stroke-linejoin:round;stroke-dasharray:0.8454,1.6908;}
	.st62{fill:none;stroke:#D13B55;stroke-width:0.4295;stroke-linecap:round;stroke-linejoin:round;stroke-dasharray:0.8462,1.6925;}
	.st63{fill:none;stroke:#4C4986;stroke-width:0.4295;stroke-linecap:round;stroke-linejoin:round;stroke-dasharray:0.8585,1.7169;}
	.st64{opacity:0.22;}
	.st65{fill:none;stroke:#4C4986;stroke-width:0.6329;stroke-linecap:round;stroke-linejoin:round;}
	.st66{fill:none;stroke:#4C4986;stroke-width:0.6329;stroke-linecap:round;stroke-linejoin:round;stroke-dasharray:1.4848,2.9696;}
	.st67{fill:none;stroke:#4C4986;stroke-width:0.6329;stroke-linecap:round;stroke-linejoin:round;stroke-dasharray:1.4819,2.9637;}
	.st68{fill:none;stroke:#D13B55;stroke-width:0.6329;stroke-linecap:round;stroke-linejoin:round;}
	.st69{fill:none;stroke:#D13B55;stroke-width:0.6329;stroke-linecap:round;stroke-linejoin:round;stroke-dasharray:1.4429,2.8859;}
	.st70{fill:none;stroke:#4C4986;stroke-width:0.6329;stroke-linecap:round;stroke-linejoin:round;stroke-dasharray:1.459,2.9179;}
	.st71{fill:none;stroke:#D13B55;stroke-width:0.6329;stroke-linecap:round;stroke-linejoin:round;stroke-dasharray:1.4798,2.9595;}
	.st72{fill:none;stroke:#4C4986;stroke-width:0.6329;stroke-linecap:round;stroke-linejoin:round;stroke-dasharray:1.6496,3.2992;}
	.st73{fill:none;stroke:#4C4986;stroke-width:0.6329;stroke-linecap:round;stroke-linejoin:round;stroke-dasharray:1.6377,3.2754;}
	.st74{fill:none;stroke:#D13B55;stroke-width:0.6329;stroke-linecap:round;stroke-linejoin:round;stroke-dasharray:1.6263,3.2526;}
	.st75{fill:none;stroke:#4C4986;stroke-width:0.6329;stroke-linecap:round;stroke-linejoin:round;stroke-dasharray:1.6455,3.291;}
	.st76{fill:none;stroke:#4C4986;stroke-width:0.6329;stroke-linecap:round;stroke-linejoin:round;stroke-dasharray:1.4547,2.9094;}
	.st77{fill:none;stroke:#D13B55;stroke-width:0.6329;stroke-linecap:round;stroke-linejoin:round;stroke-dasharray:1.5,3.0001;}
	.st78{fill:none;stroke:#4C4986;stroke-width:0.6329;stroke-linecap:round;stroke-linejoin:round;stroke-dasharray:1.4489,2.8978;}
	.st79{fill:none;stroke:#4C4986;stroke-width:0.6329;stroke-linecap:round;stroke-linejoin:round;stroke-dasharray:1.5243,3.0486;}
	.st80{fill:none;stroke:#4C4986;stroke-width:0.6329;stroke-linecap:round;stroke-linejoin:round;stroke-dasharray:1.4765,2.9529;}
	.st81{fill:none;stroke:#4C4986;stroke-width:0.6329;stroke-linecap:round;stroke-linejoin:round;stroke-dasharray:1.0736,2.1471;}
	.st82{fill:none;stroke:#4C4986;stroke-width:0.6329;stroke-linecap:round;stroke-linejoin:round;stroke-dasharray:1.1268,2.2537;}
	.st83{fill:none;stroke:#D13B55;stroke-width:0.6329;stroke-linecap:round;stroke-linejoin:round;stroke-dasharray:1.1011,2.2022;}
	.st84{fill:none;stroke:#4C4986;stroke-width:0.6329;stroke-linecap:round;stroke-linejoin:round;stroke-dasharray:1.1354,2.2708;}
	.st85{fill:none;stroke:#4C4986;stroke-width:0.6329;stroke-linecap:round;stroke-linejoin:round;stroke-dasharray:1.75,3.5;}
	.st86{fill:none;stroke:#4C4986;stroke-width:0.6329;stroke-linecap:round;stroke-linejoin:round;stroke-dasharray:1.6633,3.3266;}
	.st87{fill:none;stroke:#D13B55;stroke-width:0.6329;stroke-linecap:round;stroke-linejoin:round;stroke-dasharray:1.6784,3.3568;}
	.st88{fill:none;stroke:#4C4986;stroke-width:0.6329;stroke-linecap:round;stroke-linejoin:round;stroke-dasharray:1.7035,3.407;}
	.st89{fill:none;stroke:#4C4986;stroke-width:0.5829;stroke-linecap:round;stroke-linejoin:round;}
	.st90{fill:none;stroke:#4C4986;stroke-width:0.5829;stroke-linecap:round;stroke-linejoin:round;stroke-dasharray:1.1314,2.2628;}
	.st91{fill:none;stroke:#4C4986;stroke-width:0.5829;stroke-linecap:round;stroke-linejoin:round;stroke-dasharray:1.1493,2.2986;}
	.st92{fill:none;stroke:#4C4986;stroke-width:0.5829;stroke-linecap:round;stroke-linejoin:round;stroke-dasharray:1.1491,2.2983;}
	.st93{fill:none;stroke:#4C4986;stroke-width:0.5829;stroke-linecap:round;stroke-linejoin:round;stroke-dasharray:1.0931,2.1863;}
	.st94{fill:none;stroke:#D13B55;stroke-width:0.5829;stroke-linecap:round;stroke-linejoin:round;}
	.st95{fill:none;stroke:#D13B55;stroke-width:0.5829;stroke-linecap:round;stroke-linejoin:round;stroke-dasharray:1.1358,2.2717;}
	.st96{fill:none;stroke:#4C4986;stroke-width:0.5829;stroke-linecap:round;stroke-linejoin:round;stroke-dasharray:1.2445,2.489;}
	.st97{fill:none;stroke:#4C4986;stroke-width:0.6329;stroke-linecap:round;stroke-linejoin:round;stroke-dasharray:1.4612,2.9224;}
	.st98{opacity:0.33;}
	.st99{fill:none;stroke:#4C4986;stroke-width:0.6329;stroke-linecap:round;stroke-linejoin:round;stroke-dasharray:1.4726,2.9452;}
	.st100{fill:none;stroke:#4C4986;stroke-width:0.6329;stroke-linecap:round;stroke-linejoin:round;stroke-dasharray:1.4492,2.8984;}
	.st101{fill:none;stroke:#4C4986;stroke-width:0.6329;stroke-linecap:round;stroke-linejoin:round;stroke-dasharray:1.4559,2.9118;}
	.st102{fill:none;stroke:#4C4986;stroke-width:0.6329;stroke-linecap:round;stroke-linejoin:round;stroke-dasharray:1.6602,3.3204;}
	.st103{fill:none;stroke:#4C4986;stroke-width:0.6329;stroke-linecap:round;stroke-linejoin:round;stroke-dasharray:1.6616,3.3233;}
	.st104{fill:none;stroke:#4C4986;stroke-width:0.6329;stroke-linecap:round;stroke-linejoin:round;stroke-dasharray:1.6594,3.3187;}
	.st105{fill:none;stroke:#4C4986;stroke-width:0.6329;stroke-linecap:round;stroke-linejoin:round;stroke-dasharray:1.5039,3.0078;}
	.st106{fill:none;stroke:#4C4986;stroke-width:0.6329;stroke-linecap:round;stroke-linejoin:round;stroke-dasharray:1.5168,3.0336;}
	.st107{fill:none;stroke:#4C4986;stroke-width:0.6329;stroke-linecap:round;stroke-linejoin:round;stroke-dasharray:1.495,2.99;}
	.st108{fill:none;stroke:#4C4986;stroke-width:0.6329;stroke-linecap:round;stroke-linejoin:round;stroke-dasharray:1.1095,2.219;}
	.st109{fill:none;stroke:#4C4986;stroke-width:0.6329;stroke-linecap:round;stroke-linejoin:round;stroke-dasharray:1.1219,2.2438;}
	.st110{fill:none;stroke:#4C4986;stroke-width:0.6329;stroke-linecap:round;stroke-linejoin:round;stroke-dasharray:1.107,2.214;}
	.st111{fill:none;stroke:#4C4986;stroke-width:0.6329;stroke-linecap:round;stroke-linejoin:round;stroke-dasharray:1.1122,2.2245;}
	.st112{fill:none;stroke:#4C4986;stroke-width:0.6329;stroke-linecap:round;stroke-linejoin:round;stroke-dasharray:1.6644,3.3287;}
	.st113{fill:none;stroke:#4C4986;stroke-width:0.6329;stroke-linecap:round;stroke-linejoin:round;stroke-dasharray:1.683,3.366;}
	.st114{fill:none;stroke:#4C4986;stroke-width:0.6329;stroke-linecap:round;stroke-linejoin:round;stroke-dasharray:1.623,3.2459;}
	.st115{fill:none;stroke:#4C4986;stroke-width:0.6329;stroke-linecap:round;stroke-linejoin:round;stroke-dasharray:1.67,3.34;}
	.st116{fill:none;stroke:#4C4986;stroke-width:0.5829;stroke-linecap:round;stroke-linejoin:round;stroke-dasharray:1.1406,2.2812;}
	.st117{fill:none;stroke:#4C4986;stroke-width:0.5829;stroke-linecap:round;stroke-linejoin:round;stroke-dasharray:1.1551,2.3102;}
	.st118{fill:none;stroke:#4C4986;stroke-width:0.5829;stroke-linecap:round;stroke-linejoin:round;stroke-dasharray:1.129,2.2581;}
	.st119{fill:none;stroke:#4C4986;stroke-width:0.6329;stroke-linecap:round;stroke-linejoin:round;stroke-dasharray:1.4166,2.8333;}
	.st120{fill:none;stroke:#4C4986;stroke-width:0.6329;stroke-linecap:round;stroke-linejoin:round;stroke-dasharray:1.4586,2.9173;}
	.st121{fill:none;stroke:#4C4986;stroke-width:0.6329;stroke-linecap:round;stroke-linejoin:round;stroke-dasharray:1.4346,2.8693;}
	.st122{fill:none;stroke:#4C4986;stroke-width:0.6329;stroke-linecap:round;stroke-linejoin:round;stroke-dasharray:1.4891,2.9781;}
	.st123{fill:none;stroke:#4C4986;stroke-width:0.6329;stroke-linecap:round;stroke-linejoin:round;stroke-dasharray:1.651,3.302;}
	.st124{fill:none;stroke:#4C4986;stroke-width:0.6329;stroke-linecap:round;stroke-linejoin:round;stroke-dasharray:1.6499,3.2998;}
	.st125{fill:none;stroke:#4C4986;stroke-width:0.6329;stroke-linecap:round;stroke-linejoin:round;stroke-dasharray:1.4669,2.9339;}
	.st126{fill:none;stroke:#4C4986;stroke-width:0.6329;stroke-linecap:round;stroke-linejoin:round;stroke-dasharray:1.5038,3.0076;}
	.st127{fill:none;stroke:#4C4986;stroke-width:0.6329;stroke-linecap:round;stroke-linejoin:round;stroke-dasharray:1.4718,2.9437;}
	.st128{fill:none;stroke:#4C4986;stroke-width:0.6329;stroke-linecap:round;stroke-linejoin:round;stroke-dasharray:1.1039,2.2078;}
	.st129{fill:none;stroke:#4C4986;stroke-width:0.6329;stroke-linecap:round;stroke-linejoin:round;stroke-dasharray:1.1203,2.2407;}
	.st130{fill:none;stroke:#4C4986;stroke-width:0.6329;stroke-linecap:round;stroke-linejoin:round;stroke-dasharray:1.656,3.312;}
	.st131{fill:none;stroke:#4C4986;stroke-width:0.6329;stroke-linecap:round;stroke-linejoin:round;stroke-dasharray:1.6533,3.3067;}
	.st132{fill:none;stroke:#4C4986;stroke-width:0.5829;stroke-linecap:round;stroke-linejoin:round;stroke-dasharray:1.1474,2.2949;}
	.st133{fill:none;stroke:#4C4986;stroke-width:0.5829;stroke-linecap:round;stroke-linejoin:round;stroke-dasharray:1.1388,2.2775;}
	.st134{fill:none;stroke:#4C4986;stroke-width:0.6329;stroke-linecap:round;stroke-linejoin:round;stroke-dasharray:1.462,2.9239;}
	.st135{fill:none;stroke:#4C4986;stroke-width:0.6329;stroke-linecap:round;stroke-linejoin:round;stroke-dasharray:1.4557,2.9115;}
	.st136{fill:none;stroke:#4C4986;stroke-width:0.6329;stroke-linecap:round;stroke-linejoin:round;stroke-dasharray:1.674,3.348;}
	.st137{fill:none;stroke:#4C4986;stroke-width:0.6329;stroke-linecap:round;stroke-linejoin:round;stroke-dasharray:1.122,2.244;}
	.st138{fill:none;stroke:#4C4986;stroke-width:0.6329;stroke-linecap:round;stroke-linejoin:round;stroke-dasharray:1.6455,3.2909;}
	.st139{fill:none;stroke:#4C4986;stroke-width:0.3191;stroke-linecap:round;stroke-linejoin:round;stroke-dasharray:0.737,1.474;}
	.st140{display:inline;fill:none;stroke:#4C4986;stroke-width:1.4742;stroke-miterlimit:10;}
	.st141{display:inline;}
	.st142{fill:none;stroke:#4B508B;stroke-width:0.4465;stroke-linejoin:round;stroke-miterlimit:10;}
	.st143{fill:none;stroke:#4B508B;stroke-width:0.4043;stroke-miterlimit:10;}
	.st144{fill:none;stroke:#D0445C;stroke-width:0.4043;stroke-miterlimit:10;}
	.st145{fill:none;stroke:#D0445C;stroke-width:0.15;stroke-miterlimit:10;}
	.st146{fill:none;stroke:#4B508B;stroke-width:0.2819;stroke-miterlimit:10;}
	.st147{fill:none;stroke:#4B508B;stroke-width:0.3758;stroke-miterlimit:10;}
	.st148{fill:none;stroke:#4B508B;stroke-width:0.7517;stroke-miterlimit:10;}
	.st149{fill:none;stroke:#4B508B;stroke-width:1.1275;stroke-miterlimit:10;}
	.st150{fill:#D0445C;}
	.st151{fill:#4B508B;}
	.st152{fill:none;stroke:#D0445C;stroke-width:0.4656;stroke-miterlimit:10;}
	.st153{fill:none;stroke:#4B508B;stroke-width:0.4656;stroke-miterlimit:10;}
	.st154{fill:none;stroke:#D0445C;stroke-width:0.5528;stroke-miterlimit:10;}
	.st155{fill:none;stroke:#4B508B;stroke-width:0.5528;stroke-miterlimit:10;}
	.st156{fill:none;stroke:#D0445C;stroke-width:1.4742;stroke-miterlimit:10;}
	.st157{fill:none;stroke:#4B508B;stroke-width:1.4742;stroke-miterlimit:10;}
	.st158{font-family:'Consolas-Bold';}
	.st159{font-size:5px;}
	.st160{opacity:0.33;fill:none;stroke:#4B508B;stroke-width:0.4043;stroke-miterlimit:10;}
	.st161{opacity:0.33;fill:none;stroke:#4B508B;stroke-width:0.3758;stroke-miterlimit:10;}
	.st162{opacity:0.33;fill:#4B508B;}
	.st163{opacity:0.33;fill:none;stroke:#4B508B;stroke-width:0.4656;stroke-miterlimit:10;}
	.st164{opacity:0.33;fill:none;stroke:#4B508B;stroke-width:1.4742;stroke-miterlimit:10;}
	.st165{opacity:0.33;fill:none;stroke:#4B508B;stroke-width:0.7517;stroke-miterlimit:10;}
	.st166{opacity:0.33;fill:none;stroke:#4B508B;stroke-width:1.1275;stroke-miterlimit:10;}
	.st167{opacity:0.33;fill:none;stroke:#4B508B;stroke-width:0.2819;stroke-miterlimit:10;}
	.st168{opacity:0.4;}
	.st169{font-size:6.6341px;}
	.st170{font-size:4.2642px;}
	.st171{font-size:8.8454px;}
	.st172{font-size:8.8455px;}
	.st173{font-size:6.634px;}
	.st174{font-size:6.4999px;}
</style>
<g id="fondo" class="st0">
</g>
<g id="ondas_sonoras">
	<g>
		<g>
			<g>
				<path style="fill:none;stroke:#4B508B;stroke-width:0.4664;stroke-linecap:round;stroke-linejoin:round;" d="M252.4,115.5
					c0.1-0.2,0.2-0.3,0.3-0.5"/>
				
					<path style="fill:none;stroke:#4B508B;stroke-width:0.4664;stroke-linecap:round;stroke-linejoin:round;stroke-dasharray:0.9756,1.9512;" d="
					M253.7,113.4c0.9-1.6,1.6-2.9,1.7-4.5"/>
				<path style="fill:none;stroke:#4B508B;stroke-width:0.4664;stroke-linecap:round;stroke-linejoin:round;" d="M255.5,107.9
					c0-0.2,0-0.4,0-0.5"/>
			</g>
		</g>
		<g>
			<g>
				<path style="fill:none;stroke:#D0445C;stroke-width:0.4664;stroke-linecap:round;stroke-linejoin:round;" d="M124.1,95.1
					c0.2,0,0.4,0,0.5,0"/>
				
					<path style="fill:none;stroke:#D0445C;stroke-width:0.4664;stroke-linecap:round;stroke-linejoin:round;stroke-dasharray:1.0824,2.1648;" d="
					M126.6,95.9c1.6,1,2.6,2.7,2.6,2.7l2.4,4.7c0,0,0.4,0.5,2,0.6c1.6,0.1,3.3-0.4,3.3-0.4l5.9-1.9c0,0,2-0.6,2.8-0.7
					c0.8,0,1-0.1,2.1,0.7c1.2,0.7,3.3,5.4,3.5,5.9c0.2,0.5,1.1,2.7,1.6,3c0.6,0.3,1.6,2,2.4,2.5c0.8,0.4,1.5,1,3.2,1
					c1.6,0.1,4.5-1.2,4.5-1.2l3.9-1.9c0,0,0.8-0.2,1.9-0.2c1.1,0.1,1.6,0.4,1.6,0.4l5.9,7l0.7,0.9c0,0,1.1,0.3,1.7,0.3
					s1.9-0.3,1.9-0.5c0.1-0.2,2.4-2.6,3.1-3.6c0.7-1,2.7-7.1,2.6-7.4c-0.1-0.4,0-3.4,0.3-5.2c0.3-1.7,3.5-5.6,4.2-6.3
					s2.8-0.9,2.8-0.9s1.5,0,1.9,0.3c0.4,0.2,0.9,0.8,1.4,1.4c0.5,0.6,2.4,4.3,3.3,5.5c0.9,1.2,2.4,1.5,3.8,1.5s4.2-1.2,4.2-1.2
					s4.5-1.9,5.8-2c1.3-0.1,1.9-0.2,2.8,0.3c0.9,0.6,2.5,2,3.3,5.4c0.8,3.4,3.3,6,4.9,6.6c1.5,0.6,1.1,0.7,3.4,0.6
					c2.4,0,4.5-1.4,6.2-2c1.6-0.7,1.9-0.9,3.7-0.9c1.8,0,4.5,1.2,6.3,5.2c0.9,2,1.9,2.9,2.7,3.2"/>
				<path style="fill:none;stroke:#D0445C;stroke-width:0.4664;stroke-linecap:round;stroke-linejoin:round;" d="M248.4,119
					c0.3,0,0.4,0,0.5,0"/>
			</g>
		</g>
		<g>
			<g>
				<path style="fill:none;stroke:#4B508B;stroke-width:0.4664;stroke-linecap:round;stroke-linejoin:round;" d="M256.3,107.2
					c0,0,0.1-0.2,0.2-0.5"/>
				
					<path style="fill:none;stroke:#4B508B;stroke-width:0.4664;stroke-linecap:round;stroke-linejoin:round;stroke-dasharray:1.0849,2.1697;" d="
					M257.1,104.7c0.6-1.6,1.3-3.6,1.9-4.9c1.1-2.4,2.7-4.7,5.7-4.7s5.1,3.5,5.1,3.5l2.4,4.7c0,0,0.4,0.5,2,0.6
					c1.6,0.1,3.3-0.4,3.3-0.4l5.9-1.9c0,0,2-0.6,2.8-0.7c0.8,0,1-0.1,2.1,0.7c1.2,0.7,3.3,5.4,3.5,5.9c0.2,0.5,1.1,2.7,1.6,3
					c0.6,0.3,1.6,2,2.4,2.5c0.8,0.4,1.5,1,3.2,1c1.6,0.1,4.5-1.2,4.5-1.2l3.9-1.9c0,0,0.8-0.2,1.9-0.2c1.1,0.1,1.6,0.4,1.6,0.4
					l5.9,7l0.7,0.9c0,0,1.1,0.3,1.7,0.3s1.9-0.3,1.9-0.5c0.1-0.2,2.4-2.6,3.1-3.6c0.7-1,2.7-7.1,2.6-7.4c-0.1-0.4,0-3.4,0.3-5.2
					c0.3-1.7,3.5-5.6,4.2-6.3s2.8-0.9,2.8-0.9s1.5,0,1.9,0.3c0.4,0.2,0.9,0.8,1.4,1.4c0.5,0.6,2.4,4.3,3.3,5.5
					c0.9,1.2,2.4,1.5,3.8,1.5s4.2-1.2,4.2-1.2s4.5-1.9,5.8-2c1.3-0.1,1.9-0.2,2.8,0.3c0.9,0.6,2.5,2,3.3,5.4c0.8,3.4,3.3,6,4.9,6.6
					c1.5,0.6,1.1,0.7,3.4,0.6c2.4,0,4.5-1.4,6.2-2c1.6-0.7,1.9-0.9,3.7-0.9c1.8,0,4.5,1.2,6.3,5.2c1.8,4,3.9,3.4,4.3,3.3
					s1.6-0.1,3.5-3.4c1.5-2.7,2.7-4.3,3-6.6"/>
				<path style="fill:none;stroke:#4B508B;stroke-width:0.4664;stroke-linecap:round;stroke-linejoin:round;" d="M396.1,107.9
					c0-0.2,0-0.4,0-0.5"/>
			</g>
		</g>
		<g>
			<g>
				<path style="fill:none;stroke:#4B508B;stroke-width:0.4664;stroke-linecap:round;stroke-linejoin:round;" d="M396.9,107.2
					c0,0,0.1-0.2,0.2-0.5"/>
				
					<path style="fill:none;stroke:#4B508B;stroke-width:0.4664;stroke-linecap:round;stroke-linejoin:round;stroke-dasharray:1.0849,2.1697;" d="
					M397.8,104.7c0.6-1.6,1.3-3.6,1.9-4.9c1.1-2.4,2.7-4.7,5.7-4.7s5.1,3.5,5.1,3.5l2.4,4.7c0,0,0.4,0.5,2,0.6
					c1.6,0.1,3.3-0.4,3.3-0.4l5.9-1.9c0,0,2-0.6,2.8-0.7c0.8,0,1-0.1,2.1,0.7c1.2,0.7,3.3,5.4,3.5,5.9c0.2,0.5,1.1,2.7,1.6,3
					c0.6,0.3,1.6,2,2.4,2.5c0.8,0.4,1.5,1,3.2,1c1.6,0.1,4.5-1.2,4.5-1.2l3.9-1.9c0,0,0.8-0.2,1.9-0.2c1.1,0.1,1.6,0.4,1.6,0.4
					l5.9,7l0.7,0.9c0,0,1.1,0.3,1.7,0.3c0.6,0,1.9-0.3,1.9-0.5c0.1-0.2,2.4-2.6,3.1-3.6c0.7-1,2.7-7.1,2.6-7.4
					c-0.1-0.4,0-3.4,0.3-5.2s3.5-5.6,4.2-6.3s2.8-0.9,2.8-0.9s1.5,0,1.9,0.3c0.4,0.2,0.9,0.8,1.4,1.4c0.5,0.6,2.4,4.3,3.3,5.5
					s2.4,1.5,3.8,1.5c1.5,0,4.2-1.2,4.2-1.2s4.5-1.9,5.8-2s1.9-0.2,2.8,0.3c0.9,0.6,2.5,2,3.3,5.4c0.8,3.4,3.3,6,4.9,6.6
					c1.5,0.6,1.1,0.7,3.4,0.6c2.4,0,4.5-1.4,6.2-2s1.9-0.9,3.7-0.9c1.8,0,4.5,1.2,6.3,5.2s3.9,3.4,4.3,3.3s1.6-0.1,3.5-3.4
					c1.5-2.7,2.7-4.3,3-6.6"/>
				<path style="fill:none;stroke:#4B508B;stroke-width:0.4664;stroke-linecap:round;stroke-linejoin:round;" d="M536.7,107.9
					c0-0.2,0-0.4,0-0.5"/>
			</g>
		</g>
		<g>
			<g>
				<path style="fill:none;stroke:#4B508B;stroke-width:0.4664;stroke-linecap:round;stroke-linejoin:round;" d="M537.5,107.2
					c0,0,0.1-0.2,0.2-0.5"/>
				
					<path style="fill:none;stroke:#4B508B;stroke-width:0.4664;stroke-linecap:round;stroke-linejoin:round;stroke-dasharray:1.083,2.1659;" d="
					M538.4,104.7c0.6-1.6,1.3-3.6,1.9-4.9c1.1-2.4,2.7-4.7,5.7-4.7c2.9-0.1,5.1,3.5,5.1,3.5l2.4,4.7c0,0,0.4,0.5,2,0.6
					c1.6,0.1,3.3-0.4,3.3-0.4l5.9-1.9c0,0,2-0.6,2.8-0.7c0.8,0,1-0.1,2.1,0.7c1.2,0.7,3.3,5.4,3.5,5.9c0.2,0.5,1.1,2.7,1.6,3
					c0.6,0.3,1.6,2,2.4,2.5c0.8,0.4,1.5,1,3.2,1c1.6,0.1,4.5-1.2,4.5-1.2l3.9-1.9c0,0,0.8-0.2,1.9-0.2c1.1,0.1,1.6,0.4,1.6,0.4
					l5.9,7l0.7,0.9c0,0,1.1,0.3,1.7,0.3s1.9-0.3,1.9-0.5c0.1-0.2,2.4-2.6,3.1-3.6c0.7-1,2.7-7.1,2.6-7.4c-0.1-0.4,0-3.4,0.3-5.2
					s3.5-5.6,4.2-6.3s2.8-0.9,2.8-0.9s1.5,0,1.9,0.3c0.4,0.2,0.9,0.8,1.4,1.4c0.5,0.6,2.4,4.3,3.3,5.5s2.4,1.5,3.8,1.5
					s4.2-1.2,4.2-1.2s4.5-1.9,5.8-2c1.3-0.1,1.9-0.2,2.8,0.3c0.9,0.6,2.5,2,3.3,5.4c0.8,3.4,3.3,6,4.9,6.6c1.5,0.6,1.1,0.7,3.4,0.6
					c2.4,0,4.5-1.4,6.2-2s1.9-0.9,3.7-0.9c1.5,0,3.8,0.9,5.6,3.7"/>
				<path style="fill:none;stroke:#4B508B;stroke-width:0.4664;stroke-linecap:round;stroke-linejoin:round;" d="M666.3,115.2
					c0.1,0.2,0.2,0.3,0.2,0.5"/>
			</g>
		</g>
	</g>
	<g>
		<g>
			<g>
				<path style="fill:none;stroke:#4B508B;stroke-width:0.4664;stroke-linecap:round;stroke-linejoin:round;" d="M252.4,395.4
					c0.1-0.2,0.2-0.3,0.3-0.5"/>
				
					<path style="fill:none;stroke:#4B508B;stroke-width:0.4664;stroke-linecap:round;stroke-linejoin:round;stroke-dasharray:0.9756,1.9512;" d="
					M253.7,393.3c0.9-1.6,1.6-2.9,1.7-4.5"/>
				<path style="fill:none;stroke:#4B508B;stroke-width:0.4664;stroke-linecap:round;stroke-linejoin:round;" d="M255.5,387.8
					c0-0.2,0-0.4,0-0.5"/>
			</g>
		</g>
		<g>
			<g>
				<path style="fill:none;stroke:#D0445C;stroke-width:0.4664;stroke-linecap:round;stroke-linejoin:round;" d="M115.7,387.1
					c0,0,0.1-0.2,0.2-0.5"/>
				
					<path style="fill:none;stroke:#D0445C;stroke-width:0.4664;stroke-linecap:round;stroke-linejoin:round;stroke-dasharray:1.0794,2.1589;" d="
					M116.5,384.6c0.6-1.6,1.3-3.6,1.9-4.9c1.1-2.4,2.7-4.7,5.7-4.7c2.9-0.1,5.1,3.5,5.1,3.5l2.4,4.7c0,0,0.4,0.5,2,0.6
					c1.6,0.1,3.3-0.4,3.3-0.4l5.9-1.9c0,0,2-0.6,2.8-0.7c0.8,0,1-0.1,2.1,0.7c1.2,0.7,3.3,5.4,3.5,5.9c0.2,0.5,1.1,2.7,1.6,3
					c0.6,0.3,1.6,2,2.4,2.5c0.8,0.4,1.5,1,3.2,1c1.6,0.1,4.5-1.2,4.5-1.2l3.9-1.9c0,0,0.8-0.2,1.9-0.2c1.1,0.1,1.6,0.4,1.6,0.4
					l5.9,7l0.7,0.9c0,0,1.1,0.3,1.7,0.3s1.9-0.3,1.9-0.5c0.1-0.2,2.4-2.6,3.1-3.6c0.7-1,2.7-7.1,2.6-7.4c-0.1-0.4,0-3.4,0.3-5.2
					c0.3-1.7,3.5-5.6,4.2-6.3s2.8-0.9,2.8-0.9s1.5,0,1.9,0.3c0.4,0.2,0.9,0.8,1.4,1.4c0.5,0.6,2.4,4.3,3.3,5.5
					c0.9,1.2,2.4,1.5,3.8,1.5s4.2-1.2,4.2-1.2s4.5-1.9,5.8-2c1.3-0.1,1.9-0.2,2.8,0.3c0.9,0.6,2.5,2,3.3,5.4c0.8,3.4,3.3,6,4.9,6.6
					c1.5,0.6,1.1,0.7,3.4,0.6c2.4,0,4.5-1.4,6.2-2c1.6-0.7,1.9-0.9,3.7-0.9c1.8,0,4.5,1.2,6.3,5.2c0.9,2,1.9,2.9,2.7,3.2"/>
				<path style="fill:none;stroke:#D0445C;stroke-width:0.4664;stroke-linecap:round;stroke-linejoin:round;" d="M248.4,398.9
					c0.3,0,0.4,0,0.5,0"/>
			</g>
		</g>
		<g>
			<g>
				<path style="fill:none;stroke:#4B508B;stroke-width:0.4664;stroke-linecap:round;stroke-linejoin:round;" d="M256.3,387.1
					c0,0,0.1-0.2,0.2-0.5"/>
				
					<path style="fill:none;stroke:#4B508B;stroke-width:0.4664;stroke-linecap:round;stroke-linejoin:round;stroke-dasharray:1.0849,2.1697;" d="
					M257.1,384.6c0.6-1.6,1.3-3.6,1.9-4.9c1.1-2.4,2.7-4.7,5.7-4.7s5.1,3.5,5.1,3.5l2.4,4.7c0,0,0.4,0.5,2,0.6
					c1.6,0.1,3.3-0.4,3.3-0.4l5.9-1.9c0,0,2-0.6,2.8-0.7c0.8,0,1-0.1,2.1,0.7c1.2,0.7,3.3,5.4,3.5,5.9c0.2,0.5,1.1,2.7,1.6,3
					c0.6,0.3,1.6,2,2.4,2.5c0.8,0.4,1.5,1,3.2,1c1.6,0.1,4.5-1.2,4.5-1.2l3.9-1.9c0,0,0.8-0.2,1.9-0.2c1.1,0.1,1.6,0.4,1.6,0.4
					l5.9,7l0.7,0.9c0,0,1.1,0.3,1.7,0.3s1.9-0.3,1.9-0.5c0.1-0.2,2.4-2.6,3.1-3.6c0.7-1,2.7-7.1,2.6-7.4c-0.1-0.4,0-3.4,0.3-5.2
					c0.3-1.7,3.5-5.6,4.2-6.3s2.8-0.9,2.8-0.9s1.5,0,1.9,0.3c0.4,0.2,0.9,0.8,1.4,1.4c0.5,0.6,2.4,4.3,3.3,5.5
					c0.9,1.2,2.4,1.5,3.8,1.5s4.2-1.2,4.2-1.2s4.5-1.9,5.8-2c1.3-0.1,1.9-0.2,2.8,0.3c0.9,0.6,2.5,2,3.3,5.4c0.8,3.4,3.3,6,4.9,6.6
					c1.5,0.6,1.1,0.7,3.4,0.6c2.4,0,4.5-1.4,6.2-2c1.6-0.7,1.9-0.9,3.7-0.9c1.8,0,4.5,1.2,6.3,5.2c1.8,4,3.9,3.4,4.3,3.3
					s1.6-0.1,3.5-3.4c1.5-2.7,2.7-4.3,3-6.6"/>
				<path style="fill:none;stroke:#4B508B;stroke-width:0.4664;stroke-linecap:round;stroke-linejoin:round;" d="M396.1,387.8
					c0-0.2,0-0.4,0-0.5"/>
			</g>
		</g>
		<g>
			<g>
				<path style="fill:none;stroke:#4B508B;stroke-width:0.4664;stroke-linecap:round;stroke-linejoin:round;" d="M396.9,387.1
					c0,0,0.1-0.2,0.2-0.5"/>
				
					<path style="fill:none;stroke:#4B508B;stroke-width:0.4664;stroke-linecap:round;stroke-linejoin:round;stroke-dasharray:1.0849,2.1697;" d="
					M397.8,384.6c0.6-1.6,1.3-3.6,1.9-4.9c1.1-2.4,2.7-4.7,5.7-4.7s5.1,3.5,5.1,3.5l2.4,4.7c0,0,0.4,0.5,2,0.6
					c1.6,0.1,3.3-0.4,3.3-0.4l5.9-1.9c0,0,2-0.6,2.8-0.7c0.8,0,1-0.1,2.1,0.7c1.2,0.7,3.3,5.4,3.5,5.9c0.2,0.5,1.1,2.7,1.6,3
					c0.6,0.3,1.6,2,2.4,2.5c0.8,0.4,1.5,1,3.2,1s4.5-1.2,4.5-1.2l3.9-1.9c0,0,0.8-0.2,1.9-0.2s1.6,0.4,1.6,0.4l5.9,7l0.7,0.9
					c0,0,1.1,0.3,1.7,0.3c0.6,0,1.9-0.3,1.9-0.5c0.1-0.2,2.4-2.6,3.1-3.6c0.7-1,2.7-7.1,2.6-7.4c-0.1-0.4,0-3.4,0.3-5.2
					s3.5-5.6,4.2-6.3s2.8-0.9,2.8-0.9s1.5,0,1.9,0.3c0.4,0.2,0.9,0.8,1.4,1.4c0.5,0.6,2.4,4.3,3.3,5.5s2.4,1.5,3.8,1.5
					c1.5,0,4.2-1.2,4.2-1.2s4.5-1.9,5.8-2s1.9-0.2,2.8,0.3c0.9,0.6,2.5,2,3.3,5.4c0.8,3.4,3.3,6,4.9,6.6c1.5,0.6,1.1,0.7,3.4,0.6
					c2.4,0,4.5-1.4,6.2-2s1.9-0.9,3.7-0.9c1.8,0,4.5,1.2,6.3,5.2s3.9,3.4,4.3,3.3s1.6-0.1,3.5-3.4c1.5-2.7,2.7-4.3,3-6.6"/>
				<path style="fill:none;stroke:#4B508B;stroke-width:0.4664;stroke-linecap:round;stroke-linejoin:round;" d="M536.7,387.8
					c0-0.2,0-0.4,0-0.5"/>
			</g>
		</g>
		<g>
			<g>
				<path style="fill:none;stroke:#4B508B;stroke-width:0.4664;stroke-linecap:round;stroke-linejoin:round;" d="M537.5,387.1
					c0,0,0.1-0.2,0.2-0.5"/>
				
					<path style="fill:none;stroke:#4B508B;stroke-width:0.4664;stroke-linecap:round;stroke-linejoin:round;stroke-dasharray:1.083,2.1659;" d="
					M538.4,384.6c0.6-1.6,1.3-3.6,1.9-4.9c1.1-2.4,2.7-4.7,5.7-4.7c2.9-0.1,5.1,3.5,5.1,3.5l2.4,4.7c0,0,0.4,0.5,2,0.6
					c1.6,0.1,3.3-0.4,3.3-0.4l5.9-1.9c0,0,2-0.6,2.8-0.7c0.8,0,1-0.1,2.1,0.7c1.2,0.7,3.3,5.4,3.5,5.9c0.2,0.5,1.1,2.7,1.6,3
					c0.6,0.3,1.6,2,2.4,2.5c0.8,0.4,1.5,1,3.2,1c1.6,0.1,4.5-1.2,4.5-1.2l3.9-1.9c0,0,0.8-0.2,1.9-0.2c1.1,0.1,1.6,0.4,1.6,0.4
					l5.9,7l0.7,0.9c0,0,1.1,0.3,1.7,0.3s1.9-0.3,1.9-0.5c0.1-0.2,2.4-2.6,3.1-3.6c0.7-1,2.7-7.1,2.6-7.4c-0.1-0.4,0-3.4,0.3-5.2
					s3.5-5.6,4.2-6.3s2.8-0.9,2.8-0.9s1.5,0,1.9,0.3c0.4,0.2,0.9,0.8,1.4,1.4c0.5,0.6,2.4,4.3,3.3,5.5s2.4,1.5,3.8,1.5
					s4.2-1.2,4.2-1.2s4.5-1.9,5.8-2c1.3-0.1,1.9-0.2,2.8,0.3c0.9,0.6,2.5,2,3.3,5.4c0.8,3.4,3.3,6,4.9,6.6c1.5,0.6,1.1,0.7,3.4,0.6
					c2.4,0,4.5-1.4,6.2-2s1.9-0.9,3.7-0.9c1.5,0,3.8,0.9,5.6,3.7"/>
				<path style="fill:none;stroke:#4B508B;stroke-width:0.4664;stroke-linecap:round;stroke-linejoin:round;" d="M666.3,395
					c0.1,0.2,0.2,0.3,0.2,0.5"/>
			</g>
		</g>
	</g>
	<g>
		<g>
			<g>
				<path style="fill:none;stroke:#4B508B;stroke-width:0.4664;stroke-linecap:round;stroke-linejoin:round;" d="M252.4,188.6
					c0.2,0,0.4,0,0.6,0"/>
				
					<path style="fill:none;stroke:#4B508B;stroke-width:0.4664;stroke-linecap:round;stroke-linejoin:round;stroke-dasharray:1.227,2.4539;" d="
					M255.5,188.6c0.2,0.1,0.4,0.1,0.6,0.2c1.2,0.6,3.2,2,4.3,5.4c1,3.4,4.3,6,6.3,6.6c2,0.6,1.4,0.7,4.4,0.6c3,0,5.9-1.4,7.9-2
					c2.1-0.7,2.5-0.9,4.8-0.9s5.9,1.2,8.2,5.2s5,3.4,5.5,3.3c0.5,0,2.1-0.1,4.5-3.4c1.9-2.6,3.4-4.2,3.8-6.4"/>
				<path style="fill:none;stroke:#4B508B;stroke-width:0.4664;stroke-linecap:round;stroke-linejoin:round;" d="M305.8,195.9
					c0-0.2,0-0.4,0-0.6"/>
			</g>
		</g>
		<g>
			<g>
				<path style="fill:none;stroke:#D0445C;stroke-width:0.4664;stroke-linecap:round;stroke-linejoin:round;" d="M125.5,195.2
					c0,0,0.1-0.2,0.2-0.6"/>
				
					<path style="fill:none;stroke:#D0445C;stroke-width:0.4664;stroke-linecap:round;stroke-linejoin:round;stroke-dasharray:1.2185,2.4371;" d="
					M126.7,192.4c0.7-1.6,1.6-3.5,2.3-4.6c1.4-2.4,3.5-4.7,7.3-4.7c3.8-0.1,6.6,3.5,6.6,3.5l3.1,4.7c0,0,0.5,0.5,2.6,0.6
					c2.1,0.1,4.2-0.4,4.2-0.4l7.6-1.9c0,0,2.6-0.6,3.6-0.7c1,0,1.3-0.1,2.8,0.7c1.5,0.7,4.3,5.4,4.5,5.9c0.3,0.5,1.4,2.7,2.1,3
					c0.7,0.3,2.1,2,3.1,2.5c1,0.4,2,1,4.1,1c2.1,0.1,5.8-1.2,5.8-1.2l5.1-1.9c0,0,1-0.2,2.4-0.2c1.4,0.1,2.1,0.4,2.1,0.4l7.6,7
					l0.9,0.9c0,0,1.5,0.3,2.2,0.3s2.4-0.3,2.5-0.5c0.1-0.2,3-2.6,4-3.6c0.9-1,3.5-7.1,3.3-7.4s0-3.4,0.4-5.2s4.5-5.6,5.4-6.3
					s3.6-0.9,3.6-0.9s2,0,2.5,0.3c0.5,0.2,1.2,0.8,1.8,1.4c0.6,0.6,3.1,4.3,4.3,5.5c1.2,1.2,3,1.5,4.9,1.5c1,0,2.5-0.4,3.7-0.7"/>
				<path style="fill:none;stroke:#D0445C;stroke-width:0.4664;stroke-linecap:round;stroke-linejoin:round;" d="M244.4,190.8
					c0.4-0.1,0.6-0.2,0.6-0.2"/>
			</g>
		</g>
		<g>
			<g>
				<path style="fill:none;stroke:#4B508B;stroke-width:0.4664;stroke-linecap:round;stroke-linejoin:round;" d="M306.9,195.2
					c0,0,0.1-0.2,0.2-0.6"/>
				
					<path style="fill:none;stroke:#4B508B;stroke-width:0.4664;stroke-linecap:round;stroke-linejoin:round;stroke-dasharray:1.2233,2.4467;" d="
					M308.1,192.4c0.7-1.6,1.6-3.5,2.3-4.6c1.4-2.4,3.5-4.7,7.3-4.7s6.6,3.5,6.6,3.5l3.1,4.7c0,0,0.5,0.5,2.6,0.6
					c2.1,0.1,4.2-0.4,4.2-0.4l7.6-1.9c0,0,2.6-0.6,3.6-0.7c1,0,1.3-0.1,2.8,0.7c1.5,0.7,4.3,5.4,4.5,5.9c0.3,0.5,1.4,2.7,2.1,3
					c0.7,0.3,2.1,2,3.1,2.5c1,0.4,2,1,4.1,1c2.1,0.1,5.8-1.2,5.8-1.2l5.1-1.9c0,0,1-0.2,2.4-0.2c1.4,0.1,2.1,0.4,2.1,0.4l7.6,7
					l0.9,0.9c0,0,1.5,0.3,2.2,0.3c0.7,0,2.4-0.3,2.5-0.5c0.1-0.2,3-2.6,4-3.6c0.9-1,3.5-7.1,3.3-7.4c-0.1-0.4,0-3.4,0.4-5.2
					s4.5-5.6,5.4-6.3s3.6-0.9,3.6-0.9s2,0,2.5,0.3c0.5,0.2,1.2,0.8,1.8,1.4c0.6,0.6,3.1,4.3,4.3,5.5c1.2,1.2,3,1.5,4.9,1.5
					s5.4-1.2,5.4-1.2s5.8-1.9,7.5-2c1.7-0.1,2.5-0.2,3.6,0.3c1.2,0.6,3.2,2,4.3,5.4c1,3.4,4.3,6,6.3,6.6c2,0.6,1.4,0.7,4.4,0.6
					s5.9-1.4,7.9-2c2.1-0.7,2.5-0.9,4.8-0.9s5.9,1.2,8.2,5.2s5,3.4,5.5,3.3s2.1-0.1,4.5-3.4c1.9-2.6,3.4-4.2,3.8-6.4"/>
				<path style="fill:none;stroke:#4B508B;stroke-width:0.4664;stroke-linecap:round;stroke-linejoin:round;" d="M487.2,195.9
					c0-0.2,0-0.4,0-0.6"/>
			</g>
		</g>
		<g>
			<g>
				<path style="fill:none;stroke:#4B508B;stroke-width:0.4664;stroke-linecap:round;stroke-linejoin:round;" d="M487.6,195.2
					c0,0,0.1-0.2,0.2-0.6"/>
				
					<path style="fill:none;stroke:#4B508B;stroke-width:0.4664;stroke-linecap:round;stroke-linejoin:round;stroke-dasharray:1.2327,2.4654;" d="
					M488.8,192.4c0.7-1.6,1.6-3.4,2.3-4.6c1.4-2.4,3.5-4.7,7.3-4.7s6.6,3.5,6.6,3.5l3.1,4.7c0,0,0.5,0.5,2.6,0.6
					c2.1,0.1,4.2-0.4,4.2-0.4l7.6-1.9c0,0,2.6-0.6,3.6-0.7c1,0,1.3-0.1,2.8,0.7c1.5,0.7,4.3,5.4,4.5,5.9c0.3,0.5,1.4,2.7,2.1,3
					c0.7,0.3,2.1,2,3.1,2.5c1,0.4,2,1,4.1,1c2.1,0.1,5.8-1.2,5.8-1.2l5.1-1.9c0,0,1-0.2,2.4-0.2s2.1,0.4,2.1,0.4l7.6,7l0.9,0.9
					c0,0,1.5,0.3,2.2,0.3c0.7,0,2.4-0.3,2.5-0.5c0.1-0.2,3-2.6,4-3.6c0.9-1,3.5-7.1,3.3-7.4c-0.1-0.4,0-3.4,0.4-5.2s4.5-5.6,5.4-6.3
					c0.9-0.8,3.6-0.9,3.6-0.9s2,0,2.5,0.3c0.5,0.2,1.2,0.8,1.8,1.4c0.6,0.6,3.1,4.3,4.3,5.5c1.2,1.2,3,1.5,4.9,1.5
					c1.9,0,5.4-1.2,5.4-1.2s5.8-1.9,7.5-2s2.5-0.2,3.6,0.3c1.2,0.6,3.2,2,4.3,5.4c1,3.4,4.3,6,6.3,6.6c2,0.6,1.4,0.7,4.4,0.6
					s5.9-1.4,7.9-2c2.1-0.7,2.5-0.9,4.8-0.9s5.9,1.2,8.2,5.2c2.3,4,5,3.4,5.5,3.3c0.4,0,1.6-0.1,3.3-2"/>
				<path style="fill:none;stroke:#4B508B;stroke-width:0.4664;stroke-linecap:round;stroke-linejoin:round;" d="M663.7,204
					c0.1-0.2,0.2-0.3,0.4-0.5"/>
			</g>
		</g>
	</g>
	<g>
		<g>
			<g>
				<path style="fill:none;stroke:#4B508B;stroke-width:0.4664;stroke-linecap:round;stroke-linejoin:round;" d="M252.4,424.2
					c0.2,0,0.4,0,0.6,0"/>
				
					<path style="fill:none;stroke:#4B508B;stroke-width:0.4664;stroke-linecap:round;stroke-linejoin:round;stroke-dasharray:1.227,2.4539;" d="
					M255.5,424.3c0.2,0.1,0.4,0.1,0.6,0.2c1.2,0.6,3.2,2,4.3,5.4c1,3.4,4.3,6,6.3,6.6s1.4,0.7,4.4,0.6c3,0,5.9-1.4,7.9-2
					c2.1-0.7,2.5-0.9,4.8-0.9s5.9,1.2,8.2,5.2s5,3.4,5.5,3.3c0.5,0,2.1-0.1,4.5-3.4c1.9-2.6,3.4-4.2,3.8-6.4"/>
				<path style="fill:none;stroke:#4B508B;stroke-width:0.4664;stroke-linecap:round;stroke-linejoin:round;" d="M305.8,431.6
					c0-0.2,0-0.4,0-0.6"/>
			</g>
		</g>
		<g>
			<g>
				<path style="fill:none;stroke:#D0445C;stroke-width:0.4664;stroke-linecap:round;stroke-linejoin:round;" d="M125.5,430.9
					c0,0,0.1-0.2,0.2-0.6"/>
				
					<path style="fill:none;stroke:#D0445C;stroke-width:0.4664;stroke-linecap:round;stroke-linejoin:round;stroke-dasharray:1.2185,2.4371;" d="
					M126.7,428.1c0.7-1.6,1.6-3.5,2.3-4.6c1.4-2.4,3.5-4.7,7.3-4.7c3.8-0.1,6.6,3.5,6.6,3.5l3.1,4.7c0,0,0.5,0.5,2.6,0.6
					c2.1,0.1,4.2-0.4,4.2-0.4l7.6-1.9c0,0,2.6-0.6,3.6-0.7c1,0,1.3-0.1,2.8,0.7c1.5,0.7,4.3,5.4,4.5,5.9c0.3,0.5,1.4,2.7,2.1,3
					s2.1,2,3.1,2.5c1,0.4,2,1,4.1,1s5.8-1.2,5.8-1.2l5.1-1.9c0,0,1-0.2,2.4-0.2c1.4,0.1,2.1,0.4,2.1,0.4l7.6,7l0.9,0.9
					c0,0,1.5,0.3,2.2,0.3s2.4-0.3,2.5-0.5c0.1-0.2,3-2.6,4-3.6s3.5-7.1,3.3-7.4s0-3.4,0.4-5.2c0.4-1.7,4.5-5.6,5.4-6.3
					s3.6-0.9,3.6-0.9s2,0,2.5,0.3c0.5,0.2,1.2,0.8,1.8,1.4c0.6,0.6,3.1,4.3,4.3,5.5c1.2,1.2,3,1.5,4.9,1.5c1,0,2.5-0.4,3.7-0.7"/>
				<path style="fill:none;stroke:#D0445C;stroke-width:0.4664;stroke-linecap:round;stroke-linejoin:round;" d="M244.4,426.4
					c0.4-0.1,0.6-0.2,0.6-0.2"/>
			</g>
		</g>
		<g>
			<g>
				<path style="fill:none;stroke:#4B508B;stroke-width:0.4664;stroke-linecap:round;stroke-linejoin:round;" d="M306.9,430.9
					c0,0,0.1-0.2,0.2-0.6"/>
				
					<path style="fill:none;stroke:#4B508B;stroke-width:0.4664;stroke-linecap:round;stroke-linejoin:round;stroke-dasharray:1.2233,2.4467;" d="
					M308.1,428.1c0.7-1.6,1.6-3.5,2.3-4.6c1.4-2.4,3.5-4.7,7.3-4.7s6.6,3.5,6.6,3.5l3.1,4.7c0,0,0.5,0.5,2.6,0.6
					c2.1,0.1,4.2-0.4,4.2-0.4l7.6-1.9c0,0,2.6-0.6,3.6-0.7c1,0,1.3-0.1,2.8,0.7c1.5,0.7,4.3,5.4,4.5,5.9c0.3,0.5,1.4,2.7,2.1,3
					c0.7,0.3,2.1,2,3.1,2.5c1,0.4,2,1,4.1,1c2.1,0.1,5.8-1.2,5.8-1.2l5.1-1.9c0,0,1-0.2,2.4-0.2c1.4,0.1,2.1,0.4,2.1,0.4l7.6,7
					l0.9,0.9c0,0,1.5,0.3,2.2,0.3c0.7,0,2.4-0.3,2.5-0.5c0.1-0.2,3-2.6,4-3.6c0.9-1,3.5-7.1,3.3-7.4c-0.1-0.4,0-3.4,0.4-5.2
					c0.4-1.7,4.5-5.6,5.4-6.3s3.6-0.9,3.6-0.9s2,0,2.5,0.3c0.5,0.2,1.2,0.8,1.8,1.4c0.6,0.6,3.1,4.3,4.3,5.5c1.2,1.2,3,1.5,4.9,1.5
					c1.9,0,5.4-1.2,5.4-1.2s5.8-1.9,7.5-2c1.7-0.1,2.5-0.2,3.6,0.3c1.2,0.6,3.2,2,4.3,5.4c1,3.4,4.3,6,6.3,6.6s1.4,0.7,4.4,0.6
					s5.9-1.4,7.9-2c2.1-0.7,2.5-0.9,4.8-0.9s5.9,1.2,8.2,5.2s5,3.4,5.5,3.3s2.1-0.1,4.5-3.4c1.9-2.6,3.4-4.2,3.8-6.4"/>
				<path style="fill:none;stroke:#4B508B;stroke-width:0.4664;stroke-linecap:round;stroke-linejoin:round;" d="M487.2,431.6
					c0-0.2,0-0.4,0-0.6"/>
			</g>
		</g>
		<g>
			<g>
				<path style="fill:none;stroke:#4B508B;stroke-width:0.4664;stroke-linecap:round;stroke-linejoin:round;" d="M487.6,430.9
					c0,0,0.1-0.2,0.2-0.6"/>
				
					<path style="fill:none;stroke:#4B508B;stroke-width:0.4664;stroke-linecap:round;stroke-linejoin:round;stroke-dasharray:1.2327,2.4654;" d="
					M488.8,428.1c0.7-1.6,1.6-3.4,2.3-4.6c1.4-2.4,3.5-4.7,7.3-4.7s6.6,3.5,6.6,3.5l3.1,4.7c0,0,0.5,0.5,2.6,0.6
					c2.1,0.1,4.2-0.4,4.2-0.4l7.6-1.9c0,0,2.6-0.6,3.6-0.7c1,0,1.3-0.1,2.8,0.7c1.5,0.7,4.3,5.4,4.5,5.9s1.4,2.7,2.1,3
					c0.7,0.3,2.1,2,3.1,2.5s2,1,4.1,1c2.1,0.1,5.8-1.2,5.8-1.2l5.1-1.9c0,0,1-0.2,2.4-0.2s2.1,0.4,2.1,0.4l7.6,7l0.9,0.9
					c0,0,1.5,0.3,2.2,0.3c0.7,0,2.4-0.3,2.5-0.5c0.1-0.2,3-2.6,4-3.6c0.9-1,3.5-7.1,3.3-7.4c-0.1-0.4,0-3.4,0.4-5.2
					c0.4-1.7,4.5-5.6,5.4-6.3c0.9-0.8,3.6-0.9,3.6-0.9s2,0,2.5,0.3c0.5,0.2,1.2,0.8,1.8,1.4c0.6,0.6,3.1,4.3,4.3,5.5
					c1.2,1.2,3,1.5,4.9,1.5c1.9,0,5.4-1.2,5.4-1.2s5.8-1.9,7.5-2c1.7-0.1,2.5-0.2,3.6,0.3c1.2,0.6,3.2,2,4.3,5.4
					c1,3.4,4.3,6,6.3,6.6c2,0.6,1.4,0.7,4.4,0.6s5.9-1.4,7.9-2c2.1-0.7,2.5-0.9,4.8-0.9s5.9,1.2,8.2,5.2c2.3,4,5,3.4,5.5,3.3
					c0.4,0,1.6-0.1,3.3-2"/>
				<path style="fill:none;stroke:#4B508B;stroke-width:0.4664;stroke-linecap:round;stroke-linejoin:round;" d="M663.7,439.7
					c0.1-0.2,0.2-0.3,0.4-0.5"/>
			</g>
		</g>
	</g>
	<g>
		<g>
			<g>
				<path style="fill:none;stroke:#D0445C;stroke-width:0.4664;stroke-linecap:round;stroke-linejoin:round;" d="M129,240.3
					c0,0,0-0.2,0.1-0.5"/>
				
					<path style="fill:none;stroke:#D0445C;stroke-width:0.4664;stroke-linecap:round;stroke-linejoin:round;stroke-dasharray:1.1063,2.2125;" d="
					M129.5,237.6c0.3-1.6,0.6-3.5,0.9-4.7c0.5-2.4,1.3-4.7,2.7-4.7c1.4-0.1,2.5,3.5,2.5,3.5l1.1,4.7c0,0,0.2,0.5,1,0.6
					s1.6-0.4,1.6-0.4l2.8-1.9c0,0,1-0.6,1.3-0.7c0.4,0,0.5-0.1,1,0.7s1.6,5.4,1.7,5.9c0.1,0.5,0.5,2.7,0.8,3c0.3,0.3,0.8,2,1.2,2.5
					c0.4,0.4,0.7,1,1.5,1c0.8,0.1,2.2-1.2,2.2-1.2l1.9-1.9c0,0,0.4-0.2,0.9-0.2c0.5,0.1,0.8,0.4,0.8,0.4l2.9,7l0.4,0.9
					c0,0,0.5,0.3,0.8,0.3c0.3,0,0.9-0.3,0.9-0.5c0-0.2,1.1-2.6,1.5-3.6c0.4-1,1.3-7.1,1.3-7.4s0-3.4,0.2-5.2c0.2-1.7,1.7-5.6,2-6.3
					c0.4-0.8,1.3-0.9,1.3-0.9s0.7,0,0.9,0.3c0.2,0.2,0.4,0.8,0.7,1.4s1.2,4.3,1.6,5.5s1.1,1.5,1.8,1.5s2-1.2,2-1.2s2.1-1.9,2.8-2
					c0.6-0.1,0.9-0.2,1.3,0.3c0.4,0.6,1.2,2,1.6,5.4c0.4,3.4,1.6,6,2.3,6.6c0.7,0.6,0.5,0.7,1.6,0.6c1.1,0,2.2-1.4,3-2
					s0.9-0.9,1.8-0.9c0.9,0,2.2,1.2,3,5.2c0.9,4,1.9,3.4,2.1,3.3c0.2,0,0.8-0.1,1.7-3.4c0.7-2.7,1.3-4.3,1.4-6.5"/>
				<path style="fill:none;stroke:#D0445C;stroke-width:0.4664;stroke-linecap:round;stroke-linejoin:round;" d="M196.4,241
					c0-0.2,0-0.4,0-0.6"/>
			</g>
		</g>
		<g>
			<g>
				<path style="fill:none;stroke:#4B508B;stroke-width:0.4664;stroke-linecap:round;stroke-linejoin:round;" d="M254.1,244.5
					c0.2-0.1,0.3-0.3,0.4-0.4"/>
				
					<path style="fill:none;stroke:#4B508B;stroke-width:0.4664;stroke-linecap:round;stroke-linejoin:round;stroke-dasharray:1.0389,2.0778;" d="
					M256.4,243.7c0.8,0.4,1.8,1.8,2.5,5c0.9,4,1.9,3.4,2.1,3.3c0.2,0,0.8-0.1,1.7-3.4c0.7-2.7,1.3-4.4,1.4-6.6"/>
				<path style="fill:none;stroke:#4B508B;stroke-width:0.4664;stroke-linecap:round;stroke-linejoin:round;" d="M264.1,241
					c0-0.2,0-0.4,0-0.6"/>
			</g>
		</g>
		<g>
			<g>
				<path style="fill:none;stroke:#D0445C;stroke-width:0.4664;stroke-linecap:round;stroke-linejoin:round;" d="M196.8,240.3
					c0,0,0-0.2,0.1-0.5"/>
				
					<path style="fill:none;stroke:#D0445C;stroke-width:0.4664;stroke-linecap:round;stroke-linejoin:round;stroke-dasharray:1.0953,2.1906;" d="
					M197.2,237.6c0.3-1.6,0.6-3.5,0.9-4.7c0.5-2.4,1.3-4.7,2.7-4.7c1.4-0.1,2.5,3.5,2.5,3.5l1.1,4.7c0,0,0.2,0.5,1,0.6
					s1.6-0.4,1.6-0.4l2.8-1.9c0,0,1-0.6,1.3-0.7c0.4,0,0.5-0.1,1,0.7s1.6,5.4,1.7,5.9c0.1,0.5,0.5,2.7,0.8,3c0.3,0.3,0.8,2,1.2,2.5
					c0.4,0.4,0.7,1,1.5,1c0.8,0.1,2.2-1.2,2.2-1.2l1.9-1.9c0,0,0.4-0.2,0.9-0.2c0.5,0.1,0.8,0.4,0.8,0.4l2.9,7l0.4,0.9
					c0,0,0.5,0.3,0.8,0.3c0.3,0,0.9-0.3,0.9-0.5c0-0.2,1.1-2.6,1.5-3.6c0.4-1,1.3-7.1,1.3-7.4s0-3.4,0.2-5.2c0.2-1.7,1.7-5.6,2-6.3
					c0.4-0.8,1.3-0.9,1.3-0.9s0.7,0,0.9,0.3c0.2,0.2,0.4,0.8,0.7,1.4s1.2,4.3,1.6,5.5s1.1,1.5,1.8,1.5c0.7,0,2-1.2,2-1.2
					s2.1-1.9,2.8-2c0.6-0.1,0.9-0.2,1.3,0.3c0.4,0.5,0.9,1.5,1.4,3.7"/>
				<path style="fill:none;stroke:#D0445C;stroke-width:0.4664;stroke-linecap:round;stroke-linejoin:round;" d="M247,238.8
					c0,0.2,0,0.4,0.1,0.5"/>
			</g>
		</g>
		<g>
			<g>
				<path style="fill:none;stroke:#4B508B;stroke-width:0.4664;stroke-linecap:round;stroke-linejoin:round;" d="M264.5,240.3
					c0,0,0-0.2,0.1-0.5"/>
				
					<path style="fill:none;stroke:#4B508B;stroke-width:0.4664;stroke-linecap:round;stroke-linejoin:round;stroke-dasharray:1.1063,2.2125;" d="
					M265,237.6c0.3-1.6,0.6-3.5,0.9-4.7c0.5-2.4,1.3-4.7,2.7-4.7c1.4-0.1,2.5,3.5,2.5,3.5l1.1,4.7c0,0,0.2,0.5,1,0.6
					s1.6-0.4,1.6-0.4l2.8-1.9c0,0,1-0.6,1.3-0.7c0.4,0,0.5-0.1,1,0.7s1.6,5.4,1.7,5.9c0.1,0.5,0.5,2.7,0.8,3c0.3,0.3,0.8,2,1.2,2.5
					c0.4,0.4,0.7,1,1.5,1c0.8,0.1,2.2-1.2,2.2-1.2l1.9-1.9c0,0,0.4-0.2,0.9-0.2c0.5,0.1,0.8,0.4,0.8,0.4l2.9,7l0.4,0.9
					c0,0,0.5,0.3,0.8,0.3c0.3,0,0.9-0.3,0.9-0.5c0-0.2,1.1-2.6,1.5-3.6c0.4-1,1.3-7.1,1.3-7.4s0-3.4,0.2-5.2c0.2-1.7,1.7-5.6,2-6.3
					c0.4-0.8,1.3-0.9,1.3-0.9s0.7,0,0.9,0.3c0.2,0.2,0.4,0.8,0.7,1.4s1.2,4.3,1.6,5.5s1.1,1.5,1.8,1.5c0.7,0,2-1.2,2-1.2
					s2.1-1.9,2.8-2c0.6-0.1,0.9-0.2,1.3,0.3c0.4,0.6,1.2,2,1.6,5.4c0.4,3.4,1.6,6,2.3,6.6c0.7,0.6,0.5,0.7,1.6,0.6
					c1.1,0,2.2-1.4,3-2s0.9-0.9,1.8-0.9c0.9,0,2.2,1.2,3,5.2c0.9,4,1.9,3.4,2.1,3.3c0.2,0,0.8-0.1,1.7-3.4c0.7-2.7,1.3-4.3,1.4-6.5"
					/>
				<path style="fill:none;stroke:#4B508B;stroke-width:0.4664;stroke-linecap:round;stroke-linejoin:round;" d="M331.9,241
					c0-0.2,0-0.4,0-0.6"/>
			</g>
		</g>
		<g>
			<g>
				<path style="fill:none;stroke:#4B508B;stroke-width:0.4664;stroke-linecap:round;stroke-linejoin:round;" d="M332.3,240.3
					c0,0,0-0.2,0.1-0.5"/>
				
					<path style="fill:none;stroke:#4B508B;stroke-width:0.4664;stroke-linecap:round;stroke-linejoin:round;stroke-dasharray:1.1063,2.2125;" d="
					M332.7,237.6c0.3-1.6,0.6-3.5,0.9-4.7c0.5-2.4,1.3-4.7,2.7-4.7c1.4-0.1,2.5,3.5,2.5,3.5l1.1,4.7c0,0,0.2,0.5,1,0.6
					s1.6-0.4,1.6-0.4l2.8-1.9c0,0,1-0.6,1.3-0.7c0.4,0,0.5-0.1,1,0.7s1.6,5.4,1.7,5.9c0.1,0.5,0.5,2.7,0.8,3c0.3,0.3,0.8,2,1.2,2.5
					c0.4,0.4,0.7,1,1.5,1c0.8,0.1,2.2-1.2,2.2-1.2l1.9-1.9c0,0,0.4-0.2,0.9-0.2c0.5,0.1,0.8,0.4,0.8,0.4l2.9,7l0.4,0.9
					c0,0,0.5,0.3,0.8,0.3c0.3,0,0.9-0.3,0.9-0.5c0-0.2,1.1-2.6,1.5-3.6c0.4-1,1.3-7.1,1.3-7.4s0-3.4,0.2-5.2c0.2-1.7,1.7-5.6,2-6.3
					c0.4-0.8,1.3-0.9,1.3-0.9s0.7,0,0.9,0.3c0.2,0.2,0.4,0.8,0.7,1.4c0.2,0.6,1.2,4.3,1.6,5.5s1.1,1.5,1.8,1.5c0.7,0,2-1.2,2-1.2
					s2.1-1.9,2.8-2c0.6-0.1,0.9-0.2,1.3,0.3c0.4,0.6,1.2,2,1.6,5.4c0.4,3.4,1.6,6,2.3,6.6c0.7,0.6,0.5,0.7,1.6,0.6
					c1.1,0,2.2-1.4,3-2c0.8-0.7,0.9-0.9,1.8-0.9c0.9,0,2.2,1.2,3,5.2c0.9,4,1.9,3.4,2.1,3.3c0.2,0,0.8-0.1,1.7-3.4
					c0.7-2.7,1.3-4.3,1.4-6.5"/>
				<path style="fill:none;stroke:#4B508B;stroke-width:0.4664;stroke-linecap:round;stroke-linejoin:round;" d="M399.6,241
					c0-0.2,0-0.4,0-0.6"/>
			</g>
		</g>
	</g>
	<g>
		<g>
			<g>
				<path style="fill:none;stroke:#4B508B;stroke-width:0.4664;stroke-linecap:round;stroke-linejoin:round;" d="M399.8,240.3
					c0,0,0-0.2,0.1-0.5"/>
				
					<path style="fill:none;stroke:#4B508B;stroke-width:0.4664;stroke-linecap:round;stroke-linejoin:round;stroke-dasharray:1.1063,2.2125;" d="
					M400.3,237.6c0.3-1.6,0.6-3.5,0.9-4.7c0.5-2.4,1.3-4.7,2.7-4.7s2.5,3.5,2.5,3.5l1.1,4.7c0,0,0.2,0.5,1,0.6
					c0.8,0.1,1.6-0.4,1.6-0.4l2.8-1.9c0,0,1-0.6,1.3-0.7c0.4,0,0.5-0.1,1,0.7s1.6,5.4,1.7,5.9c0.1,0.5,0.5,2.7,0.8,3
					c0.3,0.3,0.8,2,1.2,2.5c0.4,0.4,0.7,1,1.5,1c0.8,0.1,2.2-1.2,2.2-1.2l1.9-1.9c0,0,0.4-0.2,0.9-0.2c0.5,0.1,0.8,0.4,0.8,0.4
					l2.9,7l0.4,0.9c0,0,0.5,0.3,0.8,0.3c0.3,0,0.9-0.3,0.9-0.5c0-0.2,1.1-2.6,1.5-3.6c0.4-1,1.3-7.1,1.3-7.4s0-3.4,0.2-5.2
					c0.2-1.7,1.7-5.6,2-6.3c0.4-0.8,1.3-0.9,1.3-0.9s0.7,0,0.9,0.3c0.2,0.2,0.4,0.8,0.7,1.4c0.2,0.6,1.2,4.3,1.6,5.5
					c0.4,1.2,1.1,1.5,1.8,1.5s2-1.2,2-1.2s2.1-1.9,2.8-2c0.6-0.1,0.9-0.2,1.3,0.3c0.4,0.6,1.2,2,1.6,5.4s1.6,6,2.3,6.6
					c0.7,0.6,0.5,0.7,1.6,0.6c1.1,0,2.2-1.4,3-2c0.8-0.7,0.9-0.9,1.8-0.9c0.9,0,2.2,1.2,3,5.2c0.9,4,1.9,3.4,2.1,3.3
					c0.2,0,0.8-0.1,1.7-3.4c0.7-2.7,1.3-4.3,1.4-6.5"/>
				<path style="fill:none;stroke:#4B508B;stroke-width:0.4664;stroke-linecap:round;stroke-linejoin:round;" d="M467.2,241
					c0-0.2,0-0.4,0-0.6"/>
			</g>
		</g>
		<g>
			<g>
				<path style="fill:none;stroke:#4B508B;stroke-width:0.4664;stroke-linecap:round;stroke-linejoin:round;" d="M467.6,240.3
					c0,0,0-0.2,0.1-0.5"/>
				
					<path style="fill:none;stroke:#4B508B;stroke-width:0.4664;stroke-linecap:round;stroke-linejoin:round;stroke-dasharray:1.1063,2.2125;" d="
					M468,237.6c0.3-1.6,0.6-3.5,0.9-4.7c0.5-2.4,1.3-4.7,2.7-4.7s2.5,3.5,2.5,3.5l1.1,4.7c0,0,0.2,0.5,1,0.6
					c0.8,0.1,1.6-0.4,1.6-0.4l2.8-1.9c0,0,1-0.6,1.3-0.7c0.4,0,0.5-0.1,1,0.7s1.6,5.4,1.7,5.9c0.1,0.5,0.5,2.7,0.8,3
					c0.3,0.3,0.8,2,1.2,2.5c0.4,0.4,0.7,1,1.5,1c0.8,0.1,2.2-1.2,2.2-1.2l1.9-1.9c0,0,0.4-0.2,0.9-0.2c0.5,0.1,0.8,0.4,0.8,0.4
					l2.9,7l0.4,0.9c0,0,0.5,0.3,0.8,0.3c0.3,0,0.9-0.3,0.9-0.5c0-0.2,1.1-2.6,1.5-3.6c0.4-1,1.3-7.1,1.3-7.4s0-3.4,0.2-5.2
					c0.2-1.7,1.7-5.6,2-6.3c0.4-0.8,1.3-0.9,1.3-0.9s0.7,0,0.9,0.3c0.2,0.2,0.4,0.8,0.7,1.4c0.2,0.6,1.2,4.3,1.6,5.5
					c0.4,1.2,1.1,1.5,1.8,1.5s2-1.2,2-1.2s2.1-1.9,2.8-2c0.6-0.1,0.9-0.2,1.3,0.3c0.4,0.6,1.2,2,1.6,5.4s1.6,6,2.3,6.6
					c0.7,0.6,0.5,0.7,1.6,0.6c1.1,0,2.2-1.4,3-2c0.8-0.7,0.9-0.9,1.8-0.9c0.9,0,2.2,1.2,3,5.2c0.9,4,1.9,3.4,2.1,3.3
					c0.2,0,0.8-0.1,1.7-3.4c0.7-2.7,1.3-4.3,1.4-6.5"/>
				<path style="fill:none;stroke:#4B508B;stroke-width:0.4664;stroke-linecap:round;stroke-linejoin:round;" d="M534.9,241
					c0-0.2,0-0.4,0-0.6"/>
			</g>
		</g>
		<g>
			<g>
				<path style="fill:none;stroke:#4B508B;stroke-width:0.4664;stroke-linecap:round;stroke-linejoin:round;" d="M535.3,240.3
					c0,0,0-0.2,0.1-0.5"/>
				
					<path style="fill:none;stroke:#4B508B;stroke-width:0.4664;stroke-linecap:round;stroke-linejoin:round;stroke-dasharray:1.1063,2.2125;" d="
					M535.8,237.6c0.3-1.6,0.6-3.5,0.9-4.7c0.5-2.4,1.3-4.7,2.7-4.7s2.5,3.5,2.5,3.5l1.1,4.7c0,0,0.2,0.5,1,0.6
					c0.8,0.1,1.6-0.4,1.6-0.4l2.8-1.9c0,0,1-0.6,1.3-0.7c0.4,0,0.5-0.1,1,0.7c0.6,0.7,1.6,5.4,1.7,5.9c0.1,0.5,0.5,2.7,0.8,3
					c0.3,0.3,0.8,2,1.2,2.5c0.4,0.4,0.7,1,1.5,1c0.8,0.1,2.2-1.2,2.2-1.2l1.9-1.9c0,0,0.4-0.2,0.9-0.2c0.5,0.1,0.8,0.4,0.8,0.4
					l2.9,7l0.4,0.9c0,0,0.5,0.3,0.8,0.3c0.3,0,0.9-0.3,0.9-0.5c0-0.2,1.1-2.6,1.5-3.6c0.4-1,1.3-7.1,1.3-7.4s0-3.4,0.2-5.2
					c0.2-1.7,1.7-5.6,2-6.3c0.4-0.8,1.3-0.9,1.3-0.9s0.7,0,0.9,0.3c0.2,0.2,0.4,0.8,0.7,1.4c0.2,0.6,1.2,4.3,1.6,5.5
					c0.4,1.2,1.1,1.5,1.8,1.5s2-1.2,2-1.2s2.1-1.9,2.8-2c0.6-0.1,0.9-0.2,1.3,0.3c0.4,0.6,1.2,2,1.6,5.4s1.6,6,2.3,6.6
					c0.7,0.6,0.5,0.7,1.6,0.6c1.1,0,2.2-1.4,3-2c0.8-0.7,0.9-0.9,1.8-0.9c0.9,0,2.2,1.2,3,5.2c0.9,4,1.9,3.4,2.1,3.3
					c0.2,0,0.8-0.1,1.7-3.4c0.7-2.7,1.3-4.3,1.4-6.5"/>
				<path style="fill:none;stroke:#4B508B;stroke-width:0.4664;stroke-linecap:round;stroke-linejoin:round;" d="M602.7,241
					c0-0.2,0-0.4,0-0.6"/>
			</g>
		</g>
		<g>
			<g>
				<path style="fill:none;stroke:#4B508B;stroke-width:0.4664;stroke-linecap:round;stroke-linejoin:round;" d="M603.1,240.3
					c0,0,0-0.2,0.1-0.5"/>
				
					<path style="fill:none;stroke:#4B508B;stroke-width:0.4664;stroke-linecap:round;stroke-linejoin:round;stroke-dasharray:1.1062,2.2124;" d="
					M603.5,237.6c0.3-1.6,0.6-3.5,0.9-4.7c0.5-2.4,1.3-4.7,2.7-4.7c1.4-0.1,2.5,3.5,2.5,3.5l1.1,4.7c0,0,0.2,0.5,1,0.6
					s1.6-0.4,1.6-0.4l2.8-1.9c0,0,1-0.6,1.3-0.7c0.4,0,0.5-0.1,1,0.7s1.6,5.4,1.7,5.9c0.1,0.5,0.5,2.7,0.8,3c0.3,0.3,0.8,2,1.2,2.5
					c0.4,0.4,0.7,1,1.5,1c0.8,0.1,2.2-1.2,2.2-1.2l1.9-1.9c0,0,0.4-0.2,0.9-0.2c0.5,0.1,0.8,0.4,0.8,0.4l2.9,7l0.4,0.9
					c0,0,0.5,0.3,0.8,0.3c0.3,0,0.9-0.3,0.9-0.5c0-0.2,1.1-2.6,1.5-3.6c0.4-1,1.3-7.1,1.3-7.4s0-3.4,0.2-5.2c0.2-1.7,1.7-5.6,2-6.3
					c0.4-0.8,1.3-0.9,1.3-0.9s0.7,0,0.9,0.3c0.2,0.2,0.4,0.8,0.7,1.4c0.2,0.6,1.2,4.3,1.6,5.5c0.4,1.2,1.1,1.5,1.8,1.5
					c0.7,0,2-1.2,2-1.2s2.1-1.9,2.8-2c0.6-0.1,0.9-0.2,1.3,0.3c0.4,0.6,1.2,2,1.6,5.4c0.4,3.4,1.6,6,2.3,6.6
					c0.7,0.6,0.5,0.7,1.6,0.6c1.1,0,2.2-1.4,3-2s0.9-0.9,1.8-0.9c0.7,0,1.8,0.8,2.6,3.5"/>
				<path style="fill:none;stroke:#4B508B;stroke-width:0.4664;stroke-linecap:round;stroke-linejoin:round;" d="M665.1,248.2
					c0,0.2,0.1,0.4,0.1,0.5"/>
			</g>
		</g>
	</g>
	<g>
		<g>
			<g>
				<path style="fill:none;stroke:#4B508B;stroke-width:0.4664;stroke-linecap:round;stroke-linejoin:round;" d="M254.7,152.8
					c0.1,0.1,0.2,0.2,0.3,0.3"/>
				
					<path style="fill:none;stroke:#4B508B;stroke-width:0.4664;stroke-linecap:round;stroke-linejoin:round;stroke-dasharray:0.8286,1.6572;" d="
					M256.2,154.2c1.3,0.8,2.5,0.6,2.8,0.6c0.4,0,1.6-0.1,3.5-2c1.4-1.5,2.5-2.4,2.9-3.5"/>
				<path style="fill:none;stroke:#4B508B;stroke-width:0.4664;stroke-linecap:round;stroke-linejoin:round;" d="M265.5,148.4
					c0-0.1,0-0.3,0-0.4"/>
			</g>
		</g>
		<g>
			<g>
				<path style="fill:none;stroke:#D0445C;stroke-width:0.4664;stroke-linecap:round;stroke-linejoin:round;" d="M125.7,147.9
					c0,0,0.1-0.1,0.2-0.4"/>
				
					<path style="fill:none;stroke:#D0445C;stroke-width:0.4664;stroke-linecap:round;stroke-linejoin:round;stroke-dasharray:0.8171,1.6341;" d="
					M126.7,146.1c0.5-0.9,1.2-1.9,1.7-2.6c1.1-1.4,2.7-2.7,5.7-2.7c2.9,0,5.1,2,5.1,2l2.4,2.7c0,0,0.4,0.3,2,0.3
					c1.6,0,3.3-0.3,3.3-0.3l5.9-1.1c0,0,2-0.4,2.8-0.4s1,0,2.1,0.4c1.2,0.4,3.3,3.2,3.5,3.4s1.1,1.6,1.6,1.7
					c0.6,0.2,1.6,1.2,2.4,1.4s1.5,0.6,3.2,0.6c1.6,0,4.5-0.7,4.5-0.7l3.9-1.1c0,0,0.8-0.1,1.9-0.1c1.1,0,1.6,0.2,1.6,0.2l5.9,4.1
					l0.7,0.5c0,0,1.1,0.2,1.7,0.2s1.9-0.2,1.9-0.3c0.1-0.1,2.4-1.5,3.1-2.1c0.7-0.6,2.7-4.1,2.6-4.3c-0.1-0.2,0-2,0.3-3
					c0.3-1,3.5-3.2,4.2-3.7c0.7-0.4,2.8-0.5,2.8-0.5s1.5,0,1.9,0.2c0.4,0.1,0.9,0.4,1.4,0.8s2.4,2.5,3.3,3.2
					c0.9,0.7,2.4,0.9,3.8,0.9c1.5,0,4.2-0.7,4.2-0.7s4.5-1.1,5.8-1.2s1.9-0.1,2.8,0.2c0.9,0.3,2.5,1.2,3.3,3.1
					c0.8,2,3.3,3.5,4.9,3.8c1.5,0.4,1.1,0.4,3.4,0.4s4.5-0.8,6.2-1.2c1.2-0.3,1.7-0.4,2.5-0.5"/>
				<path style="fill:none;stroke:#D0445C;stroke-width:0.4664;stroke-linecap:round;stroke-linejoin:round;" d="M248,149.8
					c0.1,0,0.3,0,0.4,0"/>
			</g>
		</g>
		<g>
			<g>
				<path style="fill:none;stroke:#4B508B;stroke-width:0.4664;stroke-linecap:round;stroke-linejoin:round;" d="M266.3,147.9
					c0,0,0.1-0.1,0.2-0.4"/>
				
					<path style="fill:none;stroke:#4B508B;stroke-width:0.4664;stroke-linecap:round;stroke-linejoin:round;stroke-dasharray:0.8175,1.635;" d="
					M267.3,146.1c0.5-0.9,1.2-1.9,1.7-2.6c1.1-1.4,2.7-2.7,5.7-2.7c2.9,0,5.1,2,5.1,2l2.4,2.7c0,0,0.4,0.3,2,0.3
					c1.6,0,3.3-0.3,3.3-0.3l5.9-1.1c0,0,2-0.4,2.8-0.4c0.8,0,1,0,2.1,0.4s3.3,3.2,3.5,3.4s1.1,1.6,1.6,1.7c0.6,0.2,1.6,1.2,2.4,1.4
					c0.8,0.3,1.5,0.6,3.2,0.6c1.6,0,4.5-0.7,4.5-0.7l3.9-1.1c0,0,0.8-0.1,1.9-0.1c1.1,0,1.6,0.2,1.6,0.2l5.9,4.1l0.7,0.5
					c0,0,1.1,0.2,1.7,0.2s1.9-0.2,1.9-0.3c0.1-0.1,2.4-1.5,3.1-2.1c0.7-0.6,2.7-4.1,2.6-4.3c-0.1-0.2,0-2,0.3-3
					c0.3-1,3.5-3.2,4.2-3.7c0.7-0.4,2.8-0.5,2.8-0.5s1.5,0,1.9,0.2c0.4,0.1,0.9,0.4,1.4,0.8c0.5,0.3,2.4,2.5,3.3,3.2
					c0.9,0.7,2.4,0.9,3.8,0.9c1.5,0,4.2-0.7,4.2-0.7s4.5-1.1,5.8-1.2c1.3-0.1,1.9-0.1,2.8,0.2c0.9,0.3,2.5,1.2,3.3,3.1
					c0.8,2,3.3,3.5,4.9,3.8c1.5,0.4,1.1,0.4,3.4,0.4c2.4,0,4.5-0.8,6.2-1.2c1.6-0.4,1.9-0.5,3.7-0.5c1.8,0,4.5,0.7,6.3,3
					c1.8,2.3,3.9,2,4.3,1.9c0.4,0,1.6-0.1,3.5-2c1.4-1.5,2.5-2.4,2.9-3.6"/>
				<path style="fill:none;stroke:#4B508B;stroke-width:0.4664;stroke-linecap:round;stroke-linejoin:round;" d="M406.1,148.4
					c0-0.1,0-0.3,0-0.4"/>
			</g>
		</g>
		<g>
			<g>
				<path style="fill:none;stroke:#4B508B;stroke-width:0.4664;stroke-linecap:round;stroke-linejoin:round;" d="M406.9,147.9
					c0,0,0.1-0.1,0.2-0.4"/>
				
					<path style="fill:none;stroke:#4B508B;stroke-width:0.4664;stroke-linecap:round;stroke-linejoin:round;stroke-dasharray:0.8175,1.635;" d="
					M408,146.1c0.5-0.9,1.2-1.9,1.7-2.6c1.1-1.4,2.7-2.7,5.7-2.7s5.1,2,5.1,2l2.4,2.7c0,0,0.4,0.3,2,0.3c1.6,0,3.3-0.3,3.3-0.3
					l5.9-1.1c0,0,2-0.4,2.8-0.4s1,0,2.1,0.4c1.2,0.4,3.3,3.2,3.5,3.4s1.1,1.6,1.6,1.7c0.6,0.2,1.6,1.2,2.4,1.4
					c0.8,0.3,1.5,0.6,3.2,0.6c1.6,0,4.5-0.7,4.5-0.7l3.9-1.1c0,0,0.8-0.1,1.9-0.1c1.1,0,1.6,0.2,1.6,0.2l5.9,4.1l0.7,0.5
					c0,0,1.1,0.2,1.7,0.2s1.9-0.2,1.9-0.3c0.1-0.1,2.4-1.5,3.1-2.1c0.7-0.6,2.7-4.1,2.6-4.3c-0.1-0.2,0-2,0.3-3
					c0.3-1,3.5-3.2,4.2-3.7c0.7-0.4,2.8-0.5,2.8-0.5s1.5,0,1.9,0.2c0.4,0.1,0.9,0.4,1.4,0.8c0.5,0.3,2.4,2.5,3.3,3.2
					c0.9,0.7,2.4,0.9,3.8,0.9c1.5,0,4.2-0.7,4.2-0.7s4.5-1.1,5.8-1.2c1.3-0.1,1.9-0.1,2.8,0.2c0.9,0.3,2.5,1.2,3.3,3.1
					c0.8,2,3.3,3.5,4.9,3.8s1.1,0.4,3.4,0.4c2.4,0,4.5-0.8,6.2-1.2c1.6-0.4,1.9-0.5,3.7-0.5c1.8,0,4.5,0.7,6.3,3
					c1.8,2.3,3.9,2,4.3,1.9s1.6-0.1,3.5-2c1.4-1.5,2.5-2.4,2.9-3.6"/>
				<path style="fill:none;stroke:#4B508B;stroke-width:0.4664;stroke-linecap:round;stroke-linejoin:round;" d="M546.7,148.4
					c0-0.1,0-0.3,0-0.4"/>
			</g>
		</g>
		<g>
			<g>
				<path style="fill:none;stroke:#4B508B;stroke-width:0.4664;stroke-linecap:round;stroke-linejoin:round;" d="M547.6,147.9
					c0,0,0.1-0.1,0.2-0.4"/>
				
					<path style="fill:none;stroke:#4B508B;stroke-width:0.4664;stroke-linecap:round;stroke-linejoin:round;stroke-dasharray:0.8237,1.6473;" d="
					M548.6,146.1c0.5-0.9,1.2-1.9,1.7-2.6c1.1-1.4,2.7-2.7,5.7-2.7s5.1,2,5.1,2l2.4,2.7c0,0,0.4,0.3,2,0.3c1.6,0,3.3-0.3,3.3-0.3
					l5.9-1.1c0,0,2-0.4,2.8-0.4s1,0,2.1,0.4c1.2,0.4,3.3,3.2,3.5,3.4s1.1,1.6,1.6,1.7c0.6,0.2,1.6,1.2,2.4,1.4s1.5,0.6,3.2,0.6
					c1.6,0,4.5-0.7,4.5-0.7l3.9-1.1c0,0,0.8-0.1,1.9-0.1c1.1,0,1.6,0.2,1.6,0.2l5.9,4.1l0.7,0.5c0,0,1.1,0.2,1.7,0.2
					s1.9-0.2,1.9-0.3c0.1-0.1,2.4-1.5,3.1-2.1c0.7-0.6,2.7-4.1,2.6-4.3c-0.1-0.2,0-2,0.3-3c0.3-1,3.5-3.2,4.2-3.7
					c0.7-0.4,2.8-0.5,2.8-0.5s1.5,0,1.9,0.2c0.4,0.1,0.9,0.4,1.4,0.8c0.5,0.3,2.4,2.5,3.3,3.2c0.9,0.7,2.4,0.9,3.8,0.9
					c1.5,0,4.2-0.7,4.2-0.7s4.5-1.1,5.8-1.2s1.9-0.1,2.8,0.2c0.9,0.3,2.5,1.2,3.3,3.1c0.8,2,3.3,3.5,4.9,3.8
					c1.5,0.4,1.1,0.4,3.4,0.4c1.8,0,3.5-0.5,5-0.9"/>
				<path style="fill:none;stroke:#4B508B;stroke-width:0.4664;stroke-linecap:round;stroke-linejoin:round;" d="M666.1,150.4
					c0.1,0,0.3-0.1,0.4-0.1"/>
			</g>
		</g>
	</g>
	<g>
		<g>
			<g>
				<path style="fill:none;stroke:#4B508B;stroke-width:0.4664;stroke-linecap:round;stroke-linejoin:round;" d="M254.7,351.7
					c0.1,0.2,0.3,0.3,0.4,0.5"/>
				
					<path style="fill:none;stroke:#4B508B;stroke-width:0.4664;stroke-linecap:round;stroke-linejoin:round;stroke-dasharray:1.244,2.488;" d="
					M257.2,353.5c0.9,0.3,1.6,0.2,1.8,0.2c0.4,0,1.6-0.1,3.5-2c1.2-1.2,2.2-2.1,2.7-3"/>
				<path style="fill:none;stroke:#4B508B;stroke-width:0.4664;stroke-linecap:round;stroke-linejoin:round;" d="M265.5,347.5
					c0-0.2,0-0.4,0-0.6"/>
			</g>
		</g>
		<g>
			<g>
				<path style="fill:none;stroke:#D0445C;stroke-width:0.4664;stroke-linecap:round;stroke-linejoin:round;" d="M125.7,346.8
					c0,0,0.1-0.2,0.3-0.5"/>
				
					<path style="fill:none;stroke:#D0445C;stroke-width:0.4664;stroke-linecap:round;stroke-linejoin:round;stroke-dasharray:1.2362,2.4725;" d="
					M127.3,344.1c0.4-0.6,0.8-1.2,1.2-1.7c1.1-1.4,2.7-2.7,5.7-2.7c2.9,0,5.1,2,5.1,2l2.4,2.7c0,0,0.4,0.3,2,0.3
					c1.6,0,3.3-0.3,3.3-0.3l5.9-1.1c0,0,2-0.4,2.8-0.4s1,0,2.1,0.4c1.2,0.4,3.3,3.2,3.5,3.4s1.1,1.6,1.6,1.7
					c0.6,0.2,1.6,1.2,2.4,1.4s1.5,0.6,3.2,0.6c1.6,0,4.5-0.7,4.5-0.7l3.9-1.1c0,0,0.8-0.1,1.9-0.1c1.1,0,1.6,0.2,1.6,0.2l5.9,4.1
					l0.7,0.5c0,0,1.1,0.2,1.7,0.2s1.9-0.2,1.9-0.3c0.1-0.1,2.4-1.5,3.1-2.1c0.7-0.6,2.7-4.1,2.6-4.3c-0.1-0.2,0-2,0.3-3
					s3.5-3.2,4.2-3.7c0.7-0.4,2.8-0.5,2.8-0.5s1.5,0,1.9,0.2s0.9,0.4,1.4,0.8s2.4,2.5,3.3,3.2c0.9,0.7,2.4,0.9,3.8,0.9
					s4.2-0.7,4.2-0.7s4.5-1.1,5.8-1.2s1.9-0.1,2.8,0.2s2.5,1.2,3.3,3.1c0.8,2,3.3,3.5,4.9,3.8c1.5,0.4,1.1,0.4,3.4,0.4
					s4.5-0.8,6.2-1.2c0.9-0.2,1.3-0.3,1.9-0.4"/>
				<path style="fill:none;stroke:#D0445C;stroke-width:0.4664;stroke-linecap:round;stroke-linejoin:round;" d="M247.8,348.7
					c0.2,0,0.4,0,0.6,0"/>
			</g>
		</g>
		<g>
			<g>
				<path style="fill:none;stroke:#4B508B;stroke-width:0.4664;stroke-linecap:round;stroke-linejoin:round;" d="M266.3,346.8
					c0,0,0.1-0.2,0.3-0.5"/>
				
					<path style="fill:none;stroke:#4B508B;stroke-width:0.4664;stroke-linecap:round;stroke-linejoin:round;stroke-dasharray:1.2355,2.4709;" d="
					M267.9,344.1c0.4-0.6,0.8-1.2,1.2-1.7c1.1-1.4,2.7-2.7,5.7-2.7c2.9,0,5.1,2,5.1,2l2.4,2.7c0,0,0.4,0.3,2,0.3
					c1.6,0,3.3-0.3,3.3-0.3l5.9-1.1c0,0,2-0.4,2.8-0.4c0.8,0,1,0,2.1,0.4s3.3,3.2,3.5,3.4s1.1,1.6,1.6,1.7c0.6,0.2,1.6,1.2,2.4,1.4
					c0.8,0.3,1.5,0.6,3.2,0.6c1.6,0,4.5-0.7,4.5-0.7l3.9-1.1c0,0,0.8-0.1,1.9-0.1c1.1,0,1.6,0.2,1.6,0.2l5.9,4.1l0.7,0.5
					c0,0,1.1,0.2,1.7,0.2s1.9-0.2,1.9-0.3c0.1-0.1,2.4-1.5,3.1-2.1c0.7-0.6,2.7-4.1,2.6-4.3c-0.1-0.2,0-2,0.3-3
					c0.3-1,3.5-3.2,4.2-3.7c0.7-0.4,2.8-0.5,2.8-0.5s1.5,0,1.9,0.2c0.4,0.1,0.9,0.4,1.4,0.8c0.5,0.3,2.4,2.5,3.3,3.2
					c0.9,0.7,2.4,0.9,3.8,0.9s4.2-0.7,4.2-0.7s4.5-1.1,5.8-1.2c1.3-0.1,1.9-0.1,2.8,0.2c0.9,0.3,2.5,1.2,3.3,3.1
					c0.8,2,3.3,3.5,4.9,3.8c1.5,0.4,1.1,0.4,3.4,0.4c2.4,0,4.5-0.8,6.2-1.2c1.6-0.4,1.9-0.5,3.7-0.5c1.8,0,4.5,0.7,6.3,3
					c1.8,2.3,3.9,2,4.3,1.9c0.4,0,1.6-0.1,3.5-2c1.2-1.2,2.2-2.1,2.7-3"/>
				<path style="fill:none;stroke:#4B508B;stroke-width:0.4664;stroke-linecap:round;stroke-linejoin:round;" d="M406.1,347.5
					c0-0.2,0-0.4,0-0.6"/>
			</g>
		</g>
		<g>
			<g>
				<path style="fill:none;stroke:#4B508B;stroke-width:0.4664;stroke-linecap:round;stroke-linejoin:round;" d="M406.9,346.8
					c0,0,0.1-0.2,0.3-0.5"/>
				
					<path style="fill:none;stroke:#4B508B;stroke-width:0.4664;stroke-linecap:round;stroke-linejoin:round;stroke-dasharray:1.2355,2.4709;" d="
					M408.5,344.1c0.4-0.6,0.8-1.2,1.2-1.7c1.1-1.4,2.7-2.7,5.7-2.7s5.1,2,5.1,2l2.4,2.7c0,0,0.4,0.3,2,0.3c1.6,0,3.3-0.3,3.3-0.3
					l5.9-1.1c0,0,2-0.4,2.8-0.4s1,0,2.1,0.4c1.2,0.4,3.3,3.2,3.5,3.4s1.1,1.6,1.6,1.7c0.6,0.2,1.6,1.2,2.4,1.4
					c0.8,0.3,1.5,0.6,3.2,0.6c1.6,0,4.5-0.7,4.5-0.7l3.9-1.1c0,0,0.8-0.1,1.9-0.1c1.1,0,1.6,0.2,1.6,0.2l5.9,4.1l0.7,0.5
					c0,0,1.1,0.2,1.7,0.2s1.9-0.2,1.9-0.3c0.1-0.1,2.4-1.5,3.1-2.1c0.7-0.6,2.7-4.1,2.6-4.3c-0.1-0.2,0-2,0.3-3
					c0.3-1,3.5-3.2,4.2-3.7c0.7-0.4,2.8-0.5,2.8-0.5s1.5,0,1.9,0.2s0.9,0.4,1.4,0.8c0.5,0.3,2.4,2.5,3.3,3.2
					c0.9,0.7,2.4,0.9,3.8,0.9s4.2-0.7,4.2-0.7s4.5-1.1,5.8-1.2c1.3-0.1,1.9-0.1,2.8,0.2c0.9,0.3,2.5,1.2,3.3,3.1
					c0.8,2,3.3,3.5,4.9,3.8c1.5,0.4,1.1,0.4,3.4,0.4c2.4,0,4.5-0.8,6.2-1.2c1.6-0.4,1.9-0.5,3.7-0.5c1.8,0,4.5,0.7,6.3,3
					c1.8,2.3,3.9,2,4.3,1.9c0.4,0,1.6-0.1,3.5-2c1.2-1.2,2.2-2.1,2.7-3"/>
				<path style="fill:none;stroke:#4B508B;stroke-width:0.4664;stroke-linecap:round;stroke-linejoin:round;" d="M546.7,347.5
					c0-0.2,0-0.4,0-0.6"/>
			</g>
		</g>
		<g>
			<g>
				<path style="fill:none;stroke:#4B508B;stroke-width:0.4664;stroke-linecap:round;stroke-linejoin:round;" d="M547.6,346.8
					c0,0,0.1-0.2,0.3-0.5"/>
				
					<path style="fill:none;stroke:#4B508B;stroke-width:0.4664;stroke-linecap:round;stroke-linejoin:round;stroke-dasharray:1.2362,2.4725;" d="
					M549.1,344.1c0.4-0.6,0.8-1.2,1.2-1.7c1.1-1.4,2.7-2.7,5.7-2.7s5.1,2,5.1,2l2.4,2.7c0,0,0.4,0.3,2,0.3c1.6,0,3.3-0.3,3.3-0.3
					l5.9-1.1c0,0,2-0.4,2.8-0.4s1,0,2.1,0.4c1.2,0.4,3.3,3.2,3.5,3.4s1.1,1.6,1.6,1.7c0.6,0.2,1.6,1.2,2.4,1.4s1.5,0.6,3.2,0.6
					s4.5-0.7,4.5-0.7l3.9-1.1c0,0,0.8-0.1,1.9-0.1c1.1,0,1.6,0.2,1.6,0.2l5.9,4.1l0.7,0.5c0,0,1.1,0.2,1.7,0.2s1.9-0.2,1.9-0.3
					c0.1-0.1,2.4-1.5,3.1-2.1c0.7-0.6,2.7-4.1,2.6-4.3c-0.1-0.2,0-2,0.3-3s3.5-3.2,4.2-3.7c0.7-0.4,2.8-0.5,2.8-0.5s1.5,0,1.9,0.2
					s0.9,0.4,1.4,0.8c0.5,0.3,2.4,2.5,3.3,3.2c0.9,0.7,2.4,0.9,3.8,0.9s4.2-0.7,4.2-0.7s4.5-1.1,5.8-1.2s1.9-0.1,2.8,0.2
					c0.9,0.3,2.5,1.2,3.3,3.1c0.8,2,3.3,3.5,4.9,3.8c1.5,0.4,1.1,0.4,3.4,0.4c2.4,0,4.5-0.8,6.2-1.2c0.9-0.2,1.3-0.3,1.9-0.4"/>
				<path style="fill:none;stroke:#4B508B;stroke-width:0.4664;stroke-linecap:round;stroke-linejoin:round;" d="M669.6,348.7
					c0.2,0,0.4,0,0.6,0"/>
			</g>
		</g>
	</g>
	<g>
		<g>
			<g>
				<g>
					<path style="fill:none;stroke:#4B508B;stroke-width:0.4295;stroke-linecap:round;stroke-linejoin:round;" d="M364.3,292.6
						c0,0,0,0.1,0,0.4"/>
					
						<path style="fill:none;stroke:#4B508B;stroke-width:0.4295;stroke-linecap:round;stroke-linejoin:round;stroke-dasharray:0.8462,1.6925;" d="
						M364.1,294.7c-0.2,2.5-0.6,6.5-0.9,8.8c-0.5,3.5-1.1,6.8-2.4,6.9c-1.2,0.1-2.1-5.1-2.1-5.1l-1-6.8c0,0-0.2-0.7-0.8-0.8
						s-1.4,0.6-1.4,0.6l-2.4,2.8c0,0-0.8,0.9-1.2,1s-0.4,0.1-0.9-1c-0.5-1-1.4-8-1.5-8.6s-0.4-4-0.7-4.4s-0.7-3-1-3.6
						c-0.3-0.6-0.6-1.4-1.3-1.5c-0.7-0.1-1.9,1.8-1.9,1.8l-1.6,2.8c0,0-0.3,0.4-0.8,0.3c-0.4-0.1-0.7-0.5-0.7-0.5l-2.5-10.3
						l-0.3-1.3c0,0-0.5-0.4-0.7-0.4s-0.8,0.4-0.8,0.7c0,0.2-1,3.9-1.3,5.3s-1.1,10.3-1.1,10.9c0,0.5,0,5-0.1,7.5
						c-0.1,2.5-1.4,8.2-1.8,9.3c-0.3,1.1-1.1,1.3-1.1,1.3s-0.6,0-0.8-0.4c-0.2-0.4-0.4-1.1-0.6-2c-0.2-0.8-1-6.3-1.4-8.1
						c-0.4-1.7-1-2.2-1.6-2.2c-0.6,0-1.8,1.8-1.8,1.8s-1.9,2.8-2.4,2.9c-0.6,0.2-0.8,0.4-1.2-0.4c-0.4-0.8-1-2.9-1.4-7.9
						c-0.3-5-1.4-8.8-2-9.6c-0.6-0.9-0.4-1-1.4-0.9c-1,0-1.9,2-2.6,3c-0.7,1-0.8,1.3-1.6,1.4c-0.7,0-1.9-1.7-2.6-7.5
						c-0.7-5.8-1.6-4.9-1.8-4.9c-0.2,0-0.7,0.2-1.4,5c-0.7,4.4-1.2,6.9-1.3,10.7"/>
					<path style="fill:none;stroke:#4B508B;stroke-width:0.4295;stroke-linecap:round;stroke-linejoin:round;" d="M306.2,292.1
						c0,0.1,0,0.3,0,0.4"/>
				</g>
			</g>
			<g>
				<g>
					<path style="fill:none;stroke:#D0445C;stroke-width:0.4295;stroke-linecap:round;stroke-linejoin:round;" d="M248.9,280.5
						c0,0.1,0,0.3-0.1,0.4"/>
					
						<path style="fill:none;stroke:#D0445C;stroke-width:0.4295;stroke-linecap:round;stroke-linejoin:round;stroke-dasharray:0.8023,1.6046;" d="
						M248.6,282.5c-0.5,3.2-0.9,5.5-0.9,8.8"/>
					<path style="fill:none;stroke:#D0445C;stroke-width:0.4295;stroke-linecap:round;stroke-linejoin:round;" d="M247.7,292.1
						c0,0.1,0,0.3,0,0.4"/>
				</g>
			</g>
			<g>
				<g>
					<path style="fill:none;stroke:#4B508B;stroke-width:0.4295;stroke-linecap:round;stroke-linejoin:round;" d="M305.8,292.6
						c0,0,0,0.1,0,0.4"/>
					
						<path style="fill:none;stroke:#4B508B;stroke-width:0.4295;stroke-linecap:round;stroke-linejoin:round;stroke-dasharray:0.8454,1.6908;" d="
						M305.6,294.7c-0.2,2.5-0.6,6.5-0.9,8.8c-0.5,3.5-1.1,6.8-2.4,6.9c-1.2,0.1-2.1-5.1-2.1-5.1l-1-6.8c0,0-0.2-0.7-0.8-0.8
						s-1.4,0.6-1.4,0.6l-2.4,2.8c0,0-0.8,0.9-1.2,1c-0.3,0-0.4,0.1-0.9-1s-1.4-8-1.5-8.6s-0.4-4-0.7-4.4s-0.7-3-1-3.6
						c-0.3-0.6-0.6-1.4-1.3-1.5c-0.7-0.1-1.9,1.8-1.9,1.8l-1.6,2.8c0,0-0.3,0.4-0.8,0.3s-0.7-0.5-0.7-0.5l-2.5-10.3l-0.3-1.3
						c0,0-0.5-0.4-0.7-0.4s-0.8,0.4-0.8,0.7c0,0.2-1,3.9-1.3,5.3s-1.1,10.3-1.1,10.9c0,0.5,0,5-0.1,7.5c-0.1,2.5-1.4,8.2-1.8,9.3
						c-0.3,1.1-1.1,1.3-1.1,1.3s-0.6,0-0.8-0.4s-0.4-1.1-0.6-2c-0.2-0.8-1-6.3-1.4-8.1c-0.4-1.7-1-2.2-1.6-2.2
						c-0.6,0-1.8,1.8-1.8,1.8s-1.9,2.8-2.4,2.9c-0.6,0.2-0.8,0.4-1.2-0.4c-0.4-0.8-1-2.9-1.4-7.9c-0.3-5-1.4-8.8-2-9.6
						c-0.6-0.9-0.4-1-1.4-0.9c-1,0-1.9,2-2.6,3c-0.7,1-0.8,1.3-1.6,1.4c-0.7,0-1.7-1.5-2.5-6.3"/>
					<path style="fill:none;stroke:#4B508B;stroke-width:0.4295;stroke-linecap:round;stroke-linejoin:round;" d="M252.2,280.8
						c0-0.1,0-0.3-0.1-0.4"/>
				</g>
			</g>
			<g>
				<g>
					<path style="fill:none;stroke:#D0445C;stroke-width:0.4295;stroke-linecap:round;stroke-linejoin:round;" d="M247.3,292.6
						c0,0,0,0.1,0,0.4"/>
					
						<path style="fill:none;stroke:#D0445C;stroke-width:0.4295;stroke-linecap:round;stroke-linejoin:round;stroke-dasharray:0.8462,1.6925;" d="
						M247.1,294.7c-0.2,2.5-0.6,6.5-0.9,8.8c-0.5,3.5-1.1,6.8-2.4,6.9c-1.2,0.1-2.1-5.1-2.1-5.1l-1-6.8c0,0-0.2-0.7-0.8-0.8
						c-0.7-0.1-1.4,0.6-1.4,0.6l-2.4,2.8c0,0-0.8,0.9-1.2,1s-0.4,0.1-0.9-1c-0.5-1-1.4-8-1.5-8.6c-0.1-0.7-0.4-4-0.7-4.4
						s-0.7-3-1-3.6s-0.6-1.4-1.3-1.5s-1.9,1.8-1.9,1.8l-1.6,2.8c0,0-0.3,0.4-0.8,0.3c-0.4-0.1-0.7-0.5-0.7-0.5l-2.5-10.3l-0.3-1.3
						c0,0-0.5-0.4-0.7-0.4s-0.8,0.4-0.8,0.7c0,0.2-1,3.9-1.3,5.3s-1.1,10.3-1.1,10.9c0,0.5,0,5-0.1,7.5c-0.1,2.5-1.4,8.2-1.8,9.3
						c-0.3,1.1-1.1,1.3-1.1,1.3s-0.6,0-0.8-0.4s-0.4-1.1-0.6-2c-0.2-0.8-1-6.3-1.4-8.1c-0.4-1.7-1-2.2-1.6-2.2
						c-0.6,0-1.8,1.8-1.8,1.8s-1.9,2.8-2.4,2.9c-0.6,0.2-0.8,0.4-1.2-0.4c-0.4-0.8-1-2.9-1.4-7.9s-1.4-8.8-2-9.6
						c-0.6-0.9-0.4-1-1.4-0.9c-1,0-1.9,2-2.6,3c-0.7,1-0.8,1.3-1.6,1.4c-0.7,0-1.9-1.7-2.6-7.5c-0.7-5.8-1.6-4.9-1.8-4.9
						c-0.2,0-0.7,0.2-1.4,5c-0.7,4.4-1.2,6.9-1.3,10.7"/>
					<path style="fill:none;stroke:#D0445C;stroke-width:0.4295;stroke-linecap:round;stroke-linejoin:round;" d="M189.2,292.1
						c0,0.1,0,0.3,0,0.4"/>
				</g>
			</g>
			<g>
				<g>
					<path style="fill:none;stroke:#D0445C;stroke-width:0.4295;stroke-linecap:round;stroke-linejoin:round;" d="M188.9,292.6
						c0,0,0,0.1,0,0.4"/>
					
						<path style="fill:none;stroke:#D0445C;stroke-width:0.4295;stroke-linecap:round;stroke-linejoin:round;stroke-dasharray:0.8462,1.6925;" d="
						M188.7,294.7c-0.2,2.5-0.6,6.5-0.9,8.8c-0.5,3.5-1.1,6.8-2.4,6.9c-1.2,0.1-2.1-5.1-2.1-5.1l-1-6.8c0,0-0.2-0.7-0.8-0.8
						s-1.4,0.6-1.4,0.6l-2.4,2.8c0,0-0.8,0.9-1.2,1s-0.4,0.1-0.9-1c-0.5-1-1.4-8-1.5-8.6s-0.4-4-0.7-4.4s-0.7-3-1-3.6
						c-0.3-0.6-0.6-1.4-1.3-1.5c-0.7-0.1-1.9,1.8-1.9,1.8l-1.6,2.8c0,0-0.3,0.4-0.8,0.3c-0.4-0.1-0.7-0.5-0.7-0.5l-2.5-10.3
						l-0.3-1.3c0,0-0.5-0.4-0.7-0.4s-0.8,0.4-0.8,0.7s-1,3.9-1.3,5.3c-0.3,1.5-1.1,10.3-1.1,10.9c0,0.5,0,5-0.1,7.5
						c-0.1,2.5-1.4,8.2-1.8,9.3c-0.3,1.1-1.1,1.3-1.1,1.3s-0.6,0-0.8-0.4c-0.2-0.4-0.4-1.1-0.6-2c-0.2-0.8-1-6.3-1.4-8.1
						c-0.4-1.7-1-2.2-1.6-2.2c-0.6,0-1.8,1.8-1.8,1.8s-1.9,2.8-2.4,2.9c-0.6,0.2-0.8,0.4-1.2-0.4c-0.4-0.8-1-2.9-1.4-7.9
						s-1.4-8.8-2-9.6c-0.6-0.9-0.4-1-1.4-0.9c-1,0-1.9,2-2.6,3c-0.7,1-0.8,1.3-1.6,1.4c-0.7,0-1.9-1.7-2.6-7.5
						c-0.7-5.8-1.6-4.9-1.8-4.9c-0.2,0-0.7,0.2-1.4,5c-0.7,4.4-1.2,6.9-1.3,10.7"/>
					<path style="fill:none;stroke:#D0445C;stroke-width:0.4295;stroke-linecap:round;stroke-linejoin:round;" d="M130.7,292.1
						c0,0.1,0,0.3,0,0.4"/>
				</g>
			</g>
		</g>
		<g>
			<g>
				<g>
					<path style="fill:none;stroke:#4B508B;stroke-width:0.4295;stroke-linecap:round;stroke-linejoin:round;" d="M598.2,292.6
						c0,0,0,0.1,0,0.4"/>
					
						<path style="fill:none;stroke:#4B508B;stroke-width:0.4295;stroke-linecap:round;stroke-linejoin:round;stroke-dasharray:0.8462,1.6925;" d="
						M598,294.7c-0.2,2.5-0.6,6.5-0.9,8.8c-0.5,3.5-1.1,6.8-2.4,6.9c-1.2,0.1-2.1-5.1-2.1-5.1l-1-6.8c0,0-0.2-0.7-0.8-0.8
						c-0.7-0.1-1.4,0.6-1.4,0.6l-2.4,2.8c0,0-0.8,0.9-1.2,1s-0.4,0.1-0.9-1s-1.4-8-1.5-8.6s-0.4-4-0.7-4.4s-0.7-3-1-3.6
						c-0.3-0.6-0.6-1.4-1.3-1.5s-1.9,1.8-1.9,1.8l-1.6,2.8c0,0-0.3,0.4-0.8,0.3s-0.7-0.5-0.7-0.5L573,277l-0.3-1.3
						c0,0-0.5-0.4-0.7-0.4s-0.8,0.4-0.8,0.7c0,0.2-1,3.9-1.3,5.3s-1.1,10.3-1.1,10.9c0,0.5,0,5-0.1,7.5c-0.1,2.5-1.4,8.2-1.8,9.3
						c-0.3,1.1-1.1,1.3-1.1,1.3s-0.6,0-0.8-0.4s-0.4-1.1-0.6-2c-0.2-0.8-1-6.3-1.4-8.1c-0.4-1.7-1-2.2-1.6-2.2
						c-0.6,0-1.8,1.8-1.8,1.8s-1.9,2.8-2.4,2.9c-0.6,0.2-0.8,0.4-1.2-0.4c-0.4-0.8-1-2.9-1.4-7.9c-0.3-5-1.4-8.8-2-9.6
						c-0.6-0.9-0.4-1-1.4-0.9c-1,0-1.9,2-2.6,3c-0.7,1-0.8,1.3-1.6,1.4c-0.7,0-1.9-1.7-2.6-7.5c-0.7-5.8-1.6-4.9-1.8-4.9
						c-0.2,0-0.7,0.2-1.4,5c-0.7,4.4-1.2,6.9-1.3,10.7"/>
					<path style="fill:none;stroke:#4B508B;stroke-width:0.4295;stroke-linecap:round;stroke-linejoin:round;" d="M540.1,292.1
						c0,0.1,0,0.3,0,0.4"/>
				</g>
			</g>
			<g>
				<g>
					<path style="fill:none;stroke:#4B508B;stroke-width:0.4295;stroke-linecap:round;stroke-linejoin:round;" d="M539.7,292.6
						c0,0,0,0.1,0,0.4"/>
					
						<path style="fill:none;stroke:#4B508B;stroke-width:0.4295;stroke-linecap:round;stroke-linejoin:round;stroke-dasharray:0.8462,1.6925;" d="
						M539.5,294.7c-0.2,2.5-0.6,6.5-0.9,8.8c-0.5,3.5-1.1,6.8-2.4,6.9s-2.1-5.1-2.1-5.1l-1-6.8c0,0-0.2-0.7-0.8-0.8
						c-0.7-0.1-1.4,0.6-1.4,0.6l-2.4,2.8c0,0-0.8,0.9-1.2,1s-0.4,0.1-0.9-1c-0.5-1-1.4-8-1.5-8.6s-0.4-4-0.7-4.4s-0.7-3-1-3.6
						s-0.6-1.4-1.3-1.5c-0.7-0.1-1.9,1.8-1.9,1.8l-1.6,2.8c0,0-0.3,0.4-0.8,0.3c-0.4-0.1-0.7-0.5-0.7-0.5l-2.5-10.3l-0.3-1.3
						c0,0-0.5-0.4-0.7-0.4s-0.8,0.4-0.8,0.7c0,0.2-1,3.9-1.3,5.3c-0.3,1.5-1.1,10.3-1.1,10.9c0,0.5,0,5-0.1,7.5
						c-0.1,2.5-1.4,8.2-1.8,9.3c-0.3,1.1-1.1,1.3-1.1,1.3s-0.6,0-0.8-0.4c-0.2-0.4-0.4-1.1-0.6-2s-1-6.3-1.4-8.1
						c-0.4-1.7-1-2.2-1.6-2.2c-0.6,0-1.8,1.8-1.8,1.8s-1.9,2.8-2.4,2.9c-0.6,0.2-0.8,0.4-1.2-0.4c-0.4-0.8-1-2.9-1.4-7.9
						s-1.4-8.8-2-9.6c-0.6-0.9-0.4-1-1.4-0.9c-1,0-1.9,2-2.6,3c-0.7,1-0.8,1.3-1.6,1.4c-0.7,0-1.9-1.7-2.6-7.5
						c-0.7-5.8-1.6-4.9-1.8-4.9c-0.2,0-0.7,0.2-1.4,5c-0.7,4.4-1.2,6.9-1.3,10.7"/>
					<path style="fill:none;stroke:#4B508B;stroke-width:0.4295;stroke-linecap:round;stroke-linejoin:round;" d="M481.6,292.1
						c0,0.1,0,0.3,0,0.4"/>
				</g>
			</g>
			<g>
				<g>
					<path style="fill:none;stroke:#4B508B;stroke-width:0.4295;stroke-linecap:round;stroke-linejoin:round;" d="M481.3,292.6
						c0,0,0,0.1,0,0.4"/>
					
						<path style="fill:none;stroke:#4B508B;stroke-width:0.4295;stroke-linecap:round;stroke-linejoin:round;stroke-dasharray:0.8462,1.6925;" d="
						M481.1,294.7c-0.2,2.5-0.6,6.5-0.9,8.8c-0.5,3.5-1.1,6.8-2.4,6.9c-1.2,0.1-2.1-5.1-2.1-5.1l-1-6.8c0,0-0.2-0.7-0.8-0.8
						s-1.4,0.6-1.4,0.6l-2.4,2.8c0,0-0.8,0.9-1.2,1s-0.4,0.1-0.9-1s-1.4-8-1.5-8.6s-0.4-4-0.7-4.4s-0.7-3-1-3.6
						c-0.3-0.6-0.6-1.4-1.3-1.5c-0.7-0.1-1.9,1.8-1.9,1.8l-1.6,2.8c0,0-0.3,0.4-0.8,0.3c-0.4-0.1-0.7-0.5-0.7-0.5l-2.5-10.3
						l-0.3-1.3c0,0-0.5-0.4-0.7-0.4s-0.8,0.4-0.8,0.7c0,0.2-1,3.9-1.3,5.3s-1.1,10.3-1.1,10.9c0,0.5,0,5-0.1,7.5
						c-0.1,2.5-1.4,8.2-1.8,9.3c-0.3,1.1-1.1,1.3-1.1,1.3s-0.6,0-0.8-0.4s-0.4-1.1-0.6-2c-0.2-0.8-1-6.3-1.4-8.1
						c-0.4-1.7-1-2.2-1.6-2.2c-0.6,0-1.8,1.8-1.8,1.8s-1.9,2.8-2.4,2.9c-0.6,0.2-0.8,0.4-1.2-0.4c-0.4-0.8-1-2.9-1.4-7.9
						c-0.3-5-1.4-8.8-2-9.6c-0.6-0.9-0.4-1-1.4-0.9c-1,0-1.9,2-2.6,3c-0.7,1-0.8,1.3-1.6,1.4c-0.7,0-1.9-1.7-2.6-7.5
						c-0.7-5.8-1.6-4.9-1.8-4.9c-0.2,0-0.7,0.2-1.4,5c-0.7,4.4-1.2,6.9-1.3,10.7"/>
					<path style="fill:none;stroke:#4B508B;stroke-width:0.4295;stroke-linecap:round;stroke-linejoin:round;" d="M423.1,292.1
						c0,0.1,0,0.3,0,0.4"/>
				</g>
			</g>
			<g>
				<g>
					<path style="fill:none;stroke:#4B508B;stroke-width:0.4295;stroke-linecap:round;stroke-linejoin:round;" d="M422.8,292.6
						c0,0,0,0.1,0,0.4"/>
					
						<path style="fill:none;stroke:#4B508B;stroke-width:0.4295;stroke-linecap:round;stroke-linejoin:round;stroke-dasharray:0.8462,1.6925;" d="
						M422.6,294.7c-0.2,2.5-0.6,6.5-0.9,8.8c-0.5,3.5-1.1,6.8-2.4,6.9c-1.2,0.1-2.1-5.1-2.1-5.1l-1-6.8c0,0-0.2-0.7-0.8-0.8
						s-1.4,0.6-1.4,0.6l-2.4,2.8c0,0-0.8,0.9-1.2,1c-0.3,0-0.4,0.1-0.9-1s-1.4-8-1.5-8.6s-0.4-4-0.7-4.4s-0.7-3-1-3.6
						c-0.3-0.6-0.6-1.4-1.3-1.5c-0.7-0.1-1.9,1.8-1.9,1.8l-1.6,2.8c0,0-0.3,0.4-0.8,0.3s-0.7-0.5-0.7-0.5l-2.5-10.3l-0.3-1.3
						c0,0-0.5-0.4-0.7-0.4s-0.8,0.4-0.8,0.7c0,0.2-1,3.9-1.3,5.3s-1.1,10.3-1.1,10.9c0,0.5,0,5-0.1,7.5c-0.1,2.5-1.4,8.2-1.8,9.3
						c-0.3,1.1-1.1,1.3-1.1,1.3s-0.6,0-0.8-0.4s-0.4-1.1-0.6-2c-0.2-0.8-1-6.3-1.4-8.1c-0.4-1.7-1-2.2-1.6-2.2
						c-0.6,0-1.8,1.8-1.8,1.8s-1.9,2.8-2.4,2.9c-0.6,0.2-0.8,0.4-1.2-0.4c-0.4-0.8-1-2.9-1.4-7.9c-0.3-5-1.4-8.8-2-9.6
						c-0.6-0.9-0.4-1-1.4-0.9c-1,0-1.9,2-2.6,3c-0.7,1-0.8,1.3-1.6,1.4c-0.7,0-1.9-1.7-2.6-7.5c-0.7-5.8-1.6-4.9-1.8-4.9
						c-0.2,0-0.7,0.2-1.4,5c-0.7,4.4-1.2,6.9-1.3,10.7"/>
					<path style="fill:none;stroke:#4B508B;stroke-width:0.4295;stroke-linecap:round;stroke-linejoin:round;" d="M364.6,292.1
						c0,0.1,0,0.3,0,0.4"/>
				</g>
			</g>
		</g>
		<g>
			<g>
				<g>
					<path style="fill:none;stroke:#4B508B;stroke-width:0.4295;stroke-linecap:round;stroke-linejoin:round;" d="M665.2,286.5
						c-0.1,0.1-0.2,0.2-0.2,0.4"/>
					
						<path style="fill:none;stroke:#4B508B;stroke-width:0.4295;stroke-linecap:round;stroke-linejoin:round;stroke-dasharray:0.8585,1.7169;" d="
						M663.7,287.9C663.7,287.9,663.7,287.9,663.7,287.9c-0.8,0-1.9-1.7-2.7-7.5c-0.7-5.8-1.6-4.9-1.8-4.9c-0.2,0-0.7,0.2-1.4,5
						c-0.7,4.4-1.2,6.9-1.3,10.7"/>
					<path style="fill:none;stroke:#4B508B;stroke-width:0.4295;stroke-linecap:round;stroke-linejoin:round;" d="M656.5,292.1
						c0,0.1,0,0.3,0,0.4"/>
				</g>
			</g>
			<g>
				<g>
					<path style="fill:none;stroke:#4B508B;stroke-width:0.4295;stroke-linecap:round;stroke-linejoin:round;" d="M656.2,292.6
						c0,0,0,0.1,0,0.4"/>
					
						<path style="fill:none;stroke:#4B508B;stroke-width:0.4295;stroke-linecap:round;stroke-linejoin:round;stroke-dasharray:0.8462,1.6925;" d="
						M656,294.7c-0.2,2.5-0.6,6.5-0.9,8.8c-0.5,3.5-1.1,6.8-2.4,6.9s-2.1-5.1-2.1-5.1l-1-6.8c0,0-0.2-0.7-0.8-0.8s-1.4,0.6-1.4,0.6
						l-2.4,2.8c0,0-0.8,0.9-1.2,1s-0.4,0.1-0.9-1c-0.5-1-1.4-8-1.5-8.6c-0.1-0.7-0.4-4-0.7-4.4c-0.2-0.4-0.7-3-1-3.6
						c-0.3-0.6-0.6-1.4-1.3-1.5s-1.9,1.8-1.9,1.8l-1.6,2.8c0,0-0.3,0.4-0.8,0.3c-0.4-0.1-0.7-0.5-0.7-0.5L631,277l-0.3-1.3
						c0,0-0.5-0.4-0.7-0.4s-0.8,0.4-0.8,0.7c0,0.2-1,3.9-1.3,5.3s-1.1,10.3-1.1,10.9c0,0.5,0,5-0.1,7.5c-0.1,2.5-1.4,8.2-1.8,9.3
						c-0.3,1.1-1.1,1.3-1.1,1.3s-0.6,0-0.8-0.4s-0.4-1.1-0.6-2c-0.2-0.8-1-6.3-1.4-8.1c-0.4-1.7-1-2.2-1.6-2.2
						c-0.6,0-1.8,1.8-1.8,1.8s-1.9,2.8-2.4,2.9c-0.6,0.2-0.8,0.4-1.2-0.4c-0.4-0.8-1-2.9-1.4-7.9c-0.3-5-1.4-8.8-2-9.6
						c-0.6-0.9-0.4-1-1.4-0.9c-1,0-1.9,2-2.6,3c-0.7,1-0.8,1.3-1.6,1.4c-0.7,0-1.9-1.7-2.6-7.5c-0.7-5.8-1.6-4.9-1.8-4.9
						c-0.2,0-0.7,0.2-1.4,5c-0.7,4.4-1.2,6.9-1.3,10.7"/>
					<path style="fill:none;stroke:#4B508B;stroke-width:0.4295;stroke-linecap:round;stroke-linejoin:round;" d="M598.1,292.1
						c0,0.1,0,0.3,0,0.4"/>
				</g>
			</g>
		</g>
	</g>
</g>
<g id="oculto" class="st0">
</g>
<g id="Capa_1">
	<g>
		<path class="st142" d="M714.1,121c3.4,0,6.1,2.7,6.1,6.1s-2.7,6.1-6.1,6.1"/>
		<polyline class="st142" points="715.3,131.4 713.8,133.4 715.6,135.2 		"/>
	</g>
	<g>
		<path class="st142" d="M714.1,168c3.4,0,6.1,2.7,6.1,6.1s-2.7,6.1-6.1,6.1"/>
		<polyline class="st142" points="715.3,178.4 713.8,180.4 715.6,182.2 		"/>
	</g>
	<g>
		<path class="st142" d="M714.1,215c3.4,0,6.1,2.7,6.1,6.1s-2.7,6.1-6.1,6.1"/>
		<polyline class="st142" points="715.3,225.4 713.8,227.4 715.6,229.2 		"/>
	</g>
	<g>
		<path class="st142" d="M714.1,262c3.4,0,6.1,2.7,6.1,6.1c0,3.4-2.7,6.1-6.1,6.1"/>
		<polyline class="st142" points="715.3,272.4 713.8,274.4 715.6,276.2 		"/>
	</g>
	<g>
		<path class="st142" d="M714.1,309c3.4,0,6.1,2.7,6.1,6.1c0,3.4-2.7,6.1-6.1,6.1"/>
		<polyline class="st142" points="715.3,319.4 713.8,321.4 715.6,323.2 		"/>
	</g>
	<g>
		<path class="st142" d="M714.1,356c3.4,0,6.1,2.7,6.1,6.1c0,3.4-2.7,6.1-6.1,6.1"/>
		<polyline class="st142" points="715.3,366.4 713.8,368.4 715.6,370.2 		"/>
	</g>
	<g>
		<path class="st142" d="M714.1,403c3.4,0,6.1,2.7,6.1,6.1c0,3.4-2.7,6.1-6.1,6.1"/>
		<polyline class="st142" points="715.3,413.4 713.8,415.4 715.6,417.2 		"/>
	</g>
	<circle class="st143" cx="402" cy="392.5" r="3.6"/>
	<circle class="st144" cx="188.4" cy="389.4" r="3.6"/>
	<circle class="st143" cx="296.6" cy="375.8" r="3.6"/>
	<line class="st145" x1="186.4" y1="337.1" x2="186.4" y2="346.8"/>
	<line class="st145" x1="190.5" y1="337.1" x2="190.5" y2="346.8"/>
	<line class="st145" x1="194.5" y1="337.1" x2="194.5" y2="346.8"/>
	<line class="st146" x1="306.3" y1="337.1" x2="306.3" y2="346.8"/>
	<line class="st146" x1="310.3" y1="337.1" x2="310.3" y2="346.8"/>
	<line class="st146" x1="314.3" y1="337.1" x2="314.3" y2="346.8"/>
	<line class="st147" x1="416.3" y1="337.1" x2="416.3" y2="346.8"/>
	<line class="st147" x1="420.3" y1="337.1" x2="420.3" y2="346.8"/>
	<line class="st147" x1="424.4" y1="337.1" x2="424.4" y2="346.8"/>
	<line class="st148" x1="522.6" y1="337.1" x2="522.6" y2="346.8"/>
	<line class="st148" x1="526.6" y1="337.1" x2="526.6" y2="346.8"/>
	<line class="st148" x1="530.7" y1="337.1" x2="530.7" y2="346.8"/>
	<line class="st148" x1="612.6" y1="337.1" x2="612.6" y2="346.8"/>
	<line class="st149" x1="616.7" y1="337.1" x2="616.7" y2="346.8"/>
	<line class="st149" x1="620.7" y1="337.1" x2="620.7" y2="346.8"/>
	<g>
		<text transform="matrix(1 0 0 1 710.7668 449.672)" class="st151 st158 st159">D.C.</text>
	</g>
	<path class="st150" d="M194.6,279.5v10.2c3-0.8,3.6-2.7,3.6-5.1S197.6,280.2,194.6,279.5z"/>
	<path class="st151" d="M302.6,279.2V290c3-0.1,5.2-2.5,5.2-5.4C307.8,281.6,305.6,279.3,302.6,279.2z"/>
	<path class="st151" d="M407.1,279.1c-0.8,0-1.4,0.2-2.4,0.5v9.8c1,0.3,1.6,0.5,2.4,0.5c3,0,5.4-2.4,5.4-5.4
		C412.5,281.6,410,279.1,407.1,279.1z"/>
	<path class="st152" d="M194,430.3c-0.4-0.3-0.9-0.6-1.4-0.8c-1.8-0.6-3.7,0.4-4.3,2.2c-0.6,1.8,0.4,3.7,2.2,4.3
		c0.5,0.2,1.1,0.2,1.6,0.1"/>
	<path class="st153" d="M307.6,435.8c0.4-0.4,0.7-0.8,0.9-1.3c0.7-1.7-0.1-3.7-1.9-4.5c-1.7-0.7-3.7,0.1-4.5,1.9
		c-0.2,0.5-0.3,1-0.3,1.5"/>
	<path class="st153" d="M403.3,430.1c-0.1,0.5-0.2,1-0.1,1.6c0.3,1.9,2,3.1,3.9,2.8c1.9-0.3,3.1-2,2.8-3.9c-0.1-0.5-0.3-1-0.6-1.5"
		/>
	<path class="st153" d="M515.7,425.4c-0.5-0.1-1.1,0-1.6,0.2c-1.8,0.6-2.8,2.5-2.2,4.3c0.6,1.8,2.5,2.8,4.3,2.2
		c0.5-0.2,1-0.4,1.4-0.8"/>
	<path class="st153" d="M615,435.6c0.5,0,1-0.2,1.5-0.4c1.7-0.9,2.4-2.9,1.5-4.6s-2.9-2.4-4.6-1.5c-0.5,0.2-0.9,0.6-1.2,1"/>
	<path class="st153" d="M615.6,432.8c0.4,0.3,0.9,0.6,1.4,0.8c1.8,0.6,3.7-0.4,4.3-2.2c0.6-1.8-0.4-3.7-2.2-4.3
		c-0.5-0.2-1.1-0.2-1.6-0.1"/>
	<path class="st153" d="M515.7,428.1c-0.4,0.4-0.7,0.8-0.9,1.3c-0.7,1.7,0.1,3.7,1.9,4.5c1.7,0.7,3.7-0.1,4.5-1.9
		c0.2-0.5,0.3-1,0.3-1.5"/>
	<path class="st153" d="M412.3,431.6c0.1-0.5,0.2-1,0.1-1.6c-0.3-1.9-2-3.1-3.9-2.8s-3.1,2-2.8,3.9c0.1,0.5,0.3,1,0.6,1.5"/>
	<path class="st153" d="M296.5,434.8c0.5,0.1,1.1,0,1.6-0.2c1.8-0.6,2.8-2.5,2.2-4.3c-0.6-1.8-2.5-2.8-4.3-2.2
		c-0.5,0.2-1,0.4-1.4,0.8"/>
	<path class="st152" d="M188.7,425.3c-0.5,0-1,0.2-1.5,0.4c-1.7,0.9-2.4,2.9-1.5,4.6c0.9,1.7,2.9,2.4,4.6,1.5c0.5-0.2,0.9-0.6,1.2-1
		"/>
	<path class="st151" d="M514.3,279.1c-1.5,0-2.7,0.6-3.7,1.6v7.7c1,1,2.2,1.6,3.7,1.6c3,0,5.4-2.4,5.4-5.4
		C519.7,281.6,517.3,279.1,514.3,279.1z"/>
	<g>
		<path class="st151" d="M616.3,279.1c-2,0-3.7,1.1-4.7,2.8v5.3c1,1.7,2.6,2.8,4.7,2.8c3,0,5.4-2.4,5.4-5.4
			C621.7,281.6,619.3,279.1,616.3,279.1z"/>
	</g>
	<circle class="st150" cx="189" cy="237.3" r="2"/>
	<circle class="st150" cx="195.3" cy="230.3" r="2"/>
	<circle class="st151" cx="297.6" cy="242" r="2"/>
	<circle class="st151" cx="301.6" cy="236.1" r="2"/>
	<circle class="st151" cx="400.6" cy="227.1" r="2"/>
	<circle class="st151" cx="406.4" cy="236.8" r="2"/>
	<circle class="st151" cx="509.4" cy="237.5" r="2"/>
	<circle class="st151" cx="516.1" cy="233.8" r="2"/>
	<circle class="st151" cx="611.4" cy="229.2" r="2"/>
	<circle class="st151" cx="615.2" cy="236.7" r="2"/>
	<polygon class="st150" points="184.2,148.8 193.9,151.2 191.6,141.5 	"/>
	<polygon class="st151" points="297.9,142.9 305.8,136.9 296.8,132.6 	"/>
	<polygon class="st151" points="399.4,152.5 408.3,148 400.2,142.2 	"/>
	<polygon class="st151" points="510.4,138.3 516.1,146.5 520.7,137.6 	"/>
	<polygon class="st151" points="614,153.3 619,144.7 609,144.2 	"/>
	<g>
		<line class="st154" x1="181.9" y1="197.2" x2="189.9" y2="189.2"/>
		<line class="st154" x1="184.4" y1="197.2" x2="192.4" y2="189.2"/>
		<line class="st154" x1="186.9" y1="197.2" x2="194.9" y2="189.2"/>
		<line class="st154" x1="189.4" y1="197.2" x2="197.4" y2="189.2"/>
	</g>
	<g>
		<line class="st155" x1="292" y1="192.4" x2="300" y2="184.4"/>
		<line class="st155" x1="294.5" y1="192.4" x2="302.5" y2="184.4"/>
		<line class="st155" x1="297" y1="192.4" x2="305" y2="184.4"/>
		<line class="st155" x1="299.5" y1="192.4" x2="307.5" y2="184.4"/>
		<line class="st155" x1="302.2" y1="192.4" x2="310.2" y2="184.4"/>
	</g>
	<g>
		<line class="st155" x1="392" y1="202.3" x2="400" y2="194.4"/>
		<line class="st155" x1="394.5" y1="202.3" x2="402.5" y2="194.4"/>
		<line class="st155" x1="397" y1="202.3" x2="405" y2="194.4"/>
		<line class="st155" x1="399.5" y1="202.3" x2="407.5" y2="194.4"/>
	</g>
	<g>
		<line class="st155" x1="498.6" y1="193.5" x2="506.6" y2="185.5"/>
		<line class="st155" x1="501.1" y1="193.5" x2="509.1" y2="185.5"/>
		<line class="st155" x1="503.6" y1="193.5" x2="511.6" y2="185.5"/>
		<line class="st155" x1="506.1" y1="193.5" x2="514.1" y2="185.5"/>
		<line class="st155" x1="508.8" y1="193.5" x2="516.8" y2="185.5"/>
		<line class="st155" x1="511.3" y1="193.5" x2="519.3" y2="185.5"/>
	</g>
	<g>
		<line class="st155" x1="611.1" y1="202.2" x2="619.1" y2="194.2"/>
		<line class="st155" x1="613.6" y1="202.2" x2="621.6" y2="194.2"/>
		<line class="st155" x1="616.1" y1="202.2" x2="624.1" y2="194.2"/>
		<line class="st155" x1="618.6" y1="202.2" x2="626.6" y2="194.2"/>
	</g>
	<g>
		<line class="st155" x1="600.8" y1="202.2" x2="608.8" y2="194.2"/>
		<line class="st155" x1="603.4" y1="202.2" x2="611.3" y2="194.2"/>
		<line class="st155" x1="605.9" y1="202.2" x2="613.9" y2="194.2"/>
		<line class="st155" x1="608.4" y1="202.2" x2="616.4" y2="194.2"/>
	</g>
	<line class="st156" x1="190.8" y1="380.6" x2="190.8" y2="398.9"/>
	<line class="st157" x1="297.5" y1="376" x2="308.4" y2="390.7"/>
	<line class="st157" x1="408.7" y1="376.5" x2="406.5" y2="394.6"/>
	<circle class="st143" cx="510.4" cy="390.9" r="3.6"/>
	<line class="st157" x1="519" y1="385.1" x2="504.3" y2="395.9"/>
	<circle class="st143" cx="615.9" cy="386.1" r="3.6"/>
	<line class="st157" x1="626.1" y1="391.4" x2="607.8" y2="391.4"/>
	<g>
		<path class="st150" d="M186.7,90.9l1.5,3.7l-3.9,0.9l-0.3-1l2.8-0.6l-1.1-2.7L186.7,90.9z"/>
		<path class="st150" d="M191.8,93.6l1.5,3.7l-3.9,0.9l-0.3-1l2.8-0.6l-1.1-2.7L191.8,93.6z"/>
		<path class="st150" d="M196.9,96.3l1.5,3.7l-3.9,0.9l-0.3-1l2.8-0.6l-1.1-2.7L196.9,96.3z"/>
	</g>
	<g>
		<path class="st151" d="M301.1,99.8l3.1,2.6l-3.1,2.6l-0.7-0.7l2.2-1.8l-2.2-1.9L301.1,99.8z"/>
		<path class="st151" d="M306.9,99.8l3.1,2.6l-3.1,2.6l-0.7-0.7l2.2-1.8l-2.2-1.9L306.9,99.8z"/>
		<path class="st151" d="M312.7,99.8l3.1,2.6l-3.1,2.6l-0.7-0.7l2.2-1.8l-2.2-1.9L312.7,99.8z"/>
	</g>
	<g>
		<path class="st151" d="M397.6,101.3l3.1,2.6l-3.1,2.6l-0.7-0.7l2.2-1.8l-2.2-1.9L397.6,101.3z"/>
		<path class="st151" d="M403.4,101.3l3.1,2.6l-3.1,2.6l-0.7-0.7l2.2-1.8l-2.2-1.9L403.4,101.3z"/>
		<path class="st151" d="M409.2,101.3l3.1,2.6l-3.1,2.6l-0.7-0.7l2.2-1.8l-2.2-1.9L409.2,101.3z"/>
	</g>
	<g>
		<path class="st151" d="M507.8,105.4l3.1,2.6l-3.1,2.6l-0.7-0.7l2.2-1.8l-2.2-1.9L507.8,105.4z"/>
		<path class="st151" d="M513.6,105.4l3.1,2.6l-3.1,2.6l-0.7-0.7l2.2-1.8l-2.2-1.9L513.6,105.4z"/>
		<path class="st151" d="M519.4,105.4l3.1,2.6l-3.1,2.6l-0.7-0.7l2.2-1.8l-2.2-1.9L519.4,105.4z"/>
	</g>
	<g>
		<path class="st151" d="M616.6,100.1l3.1,2.6l-3.1,2.6l-0.7-0.7l2.2-1.8l-2.2-1.9L616.6,100.1z"/>
		<path class="st151" d="M622.4,100.1l3.1,2.6l-3.1,2.6l-0.7-0.7l2.2-1.8l-2.2-1.9L622.4,100.1z"/>
		<path class="st151" d="M628.2,100.1l3.1,2.6l-3.1,2.6l-0.7-0.7l2.2-1.8l-2.2-1.9L628.2,100.1z"/>
	</g>
</g>
<g id="texto">
	<g>
		<text transform="matrix(0.739 0.6737 -0.6737 0.739 620.6292 332.0351)" class="st151 st158 st169">5</text>
	</g>
	<g>
		<text transform="matrix(0.9635 -0.2678 0.2678 0.9635 534.2397 341.3284)" class="st151 st158 st169">4</text>
	</g>
	<g>
		<text transform="matrix(0.8617 -0.5074 0.5074 0.8617 425.9741 346.5867)" class="st151 st158 st169">3</text>
	</g>
	<g>
		<text transform="matrix(1 0 0 1 317.9197 335.8844)" class="st151 st158 st169">2</text>
	</g>
	<g>
		<text transform="matrix(1 0 0 1 620.394 185.8214)" class="st151 st158 st169">5</text>
	</g>
	<g>
		<text transform="matrix(1 0 0 1 516.208 206.8288)" class="st151 st158 st169">4</text>
	</g>
	<g>
		<text transform="matrix(1 0 0 1 408.7417 184.5929)" class="st151 st158 st169">3</text>
	</g>
	<g>
		<text transform="matrix(1 0 0 1 302.8491 206.4606)" class="st151 st158 st169">2</text>
	</g>
	<g>
		<text transform="matrix(1 0 0 1 303.2178 229.8136)" class="st151 st158 st169">2</text>
	</g>
	<g>
		<text transform="matrix(1 0 0 1 406.5308 247.8742)" class="st151 st158 st169">3</text>
	</g>
	<g>
		<text transform="matrix(1 0 0 1 510.9253 232.026)" class="st151 st158 st169">4</text>
	</g>
	<g>
		<text transform="matrix(1 0 0 1 619.9028 247.5045)" class="st151 st158 st169">5</text>
	</g>
	<g>
		<text transform="matrix(0.9972 7.531000e-02 -7.531000e-02 0.9972 168.7804 157.498)" class="st150 st158 st159">Cris Blanco</text>
	</g>
	<g>
		<text transform="matrix(0.9972 7.531000e-02 -7.531000e-02 0.9972 179.5501 114.0275)"><tspan x="0" y="0" class="st150 st158 st159">Historias de </tspan><tspan x="-6.2" y="6" class="st150 st158 st159">la colaboracin</tspan></text>
	</g>
	<g>
		<text transform="matrix(0.9925 -0.1224 0.1224 0.9925 196.0136 106.7975)" class="st150 st158 st159">01:29:19</text>
	</g>
	<g>
		<text transform="matrix(0.9925 -0.1224 0.1224 0.9925 196.8152 149.9001)" class="st150 st158 st159">22:08</text>
	</g>
	<g>
		<text transform="matrix(0.9598 -0.2808 0.2808 0.9598 183.7303 208.56)" class="st150 st158 st159">Git Hub</text>
	</g>
	<g>
		<text transform="matrix(0.9957 9.230000e-02 -9.230000e-02 0.9957 196.918 196.0924)" class="st150 st158 st159">19:40</text>
	</g>
	<g>
		<text transform="matrix(0.9941 0.1081 -0.1081 0.9941 179.8589 246.5955)" class="st150 st158 st159">FairBnB</text>
	</g>
	<g>
		<text transform="matrix(0.9549 -0.297 0.297 0.9549 197.8715 243.2176)" class="st150 st158 st159">12:04</text>
	</g>
	<g>
		<text transform="matrix(1.1561 0.166 -0.1957 0.9807 174.1432 297.3998)"><tspan x="0" y="0" class="st150 st158 st170">Publicaciones </tspan><tspan x="14.7" y="5.1" class="st150 st158 st170">HUL</tspan></text>
	</g>
	<g>
		<text transform="matrix(0.9525 0.3044 -0.3044 0.9525 199.9816 289.9337)" class="st150 st158 st159">15:33</text>
	</g>
	<g>
		<text transform="matrix(0.986 0.1669 -0.1669 0.986 177.1771 350.56)" class="st150 st158 st159">intro + CAOS</text>
	</g>
	<g>
		<text transform="matrix(0.986 0.1669 -0.1669 0.986 195.1771 393.06)" class="st150 st158 st159">Convocatoria</text>
	</g>
	<g>
		<text transform="matrix(0.986 0.1669 -0.1669 0.986 173.0969 443.7885)"><tspan x="0" y="0" class="st150 st158 st159">HUL.- KaRaeoke</tspan><tspan x="-12.5" y="6" class="st150 st158 st159">Una ucrona en Ucrania</tspan></text>
	</g>
	<g>
		<text transform="matrix(0.9525 0.3044 -0.3044 0.9525 199.9816 344.9337)" class="st150 st158 st159">22:22</text>
	</g>
	<g>
		<text transform="matrix(0.9045 -0.4265 0.4265 0.9045 193.6158 387.053)" class="st150 st158 st159">07:56</text>
	</g>
	<g>
		<text transform="matrix(0.9045 -0.4265 0.4265 0.9045 197.6158 432.803)" class="st150 st158 st159">52:12</text>
	</g>
	<g>
		<text transform="matrix(1 0 0 1 302.1123 149.1554)" class="st151 st158 st169">2</text>
	</g>
	<g>
		<text transform="matrix(1 0 0 1 409.8481 139.4499)" class="st151 st158 st169">3</text>
	</g>
	<g>
		<text transform="matrix(1 0 0 1 514.9795 153.0876)" class="st151 st158 st169">4</text>
	</g>
	<g>
		<text transform="matrix(1 0 0 1 621.8682 140.5563)" class="st151 st158 st169">5</text>
	</g>
	<g>
		<text transform="matrix(1 0 0 1 303.9551 299.152)" class="st151 st158 st169">2</text>
	</g>
	<g>
		<text transform="matrix(1 0 0 1 410.5845 299.152)" class="st151 st158 st169">3</text>
	</g>
	<g>
		<text transform="matrix(1 0 0 1 519.771 299.152)" class="st151 st158 st169">4</text>
	</g>
	<g>
		<text transform="matrix(1 0 0 1 623.957 299.152)" class="st151 st158 st169">5</text>
	</g>
	<g>
		<text transform="matrix(1 0 0 1 617.4458 422.9997)" class="st151 st158 st169">5</text>
	</g>
	<g>
		<text transform="matrix(1 0 0 1 513.9966 440.3224)" class="st151 st158 st169">4</text>
	</g>
	<g>
		<text transform="matrix(1 0 0 1 403.9507 423.6139)" class="st151 st158 st169">3</text>
	</g>
	<g>
		<text transform="matrix(1 0 0 1 306.5347 441.4274)" class="st151 st158 st169">2</text>
	</g>
	<g>
		<text transform="matrix(1 0 0 1 618.5513 376.0382)" class="st151 st158 st169">5</text>
	</g>
	<g>
		<text transform="matrix(1 0 0 1 519.8931 399.9948)" class="st151 st158 st169">4</text>
	</g>
	<g>
		<text transform="matrix(1 0 0 1 406.8999 374.8102)" class="st151 st158 st169">3</text>
	</g>
	<g>
		<text transform="matrix(1 0 0 1 301.0068 396.6779)" class="st151 st158 st169">2</text>
	</g>
	<text transform="matrix(0.9603 -0.279 0.279 0.9603 36.9399 119.9165)" class="st151 st158 st171">cuerpo</text>
	<text transform="matrix(0.9622 0.2723 -0.2723 0.9622 38.7381 146.2125)" class="st151 st158 st171">faqs</text>
	<text transform="matrix(0.9945 -0.105 0.105 0.9945 19.8737 201.2913)" class="st151 st158 st171">herramientas</text>
	<text transform="matrix(0.9474 -0.3202 0.3202 0.9474 26.1071 254.1985)" class="st151 st158 st172">everywhere</text>
	<text transform="matrix(0.9784 0.2067 -0.2067 0.9784 32.1206 288.8163)" class="st151 st158 st171">ARCHIVO</text>
	<text transform="matrix(0.9992 -4.049000e-02 4.049000e-02 0.9992 29.495 341.4013)" class="st151 st158 st171">lexic-on</text>
	<text transform="matrix(0.9974 7.178000e-02 -7.178000e-02 0.9974 29.2729 389.4482)" class="st151 st158 st171">open.col</text>
	<g>
		<text transform="matrix(1 0 0 1 303.2178 96.6935)" class="st151 st158 st169">2</text>
	</g>
	<g>
		<text transform="matrix(1 0 0 1 419.2132 114.7541)" class="st151 st158 st169">3</text>
	</g>
	<g>
		<text transform="matrix(1 0 0 1 523.5311 98.9059)" class="st151 st158 st169">4</text>
	</g>
	<g>
		<text transform="matrix(1 0 0 1 619.9028 114.3839)" class="st151 st158 st169">5</text>
	</g>
	<text transform="matrix(0.9945 -0.105 0.105 0.9945 19.875 442.9661)" class="st151 st158 st171">PERFORMATIVO</text>
	<g>
		<text transform="matrix(0.7858 -0.6185 0.6185 0.7858 398.2102 77.3852)" class="st151 st158 st173">CIUDAD FEMEN</text>
	</g>
	<g>
		<text transform="matrix(0.7767 -0.6299 0.6299 0.7767 497.4694 82.4767)" class="st151 st158 st169">COLLABORATION MY ASS</text>
	</g>
	<g>
		<text transform="matrix(0.8445 0.5355 -0.5355 0.8445 617.7915 66.937)" class="st151 st158 st173">FIESTA</text>
	</g>
	<text transform="matrix(0.8208 -0.5712 0.5712 0.8208 182.5534 56.4597)"><tspan x="0" y="0" class="st150 st158 st171">on01 </tspan><tspan x="24.3" y="0" class="st150 st158 st174">.-</tspan><tspan x="31.5" y="0" class="st150 st158 st171"> </tspan></text>
	<text transform="matrix(0.4513 -0.8924 0.8924 0.4513 301.0912 67.1496)"><tspan x="0" y="0" class="st151 st158 st171">on02 </tspan><tspan x="24.3" y="0" class="st151 st158 st174">.-</tspan></text>
	<g>
		<text transform="matrix(0.7959 -0.6055 0.6055 0.7959 287.3251 85.8133)" class="st151 st158 st173">CO-MADRID POST92 </text>
	</g>
	<g>
		<text transform="matrix(0.9728 -0.2315 0.2315 0.9728 126.7685 75.8506)" class="st150 st158 st174">historias de la colaboracin</text>
	</g>
	<text transform="matrix(0.6823 -0.7311 0.7311 0.6823 410.0098 59.948)"><tspan x="0" y="0" class="st151 st158 st171">on03 </tspan><tspan x="24.3" y="0" class="st151 st158 st174">.-</tspan></text>
	<text transform="matrix(0.4529 -0.8916 0.8916 0.4529 512.7921 63.5639)"><tspan x="0" y="0" class="st151 st158 st171">on04 </tspan><tspan x="24.3" y="0" class="st151 st158 st174">.-</tspan></text>
	<text transform="matrix(0.9177 -0.3973 0.3973 0.9177 611.6553 60.8682)"><tspan x="0" y="0" class="st151 st158 st171">on05 </tspan><tspan x="24.3" y="0" class="st151 st158 st174">.-</tspan></text>
</g>
<g id="hover">
</g>
</svg>
