<?xml version="1.0" encoding="utf-8"?>
<!-- Generator: Adobe Illustrator 23.1.1, SVG Export Plug-In . SVG Version: 6.00 Build 0)  -->
<svg version="1.1" xmlns="http://www.w3.org/2000/svg" xmlns:xlink="http://www.w3.org/1999/xlink" x="0px" y="0px"
     viewBox="0 0 375 467.7" enable-background="new 0 0 375 467.7" xml:space="preserve">
<g id="fondo" display="none">
	<rect x="-8.4" y="-176.1" display="inline" fill="#DCDEDB" width="1889.6" height="2678.6"/>
</g>
  <g id="ondas_sonoras">
	<g>
		<g>
			<g>
				<path fill="none" stroke="#4B508B" stroke-width="0.3191" stroke-linecap="round" stroke-linejoin="round" d="M137.6,102.6
					c0.1,0.1,0.2,0.2,0.3,0.2"/>

        <path fill="none" stroke="#4B508B" stroke-width="0.3191" stroke-linecap="round" stroke-linejoin="round" stroke-dasharray="0.7197,1.4394" d="
					M139.2,103.3c1.1,0,2.1-1.4,2.9-2c0.8-0.7,0.9-0.9,1.7-0.9c0.8,0,2.1,1.2,3,5.2c0.8,4,1.8,3.4,2,3.3c0.2,0,0.8-0.1,1.6-3.4
					c0.7-2.7,1.3-4.3,1.4-6.5"/>
        <path fill="none" stroke="#4B508B" stroke-width="0.3191" stroke-linecap="round" stroke-linejoin="round" d="M151.8,97.5
					c0-0.1,0-0.2,0-0.4"/>
			</g>
		</g>
    <g>
			<g>
				<path fill="none" stroke="#D0445C" stroke-width="0.3191" stroke-linecap="round" stroke-linejoin="round" d="M90.3,84.9
					c0.1,0,0.2,0,0.4,0.1"/>

        <path fill="none" stroke="#D0445C" stroke-width="0.3191" stroke-linecap="round" stroke-linejoin="round" stroke-dasharray="0.7392,1.4783" d="
					M91.7,86c0.6,1,1,2.4,1,2.4l1.1,4.7c0,0,0.2,0.5,0.9,0.6c0.8,0.1,1.5-0.4,1.5-0.4l2.7-1.9c0,0,0.9-0.6,1.3-0.7
					c0.4,0,0.5-0.1,1,0.7s1.6,5.4,1.7,5.9c0.1,0.5,0.5,2.7,0.8,3s0.8,2,1.1,2.5c0.4,0.4,0.7,1,1.5,1c0.8,0.1,2.1-1.2,2.1-1.2
					l1.8-1.9c0,0,0.4-0.2,0.9-0.2s0.8,0.4,0.8,0.4l2.8,7l0.3,0.9c0,0,0.5,0.3,0.8,0.3s0.9-0.3,0.9-0.5c0-0.2,1.1-2.6,1.4-3.6
					c0.3-1,1.3-7.1,1.2-7.4c0-0.4,0-3.4,0.2-5.2c0.2-1.7,1.6-5.6,2-6.3c0.3-0.8,1.3-0.9,1.3-0.9s0.7,0,0.9,0.3
					c0.2,0.2,0.4,0.8,0.6,1.4s1.1,4.3,1.6,5.5s1.1,1.5,1.8,1.5c0.7,0,2-1.2,2-1.2s2.1-1.9,2.7-2c0.6-0.1,0.9-0.2,1.3,0.3
					c0.4,0.5,1,1.7,1.4,4.3"/>
        <path fill="none" stroke="#D0445C" stroke-width="0.3191" stroke-linecap="round" stroke-linejoin="round" d="M135.3,95.7
					c0,0.1,0,0.2,0,0.4"/>
			</g>
		</g>
    <g>
			<g>
				<path fill="none" stroke="#4B508B" stroke-width="0.3191" stroke-linecap="round" stroke-linejoin="round" d="M152.2,97
					c0,0,0-0.1,0.1-0.4"/>

        <path fill="none" stroke="#4B508B" stroke-width="0.3191" stroke-linecap="round" stroke-linejoin="round" stroke-dasharray="0.737,1.4739" d="
					M152.5,95.2c0.3-1.7,0.7-4.2,1-5.6c0.5-2.4,1.3-4.7,2.6-4.7c1.4-0.1,2.4,3.5,2.4,3.5l1.1,4.7c0,0,0.2,0.5,0.9,0.6
					c0.8,0.1,1.5-0.4,1.5-0.4l2.7-1.9c0,0,0.9-0.6,1.3-0.7c0.4,0,0.5-0.1,1,0.7c0.6,0.7,1.6,5.4,1.7,5.9c0.1,0.5,0.5,2.7,0.8,3
					c0.3,0.3,0.8,2,1.1,2.5c0.4,0.4,0.7,1,1.5,1c0.8,0.1,2.1-1.2,2.1-1.2l1.8-1.9c0,0,0.4-0.2,0.9-0.2c0.5,0.1,0.8,0.4,0.8,0.4
					l2.8,7l0.3,0.9c0,0,0.5,0.3,0.8,0.3c0.3,0,0.9-0.3,0.9-0.5c0-0.2,1.1-2.6,1.4-3.6s1.3-7.1,1.2-7.4c0-0.4,0-3.4,0.2-5.2
					s1.6-5.6,2-6.3c0.3-0.8,1.3-0.9,1.3-0.9s0.7,0,0.9,0.3c0.2,0.2,0.4,0.8,0.6,1.4c0.2,0.6,1.1,4.3,1.6,5.5
					c0.4,1.2,1.1,1.5,1.8,1.5c0.7,0,2-1.2,2-1.2s2.1-1.9,2.7-2c0.6-0.1,0.9-0.2,1.3,0.3s1.2,2,1.6,5.4s1.6,6,2.3,6.6
					c0.7,0.6,0.5,0.7,1.6,0.6c1.1,0,2.1-1.4,2.9-2c0.8-0.7,0.9-0.9,1.7-0.9c0.8,0,2.1,1.2,3,5.2c0.8,4,1.8,3.4,2,3.3
					c0.2,0,0.8-0.1,1.6-3.4c0.8-2.9,1.4-4.6,1.4-7.1"/>
        <path fill="none" stroke="#4B508B" stroke-width="0.3191" stroke-linecap="round" stroke-linejoin="round" d="M217.6,97.5
					c0-0.1,0-0.2,0-0.4"/>
			</g>
		</g>
    <g>
			<g>
				<path fill="none" stroke="#4B508B" stroke-width="0.3191" stroke-linecap="round" stroke-linejoin="round" d="M218,97
					c0,0,0-0.1,0.1-0.4"/>

        <path fill="none" stroke="#4B508B" stroke-width="0.3191" stroke-linecap="round" stroke-linejoin="round" stroke-dasharray="0.737,1.4739" d="
					M218.3,95.2c0.3-1.7,0.7-4.2,1-5.6c0.5-2.4,1.3-4.7,2.6-4.7s2.4,3.5,2.4,3.5l1.1,4.7c0,0,0.2,0.5,0.9,0.6
					c0.8,0.1,1.5-0.4,1.5-0.4l2.7-1.9c0,0,0.9-0.6,1.3-0.7c0.4,0,0.5-0.1,1,0.7c0.6,0.7,1.6,5.4,1.7,5.9c0.1,0.5,0.5,2.7,0.8,3
					c0.3,0.3,0.8,2,1.1,2.5c0.4,0.4,0.7,1,1.5,1c0.8,0.1,2.1-1.2,2.1-1.2l1.8-1.9c0,0,0.4-0.2,0.9-0.2s0.8,0.4,0.8,0.4l2.8,7
					l0.3,0.9c0,0,0.5,0.3,0.8,0.3c0.3,0,0.9-0.3,0.9-0.5c0-0.2,1.1-2.6,1.4-3.6c0.3-1,1.3-7.1,1.2-7.4c0-0.4,0-3.4,0.2-5.2
					s1.6-5.6,2-6.3c0.3-0.8,1.3-0.9,1.3-0.9s0.7,0,0.9,0.3c0.2,0.2,0.4,0.8,0.6,1.4c0.2,0.6,1.1,4.3,1.6,5.5s1.1,1.5,1.8,1.5
					c0.7,0,2-1.2,2-1.2s2.1-1.9,2.7-2c0.6-0.1,0.9-0.2,1.3,0.3s1.2,2,1.6,5.4c0.4,3.4,1.6,6,2.3,6.6c0.7,0.6,0.5,0.7,1.6,0.6
					c1.1,0,2.1-1.4,2.9-2c0.8-0.7,0.9-0.9,1.7-0.9c0.8,0,2.1,1.2,3,5.2c0.8,4,1.8,3.4,2,3.3c0.2,0,0.8-0.1,1.6-3.4
					c0.8-2.9,1.4-4.6,1.4-7.1"/>
        <path fill="none" stroke="#4B508B" stroke-width="0.3191" stroke-linecap="round" stroke-linejoin="round" d="M283.4,97.5
					c0-0.1,0-0.2,0-0.4"/>
			</g>
		</g>
    <g>
			<g>
				<path fill="none" stroke="#4B508B" stroke-width="0.3191" stroke-linecap="round" stroke-linejoin="round" d="M283.8,97
					c0,0,0-0.1,0.1-0.4"/>

        <path fill="none" stroke="#4B508B" stroke-width="0.3191" stroke-linecap="round" stroke-linejoin="round" stroke-dasharray="0.7435,1.4871" d="
					M284.1,95.2c0.3-1.7,0.7-4.2,1-5.6c0.5-2.4,1.3-4.7,2.6-4.7s2.4,3.5,2.4,3.5l1.1,4.7c0,0,0.2,0.5,0.9,0.6
					c0.8,0.1,1.5-0.4,1.5-0.4l2.7-1.9c0,0,0.9-0.6,1.3-0.7c0.4,0,0.5-0.1,1,0.7s1.6,5.4,1.7,5.9s0.5,2.7,0.8,3s0.8,2,1.1,2.5
					c0.4,0.4,0.7,1,1.5,1c0.8,0.1,2.1-1.2,2.1-1.2l1.8-1.9c0,0,0.4-0.2,0.9-0.2s0.8,0.4,0.8,0.4l2.8,7l0.3,0.9c0,0,0.5,0.3,0.8,0.3
					s0.9-0.3,0.9-0.5c0-0.2,1.1-2.6,1.4-3.6c0.3-1,1.3-7.1,1.2-7.4c0-0.4,0-3.4,0.2-5.2s1.6-5.6,2-6.3c0.3-0.8,1.3-0.9,1.3-0.9
					s0.7,0,0.9,0.3c0.2,0.2,0.4,0.8,0.6,1.4c0.2,0.6,1.1,4.3,1.6,5.5s1.1,1.5,1.8,1.5c0.7,0,2-1.2,2-1.2s2.1-1.9,2.7-2
					c0.6-0.1,0.9-0.2,1.3,0.3s1.2,2,1.6,5.4c0.4,3.4,1.6,6,2.3,6.6s0.5,0.7,1.6,0.6c1.1,0,2.1-1.4,2.9-2c0.8-0.7,0.9-0.9,1.7-0.9
					c0.8,0,1.9,1,2.7,4.1"/>
        <path fill="none" stroke="#4B508B" stroke-width="0.3191" stroke-linecap="round" stroke-linejoin="round" d="M344.1,105.1
					c0,0.1,0.1,0.2,0.1,0.4"/>
			</g>
		</g>
	</g>
    <g>
		<g>
			<g>
				<path fill="none" stroke="#4B508B" stroke-width="0.3191" stroke-linecap="round" stroke-linejoin="round" d="M137.6,382.5
					c0.1,0.1,0.2,0.2,0.3,0.2"/>

        <path fill="none" stroke="#4B508B" stroke-width="0.3191" stroke-linecap="round" stroke-linejoin="round" stroke-dasharray="0.7197,1.4394" d="
					M139.2,383.2c1.1,0,2.1-1.4,2.9-2c0.8-0.7,0.9-0.9,1.7-0.9c0.8,0,2.1,1.2,3,5.2c0.8,4,1.8,3.4,2,3.3c0.2,0,0.8-0.1,1.6-3.4
					c0.7-2.7,1.3-4.3,1.4-6.5"/>
        <path fill="none" stroke="#4B508B" stroke-width="0.3191" stroke-linecap="round" stroke-linejoin="round" d="M151.8,377.4
					c0-0.1,0-0.2,0-0.4"/>
			</g>
		</g>
      <g>
			<g>
				<path fill="none" stroke="#D0445C" stroke-width="0.3191" stroke-linecap="round" stroke-linejoin="round" d="M86.4,376.9
					c0,0,0-0.1,0.1-0.4"/>

        <path fill="none" stroke="#D0445C" stroke-width="0.3191" stroke-linecap="round" stroke-linejoin="round" stroke-dasharray="0.7388,1.4777" d="
					M86.7,375.1c0.3-1.7,0.7-4.2,1-5.6c0.5-2.4,1.3-4.7,2.6-4.7c1.4-0.1,2.4,3.5,2.4,3.5l1.1,4.7c0,0,0.2,0.5,0.9,0.6
					c0.8,0.1,1.5-0.4,1.5-0.4l2.7-1.9c0,0,0.9-0.6,1.3-0.7c0.4,0,0.5-0.1,1,0.7c0.6,0.7,1.6,5.4,1.7,5.9c0.1,0.5,0.5,2.7,0.8,3
					s0.8,2,1.1,2.5c0.4,0.4,0.7,1,1.5,1c0.8,0.1,2.1-1.2,2.1-1.2l1.8-1.9c0,0,0.4-0.2,0.9-0.2c0.5,0.1,0.8,0.4,0.8,0.4l2.8,7
					l0.3,0.9c0,0,0.5,0.3,0.8,0.3s0.9-0.3,0.9-0.5c0-0.2,1.1-2.6,1.4-3.6c0.3-1,1.3-7.1,1.2-7.4s0-3.4,0.2-5.2
					c0.2-1.7,1.6-5.6,2-6.3c0.3-0.8,1.3-0.9,1.3-0.9s0.7,0,0.9,0.3s0.4,0.8,0.6,1.4s1.1,4.3,1.6,5.5s1.1,1.5,1.8,1.5
					c0.7,0,2-1.2,2-1.2s2.1-1.9,2.7-2s0.9-0.2,1.3,0.3c0.4,0.5,1,1.7,1.4,4.3"/>
        <path fill="none" stroke="#D0445C" stroke-width="0.3191" stroke-linecap="round" stroke-linejoin="round" d="M135.3,375.6
					c0,0.1,0,0.2,0,0.4"/>
			</g>
		</g>
      <g>
			<g>
				<path fill="none" stroke="#4B508B" stroke-width="0.3191" stroke-linecap="round" stroke-linejoin="round" d="M152.2,376.9
					c0,0,0-0.1,0.1-0.4"/>

        <path fill="none" stroke="#4B508B" stroke-width="0.3191" stroke-linecap="round" stroke-linejoin="round" stroke-dasharray="0.737,1.4739" d="
					M152.5,375.1c0.3-1.7,0.7-4.2,1-5.6c0.5-2.4,1.3-4.7,2.6-4.7c1.4-0.1,2.4,3.5,2.4,3.5l1.1,4.7c0,0,0.2,0.5,0.9,0.6
					c0.8,0.1,1.5-0.4,1.5-0.4l2.7-1.9c0,0,0.9-0.6,1.3-0.7c0.4,0,0.5-0.1,1,0.7c0.6,0.7,1.6,5.4,1.7,5.9c0.1,0.5,0.5,2.7,0.8,3
					c0.3,0.3,0.8,2,1.1,2.5s0.7,1,1.5,1c0.8,0.1,2.1-1.2,2.1-1.2l1.8-1.9c0,0,0.4-0.2,0.9-0.2c0.5,0.1,0.8,0.4,0.8,0.4l2.8,7
					l0.3,0.9c0,0,0.5,0.3,0.8,0.3c0.3,0,0.9-0.3,0.9-0.5c0-0.2,1.1-2.6,1.4-3.6s1.3-7.1,1.2-7.4s0-3.4,0.2-5.2
					c0.2-1.7,1.6-5.6,2-6.3c0.3-0.8,1.3-0.9,1.3-0.9s0.7,0,0.9,0.3c0.2,0.2,0.4,0.8,0.6,1.4c0.2,0.6,1.1,4.3,1.6,5.5
					c0.4,1.2,1.1,1.5,1.8,1.5c0.7,0,2-1.2,2-1.2s2.1-1.9,2.7-2c0.6-0.1,0.9-0.2,1.3,0.3s1.2,2,1.6,5.4s1.6,6,2.3,6.6
					c0.7,0.6,0.5,0.7,1.6,0.6c1.1,0,2.1-1.4,2.9-2c0.8-0.7,0.9-0.9,1.7-0.9s2.1,1.2,3,5.2c0.8,4,1.8,3.4,2,3.3
					c0.2,0,0.8-0.1,1.6-3.4c0.8-2.9,1.4-4.6,1.4-7.1"/>
        <path fill="none" stroke="#4B508B" stroke-width="0.3191" stroke-linecap="round" stroke-linejoin="round" d="M217.6,377.4
					c0-0.1,0-0.2,0-0.4"/>
			</g>
		</g>
      <g>
			<g>
				<path fill="none" stroke="#4B508B" stroke-width="0.3191" stroke-linecap="round" stroke-linejoin="round" d="M218,376.9
					c0,0,0-0.1,0.1-0.4"/>

        <path fill="none" stroke="#4B508B" stroke-width="0.3191" stroke-linecap="round" stroke-linejoin="round" stroke-dasharray="0.737,1.4739" d="
					M218.3,375.1c0.3-1.7,0.7-4.2,1-5.6c0.5-2.4,1.3-4.7,2.6-4.7s2.4,3.5,2.4,3.5l1.1,4.7c0,0,0.2,0.5,0.9,0.6s1.5-0.4,1.5-0.4
					l2.7-1.9c0,0,0.9-0.6,1.3-0.7s0.5-0.1,1,0.7c0.6,0.7,1.6,5.4,1.7,5.9c0.1,0.5,0.5,2.7,0.8,3c0.3,0.3,0.8,2,1.1,2.5
					c0.4,0.4,0.7,1,1.5,1c0.8,0.1,2.1-1.2,2.1-1.2l1.8-1.9c0,0,0.4-0.2,0.9-0.2c0.5,0.1,0.8,0.4,0.8,0.4l2.8,7l0.3,0.9
					c0,0,0.5,0.3,0.8,0.3c0.3,0,0.9-0.3,0.9-0.5c0-0.2,1.1-2.6,1.4-3.6c0.3-1,1.3-7.1,1.2-7.4c0-0.4,0-3.4,0.2-5.2
					c0.2-1.7,1.6-5.6,2-6.3c0.3-0.8,1.3-0.9,1.3-0.9s0.7,0,0.9,0.3s0.4,0.8,0.6,1.4c0.2,0.6,1.1,4.3,1.6,5.5s1.1,1.5,1.8,1.5
					s2-1.2,2-1.2s2.1-1.9,2.7-2s0.9-0.2,1.3,0.3s1.2,2,1.6,5.4c0.4,3.4,1.6,6,2.3,6.6c0.7,0.6,0.5,0.7,1.6,0.6c1.1,0,2.1-1.4,2.9-2
					c0.8-0.7,0.9-0.9,1.7-0.9s2.1,1.2,3,5.2c0.8,4,1.8,3.4,2,3.3c0.2,0,0.8-0.1,1.6-3.4c0.8-2.9,1.4-4.6,1.4-7.1"/>
        <path fill="none" stroke="#4B508B" stroke-width="0.3191" stroke-linecap="round" stroke-linejoin="round" d="M283.4,377.4
					c0-0.1,0-0.2,0-0.4"/>
			</g>
		</g>
      <g>
			<g>
				<path fill="none" stroke="#4B508B" stroke-width="0.3191" stroke-linecap="round" stroke-linejoin="round" d="M283.8,376.9
					c0,0,0-0.1,0.1-0.4"/>

        <path fill="none" stroke="#4B508B" stroke-width="0.3191" stroke-linecap="round" stroke-linejoin="round" stroke-dasharray="0.7435,1.4871" d="
					M284.1,375.1c0.3-1.7,0.7-4.2,1-5.6c0.5-2.4,1.3-4.7,2.6-4.7s2.4,3.5,2.4,3.5l1.1,4.7c0,0,0.2,0.5,0.9,0.6
					c0.8,0.1,1.5-0.4,1.5-0.4l2.7-1.9c0,0,0.9-0.6,1.3-0.7c0.4,0,0.5-0.1,1,0.7c0.6,0.7,1.6,5.4,1.7,5.9s0.5,2.7,0.8,3
					s0.8,2,1.1,2.5s0.7,1,1.5,1c0.8,0.1,2.1-1.2,2.1-1.2l1.8-1.9c0,0,0.4-0.2,0.9-0.2c0.5,0.1,0.8,0.4,0.8,0.4l2.8,7l0.3,0.9
					c0,0,0.5,0.3,0.8,0.3s0.9-0.3,0.9-0.5c0-0.2,1.1-2.6,1.4-3.6c0.3-1,1.3-7.1,1.2-7.4c0-0.4,0-3.4,0.2-5.2c0.2-1.7,1.6-5.6,2-6.3
					c0.3-0.8,1.3-0.9,1.3-0.9s0.7,0,0.9,0.3c0.2,0.2,0.4,0.8,0.6,1.4c0.2,0.6,1.1,4.3,1.6,5.5s1.1,1.5,1.8,1.5s2-1.2,2-1.2
					s2.1-1.9,2.7-2c0.6-0.1,0.9-0.2,1.3,0.3s1.2,2,1.6,5.4c0.4,3.4,1.6,6,2.3,6.6c0.7,0.6,0.5,0.7,1.6,0.6c1.1,0,2.1-1.4,2.9-2
					c0.8-0.7,0.9-0.9,1.7-0.9c0.8,0,1.9,1,2.7,4.1"/>
        <path fill="none" stroke="#4B508B" stroke-width="0.3191" stroke-linecap="round" stroke-linejoin="round" d="M344.1,385
					c0,0.1,0.1,0.2,0.1,0.4"/>
			</g>
		</g>
	</g>
    <g>
		<g>
			<g>
				<path fill="none" stroke="#4B508B" stroke-width="0.3191" stroke-linecap="round" stroke-linejoin="round" d="M138,173
					c0,0,0.2,0,0.4,0"/>

        <path fill="none" stroke="#4B508B" stroke-width="0.3191" stroke-linecap="round" stroke-linejoin="round" stroke-dasharray="0.8536,1.7072" d="
					M139.7,174c0.1,0.2,0.2,0.4,0.3,0.6c0.3,0.6,1.5,4.3,2,5.5s1.4,1.5,2.3,1.5c0.9,0,2.5-1.2,2.5-1.2s2.7-1.9,3.5-2
					c0.8-0.1,1.2-0.2,1.7,0.3c0.5,0.6,1.5,2,2,5.4s2,6,2.9,6.6c0.9,0.6,0.6,0.7,2.1,0.6c1.4,0,2.7-1.4,3.7-2s1.2-0.9,2.3-0.9
					c1.1,0,2.7,1.2,3.8,5.2c1.1,4,2.3,3.4,2.6,3.3c0.2,0,1-0.1,2.1-3.4c1-2.8,1.7-4.5,1.8-6.9"/>
        <path fill="none" stroke="#4B508B" stroke-width="0.3191" stroke-linecap="round" stroke-linejoin="round" d="M175.4,185.6
					c0-0.1,0-0.3,0-0.4"/>
			</g>
		</g>
      <g>
			<g>
				<path fill="none" stroke="#D0445C" stroke-width="0.3191" stroke-linecap="round" stroke-linejoin="round" d="M91,185
					c0,0,0-0.1,0.1-0.4"/>

        <path fill="none" stroke="#D0445C" stroke-width="0.3191" stroke-linecap="round" stroke-linejoin="round" stroke-dasharray="0.8354,1.6709" d="
					M91.4,183c0.3-1.7,0.9-4,1.2-5.4c0.7-2.4,1.7-4.7,3.4-4.7c1.8-0.1,3.1,3.5,3.1,3.5l1.4,4.7c0,0,0.2,0.5,1.2,0.6
					c1,0.1,2-0.4,2-0.4l3.5-1.9c0,0,1.2-0.6,1.7-0.7c0.5,0,0.6-0.1,1.3,0.7c0.7,0.7,2,5.4,2.1,5.9c0.1,0.5,0.6,2.7,1,3
					c0.3,0.3,1,2,1.5,2.5c0.5,0.4,0.9,1,1.9,1c1,0.1,2.7-1.2,2.7-1.2l2.4-1.9c0,0,0.5-0.2,1.1-0.2c0.6,0.1,1,0.4,1,0.4l3.6,7
					l0.4,0.9c0,0,0.7,0.3,1,0.3c0.3,0,1.1-0.3,1.2-0.5c0-0.2,1.4-2.6,1.9-3.6c0.4-1,1.6-7.1,1.6-7.4c0-0.3,0-2.2,0.1-3.9"/>
        <path fill="none" stroke="#D0445C" stroke-width="0.3191" stroke-linecap="round" stroke-linejoin="round" d="M133.8,180.6
					c0-0.1,0-0.3,0-0.4"/>
			</g>
		</g>
      <g>
			<g>
				<path fill="none" stroke="#4B508B" stroke-width="0.3191" stroke-linecap="round" stroke-linejoin="round" d="M175.9,185
					c0,0,0-0.1,0.1-0.4"/>

        <path fill="none" stroke="#4B508B" stroke-width="0.3191" stroke-linecap="round" stroke-linejoin="round" stroke-dasharray="0.8363,1.6727" d="
					M176.3,183c0.3-1.7,0.9-4,1.2-5.4c0.7-2.4,1.7-4.7,3.4-4.7c1.8-0.1,3.1,3.5,3.1,3.5l1.4,4.7c0,0,0.2,0.5,1.2,0.6
					c1,0.1,2-0.4,2-0.4l3.5-1.9c0,0,1.2-0.6,1.7-0.7c0.5,0,0.6-0.1,1.3,0.7c0.7,0.7,2,5.4,2.1,5.9c0.1,0.5,0.6,2.7,1,3
					c0.3,0.3,1,2,1.5,2.5c0.5,0.4,0.9,1,1.9,1c1,0.1,2.7-1.2,2.7-1.2l2.4-1.9c0,0,0.5-0.2,1.1-0.2c0.6,0.1,1,0.4,1,0.4l3.6,7
					l0.4,0.9c0,0,0.7,0.3,1,0.3c0.3,0,1.1-0.3,1.2-0.5c0-0.2,1.4-2.6,1.9-3.6c0.4-1,1.6-7.1,1.6-7.4c0-0.4,0-3.4,0.2-5.2
					s2.1-5.6,2.5-6.3c0.4-0.8,1.7-0.9,1.7-0.9s0.9,0,1.2,0.3c0.2,0.2,0.5,0.8,0.8,1.4c0.3,0.6,1.5,4.3,2,5.5s1.4,1.5,2.3,1.5
					c0.9,0,2.5-1.2,2.5-1.2s2.7-1.9,3.5-2c0.8-0.1,1.2-0.2,1.7,0.3c0.5,0.6,1.5,2,2,5.4s2,6,2.9,6.6c0.9,0.6,0.6,0.7,2.1,0.6
					c1.4,0,2.7-1.4,3.7-2c1-0.7,1.2-0.9,2.3-0.9c1.1,0,2.7,1.2,3.8,5.2c1.1,4,2.3,3.4,2.6,3.3c0.2,0,1-0.1,2.1-3.4
					c1-2.8,1.7-4.5,1.8-6.9"/>
        <path fill="none" stroke="#4B508B" stroke-width="0.3191" stroke-linecap="round" stroke-linejoin="round" d="M260.3,185.6
					c0-0.1,0-0.3,0-0.4"/>
			</g>
		</g>
      <g>
			<g>
				<path fill="none" stroke="#4B508B" stroke-width="0.3191" stroke-linecap="round" stroke-linejoin="round" d="M260.5,185
					c0,0,0-0.1,0.1-0.4"/>

        <path fill="none" stroke="#4B508B" stroke-width="0.3191" stroke-linecap="round" stroke-linejoin="round" stroke-dasharray="0.8452,1.6904" d="
					M260.9,183c0.3-1.7,0.8-4,1.2-5.4c0.7-2.4,1.7-4.7,3.4-4.7c1.8-0.1,3.1,3.5,3.1,3.5l1.4,4.7c0,0,0.2,0.5,1.2,0.6
					c1,0.1,2-0.4,2-0.4l3.5-1.9c0,0,1.2-0.6,1.7-0.7c0.5,0,0.6-0.1,1.3,0.7c0.7,0.7,2,5.4,2.1,5.9c0.1,0.5,0.6,2.7,1,3s1,2,1.5,2.5
					c0.5,0.4,0.9,1,1.9,1c1,0.1,2.7-1.2,2.7-1.2l2.4-1.9c0,0,0.5-0.2,1.1-0.2c0.6,0.1,1,0.4,1,0.4l3.6,7l0.4,0.9c0,0,0.7,0.3,1,0.3
					s1.1-0.3,1.2-0.5s1.4-2.6,1.9-3.6c0.4-1,1.6-7.1,1.6-7.4s0-3.4,0.2-5.2c0.2-1.7,2.1-5.6,2.5-6.3c0.4-0.8,1.7-0.9,1.7-0.9
					s0.9,0,1.2,0.3c0.2,0.2,0.5,0.8,0.8,1.4c0.3,0.6,1.5,4.3,2,5.5c0.5,1.2,1.4,1.5,2.3,1.5c0.9,0,2.5-1.2,2.5-1.2s2.7-1.9,3.5-2
					c0.8-0.1,1.2-0.2,1.7,0.3c0.5,0.6,1.5,2,2,5.4c0.5,3.4,2,6,2.9,6.6c0.9,0.6,0.6,0.7,2.1,0.6c1.4,0,2.7-1.4,3.7-2
					s1.2-0.9,2.3-0.9c1.1,0,2.7,1.2,3.8,5.2c1.1,4,2.3,3.4,2.6,3.3c0.2,0,0.8-0.1,1.7-2.3"/>
        <path fill="none" stroke="#4B508B" stroke-width="0.3191" stroke-linecap="round" stroke-linejoin="round" d="M342.9,193.7
					c0-0.1,0.1-0.3,0.1-0.4"/>
			</g>
		</g>
	</g>
    <g>
		<g>
			<g>
				<path fill="none" stroke="#4B508B" stroke-width="0.3191" stroke-linecap="round" stroke-linejoin="round" d="M138,408.6
					c0,0,0.2,0,0.4,0"/>

        <path fill="none" stroke="#4B508B" stroke-width="0.3191" stroke-linecap="round" stroke-linejoin="round" stroke-dasharray="0.8536,1.7072" d="
					M139.7,409.7c0.1,0.2,0.2,0.4,0.3,0.6c0.3,0.6,1.5,4.3,2,5.5s1.4,1.5,2.3,1.5s2.5-1.2,2.5-1.2s2.7-1.9,3.5-2
					c0.8-0.1,1.2-0.2,1.7,0.3c0.5,0.6,1.5,2,2,5.4s2,6,2.9,6.6c0.9,0.6,0.6,0.7,2.1,0.6c1.4,0,2.7-1.4,3.7-2c1-0.7,1.2-0.9,2.3-0.9
					c1.1,0,2.7,1.2,3.8,5.2c1.1,4,2.3,3.4,2.6,3.3c0.2,0,1-0.1,2.1-3.4c1-2.8,1.7-4.5,1.8-6.9"/>
        <path fill="none" stroke="#4B508B" stroke-width="0.3191" stroke-linecap="round" stroke-linejoin="round" d="M175.4,421.2
					c0-0.1,0-0.3,0-0.4"/>
			</g>
		</g>
      <g>
			<g>
				<path fill="none" stroke="#D0445C" stroke-width="0.3191" stroke-linecap="round" stroke-linejoin="round" d="M91,420.7
					c0,0,0-0.1,0.1-0.4"/>

        <path fill="none" stroke="#D0445C" stroke-width="0.3191" stroke-linecap="round" stroke-linejoin="round" stroke-dasharray="0.8354,1.6709" d="
					M91.4,418.7c0.3-1.7,0.9-4,1.2-5.4c0.7-2.4,1.7-4.7,3.4-4.7c1.8-0.1,3.1,3.5,3.1,3.5l1.4,4.7c0,0,0.2,0.5,1.2,0.6s2-0.4,2-0.4
					l3.5-1.9c0,0,1.2-0.6,1.7-0.7c0.5,0,0.6-0.1,1.3,0.7c0.7,0.7,2,5.4,2.1,5.9c0.1,0.5,0.6,2.7,1,3c0.3,0.3,1,2,1.5,2.5
					c0.5,0.4,0.9,1,1.9,1c1,0.1,2.7-1.2,2.7-1.2l2.4-1.9c0,0,0.5-0.2,1.1-0.2c0.6,0.1,1,0.4,1,0.4l3.6,7l0.4,0.9c0,0,0.7,0.3,1,0.3
					c0.3,0,1.1-0.3,1.2-0.5c0-0.2,1.4-2.6,1.9-3.6s1.6-7.1,1.6-7.4c0-0.3,0-2.2,0.1-3.9"/>
        <path fill="none" stroke="#D0445C" stroke-width="0.3191" stroke-linecap="round" stroke-linejoin="round" d="M133.8,416.3
					c0-0.1,0-0.3,0-0.4"/>
			</g>
		</g>
      <g>
			<g>
				<path fill="none" stroke="#4B508B" stroke-width="0.3191" stroke-linecap="round" stroke-linejoin="round" d="M175.9,420.7
					c0,0,0-0.1,0.1-0.4"/>

        <path fill="none" stroke="#4B508B" stroke-width="0.3191" stroke-linecap="round" stroke-linejoin="round" stroke-dasharray="0.8363,1.6727" d="
					M176.3,418.7c0.3-1.7,0.9-4,1.2-5.4c0.7-2.4,1.7-4.7,3.4-4.7s3.1,3.5,3.1,3.5l1.4,4.7c0,0,0.2,0.5,1.2,0.6c1,0.1,2-0.4,2-0.4
					l3.5-1.9c0,0,1.2-0.6,1.7-0.7c0.5,0,0.6-0.1,1.3,0.7c0.7,0.7,2,5.4,2.1,5.9c0.1,0.5,0.6,2.7,1,3c0.3,0.3,1,2,1.5,2.5
					c0.5,0.4,0.9,1,1.9,1c1,0.1,2.7-1.2,2.7-1.2l2.4-1.9c0,0,0.5-0.2,1.1-0.2c0.6,0.1,1,0.4,1,0.4l3.6,7l0.4,0.9c0,0,0.7,0.3,1,0.3
					c0.3,0,1.1-0.3,1.2-0.5c0-0.2,1.4-2.6,1.9-3.6s1.6-7.1,1.6-7.4c0-0.4,0-3.4,0.2-5.2c0.2-1.7,2.1-5.6,2.5-6.3
					c0.4-0.8,1.7-0.9,1.7-0.9s0.9,0,1.2,0.3c0.2,0.2,0.5,0.8,0.8,1.4s1.5,4.3,2,5.5s1.4,1.5,2.3,1.5s2.5-1.2,2.5-1.2s2.7-1.9,3.5-2
					c0.8-0.1,1.2-0.2,1.7,0.3c0.5,0.6,1.5,2,2,5.4s2,6,2.9,6.6c0.9,0.6,0.6,0.7,2.1,0.6c1.4,0,2.7-1.4,3.7-2c1-0.7,1.2-0.9,2.3-0.9
					c1.1,0,2.7,1.2,3.8,5.2c1.1,4,2.3,3.4,2.6,3.3c0.2,0,1-0.1,2.1-3.4c1-2.8,1.7-4.5,1.8-6.9"/>
        <path fill="none" stroke="#4B508B" stroke-width="0.3191" stroke-linecap="round" stroke-linejoin="round" d="M260.3,421.2
					c0-0.1,0-0.3,0-0.4"/>
			</g>
		</g>
      <g>
			<g>
				<path fill="none" stroke="#4B508B" stroke-width="0.3191" stroke-linecap="round" stroke-linejoin="round" d="M260.5,420.7
					c0,0,0-0.1,0.1-0.4"/>

        <path fill="none" stroke="#4B508B" stroke-width="0.3191" stroke-linecap="round" stroke-linejoin="round" stroke-dasharray="0.8452,1.6904" d="
					M260.9,418.7c0.3-1.7,0.8-4,1.2-5.4c0.7-2.4,1.7-4.7,3.4-4.7s3.1,3.5,3.1,3.5l1.4,4.7c0,0,0.2,0.5,1.2,0.6c1,0.1,2-0.4,2-0.4
					l3.5-1.9c0,0,1.2-0.6,1.7-0.7c0.5,0,0.6-0.1,1.3,0.7c0.7,0.7,2,5.4,2.1,5.9c0.1,0.5,0.6,2.7,1,3s1,2,1.5,2.5s0.9,1,1.9,1
					c1,0.1,2.7-1.2,2.7-1.2l2.4-1.9c0,0,0.5-0.2,1.1-0.2c0.6,0.1,1,0.4,1,0.4l3.6,7l0.4,0.9c0,0,0.7,0.3,1,0.3s1.1-0.3,1.2-0.5
					c0-0.2,1.4-2.6,1.9-3.6c0.4-1,1.6-7.1,1.6-7.4s0-3.4,0.2-5.2c0.2-1.7,2.1-5.6,2.5-6.3c0.4-0.8,1.7-0.9,1.7-0.9s0.9,0,1.2,0.3
					s0.5,0.8,0.8,1.4s1.5,4.3,2,5.5c0.5,1.2,1.4,1.5,2.3,1.5s2.5-1.2,2.5-1.2s2.7-1.9,3.5-2s1.2-0.2,1.7,0.3c0.5,0.6,1.5,2,2,5.4
					c0.5,3.4,2,6,2.9,6.6c0.9,0.6,0.6,0.7,2.1,0.6c1.4,0,2.7-1.4,3.7-2c1-0.7,1.2-0.9,2.3-0.9c1.1,0,2.7,1.2,3.8,5.2
					c1.1,4,2.3,3.4,2.6,3.3c0.2,0,0.8-0.1,1.7-2.3"/>
        <path fill="none" stroke="#4B508B" stroke-width="0.3191" stroke-linecap="round" stroke-linejoin="round" d="M342.9,429.4
					c0-0.1,0.1-0.3,0.1-0.4"/>
			</g>
		</g>
	</g>
    <g>
		<g>
			<g>
				<path fill="none" stroke="#D0445C" stroke-width="0.3191" stroke-linecap="round" stroke-linejoin="round" d="M92.6,230.1
					c0,0,0-0.1,0-0.4"/>

        <path fill="none" stroke="#D0445C" stroke-width="0.3191" stroke-linecap="round" stroke-linejoin="round" stroke-dasharray="0.7578,1.5156" d="
					M92.8,228.3c0.1-1.7,0.3-4.1,0.5-5.6c0.2-2.4,0.6-4.7,1.3-4.7s1.2,3.5,1.2,3.5l0.5,4.7c0,0,0.1,0.5,0.5,0.6
					c0.4,0.1,0.7-0.4,0.7-0.4l1.3-1.9c0,0,0.5-0.6,0.6-0.7s0.2-0.1,0.5,0.7c0.3,0.7,0.7,5.4,0.8,5.9c0,0.5,0.2,2.7,0.4,3
					s0.4,2,0.5,2.5s0.3,1,0.7,1s1-1.2,1-1.2l0.9-1.9c0,0,0.2-0.2,0.4-0.2c0.2,0.1,0.4,0.4,0.4,0.4l1.3,7l0.2,0.9
					c0,0,0.3,0.3,0.4,0.3s0.4-0.3,0.4-0.5c0-0.2,0.5-2.6,0.7-3.6c0.2-1,0.6-7.1,0.6-7.4c0-0.4,0-3.4,0.1-5.2c0.1-1.7,0.8-5.6,1-6.3
					s0.6-0.9,0.6-0.9s0.3,0,0.4,0.3c0.1,0.2,0.2,0.8,0.3,1.4c0.1,0.6,0.5,4.3,0.7,5.5c0.2,1.2,0.5,1.5,0.9,1.5s1-1.2,1-1.2
					s1-1.9,1.3-2c0.3-0.1,0.4-0.2,0.6,0.3c0.2,0.6,0.6,2,0.7,5.4c0.2,3.4,0.7,6,1.1,6.6c0.3,0.6,0.2,0.7,0.8,0.6c0.5,0,1-1.4,1.4-2
					c0.4-0.7,0.4-0.9,0.8-0.9c0.4,0,1,1.2,1.4,5.2c0.4,4,0.9,3.4,1,3.3c0.1,0,0.4-0.1,0.8-3.4c0.4-2.9,0.6-4.6,0.7-7"/>
        <path fill="none" stroke="#D0445C" stroke-width="0.3191" stroke-linecap="round" stroke-linejoin="round" d="M124.2,230.6
					c0-0.1,0-0.3,0-0.4"/>
			</g>
		</g>
      <g>
			<g>

					<line fill="none" stroke="#4B508B" stroke-width="0.3191" stroke-linecap="round" stroke-linejoin="round" x1="138" y1="240.8" x2="138.1" y2="241.2"/>

        <path fill="none" stroke="#4B508B" stroke-width="0.3191" stroke-linecap="round" stroke-linejoin="round" stroke-dasharray="0.7664,1.5328" d="
					M139,241.6C139,241.6,139,241.5,139,241.6c0.1-0.3,0.6-2.7,0.7-3.7c0.2-1,0.6-7.1,0.6-7.4c0-0.4,0-3.4,0.1-5.2
					c0.1-1.7,0.8-5.6,1-6.3s0.6-0.9,0.6-0.9s0.3,0,0.4,0.3c0.1,0.2,0.2,0.8,0.3,1.4c0.1,0.6,0.5,4.3,0.7,5.5
					c0.2,1.2,0.5,1.5,0.9,1.5s1-1.2,1-1.2s1-1.9,1.3-2c0.3-0.1,0.4-0.2,0.6,0.3c0.2,0.6,0.6,2,0.7,5.4c0.2,3.4,0.7,6,1.1,6.6
					s0.2,0.7,0.8,0.6s1-1.4,1.4-2c0.4-0.7,0.4-0.9,0.8-0.9s1,1.2,1.4,5.2c0.4,4,0.9,3.4,1,3.3c0.1,0,0.4-0.1,0.8-3.4
					c0.4-2.9,0.6-4.6,0.7-7"/>
        <path fill="none" stroke="#4B508B" stroke-width="0.3191" stroke-linecap="round" stroke-linejoin="round" d="M155.9,230.6
					c0-0.1,0-0.3,0-0.4"/>
			</g>
		</g>
      <g>
			<g>
				<path fill="none" stroke="#D0445C" stroke-width="0.3191" stroke-linecap="round" stroke-linejoin="round" d="M124.3,230.1
					c0,0,0-0.1,0-0.4"/>

        <path fill="none" stroke="#D0445C" stroke-width="0.3191" stroke-linecap="round" stroke-linejoin="round" stroke-dasharray="0.7624,1.5249" d="
					M124.5,228.3c0.1-1.7,0.3-4.1,0.5-5.6c0.2-2.4,0.6-4.7,1.3-4.7c0.7-0.1,1.2,3.5,1.2,3.5l0.5,4.7c0,0,0.1,0.5,0.5,0.6
					c0.4,0.1,0.7-0.4,0.7-0.4l1.3-1.9c0,0,0.5-0.6,0.6-0.7s0.2-0.1,0.5,0.7c0.3,0.7,0.7,5.4,0.8,5.9s0.2,2.7,0.4,3
					c0.1,0.3,0.4,2,0.5,2.5c0.2,0.4,0.3,1,0.7,1c0.1,0,0.3-0.1,0.4-0.2"/>
        <path fill="none" stroke="#D0445C" stroke-width="0.3191" stroke-linecap="round" stroke-linejoin="round" d="M134.8,235.9
					c0.1-0.2,0.2-0.3,0.2-0.3"/>
			</g>
		</g>
      <g>
			<g>
				<path fill="none" stroke="#4B508B" stroke-width="0.3191" stroke-linecap="round" stroke-linejoin="round" d="M156.1,230.1
					c0,0,0-0.1,0-0.4"/>

        <path fill="none" stroke="#4B508B" stroke-width="0.3191" stroke-linecap="round" stroke-linejoin="round" stroke-dasharray="0.7578,1.5156" d="
					M156.2,228.3c0.1-1.7,0.3-4.1,0.5-5.6c0.2-2.4,0.6-4.7,1.3-4.7s1.2,3.5,1.2,3.5l0.5,4.7c0,0,0.1,0.5,0.5,0.6
					c0.4,0.1,0.7-0.4,0.7-0.4l1.3-1.9c0,0,0.5-0.6,0.6-0.7c0.2,0,0.2-0.1,0.5,0.7c0.3,0.7,0.7,5.4,0.8,5.9s0.2,2.7,0.4,3
					c0.1,0.3,0.4,2,0.5,2.5c0.2,0.4,0.3,1,0.7,1c0.4,0.1,1-1.2,1-1.2l0.9-1.9c0,0,0.2-0.2,0.4-0.2s0.4,0.4,0.4,0.4l1.3,7l0.2,0.9
					c0,0,0.3,0.3,0.4,0.3s0.4-0.3,0.4-0.5c0-0.2,0.5-2.6,0.7-3.6c0.2-1,0.6-7.1,0.6-7.4c0-0.4,0-3.4,0.1-5.2c0.1-1.7,0.8-5.6,1-6.3
					s0.6-0.9,0.6-0.9s0.3,0,0.4,0.3c0.1,0.2,0.2,0.8,0.3,1.4c0.1,0.6,0.5,4.3,0.7,5.5c0.2,1.2,0.5,1.5,0.9,1.5s1-1.2,1-1.2
					s1-1.9,1.3-2c0.3-0.1,0.4-0.2,0.6,0.3c0.2,0.6,0.6,2,0.7,5.4c0.2,3.4,0.7,6,1.1,6.6s0.2,0.7,0.8,0.6s1-1.4,1.4-2
					c0.4-0.7,0.4-0.9,0.8-0.9c0.4,0,1,1.2,1.4,5.2c0.4,4,0.9,3.4,1,3.3c0.1,0,0.4-0.1,0.8-3.4c0.4-2.9,0.6-4.6,0.7-7"/>
        <path fill="none" stroke="#4B508B" stroke-width="0.3191" stroke-linecap="round" stroke-linejoin="round" d="M187.6,230.6
					c0-0.1,0-0.3,0-0.4"/>
			</g>
		</g>
      <g>
			<g>
				<path fill="none" stroke="#4B508B" stroke-width="0.3191" stroke-linecap="round" stroke-linejoin="round" d="M187.8,230.1
					c0,0,0-0.1,0-0.4"/>

        <path fill="none" stroke="#4B508B" stroke-width="0.3191" stroke-linecap="round" stroke-linejoin="round" stroke-dasharray="0.7578,1.5156" d="
					M187.9,228.3c0.1-1.7,0.3-4.1,0.5-5.6c0.2-2.4,0.6-4.7,1.3-4.7s1.2,3.5,1.2,3.5l0.5,4.7c0,0,0.1,0.5,0.5,0.6
					c0.4,0.1,0.7-0.4,0.7-0.4l1.3-1.9c0,0,0.5-0.6,0.6-0.7s0.2-0.1,0.5,0.7c0.3,0.7,0.7,5.4,0.8,5.9c0,0.5,0.2,2.7,0.4,3
					c0.1,0.3,0.4,2,0.5,2.5c0.2,0.4,0.3,1,0.7,1c0.4,0.1,1-1.2,1-1.2l0.9-1.9c0,0,0.2-0.2,0.4-0.2c0.2,0.1,0.4,0.4,0.4,0.4l1.3,7
					l0.2,0.9c0,0,0.3,0.3,0.4,0.3c0.1,0,0.4-0.3,0.4-0.5c0-0.2,0.5-2.6,0.7-3.6c0.2-1,0.6-7.1,0.6-7.4s0-3.4,0.1-5.2
					c0.1-1.7,0.8-5.6,1-6.3s0.6-0.9,0.6-0.9s0.3,0,0.4,0.3c0.1,0.2,0.2,0.8,0.3,1.4c0.1,0.6,0.5,4.3,0.7,5.5
					c0.2,1.2,0.5,1.5,0.9,1.5s1-1.2,1-1.2s1-1.9,1.3-2c0.3-0.1,0.4-0.2,0.6,0.3s0.6,2,0.7,5.4c0.2,3.4,0.7,6,1.1,6.6
					c0.3,0.6,0.2,0.7,0.8,0.6c0.5,0,1-1.4,1.4-2s0.4-0.9,0.8-0.9c0.4,0,1,1.2,1.4,5.2c0.4,4,0.9,3.4,1,3.3s0.4-0.1,0.8-3.4
					c0.4-2.9,0.6-4.6,0.7-7"/>
        <path fill="none" stroke="#4B508B" stroke-width="0.3191" stroke-linecap="round" stroke-linejoin="round" d="M219.3,230.6
					c0-0.1,0-0.3,0-0.4"/>
			</g>
		</g>
	</g>
    <g>
		<g>
			<g>
				<path fill="none" stroke="#4B508B" stroke-width="0.3191" stroke-linecap="round" stroke-linejoin="round" d="M219.4,230.1
					c0,0,0-0.1,0-0.4"/>

        <path fill="none" stroke="#4B508B" stroke-width="0.3191" stroke-linecap="round" stroke-linejoin="round" stroke-dasharray="0.7578,1.5156" d="
					M219.5,228.3c0.1-1.7,0.3-4.1,0.5-5.6c0.2-2.4,0.6-4.7,1.3-4.7c0.7-0.1,1.2,3.5,1.2,3.5l0.5,4.7c0,0,0.1,0.5,0.5,0.6
					c0.4,0.1,0.7-0.4,0.7-0.4l1.3-1.9c0,0,0.5-0.6,0.6-0.7s0.2-0.1,0.5,0.7c0.3,0.7,0.7,5.4,0.8,5.9c0,0.5,0.2,2.7,0.4,3
					c0.1,0.3,0.4,2,0.5,2.5c0.2,0.4,0.3,1,0.7,1c0.4,0.1,1-1.2,1-1.2l0.9-1.9c0,0,0.2-0.2,0.4-0.2c0.2,0.1,0.4,0.4,0.4,0.4l1.3,7
					l0.2,0.9c0,0,0.3,0.3,0.4,0.3c0.1,0,0.4-0.3,0.4-0.5c0-0.2,0.5-2.6,0.7-3.6c0.2-1,0.6-7.1,0.6-7.4s0-3.4,0.1-5.2
					c0.1-1.7,0.8-5.6,1-6.3s0.6-0.9,0.6-0.9s0.3,0,0.4,0.3s0.2,0.8,0.3,1.4c0.1,0.6,0.5,4.3,0.7,5.5c0.2,1.2,0.5,1.5,0.9,1.5
					s1-1.2,1-1.2s1-1.9,1.3-2c0.3-0.1,0.4-0.2,0.6,0.3s0.6,2,0.7,5.4c0.2,3.4,0.7,6,1.1,6.6c0.3,0.6,0.2,0.7,0.8,0.6
					c0.5,0,1-1.4,1.4-2s0.4-0.9,0.8-0.9c0.4,0,1,1.2,1.4,5.2c0.4,4,0.9,3.4,1,3.3s0.4-0.1,0.8-3.4c0.4-2.9,0.6-4.6,0.7-7"/>
        <path fill="none" stroke="#4B508B" stroke-width="0.3191" stroke-linecap="round" stroke-linejoin="round" d="M250.9,230.6
					c0-0.1,0-0.3,0-0.4"/>
			</g>
		</g>
      <g>
			<g>
				<path fill="none" stroke="#4B508B" stroke-width="0.3191" stroke-linecap="round" stroke-linejoin="round" d="M251.1,230.1
					c0,0,0-0.1,0-0.4"/>

        <path fill="none" stroke="#4B508B" stroke-width="0.3191" stroke-linecap="round" stroke-linejoin="round" stroke-dasharray="0.7578,1.5156" d="
					M251.2,228.3c0.1-1.7,0.3-4.1,0.5-5.6c0.2-2.4,0.6-4.7,1.3-4.7s1.2,3.5,1.2,3.5l0.5,4.7c0,0,0.1,0.5,0.5,0.6
					c0.4,0.1,0.7-0.4,0.7-0.4l1.3-1.9c0,0,0.5-0.6,0.6-0.7s0.2-0.1,0.5,0.7c0.3,0.7,0.7,5.4,0.8,5.9s0.2,2.7,0.4,3s0.4,2,0.5,2.5
					s0.3,1,0.7,1c0.4,0.1,1-1.2,1-1.2l0.9-1.9c0,0,0.2-0.2,0.4-0.2s0.4,0.4,0.4,0.4l1.3,7l0.2,0.9c0,0,0.3,0.3,0.4,0.3
					s0.4-0.3,0.4-0.5c0-0.2,0.5-2.6,0.7-3.6c0.2-1,0.6-7.1,0.6-7.4s0-3.4,0.1-5.2c0.1-1.7,0.8-5.6,1-6.3c0.2-0.8,0.6-0.9,0.6-0.9
					s0.3,0,0.4,0.3s0.2,0.8,0.3,1.4c0.1,0.6,0.5,4.3,0.7,5.5c0.2,1.2,0.5,1.5,0.9,1.5s1-1.2,1-1.2s1-1.9,1.3-2
					c0.3-0.1,0.4-0.2,0.6,0.3s0.6,2,0.7,5.4c0.2,3.4,0.7,6,1.1,6.6c0.3,0.6,0.2,0.7,0.8,0.6s1-1.4,1.4-2c0.4-0.7,0.4-0.9,0.8-0.9
					s1,1.2,1.4,5.2c0.4,4,0.9,3.4,1,3.3s0.4-0.1,0.8-3.4c0.4-2.9,0.6-4.6,0.7-7"/>
        <path fill="none" stroke="#4B508B" stroke-width="0.3191" stroke-linecap="round" stroke-linejoin="round" d="M282.6,230.6
					c0-0.1,0-0.3,0-0.4"/>
			</g>
		</g>
      <g>
			<g>
				<path fill="none" stroke="#4B508B" stroke-width="0.3191" stroke-linecap="round" stroke-linejoin="round" d="M282.8,230.1
					c0,0,0-0.1,0-0.4"/>

        <path fill="none" stroke="#4B508B" stroke-width="0.3191" stroke-linecap="round" stroke-linejoin="round" stroke-dasharray="0.7578,1.5156" d="
					M283,228.3c0.1-1.7,0.3-4.1,0.5-5.6c0.2-2.4,0.6-4.7,1.3-4.7s1.2,3.5,1.2,3.5l0.5,4.7c0,0,0.1,0.5,0.5,0.6
					c0.4,0.1,0.7-0.4,0.7-0.4l1.3-1.9c0,0,0.5-0.6,0.6-0.7s0.2-0.1,0.5,0.7c0.3,0.7,0.7,5.4,0.8,5.9s0.2,2.7,0.4,3
					c0.1,0.3,0.4,2,0.5,2.5c0.2,0.4,0.3,1,0.7,1s1-1.2,1-1.2l0.9-1.9c0,0,0.2-0.2,0.4-0.2s0.4,0.4,0.4,0.4l1.3,7l0.2,0.9
					c0,0,0.3,0.3,0.4,0.3c0.1,0,0.4-0.3,0.4-0.5c0-0.2,0.5-2.6,0.7-3.6c0.2-1,0.6-7.1,0.6-7.4s0-3.4,0.1-5.2c0.1-1.7,0.8-5.6,1-6.3
					c0.2-0.8,0.6-0.9,0.6-0.9s0.3,0,0.4,0.3s0.2,0.8,0.3,1.4c0.1,0.6,0.5,4.3,0.7,5.5c0.2,1.2,0.5,1.5,0.9,1.5s1-1.2,1-1.2
					s1-1.9,1.3-2c0.3-0.1,0.4-0.2,0.6,0.3s0.6,2,0.7,5.4c0.2,3.4,0.7,6,1.1,6.6s0.2,0.7,0.8,0.6s1-1.4,1.4-2
					c0.4-0.7,0.4-0.9,0.8-0.9c0.4,0,1,1.2,1.4,5.2c0.4,4,0.9,3.4,1,3.3s0.4-0.1,0.8-3.4c0.4-2.9,0.6-4.6,0.7-7"/>
        <path fill="none" stroke="#4B508B" stroke-width="0.3191" stroke-linecap="round" stroke-linejoin="round" d="M314.3,230.6
					c0-0.1,0-0.3,0-0.4"/>
			</g>
		</g>
      <g>
			<g>
				<path fill="none" stroke="#4B508B" stroke-width="0.3191" stroke-linecap="round" stroke-linejoin="round" d="M314.5,230.1
					c0,0,0-0.1,0-0.4"/>

        <path fill="none" stroke="#4B508B" stroke-width="0.3191" stroke-linecap="round" stroke-linejoin="round" stroke-dasharray="0.7605,1.521" d="
					M314.7,228.3c0.1-1.7,0.3-4.1,0.5-5.6c0.2-2.4,0.6-4.7,1.3-4.7c0.7-0.1,1.2,3.5,1.2,3.5l0.5,4.7c0,0,0.1,0.5,0.5,0.6
					c0.4,0.1,0.7-0.4,0.7-0.4l1.3-1.9c0,0,0.5-0.6,0.6-0.7s0.2-0.1,0.5,0.7c0.3,0.7,0.7,5.4,0.8,5.9s0.2,2.7,0.4,3s0.4,2,0.5,2.5
					c0.2,0.4,0.3,1,0.7,1c0.4,0.1,1-1.2,1-1.2l0.9-1.9c0,0,0.2-0.2,0.4-0.2c0.2,0.1,0.4,0.4,0.4,0.4l1.3,7l0.2,0.9
					c0,0,0.3,0.3,0.4,0.3s0.4-0.3,0.4-0.5c0-0.2,0.5-2.6,0.7-3.6c0.2-1,0.6-7.1,0.6-7.4s0-3.4,0.1-5.2c0.1-1.7,0.8-5.6,1-6.3
					c0.2-0.8,0.6-0.9,0.6-0.9s0.3,0,0.4,0.3s0.2,0.8,0.3,1.4c0.1,0.6,0.5,4.3,0.7,5.5c0.2,1.2,0.5,1.5,0.9,1.5s1-1.2,1-1.2
					s1-1.9,1.3-2c0.3-0.1,0.4-0.2,0.6,0.3c0.2,0.6,0.6,2,0.7,5.4c0.2,3.4,0.7,6,1.1,6.6c0.3,0.6,0.2,0.7,0.8,0.6c0.5,0,1-1.4,1.4-2
					s0.4-0.9,0.8-0.9c0.4,0,0.9,0.9,1.3,4"/>
        <path fill="none" stroke="#4B508B" stroke-width="0.3191" stroke-linecap="round" stroke-linejoin="round" d="M343.6,238.2
					c0,0.1,0,0.2,0,0.4"/>
			</g>
		</g>
	</g>
    <g>
		<g>
			<g>
				<path fill="none" stroke="#4B508B" stroke-width="0.3191" stroke-linecap="round" stroke-linejoin="round" d="M137.1,133.8
					c0.1,0,0.2,0,0.3,0"/>

        <path fill="none" stroke="#4B508B" stroke-width="0.3191" stroke-linecap="round" stroke-linejoin="round" stroke-dasharray="0.5508,1.1015" d="
					M138.5,134c0.4,0.3,1.2,1.2,1.5,3.1c0.4,2,1.6,3.5,2.3,3.8c0.7,0.4,0.5,0.4,1.6,0.4s2.1-0.8,2.9-1.2c0.8-0.4,0.9-0.5,1.7-0.5
					s2.1,0.7,3,3c0.8,2.3,1.8,2,2,1.9c0.2,0,0.8-0.1,1.6-2c0.7-1.6,1.3-2.6,1.4-3.9"/>
        <path fill="none" stroke="#4B508B" stroke-width="0.3191" stroke-linecap="round" stroke-linejoin="round" d="M156.5,138
					c0-0.1,0-0.2,0-0.3"/>
			</g>
		</g>
      <g>
			<g>
				<path fill="none" stroke="#D0445C" stroke-width="0.3191" stroke-linecap="round" stroke-linejoin="round" d="M91.1,137.7
					c0,0,0-0.1,0.1-0.3"/>

        <path fill="none" stroke="#D0445C" stroke-width="0.3191" stroke-linecap="round" stroke-linejoin="round" stroke-dasharray="0.5619,1.1237" d="
					M91.4,136.3c0.3-1,0.6-2.2,0.9-3c0.5-1.4,1.3-2.7,2.6-2.7c1.4,0,2.4,2,2.4,2l1.1,2.7c0,0,0.2,0.3,0.9,0.3c0.8,0,1.5-0.3,1.5-0.3
					l2.7-1.1c0,0,0.9-0.4,1.3-0.4c0.4,0,0.5,0,1,0.4c0.6,0.4,1.6,3.2,1.7,3.4c0.1,0.3,0.5,1.6,0.8,1.7c0.3,0.2,0.8,1.2,1.1,1.4
					c0.4,0.3,0.7,0.6,1.5,0.6c0.8,0,2.1-0.7,2.1-0.7l1.8-1.1c0,0,0.4-0.1,0.9-0.1c0.5,0,0.8,0.2,0.8,0.2l2.8,4.1l0.3,0.5
					c0,0,0.5,0.2,0.8,0.2c0.3,0,0.9-0.2,0.9-0.3c0-0.1,1.1-1.5,1.4-2.1c0.3-0.6,1.3-4.1,1.2-4.3c0-0.2,0-2,0.2-3
					c0.2-1,1.6-3.2,2-3.7c0.3-0.4,1.3-0.5,1.3-0.5s0.7,0,0.9,0.2c0.2,0.1,0.4,0.4,0.6,0.8c0.2,0.3,1.1,2.5,1.6,3.2
					c0.4,0.7,1.1,0.9,1.8,0.9c0.3,0,0.8-0.2,1.2-0.3"/>
        <path fill="none" stroke="#D0445C" stroke-width="0.3191" stroke-linecap="round" stroke-linejoin="round" d="M134.2,135.1
					c0.2-0.1,0.2-0.1,0.2-0.1"/>
			</g>
		</g>
      <g>
			<g>
				<path fill="none" stroke="#4B508B" stroke-width="0.3191" stroke-linecap="round" stroke-linejoin="round" d="M156.9,137.7
					c0,0,0-0.1,0.1-0.3"/>

        <path fill="none" stroke="#4B508B" stroke-width="0.3191" stroke-linecap="round" stroke-linejoin="round" stroke-dasharray="0.5654,1.1308" d="
					M157.3,136.3c0.3-1,0.6-2.2,0.9-3c0.5-1.4,1.3-2.7,2.6-2.7c1.4,0,2.4,2,2.4,2l1.1,2.7c0,0,0.2,0.3,0.9,0.3
					c0.8,0,1.5-0.3,1.5-0.3l2.7-1.1c0,0,0.9-0.4,1.3-0.4s0.5,0,1,0.4c0.6,0.4,1.6,3.2,1.7,3.4c0.1,0.3,0.5,1.6,0.8,1.7
					c0.3,0.2,0.8,1.2,1.1,1.4c0.4,0.3,0.7,0.6,1.5,0.6c0.8,0,2.1-0.7,2.1-0.7l1.8-1.1c0,0,0.4-0.1,0.9-0.1c0.5,0,0.8,0.2,0.8,0.2
					l2.8,4.1l0.3,0.5c0,0,0.5,0.2,0.8,0.2c0.3,0,0.9-0.2,0.9-0.3c0-0.1,1.1-1.5,1.4-2.1c0.3-0.6,1.3-4.1,1.2-4.3s0-2,0.2-3
					c0.2-1,1.6-3.2,2-3.7c0.3-0.4,1.3-0.5,1.3-0.5s0.7,0,0.9,0.2c0.2,0.1,0.4,0.4,0.6,0.8c0.2,0.3,1.1,2.5,1.6,3.2s1.1,0.9,1.8,0.9
					c0.7,0,2-0.7,2-0.7s2.1-1.1,2.7-1.2c0.6-0.1,0.9-0.1,1.3,0.2c0.4,0.3,1.2,1.2,1.6,3.1c0.4,2,1.6,3.5,2.3,3.8
					c0.7,0.4,0.5,0.4,1.6,0.4c1.1,0,2.1-0.8,2.9-1.2c0.8-0.4,0.9-0.5,1.7-0.5c0.8,0,2.1,0.7,3,3c0.8,2.3,1.8,2,2,1.9
					c0.2,0,0.8-0.1,1.6-2c0.7-1.6,1.3-2.6,1.4-3.9"/>
        <path fill="none" stroke="#4B508B" stroke-width="0.3191" stroke-linecap="round" stroke-linejoin="round" d="M222.3,138
					c0-0.1,0-0.2,0-0.3"/>
			</g>
		</g>
      <g>
			<g>
				<path fill="none" stroke="#4B508B" stroke-width="0.3191" stroke-linecap="round" stroke-linejoin="round" d="M222.7,137.7
					c0,0,0-0.1,0.1-0.3"/>

        <path fill="none" stroke="#4B508B" stroke-width="0.3191" stroke-linecap="round" stroke-linejoin="round" stroke-dasharray="0.5654,1.1308" d="
					M223.1,136.3c0.3-1,0.6-2.2,0.9-3c0.5-1.4,1.3-2.7,2.6-2.7c1.4,0,2.4,2,2.4,2l1.1,2.7c0,0,0.2,0.3,0.9,0.3
					c0.8,0,1.5-0.3,1.5-0.3l2.7-1.1c0,0,0.9-0.4,1.3-0.4c0.4,0,0.5,0,1,0.4c0.6,0.4,1.6,3.2,1.7,3.4c0.1,0.3,0.5,1.6,0.8,1.7
					c0.3,0.2,0.8,1.2,1.1,1.4c0.4,0.3,0.7,0.6,1.5,0.6c0.8,0,2.1-0.7,2.1-0.7l1.8-1.1c0,0,0.4-0.1,0.9-0.1c0.5,0,0.8,0.2,0.8,0.2
					l2.8,4.1l0.3,0.5c0,0,0.5,0.2,0.8,0.2c0.3,0,0.9-0.2,0.9-0.3c0-0.1,1.1-1.5,1.4-2.1c0.3-0.6,1.3-4.1,1.2-4.3c0-0.2,0-2,0.2-3
					c0.2-1,1.6-3.2,2-3.7c0.3-0.4,1.3-0.5,1.3-0.5s0.7,0,0.9,0.2s0.4,0.4,0.6,0.8s1.1,2.5,1.6,3.2s1.1,0.9,1.8,0.9
					c0.7,0,2-0.7,2-0.7s2.1-1.1,2.7-1.2c0.6-0.1,0.9-0.1,1.3,0.2c0.4,0.3,1.2,1.2,1.6,3.1c0.4,2,1.6,3.5,2.3,3.8
					c0.7,0.4,0.5,0.4,1.6,0.4s2.1-0.8,2.9-1.2c0.8-0.4,0.9-0.5,1.7-0.5s2.1,0.7,3,3c0.8,2.3,1.8,2,2,1.9c0.2,0,0.8-0.1,1.6-2
					c0.7-1.6,1.3-2.6,1.4-3.9"/>
        <path fill="none" stroke="#4B508B" stroke-width="0.3191" stroke-linecap="round" stroke-linejoin="round" d="M288.2,138
					c0-0.1,0-0.2,0-0.3"/>
			</g>
		</g>
      <g>
			<g>
				<path fill="none" stroke="#4B508B" stroke-width="0.3191" stroke-linecap="round" stroke-linejoin="round" d="M288.5,137.7
					c0,0,0-0.1,0.1-0.3"/>

        <path fill="none" stroke="#4B508B" stroke-width="0.3191" stroke-linecap="round" stroke-linejoin="round" stroke-dasharray="0.5646,1.1293" d="
					M288.9,136.3c0.3-1,0.6-2.2,0.9-3c0.5-1.4,1.3-2.7,2.6-2.7c1.4,0,2.4,2,2.4,2l1.1,2.7c0,0,0.2,0.3,0.9,0.3
					c0.8,0,1.5-0.3,1.5-0.3l2.7-1.1c0,0,0.9-0.4,1.3-0.4s0.5,0,1,0.4c0.6,0.4,1.6,3.2,1.7,3.4c0.1,0.3,0.5,1.6,0.8,1.7
					c0.3,0.2,0.8,1.2,1.1,1.4c0.4,0.3,0.7,0.6,1.5,0.6c0.8,0,2.1-0.7,2.1-0.7l1.8-1.1c0,0,0.4-0.1,0.9-0.1c0.5,0,0.8,0.2,0.8,0.2
					l2.8,4.1l0.3,0.5c0,0,0.5,0.2,0.8,0.2c0.3,0,0.9-0.2,0.9-0.3c0-0.1,1.1-1.5,1.4-2.1c0.3-0.6,1.3-4.1,1.2-4.3c0-0.2,0-2,0.2-3
					c0.2-1,1.6-3.2,2-3.7c0.3-0.4,1.3-0.5,1.3-0.5s0.7,0,0.9,0.2s0.4,0.4,0.6,0.8s1.1,2.5,1.6,3.2s1.1,0.9,1.8,0.9
					c0.7,0,2-0.7,2-0.7s2.1-1.1,2.7-1.2c0.6-0.1,0.9-0.1,1.3,0.2c0.4,0.3,1.2,1.2,1.6,3.1c0.4,2,1.6,3.5,2.3,3.8
					c0.7,0.4,0.5,0.4,1.6,0.4c0.8,0,1.5-0.4,2.1-0.8"/>
        <path fill="none" stroke="#4B508B" stroke-width="0.3191" stroke-linecap="round" stroke-linejoin="round" d="M344,140.3
					c0.1,0,0.2-0.1,0.2-0.1"/>
			</g>
		</g>
	</g>
    <g>
		<g>
			<g>
				<path fill="none" stroke="#4B508B" stroke-width="0.3191" stroke-linecap="round" stroke-linejoin="round" d="M137.1,332.7
					c0.2,0,0.3,0,0.4,0"/>

        <path fill="none" stroke="#4B508B" stroke-width="0.3191" stroke-linecap="round" stroke-linejoin="round" stroke-dasharray="0.8734,1.7468" d="
					M139,333.5c0.4,0.5,0.8,1.3,1,2.6c0.4,2,1.6,3.5,2.3,3.8c0.7,0.4,0.5,0.4,1.6,0.4c1.1,0,2.1-0.8,2.9-1.2
					c0.8-0.4,0.9-0.5,1.7-0.5s2.1,0.7,3,3c0.8,2.3,1.8,2,2,1.9c0.2,0,0.8-0.1,1.6-2c0.6-1.4,1.2-2.3,1.3-3.5"/>
        <path fill="none" stroke="#4B508B" stroke-width="0.3191" stroke-linecap="round" stroke-linejoin="round" d="M156.5,337.1
					c0-0.1,0-0.3,0-0.4"/>
			</g>
		</g>
      <g>
			<g>
				<path fill="none" stroke="#D0445C" stroke-width="0.3191" stroke-linecap="round" stroke-linejoin="round" d="M91.1,336.6
					c0,0,0-0.2,0.1-0.4"/>

        <path fill="none" stroke="#D0445C" stroke-width="0.3191" stroke-linecap="round" stroke-linejoin="round" stroke-dasharray="0.8429,1.6857" d="
					M91.6,334.6c0.2-0.8,0.5-1.7,0.7-2.3c0.5-1.4,1.3-2.7,2.6-2.7c1.4,0,2.4,2,2.4,2l1.1,2.7c0,0,0.2,0.3,0.9,0.3s1.5-0.3,1.5-0.3
					l2.7-1.1c0,0,0.9-0.4,1.3-0.4c0.4,0,0.5,0,1,0.4c0.6,0.4,1.6,3.2,1.7,3.4c0.1,0.3,0.5,1.6,0.8,1.7s0.8,1.2,1.1,1.4
					c0.4,0.3,0.7,0.6,1.5,0.6c0.8,0,2.1-0.7,2.1-0.7l1.8-1.1c0,0,0.4-0.1,0.9-0.1c0.5,0,0.8,0.2,0.8,0.2l2.8,4.1l0.3,0.5
					c0,0,0.5,0.2,0.8,0.2c0.3,0,0.9-0.2,0.9-0.3c0-0.1,1.1-1.5,1.4-2.1c0.3-0.6,1.3-4.1,1.2-4.3c0-0.2,0-2,0.2-3
					c0.2-1,1.6-3.2,2-3.7c0.3-0.4,1.3-0.5,1.3-0.5s0.7,0,0.9,0.2c0.2,0.1,0.4,0.4,0.6,0.8c0.2,0.3,1.1,2.5,1.6,3.2
					c0.4,0.7,1.1,0.9,1.8,0.9c0.2,0,0.5-0.1,0.8-0.2"/>
        <path fill="none" stroke="#D0445C" stroke-width="0.3191" stroke-linecap="round" stroke-linejoin="round" d="M134,334.1
					c0.2-0.1,0.4-0.2,0.4-0.2"/>
			</g>
		</g>
      <g>
			<g>
				<path fill="none" stroke="#4B508B" stroke-width="0.3191" stroke-linecap="round" stroke-linejoin="round" d="M156.9,336.6
					c0,0,0-0.2,0.1-0.4"/>

        <path fill="none" stroke="#4B508B" stroke-width="0.3191" stroke-linecap="round" stroke-linejoin="round" stroke-dasharray="0.8346,1.6692" d="
					M157.4,334.6c0.2-0.8,0.5-1.7,0.7-2.3c0.5-1.4,1.3-2.7,2.6-2.7c1.4,0,2.4,2,2.4,2l1.1,2.7c0,0,0.2,0.3,0.9,0.3s1.5-0.3,1.5-0.3
					l2.7-1.1c0,0,0.9-0.4,1.3-0.4s0.5,0,1,0.4c0.6,0.4,1.6,3.2,1.7,3.4c0.1,0.3,0.5,1.6,0.8,1.7c0.3,0.2,0.8,1.2,1.1,1.4
					c0.4,0.3,0.7,0.6,1.5,0.6c0.8,0,2.1-0.7,2.1-0.7l1.8-1.1c0,0,0.4-0.1,0.9-0.1c0.5,0,0.8,0.2,0.8,0.2l2.8,4.1l0.3,0.5
					c0,0,0.5,0.2,0.8,0.2c0.3,0,0.9-0.2,0.9-0.3c0-0.1,1.1-1.5,1.4-2.1c0.3-0.6,1.3-4.1,1.2-4.3c0-0.2,0-2,0.2-3
					c0.2-1,1.6-3.2,2-3.7c0.3-0.4,1.3-0.5,1.3-0.5s0.7,0,0.9,0.2c0.2,0.1,0.4,0.4,0.6,0.8c0.2,0.3,1.1,2.5,1.6,3.2s1.1,0.9,1.8,0.9
					c0.7,0,2-0.7,2-0.7s2.1-1.1,2.7-1.2c0.6-0.1,0.9-0.1,1.3,0.2s1.2,1.2,1.6,3.1c0.4,2,1.6,3.5,2.3,3.8c0.7,0.4,0.5,0.4,1.6,0.4
					c1.1,0,2.1-0.8,2.9-1.2c0.8-0.4,0.9-0.5,1.7-0.5c0.8,0,2.1,0.7,3,3c0.8,2.3,1.8,2,2,1.9c0.2,0,0.8-0.1,1.6-2
					c0.7-1.4,1.2-2.4,1.4-3.5"/>
        <path fill="none" stroke="#4B508B" stroke-width="0.3191" stroke-linecap="round" stroke-linejoin="round" d="M222.3,337.1
					c0-0.1,0-0.3,0-0.4"/>
			</g>
		</g>
      <g>
			<g>
				<path fill="none" stroke="#4B508B" stroke-width="0.3191" stroke-linecap="round" stroke-linejoin="round" d="M222.7,336.6
					c0,0,0-0.2,0.1-0.4"/>

        <path fill="none" stroke="#4B508B" stroke-width="0.3191" stroke-linecap="round" stroke-linejoin="round" stroke-dasharray="0.8346,1.6692" d="
					M223.3,334.6c0.2-0.8,0.5-1.7,0.7-2.3c0.5-1.4,1.3-2.7,2.6-2.7c1.4,0,2.4,2,2.4,2l1.1,2.7c0,0,0.2,0.3,0.9,0.3s1.5-0.3,1.5-0.3
					l2.7-1.1c0,0,0.9-0.4,1.3-0.4c0.4,0,0.5,0,1,0.4c0.6,0.4,1.6,3.2,1.7,3.4c0.1,0.3,0.5,1.6,0.8,1.7c0.3,0.2,0.8,1.2,1.1,1.4
					c0.4,0.3,0.7,0.6,1.5,0.6c0.8,0,2.1-0.7,2.1-0.7l1.8-1.1c0,0,0.4-0.1,0.9-0.1c0.5,0,0.8,0.2,0.8,0.2l2.8,4.1l0.3,0.5
					c0,0,0.5,0.2,0.8,0.2c0.3,0,0.9-0.2,0.9-0.3c0-0.1,1.1-1.5,1.4-2.1c0.3-0.6,1.3-4.1,1.2-4.3c0-0.2,0-2,0.2-3
					c0.2-1,1.6-3.2,2-3.7c0.3-0.4,1.3-0.5,1.3-0.5s0.7,0,0.9,0.2s0.4,0.4,0.6,0.8s1.1,2.5,1.6,3.2s1.1,0.9,1.8,0.9
					c0.7,0,2-0.7,2-0.7s2.1-1.1,2.7-1.2c0.6-0.1,0.9-0.1,1.3,0.2s1.2,1.2,1.6,3.1c0.4,2,1.6,3.5,2.3,3.8c0.7,0.4,0.5,0.4,1.6,0.4
					c1.1,0,2.1-0.8,2.9-1.2c0.8-0.4,0.9-0.5,1.7-0.5s2.1,0.7,3,3c0.8,2.3,1.8,2,2,1.9c0.2,0,0.8-0.1,1.6-2c0.7-1.4,1.2-2.4,1.4-3.5"
        />
        <path fill="none" stroke="#4B508B" stroke-width="0.3191" stroke-linecap="round" stroke-linejoin="round" d="M288.2,337.1
					c0-0.1,0-0.3,0-0.4"/>
			</g>
		</g>
      <g>
			<g>
				<path fill="none" stroke="#4B508B" stroke-width="0.3191" stroke-linecap="round" stroke-linejoin="round" d="M288.5,336.6
					c0,0,0-0.2,0.1-0.4"/>

        <path fill="none" stroke="#4B508B" stroke-width="0.3191" stroke-linecap="round" stroke-linejoin="round" stroke-dasharray="0.8327,1.6654" d="
					M289.1,334.6c0.2-0.8,0.5-1.7,0.7-2.3c0.5-1.4,1.3-2.7,2.6-2.7c1.4,0,2.4,2,2.4,2l1.1,2.7c0,0,0.2,0.3,0.9,0.3
					c0.8,0,1.5-0.3,1.5-0.3l2.7-1.1c0,0,0.9-0.4,1.3-0.4s0.5,0,1,0.4c0.6,0.4,1.6,3.2,1.7,3.4c0.1,0.3,0.5,1.6,0.8,1.7
					c0.3,0.2,0.8,1.2,1.1,1.4c0.4,0.3,0.7,0.6,1.5,0.6c0.8,0,2.1-0.7,2.1-0.7l1.8-1.1c0,0,0.4-0.1,0.9-0.1c0.5,0,0.8,0.2,0.8,0.2
					l2.8,4.1l0.3,0.5c0,0,0.5,0.2,0.8,0.2c0.3,0,0.9-0.2,0.9-0.3c0-0.1,1.1-1.5,1.4-2.1c0.3-0.6,1.3-4.1,1.2-4.3c0-0.2,0-2,0.2-3
					c0.2-1,1.6-3.2,2-3.7c0.3-0.4,1.3-0.5,1.3-0.5s0.7,0,0.9,0.2s0.4,0.4,0.6,0.8s1.1,2.5,1.6,3.2s1.1,0.9,1.8,0.9
					c0.7,0,2-0.7,2-0.7s2.1-1.1,2.7-1.2c0.6-0.1,0.9-0.1,1.3,0.2s1.2,1.2,1.6,3.1c0.4,2,1.6,3.5,2.3,3.8c0.7,0.4,0.5,0.4,1.6,0.4
					c1.1,0,2.1-0.8,2.9-1.2c0.2-0.1,0.4-0.2,0.5-0.3"/>
        <path fill="none" stroke="#4B508B" stroke-width="0.3191" stroke-linecap="round" stroke-linejoin="round" d="M345.5,338.5
					c0.1,0,0.3,0,0.4,0"/>
			</g>
		</g>
	</g>
    <g>
		<g>
			<g>
				<g>
					<path fill="none" stroke="#4B508B" stroke-width="0.2939" stroke-linecap="round" stroke-linejoin="round" d="M202.8,282.5
						c0,0,0,0.1,0,0.3"/>

          <path fill="none" stroke="#4B508B" stroke-width="0.2939" stroke-linecap="round" stroke-linejoin="round" stroke-dasharray="0.5732,1.1464" d="
						M202.7,283.9c-0.1,2.3-0.3,7-0.5,9.5c-0.2,3.5-0.5,6.8-1.1,6.9c-0.6,0.1-1-5.1-1-5.1l-0.5-6.8c0,0-0.1-0.7-0.4-0.8
						c-0.3-0.1-0.6,0.6-0.6,0.6l-1.1,2.8c0,0-0.4,0.9-0.5,1c-0.1,0-0.2,0.1-0.4-1c-0.2-1-0.6-8-0.7-8.6c0-0.7-0.2-4-0.3-4.4
						c-0.1-0.4-0.3-3-0.5-3.6c-0.2-0.6-0.3-1.4-0.6-1.5c-0.3-0.1-0.9,1.8-0.9,1.8l-0.8,2.8c0,0-0.2,0.4-0.4,0.3
						c-0.2-0.1-0.3-0.5-0.3-0.5l-1.2-10.3l-0.1-1.3c0,0-0.2-0.4-0.3-0.4s-0.4,0.4-0.4,0.7s-0.5,3.9-0.6,5.3
						c-0.1,1.5-0.5,10.3-0.5,10.9c0,0.5,0,5-0.1,7.5s-0.7,8.2-0.8,9.3c-0.1,1.1-0.5,1.3-0.5,1.3s-0.3,0-0.4-0.4
						c-0.1-0.4-0.2-1.1-0.3-2c-0.1-0.8-0.5-6.3-0.6-8.1s-0.5-2.2-0.7-2.2c-0.3,0-0.8,1.8-0.8,1.8s-0.9,2.8-1.1,2.9
						c-0.3,0.2-0.4,0.4-0.5-0.4s-0.5-2.9-0.6-7.9c-0.2-5-0.6-8.8-0.9-9.6c-0.3-0.9-0.2-1-0.7-0.9c-0.5,0-0.9,2-1.2,3
						c-0.3,1-0.4,1.3-0.7,1.4s-0.9-1.7-1.2-7.5s-0.8-4.9-0.8-4.9c-0.1,0-0.3,0.2-0.7,5c-0.3,4.5-0.6,7-0.6,11.1"/>
          <path fill="none" stroke="#4B508B" stroke-width="0.2939" stroke-linecap="round" stroke-linejoin="round" d="M175.5,282
						c0,0.1,0,0.2,0,0.3"/>
				</g>
			</g>
      <g>
				<g>
					<path fill="none" stroke="#4B508B" stroke-width="0.2939" stroke-linecap="round" stroke-linejoin="round" d="M175.4,282.5
						c0,0,0,0.1,0,0.3"/>

          <path fill="none" stroke="#4B508B" stroke-width="0.2939" stroke-linecap="round" stroke-linejoin="round" stroke-dasharray="0.5732,1.1464" d="
						M175.3,283.9c-0.1,2.3-0.3,7-0.5,9.5c-0.2,3.5-0.5,6.8-1.1,6.9c-0.6,0.1-1-5.1-1-5.1l-0.5-6.8c0,0-0.1-0.7-0.4-0.8
						c-0.3-0.1-0.6,0.6-0.6,0.6l-1.1,2.8c0,0-0.4,0.9-0.5,1c-0.1,0-0.2,0.1-0.4-1c-0.2-1-0.6-8-0.7-8.6c0-0.7-0.2-4-0.3-4.4
						c-0.1-0.4-0.3-3-0.5-3.6c-0.2-0.6-0.3-1.4-0.6-1.5c-0.3-0.1-0.9,1.8-0.9,1.8l-0.8,2.8c0,0-0.2,0.4-0.4,0.3
						c-0.2-0.1-0.3-0.5-0.3-0.5l-1.2-10.3l-0.1-1.3c0,0-0.2-0.4-0.3-0.4s-0.4,0.4-0.4,0.7s-0.5,3.9-0.6,5.3
						c-0.1,1.5-0.5,10.3-0.5,10.9c0,0.5,0,5-0.1,7.5s-0.7,8.2-0.8,9.3c-0.1,1.1-0.5,1.3-0.5,1.3s-0.3,0-0.4-0.4
						c-0.1-0.4-0.2-1.1-0.3-2c-0.1-0.8-0.5-6.3-0.6-8.1s-0.5-2.2-0.7-2.2c-0.3,0-0.8,1.8-0.8,1.8s-0.9,2.8-1.1,2.9
						c-0.3,0.2-0.4,0.4-0.5-0.4s-0.5-2.9-0.6-7.9c-0.2-5-0.6-8.8-0.9-9.6c-0.3-0.9-0.2-1-0.7-0.9c-0.5,0-0.9,2-1.2,3
						c-0.3,1-0.4,1.3-0.7,1.4s-0.9-1.7-1.2-7.5s-0.8-4.9-0.8-4.9c-0.1,0-0.3,0.2-0.7,5c-0.3,4.5-0.6,7-0.6,11.1"/>
          <path fill="none" stroke="#4B508B" stroke-width="0.2939" stroke-linecap="round" stroke-linejoin="round" d="M148.2,282
						c0,0.1,0,0.2,0,0.3"/>
				</g>
			</g>
      <g>
				<g>
					<path fill="none" stroke="#D0445C" stroke-width="0.2939" stroke-linecap="round" stroke-linejoin="round" d="M135.4,265.8
						c0,0,0,0.1,0,0.3"/>

          <path fill="none" stroke="#D0445C" stroke-width="0.2939" stroke-linecap="round" stroke-linejoin="round" stroke-dasharray="0.5788,1.1576" d="
						M135.2,267.3c-0.1,1.2-0.3,3-0.4,3.9c-0.1,1.5-0.5,10.3-0.5,10.9c0,0.5,0,5-0.1,7.5s-0.7,8.2-0.8,9.3c-0.1,1.1-0.5,1.3-0.5,1.3
						s-0.3,0-0.4-0.4c-0.1-0.4-0.2-1.1-0.3-2c-0.1-0.8-0.5-6.3-0.6-8.1s-0.5-2.2-0.7-2.2c-0.3,0-0.8,1.8-0.8,1.8s-0.9,2.8-1.1,2.9
						c-0.3,0.2-0.4,0.4-0.5-0.4s-0.5-2.9-0.6-7.9s-0.6-8.8-0.9-9.6c-0.3-0.9-0.2-1-0.7-0.9s-0.9,2-1.2,3c-0.3,1-0.4,1.3-0.7,1.4
						s-0.9-1.7-1.2-7.5s-0.8-4.9-0.8-4.9c-0.1,0-0.3,0.2-0.7,5c-0.3,4.5-0.6,7-0.6,11.1"/>
          <path fill="none" stroke="#D0445C" stroke-width="0.2939" stroke-linecap="round" stroke-linejoin="round" d="M120.8,282
						c0,0.1,0,0.2,0,0.3"/>
				</g>
			</g>
      <g>
				<g>
					<path fill="none" stroke="#4B508B" stroke-width="0.2939" stroke-linecap="round" stroke-linejoin="round" d="M148,282.5
						c0,0,0,0.1,0,0.3"/>

          <path fill="none" stroke="#4B508B" stroke-width="0.2939" stroke-linecap="round" stroke-linejoin="round" stroke-dasharray="0.571,1.1421" d="
						M148,283.9c-0.1,2.3-0.3,7-0.5,9.5c-0.2,3.5-0.5,6.8-1.1,6.9c-0.6,0.1-1-5.1-1-5.1l-0.5-6.8c0,0-0.1-0.7-0.4-0.8
						c-0.3-0.1-0.6,0.6-0.6,0.6l-1.1,2.8c0,0-0.4,0.9-0.5,1c-0.1,0-0.2,0.1-0.4-1c-0.2-1-0.6-8-0.7-8.6c0-0.7-0.2-4-0.3-4.4
						c-0.1-0.4-0.3-3-0.5-3.6c-0.2-0.6-0.3-1.4-0.6-1.5c-0.3-0.1-0.9,1.8-0.9,1.8l-0.8,2.8c0,0-0.1,0.1-0.1,0.2"/>
          <path fill="none" stroke="#4B508B" stroke-width="0.2939" stroke-linecap="round" stroke-linejoin="round" d="M137.5,277.4
						c-0.1-0.1-0.1-0.3-0.1-0.3"/>
				</g>
			</g>
      <g>
				<g>
					<path fill="none" stroke="#D0445C" stroke-width="0.2939" stroke-linecap="round" stroke-linejoin="round" d="M120.6,282.5
						c0,0,0,0.1,0,0.3"/>

          <path fill="none" stroke="#D0445C" stroke-width="0.2939" stroke-linecap="round" stroke-linejoin="round" stroke-dasharray="0.5732,1.1464" d="
						M120.6,283.9c-0.1,2.3-0.3,7-0.5,9.5c-0.2,3.5-0.5,6.8-1.1,6.9s-1-5.1-1-5.1l-0.5-6.8c0,0-0.1-0.7-0.4-0.8
						c-0.3-0.1-0.6,0.6-0.6,0.6l-1.1,2.8c0,0-0.4,0.9-0.5,1s-0.2,0.1-0.4-1c-0.2-1-0.6-8-0.7-8.6c0-0.7-0.2-4-0.3-4.4
						c-0.1-0.4-0.3-3-0.5-3.6c-0.2-0.6-0.3-1.4-0.6-1.5s-0.9,1.8-0.9,1.8l-0.8,2.8c0,0-0.2,0.4-0.4,0.3c-0.2-0.1-0.3-0.5-0.3-0.5
						l-1.2-10.3l-0.1-1.3c0,0-0.2-0.4-0.3-0.4c-0.1,0-0.4,0.4-0.4,0.7c0,0.2-0.5,3.9-0.6,5.3c-0.1,1.5-0.5,10.3-0.5,10.9
						c0,0.5,0,5-0.1,7.5s-0.7,8.2-0.8,9.3c-0.1,1.1-0.5,1.3-0.5,1.3s-0.3,0-0.4-0.4c-0.1-0.4-0.2-1.1-0.3-2
						c-0.1-0.8-0.5-6.3-0.6-8.1c-0.2-1.7-0.5-2.2-0.7-2.2c-0.3,0-0.8,1.8-0.8,1.8s-0.9,2.8-1.1,2.9c-0.3,0.2-0.4,0.4-0.5-0.4
						c-0.2-0.8-0.5-2.9-0.6-7.9s-0.6-8.8-0.9-9.6c-0.3-0.9-0.2-1-0.7-0.9s-0.9,2-1.2,3c-0.3,1-0.4,1.3-0.7,1.4s-0.9-1.7-1.2-7.5
						s-0.8-4.9-0.8-4.9c-0.1,0-0.3,0.2-0.7,5c-0.3,4.5-0.6,7-0.6,11.1"/>
          <path fill="none" stroke="#D0445C" stroke-width="0.2939" stroke-linecap="round" stroke-linejoin="round" d="M93.4,282
						c0,0.1,0,0.2,0,0.3"/>
				</g>
			</g>
		</g>
      <g>
			<g>
				<g>
					<path fill="none" stroke="#4B508B" stroke-width="0.2939" stroke-linecap="round" stroke-linejoin="round" d="M312.2,282.5
						c0,0,0,0.1,0,0.3"/>

          <path fill="none" stroke="#4B508B" stroke-width="0.2939" stroke-linecap="round" stroke-linejoin="round" stroke-dasharray="0.5732,1.1464" d="
						M312.2,283.9c-0.1,2.3-0.3,7-0.5,9.5c-0.2,3.5-0.5,6.8-1.1,6.9s-1-5.1-1-5.1l-0.5-6.8c0,0-0.1-0.7-0.4-0.8
						c-0.3-0.1-0.6,0.6-0.6,0.6L307,291c0,0-0.4,0.9-0.5,1s-0.2,0.1-0.4-1s-0.6-8-0.7-8.6c0-0.7-0.2-4-0.3-4.4
						c-0.1-0.4-0.3-3-0.5-3.6c-0.2-0.6-0.3-1.4-0.6-1.5c-0.3-0.1-0.9,1.8-0.9,1.8l-0.8,2.8c0,0-0.2,0.4-0.4,0.3
						c-0.2-0.1-0.3-0.5-0.3-0.5l-1.2-10.3l-0.1-1.3c0,0-0.2-0.4-0.3-0.4c-0.1,0-0.4,0.4-0.4,0.7s-0.5,3.9-0.6,5.3
						c-0.1,1.5-0.5,10.3-0.5,10.9c0,0.5,0,5-0.1,7.5c-0.1,2.5-0.7,8.2-0.8,9.3c-0.1,1.1-0.5,1.3-0.5,1.3s-0.3,0-0.4-0.4
						c-0.1-0.4-0.2-1.1-0.3-2c-0.1-0.8-0.5-6.3-0.6-8.1c-0.2-1.7-0.5-2.2-0.7-2.2c-0.3,0-0.8,1.8-0.8,1.8s-0.9,2.8-1.1,2.9
						c-0.3,0.2-0.4,0.4-0.5-0.4c-0.2-0.8-0.5-2.9-0.6-7.9c-0.2-5-0.6-8.8-0.9-9.6c-0.3-0.9-0.2-1-0.7-0.9c-0.5,0-0.9,2-1.2,3
						c-0.3,1-0.4,1.3-0.7,1.4s-0.9-1.7-1.2-7.5s-0.8-4.9-0.8-4.9c-0.1,0-0.3,0.2-0.7,5c-0.3,4.5-0.6,7-0.6,11.1"/>
          <path fill="none" stroke="#4B508B" stroke-width="0.2939" stroke-linecap="round" stroke-linejoin="round" d="M285,282
						c0,0.1,0,0.2,0,0.3"/>
				</g>
			</g>
        <g>
				<g>
					<path fill="none" stroke="#4B508B" stroke-width="0.2939" stroke-linecap="round" stroke-linejoin="round" d="M284.9,282.5
						c0,0,0,0.1,0,0.3"/>

          <path fill="none" stroke="#4B508B" stroke-width="0.2939" stroke-linecap="round" stroke-linejoin="round" stroke-dasharray="0.5732,1.1464" d="
						M284.8,283.9c-0.1,2.3-0.3,7-0.5,9.5c-0.2,3.5-0.5,6.8-1.1,6.9s-1-5.1-1-5.1l-0.5-6.8c0,0-0.1-0.7-0.4-0.8
						c-0.3-0.1-0.6,0.6-0.6,0.6l-1.1,2.8c0,0-0.4,0.9-0.5,1s-0.2,0.1-0.4-1s-0.6-8-0.7-8.6c0-0.7-0.2-4-0.3-4.4
						c-0.1-0.4-0.3-3-0.5-3.6c-0.2-0.6-0.3-1.4-0.6-1.5c-0.3-0.1-0.9,1.8-0.9,1.8l-0.8,2.8c0,0-0.2,0.4-0.4,0.3
						c-0.2-0.1-0.3-0.5-0.3-0.5l-1.2-10.3l-0.1-1.3c0,0-0.2-0.4-0.3-0.4c-0.1,0-0.4,0.4-0.4,0.7s-0.5,3.9-0.6,5.3
						c-0.1,1.5-0.5,10.3-0.5,10.9c0,0.5,0,5-0.1,7.5c-0.1,2.5-0.7,8.2-0.8,9.3c-0.1,1.1-0.5,1.3-0.5,1.3s-0.3,0-0.4-0.4
						c-0.1-0.4-0.2-1.1-0.3-2c-0.1-0.8-0.5-6.3-0.6-8.1c-0.2-1.7-0.5-2.2-0.7-2.2c-0.3,0-0.8,1.8-0.8,1.8s-0.9,2.8-1.1,2.9
						c-0.3,0.2-0.4,0.4-0.5-0.4c-0.2-0.8-0.5-2.9-0.6-7.9c-0.2-5-0.6-8.8-0.9-9.6c-0.3-0.9-0.2-1-0.7-0.9c-0.5,0-0.9,2-1.2,3
						c-0.3,1-0.4,1.3-0.7,1.4s-0.9-1.7-1.2-7.5s-0.8-4.9-0.8-4.9c-0.1,0-0.3,0.2-0.7,5c-0.3,4.5-0.6,7-0.6,11.1"/>
          <path fill="none" stroke="#4B508B" stroke-width="0.2939" stroke-linecap="round" stroke-linejoin="round" d="M257.7,282
						c0,0.1,0,0.2,0,0.3"/>
				</g>
			</g>
        <g>
				<g>
					<path fill="none" stroke="#4B508B" stroke-width="0.2939" stroke-linecap="round" stroke-linejoin="round" d="M257.5,282.5
						c0,0,0,0.1,0,0.3"/>

          <path fill="none" stroke="#4B508B" stroke-width="0.2939" stroke-linecap="round" stroke-linejoin="round" stroke-dasharray="0.5732,1.1464" d="
						M257.4,283.9c-0.1,2.3-0.3,7-0.5,9.5c-0.2,3.5-0.5,6.8-1.1,6.9s-1-5.1-1-5.1l-0.5-6.8c0,0-0.1-0.7-0.4-0.8
						c-0.3-0.1-0.6,0.6-0.6,0.6l-1.1,2.8c0,0-0.4,0.9-0.5,1s-0.2,0.1-0.4-1s-0.6-8-0.7-8.6c0-0.7-0.2-4-0.3-4.4
						c-0.1-0.4-0.3-3-0.5-3.6c-0.2-0.6-0.3-1.4-0.6-1.5s-0.9,1.8-0.9,1.8l-0.8,2.8c0,0-0.2,0.4-0.4,0.3c-0.2-0.1-0.3-0.5-0.3-0.5
						l-1.2-10.3l-0.1-1.3c0,0-0.2-0.4-0.3-0.4s-0.4,0.4-0.4,0.7c0,0.2-0.5,3.9-0.6,5.3c-0.1,1.5-0.5,10.3-0.5,10.9
						c0,0.5,0,5-0.1,7.5s-0.7,8.2-0.8,9.3c-0.1,1.1-0.5,1.3-0.5,1.3s-0.3,0-0.4-0.4c-0.1-0.4-0.2-1.1-0.3-2
						c-0.1-0.8-0.5-6.3-0.6-8.1c-0.2-1.7-0.5-2.2-0.7-2.2c-0.3,0-0.8,1.8-0.8,1.8s-0.9,2.8-1.1,2.9c-0.3,0.2-0.4,0.4-0.5-0.4
						s-0.5-2.9-0.6-7.9c-0.2-5-0.6-8.8-0.9-9.6c-0.3-0.9-0.2-1-0.7-0.9s-0.9,2-1.2,3c-0.3,1-0.4,1.3-0.7,1.4c-0.3,0-0.9-1.7-1.2-7.5
						c-0.3-5.8-0.8-4.9-0.8-4.9c-0.1,0-0.3,0.2-0.7,5c-0.3,4.5-0.6,7-0.6,11.1"/>
          <path fill="none" stroke="#4B508B" stroke-width="0.2939" stroke-linecap="round" stroke-linejoin="round" d="M230.3,282
						c0,0.1,0,0.2,0,0.3"/>
				</g>
			</g>
        <g>
				<g>
					<path fill="none" stroke="#4B508B" stroke-width="0.2939" stroke-linecap="round" stroke-linejoin="round" d="M230.1,282.5
						c0,0,0,0.1,0,0.3"/>

          <path fill="none" stroke="#4B508B" stroke-width="0.2939" stroke-linecap="round" stroke-linejoin="round" stroke-dasharray="0.5732,1.1464" d="
						M230.1,283.9c-0.1,2.3-0.3,7-0.5,9.5c-0.2,3.5-0.5,6.8-1.1,6.9c-0.6,0.1-1-5.1-1-5.1l-0.5-6.8c0,0-0.1-0.7-0.4-0.8
						c-0.3-0.1-0.6,0.6-0.6,0.6l-1.1,2.8c0,0-0.4,0.9-0.5,1s-0.2,0.1-0.4-1s-0.6-8-0.7-8.6c0-0.7-0.2-4-0.3-4.4
						c-0.1-0.4-0.3-3-0.5-3.6c-0.2-0.6-0.3-1.4-0.6-1.5s-0.9,1.8-0.9,1.8l-0.8,2.8c0,0-0.2,0.4-0.4,0.3c-0.2-0.1-0.3-0.5-0.3-0.5
						l-1.2-10.3l-0.1-1.3c0,0-0.2-0.4-0.3-0.4s-0.4,0.4-0.4,0.7c0,0.2-0.5,3.9-0.6,5.3c-0.1,1.5-0.5,10.3-0.5,10.9
						c0,0.5,0,5-0.1,7.5s-0.7,8.2-0.8,9.3c-0.1,1.1-0.5,1.3-0.5,1.3s-0.3,0-0.4-0.4c-0.1-0.4-0.2-1.1-0.3-2
						c-0.1-0.8-0.5-6.3-0.6-8.1c-0.2-1.7-0.5-2.2-0.7-2.2c-0.3,0-0.8,1.8-0.8,1.8s-0.9,2.8-1.1,2.9c-0.3,0.2-0.4,0.4-0.5-0.4
						s-0.5-2.9-0.6-7.9c-0.2-5-0.6-8.8-0.9-9.6c-0.3-0.9-0.2-1-0.7-0.9s-0.9,2-1.2,3c-0.3,1-0.4,1.3-0.7,1.4c-0.3,0-0.9-1.7-1.2-7.5
						c-0.3-5.8-0.8-4.9-0.8-4.9c-0.1,0-0.3,0.2-0.7,5c-0.3,4.5-0.6,7-0.6,11.1"/>
          <path fill="none" stroke="#4B508B" stroke-width="0.2939" stroke-linecap="round" stroke-linejoin="round" d="M202.9,282
						c0,0.1,0,0.2,0,0.3"/>
				</g>
			</g>
		</g>
      <g>
			<g>
				<g>
					<path fill="none" stroke="#4B508B" stroke-width="0.2939" stroke-linecap="round" stroke-linejoin="round" d="M343.6,276.3
						c0,0.1-0.1,0.2-0.1,0.3"/>

          <path fill="none" stroke="#4B508B" stroke-width="0.2939" stroke-linecap="round" stroke-linejoin="round" stroke-dasharray="0.5872,1.1745" d="
						M343,277.7c0,0-0.1,0-0.2,0c-0.3,0-0.9-1.7-1.2-7.5c-0.3-5.8-0.8-4.9-0.8-4.9c-0.1,0-0.3,0.2-0.7,5c-0.3,4.5-0.6,7-0.6,11.1"/>
          <path fill="none" stroke="#4B508B" stroke-width="0.2939" stroke-linecap="round" stroke-linejoin="round" d="M339.5,282
						c0,0.1,0,0.2,0,0.3"/>
				</g>
			</g>
        <g>
				<g>
					<path fill="none" stroke="#4B508B" stroke-width="0.2939" stroke-linecap="round" stroke-linejoin="round" d="M339.4,282.5
						c0,0,0,0.1,0,0.3"/>

          <path fill="none" stroke="#4B508B" stroke-width="0.2939" stroke-linecap="round" stroke-linejoin="round" stroke-dasharray="0.5732,1.1464" d="
						M339.3,283.9c-0.1,2.3-0.3,7-0.5,9.5c-0.2,3.5-0.5,6.8-1.1,6.9c-0.6,0.1-1-5.1-1-5.1l-0.5-6.8c0,0-0.1-0.7-0.4-0.8
						c-0.3-0.1-0.6,0.6-0.6,0.6l-1.1,2.8c0,0-0.4,0.9-0.5,1c-0.1,0-0.2,0.1-0.4-1c-0.2-1-0.6-8-0.7-8.6c0-0.7-0.2-4-0.3-4.4
						c-0.1-0.4-0.3-3-0.5-3.6c-0.2-0.6-0.3-1.4-0.6-1.5c-0.3-0.1-0.9,1.8-0.9,1.8l-0.8,2.8c0,0-0.2,0.4-0.4,0.3
						c-0.2-0.1-0.3-0.5-0.3-0.5l-1.2-10.3l-0.1-1.3c0,0-0.2-0.4-0.3-0.4s-0.4,0.4-0.4,0.7s-0.5,3.9-0.6,5.3
						c-0.1,1.5-0.5,10.3-0.5,10.9c0,0.5,0,5-0.1,7.5c-0.1,2.5-0.7,8.2-0.8,9.3c-0.1,1.1-0.5,1.3-0.5,1.3s-0.3,0-0.4-0.4
						c-0.1-0.4-0.2-1.1-0.3-2c-0.1-0.8-0.5-6.3-0.6-8.1c-0.2-1.7-0.5-2.2-0.7-2.2c-0.3,0-0.8,1.8-0.8,1.8s-0.9,2.8-1.1,2.9
						c-0.3,0.2-0.4,0.4-0.5-0.4c-0.2-0.8-0.5-2.9-0.6-7.9s-0.6-8.8-0.9-9.6c-0.3-0.9-0.2-1-0.7-0.9s-0.9,2-1.2,3
						c-0.3,1-0.4,1.3-0.7,1.4c-0.3,0-0.9-1.7-1.2-7.5c-0.3-5.8-0.8-4.9-0.8-4.9c-0.1,0-0.3,0.2-0.7,5c-0.3,4.5-0.6,7-0.6,11.1"/>
          <path fill="none" stroke="#4B508B" stroke-width="0.2939" stroke-linecap="round" stroke-linejoin="round" d="M312.2,282
						c0,0.1,0,0.2,0,0.3"/>
				</g>
			</g>
		</g>
	</g>
</g>
  <g id="oculto" display="none">
</g>
  <g id="Capa_1">
	<g>
		<path fill="none" stroke="#4B508B" stroke-width="0.4465" stroke-linejoin="round" stroke-miterlimit="10" d="M353,110.9
			c3.4,0,6.1,2.7,6.1,6.1c0,3.4-2.7,6.1-6.1,6.1"/>
    <polyline fill="none" stroke="#4B508B" stroke-width="0.4465" stroke-linejoin="round" stroke-miterlimit="10" points="
			354.2,121.2 352.7,123.2 354.5,125 		"/>
	</g>
    <g>
		<path fill="none" stroke="#4B508B" stroke-width="0.4465" stroke-linejoin="round" stroke-miterlimit="10" d="M353,157.9
			c3.4,0,6.1,2.7,6.1,6.1c0,3.4-2.7,6.1-6.1,6.1"/>
      <polyline fill="none" stroke="#4B508B" stroke-width="0.4465" stroke-linejoin="round" stroke-miterlimit="10" points="
			354.2,168.2 352.7,170.2 354.5,172 		"/>
	</g>
    <g>
		<path fill="none" stroke="#4B508B" stroke-width="0.4465" stroke-linejoin="round" stroke-miterlimit="10" d="M353,204.9
			c3.4,0,6.1,2.7,6.1,6.1c0,3.4-2.7,6.1-6.1,6.1"/>
      <polyline fill="none" stroke="#4B508B" stroke-width="0.4465" stroke-linejoin="round" stroke-miterlimit="10" points="
			354.2,215.2 352.7,217.2 354.5,219 		"/>
	</g>
    <g>
		<path fill="none" stroke="#4B508B" stroke-width="0.4465" stroke-linejoin="round" stroke-miterlimit="10" d="M353,251.9
			c3.4,0,6.1,2.7,6.1,6.1c0,3.4-2.7,6.1-6.1,6.1"/>
      <polyline fill="none" stroke="#4B508B" stroke-width="0.4465" stroke-linejoin="round" stroke-miterlimit="10" points="
			354.2,262.2 352.7,264.2 354.5,266 		"/>
	</g>
    <g>
		<path fill="none" stroke="#4B508B" stroke-width="0.4465" stroke-linejoin="round" stroke-miterlimit="10" d="M353,298.9
			c3.4,0,6.1,2.7,6.1,6.1s-2.7,6.1-6.1,6.1"/>
      <polyline fill="none" stroke="#4B508B" stroke-width="0.4465" stroke-linejoin="round" stroke-miterlimit="10" points="
			354.2,309.2 352.7,311.2 354.5,313 		"/>
	</g>
    <g>
		<path fill="none" stroke="#4B508B" stroke-width="0.4465" stroke-linejoin="round" stroke-miterlimit="10" d="M353,345.9
			c3.4,0,6.1,2.7,6.1,6.1s-2.7,6.1-6.1,6.1"/>
      <polyline fill="none" stroke="#4B508B" stroke-width="0.4465" stroke-linejoin="round" stroke-miterlimit="10" points="
			354.2,356.2 352.7,358.2 354.5,360 		"/>
	</g>
    <g>
		<path fill="none" stroke="#4B508B" stroke-width="0.4465" stroke-linejoin="round" stroke-miterlimit="10" d="M353,392.9
			c3.4,0,6.1,2.7,6.1,6.1s-2.7,6.1-6.1,6.1"/>
      <polyline fill="none" stroke="#4B508B" stroke-width="0.4465" stroke-linejoin="round" stroke-miterlimit="10" points="
			354.2,403.2 352.7,405.2 354.5,407 		"/>
	</g>
    <circle fill="none" stroke="#4B508B" stroke-width="0.4043" stroke-miterlimit="10" cx="212.4" cy="382.3" r="3.6"/>
    <circle fill="none" stroke="#D0445C" stroke-width="0.4043" stroke-miterlimit="10" cx="98.8" cy="379.2" r="3.6"/>
    <circle fill="none" stroke="#4B508B" stroke-width="0.4043" stroke-miterlimit="10" cx="157" cy="365.6" r="3.6"/>
    <line fill="none" stroke="#D0445C" stroke-width="0.15" stroke-miterlimit="10" x1="96.8" y1="326.9" x2="96.8" y2="336.6"/>
    <line fill="none" stroke="#D0445C" stroke-width="0.15" stroke-miterlimit="10" x1="100.9" y1="326.9" x2="100.9" y2="336.6"/>
    <line fill="none" stroke="#D0445C" stroke-width="0.15" stroke-miterlimit="10" x1="104.9" y1="326.9" x2="104.9" y2="336.6"/>
    <line fill="none" stroke="#4B508B" stroke-width="0.2819" stroke-miterlimit="10" x1="166.6" y1="326.9" x2="166.6" y2="336.6"/>
    <line fill="none" stroke="#4B508B" stroke-width="0.2819" stroke-miterlimit="10" x1="170.7" y1="326.9" x2="170.7" y2="336.6"/>
    <line fill="none" stroke="#4B508B" stroke-width="0.2819" stroke-miterlimit="10" x1="174.7" y1="326.9" x2="174.7" y2="336.6"/>
    <line fill="none" stroke="#4B508B" stroke-width="0.3758" stroke-miterlimit="10" x1="226.7" y1="326.9" x2="226.7" y2="336.6"/>
    <line fill="none" stroke="#4B508B" stroke-width="0.3758" stroke-miterlimit="10" x1="230.7" y1="326.9" x2="230.7" y2="336.6"/>
    <line fill="none" stroke="#4B508B" stroke-width="0.3758" stroke-miterlimit="10" x1="234.8" y1="326.9" x2="234.8" y2="336.6"/>
    <line fill="none" stroke="#4B508B" stroke-width="0.7517" stroke-miterlimit="10" x1="283" y1="326.9" x2="283" y2="336.6"/>
    <line fill="none" stroke="#4B508B" stroke-width="0.7517" stroke-miterlimit="10" x1="287" y1="326.9" x2="287" y2="336.6"/>
    <line fill="none" stroke="#4B508B" stroke-width="0.7517" stroke-miterlimit="10" x1="291.1" y1="326.9" x2="291.1" y2="336.6"/>
    <line fill="none" stroke="#4B508B" stroke-width="0.7517" stroke-miterlimit="10" x1="323" y1="326.9" x2="323" y2="336.6"/>
    <line fill="none" stroke="#4B508B" stroke-width="1.1275" stroke-miterlimit="10" x1="327" y1="326.9" x2="327" y2="336.6"/>
    <line fill="none" stroke="#4B508B" stroke-width="1.1275" stroke-miterlimit="10" x1="331.1" y1="326.9" x2="331.1" y2="336.6"/>
    <g>
		<text transform="matrix(1 0 0 1 349.6309 439.4845)" fill="#4B508B" font-family="'Consolas-Bold'" font-size="5px">D.C.</text>
	</g>
    <path fill="#D0445C" d="M105,269.3v10.2c3-0.8,3.6-2.7,3.6-5.1S108,270,105,269.3z"/>
    <path fill="#4B508B" d="M163,269v10.8c3-0.1,5.2-2.5,5.2-5.4C168.2,271.4,166,269.1,163,269z"/>
    <path fill="#4B508B" d="M217.4,269c-0.8,0-1.4,0.2-2.4,0.5v9.8c1,0.3,1.6,0.5,2.4,0.5c3,0,5.4-2.4,5.4-5.4
		C222.9,271.4,220.4,269,217.4,269z"/>
    <path fill="none" stroke="#D0445C" stroke-width="0.4656" stroke-miterlimit="10" d="M104.4,420.1c-0.4-0.3-0.9-0.6-1.4-0.8
		c-1.8-0.6-3.7,0.4-4.3,2.2c-0.6,1.8,0.4,3.7,2.2,4.3c0.5,0.2,1.1,0.2,1.6,0.1"/>
    <path fill="none" stroke="#4B508B" stroke-width="0.4656" stroke-miterlimit="10" d="M168,425.6c0.4-0.4,0.7-0.8,0.9-1.3
		c0.7-1.7-0.1-3.7-1.9-4.5c-1.7-0.7-3.7,0.1-4.5,1.9c-0.2,0.5-0.3,1-0.3,1.5"/>
    <path fill="none" stroke="#4B508B" stroke-width="0.4656" stroke-miterlimit="10" d="M213.7,419.9c-0.1,0.5-0.2,1-0.1,1.6
		c0.3,1.9,2,3.1,3.9,2.8c1.9-0.3,3.1-2,2.8-3.9c-0.1-0.5-0.3-1-0.6-1.5"/>
    <path fill="none" stroke="#4B508B" stroke-width="0.4656" stroke-miterlimit="10" d="M276.1,415.2c-0.5-0.1-1.1,0-1.6,0.2
		c-1.8,0.6-2.8,2.5-2.2,4.3s2.5,2.8,4.3,2.2c0.5-0.2,1-0.4,1.4-0.8"/>
    <path fill="none" stroke="#4B508B" stroke-width="0.4656" stroke-miterlimit="10" d="M325.4,425.4c0.5,0,1-0.2,1.5-0.4
		c1.7-0.9,2.4-2.9,1.5-4.6c-0.9-1.7-2.9-2.4-4.6-1.5c-0.5,0.2-0.9,0.6-1.2,1"/>
    <path fill="none" stroke="#4B508B" stroke-width="0.4656" stroke-miterlimit="10" d="M326,422.6c0.4,0.3,0.9,0.6,1.4,0.8
		c1.8,0.6,3.7-0.4,4.3-2.2c0.6-1.8-0.4-3.7-2.2-4.3c-0.5-0.2-1.1-0.2-1.6-0.1"/>
    <path fill="none" stroke="#4B508B" stroke-width="0.4656" stroke-miterlimit="10" d="M276.1,417.9c-0.4,0.4-0.7,0.8-0.9,1.3
		c-0.7,1.7,0.1,3.7,1.9,4.5s3.7-0.1,4.5-1.9c0.2-0.5,0.3-1,0.3-1.5"/>
    <path fill="none" stroke="#4B508B" stroke-width="0.4656" stroke-miterlimit="10" d="M222.7,421.4c0.1-0.5,0.2-1,0.1-1.6
		c-0.3-1.9-2-3.1-3.9-2.8c-1.9,0.3-3.1,2-2.8,3.9c0.1,0.5,0.3,1,0.6,1.5"/>
    <path fill="none" stroke="#4B508B" stroke-width="0.4656" stroke-miterlimit="10" d="M156.9,424.6c0.5,0.1,1.1,0,1.6-0.2
		c1.8-0.6,2.8-2.5,2.2-4.3c-0.6-1.8-2.5-2.8-4.3-2.2c-0.5,0.2-1,0.4-1.4,0.8"/>
    <path fill="none" stroke="#D0445C" stroke-width="0.4656" stroke-miterlimit="10" d="M99.1,415.2c-0.5,0-1,0.2-1.5,0.4
		c-1.7,0.9-2.4,2.9-1.5,4.6c0.9,1.7,2.9,2.4,4.6,1.5c0.5-0.2,0.9-0.6,1.2-1"/>
    <path fill="#4B508B" d="M274.7,269c-1.5,0-2.7,0.6-3.7,1.6v7.7c1,1,2.2,1.6,3.7,1.6c3,0,5.4-2.4,5.4-5.4
		C280.1,271.4,277.7,269,274.7,269z"/>
    <g>
		<path fill="#4B508B" d="M326.7,269c-2,0-3.7,1.1-4.7,2.8v5.3c1,1.7,2.6,2.8,4.7,2.8c3,0,5.4-2.4,5.4-5.4
			C332.1,271.4,329.7,269,326.7,269z"/>
	</g>
    <circle fill="#D0445C" cx="99.4" cy="227.1" r="2"/>
    <circle fill="#D0445C" cx="105.7" cy="220.1" r="2"/>
    <circle fill="#4B508B" cx="158" cy="231.8" r="2"/>
    <circle fill="#4B508B" cx="162" cy="225.9" r="2"/>
    <circle fill="#4B508B" cx="211" cy="216.9" r="2"/>
    <circle fill="#4B508B" cx="216.8" cy="226.7" r="2"/>
    <circle fill="#4B508B" cx="269.8" cy="227.3" r="2"/>
    <circle fill="#4B508B" cx="276.5" cy="223.6" r="2"/>
    <circle fill="#4B508B" cx="321.8" cy="219" r="2"/>
    <circle fill="#4B508B" cx="325.6" cy="226.5" r="2"/>
    <polygon fill="#D0445C" points="94.6,138.6 104.3,141 101.9,131.3 	"/>
    <polygon fill="#4B508B" points="158.3,132.7 166.2,126.7 157.2,122.4 	"/>
    <polygon fill="#4B508B" points="209.8,142.3 218.7,137.8 210.6,132 	"/>
    <polygon fill="#4B508B" points="270.8,128.1 276.5,136.3 281.1,127.5 	"/>
    <polygon fill="#4B508B" points="324.3,143.1 329.4,134.5 319.4,134 	"/>
    <g>
		<line fill="none" stroke="#D0445C" stroke-width="0.5528" stroke-miterlimit="10" x1="92.3" y1="187" x2="100.3" y2="179"/>
      <line fill="none" stroke="#D0445C" stroke-width="0.5528" stroke-miterlimit="10" x1="94.8" y1="187" x2="102.8" y2="179"/>
      <line fill="none" stroke="#D0445C" stroke-width="0.5528" stroke-miterlimit="10" x1="97.3" y1="187" x2="105.3" y2="179"/>
      <line fill="none" stroke="#D0445C" stroke-width="0.5528" stroke-miterlimit="10" x1="99.8" y1="187" x2="107.8" y2="179"/>
	</g>
    <g>
		<line fill="none" stroke="#4B508B" stroke-width="0.5528" stroke-miterlimit="10" x1="152.4" y1="182.2" x2="160.4" y2="174.2"/>
      <line fill="none" stroke="#4B508B" stroke-width="0.5528" stroke-miterlimit="10" x1="154.9" y1="182.2" x2="162.9" y2="174.2"/>
      <line fill="none" stroke="#4B508B" stroke-width="0.5528" stroke-miterlimit="10" x1="157.4" y1="182.2" x2="165.4" y2="174.2"/>
      <line fill="none" stroke="#4B508B" stroke-width="0.5528" stroke-miterlimit="10" x1="159.9" y1="182.2" x2="167.9" y2="174.2"/>
      <line fill="none" stroke="#4B508B" stroke-width="0.5528" stroke-miterlimit="10" x1="162.6" y1="182.2" x2="170.5" y2="174.2"/>
	</g>
    <g>
		<line fill="none" stroke="#4B508B" stroke-width="0.5528" stroke-miterlimit="10" x1="202.4" y1="192.1" x2="210.4" y2="184.2"/>
      <line fill="none" stroke="#4B508B" stroke-width="0.5528" stroke-miterlimit="10" x1="204.9" y1="192.1" x2="212.9" y2="184.2"/>
      <line fill="none" stroke="#4B508B" stroke-width="0.5528" stroke-miterlimit="10" x1="207.4" y1="192.1" x2="215.4" y2="184.2"/>
      <line fill="none" stroke="#4B508B" stroke-width="0.5528" stroke-miterlimit="10" x1="209.9" y1="192.1" x2="217.9" y2="184.2"/>
	</g>
    <g>
		<line fill="none" stroke="#4B508B" stroke-width="0.5528" stroke-miterlimit="10" x1="259" y1="183.3" x2="267" y2="175.3"/>
      <line fill="none" stroke="#4B508B" stroke-width="0.5528" stroke-miterlimit="10" x1="261.5" y1="183.3" x2="269.5" y2="175.3"/>
      <line fill="none" stroke="#4B508B" stroke-width="0.5528" stroke-miterlimit="10" x1="264" y1="183.3" x2="272" y2="175.3"/>
      <line fill="none" stroke="#4B508B" stroke-width="0.5528" stroke-miterlimit="10" x1="266.5" y1="183.3" x2="274.5" y2="175.3"/>
      <line fill="none" stroke="#4B508B" stroke-width="0.5528" stroke-miterlimit="10" x1="269.2" y1="183.3" x2="277.2" y2="175.3"/>
      <line fill="none" stroke="#4B508B" stroke-width="0.5528" stroke-miterlimit="10" x1="271.7" y1="183.3" x2="279.7" y2="175.3"/>
	</g>
    <g>
		<line fill="none" stroke="#4B508B" stroke-width="0.5528" stroke-miterlimit="10" x1="321.5" y1="192" x2="329.5" y2="184"/>
      <line fill="none" stroke="#4B508B" stroke-width="0.5528" stroke-miterlimit="10" x1="324" y1="192" x2="332" y2="184"/>
      <line fill="none" stroke="#4B508B" stroke-width="0.5528" stroke-miterlimit="10" x1="326.5" y1="192" x2="334.5" y2="184"/>
      <line fill="none" stroke="#4B508B" stroke-width="0.5528" stroke-miterlimit="10" x1="329" y1="192" x2="337" y2="184"/>
	</g>
    <g>
		<line fill="none" stroke="#4B508B" stroke-width="0.5528" stroke-miterlimit="10" x1="311.2" y1="192" x2="319.2" y2="184"/>
      <line fill="none" stroke="#4B508B" stroke-width="0.5528" stroke-miterlimit="10" x1="313.7" y1="192" x2="321.7" y2="184"/>
      <line fill="none" stroke="#4B508B" stroke-width="0.5528" stroke-miterlimit="10" x1="316.3" y1="192" x2="324.2" y2="184"/>
      <line fill="none" stroke="#4B508B" stroke-width="0.5528" stroke-miterlimit="10" x1="318.8" y1="192" x2="326.8" y2="184"/>
	</g>
    <line fill="none" stroke="#D0445C" stroke-width="1.4742" stroke-miterlimit="10" x1="101.2" y1="370.4" x2="101.2" y2="388.7"/>
    <line fill="none" stroke="#4B508B" stroke-width="1.4742" stroke-miterlimit="10" x1="157.9" y1="365.9" x2="168.8" y2="380.5"/>
    <line fill="none" stroke="#4B508B" stroke-width="1.4742" stroke-miterlimit="10" x1="219.1" y1="366.3" x2="216.9" y2="384.5"/>
    <circle fill="none" stroke="#4B508B" stroke-width="0.4043" stroke-miterlimit="10" cx="270.8" cy="380.7" r="3.6"/>
    <line fill="none" stroke="#4B508B" stroke-width="1.4742" stroke-miterlimit="10" x1="279.4" y1="374.9" x2="264.7" y2="385.7"/>
    <circle fill="none" stroke="#4B508B" stroke-width="0.4043" stroke-miterlimit="10" cx="326.3" cy="375.9" r="3.6"/>
    <line fill="none" stroke="#4B508B" stroke-width="1.4742" stroke-miterlimit="10" x1="336.5" y1="381.2" x2="318.2" y2="381.2"/>
    <g>
		<path fill="#D0445C" d="M97.1,80.7l1.5,3.7l-3.9,0.9l-0.3-1l2.8-0.6L96.1,81L97.1,80.7z"/>
      <path fill="#D0445C" d="M102.2,83.4l1.5,3.7L99.8,88l-0.3-1l2.8-0.6l-1.1-2.7L102.2,83.4z"/>
      <path fill="#D0445C" d="M107.3,86.1l1.5,3.7l-3.9,0.9l-0.3-1l2.8-0.6l-1.1-2.7L107.3,86.1z"/>
	</g>
    <g>
		<path fill="#4B508B" d="M161.5,89.6l3.1,2.6l-3.1,2.6l-0.7-0.7l2.2-1.8l-2.2-1.9L161.5,89.6z"/>
      <path fill="#4B508B" d="M167.3,89.6l3.1,2.6l-3.1,2.6l-0.7-0.7l2.2-1.8l-2.2-1.9L167.3,89.6z"/>
      <path fill="#4B508B" d="M173.1,89.6l3.1,2.6l-3.1,2.6l-0.7-0.7l2.2-1.8l-2.2-1.9L173.1,89.6z"/>
	</g>
    <g>
		<path fill="#4B508B" d="M207.9,91.2l3.1,2.6l-3.1,2.6l-0.7-0.7l2.2-1.8l-2.2-1.9L207.9,91.2z"/>
      <path fill="#4B508B" d="M213.7,91.2l3.1,2.6l-3.1,2.6l-0.7-0.7l2.2-1.8l-2.2-1.9L213.7,91.2z"/>
      <path fill="#4B508B" d="M219.5,91.2l3.1,2.6l-3.1,2.6l-0.7-0.7l2.2-1.8l-2.2-1.9L219.5,91.2z"/>
	</g>
    <g>
		<path fill="#4B508B" d="M268.2,95.2l3.1,2.6l-3.1,2.6l-0.7-0.7l2.2-1.8l-2.2-1.9L268.2,95.2z"/>
      <path fill="#4B508B" d="M274,95.2l3.1,2.6l-3.1,2.6l-0.7-0.7l2.2-1.8l-2.2-1.9L274,95.2z"/>
      <path fill="#4B508B" d="M279.8,95.2l3.1,2.6l-3.1,2.6l-0.7-0.7l2.2-1.8l-2.2-1.9L279.8,95.2z"/>
	</g>
    <g>
		<path fill="#4B508B" d="M327,89.9l3.1,2.6l-3.1,2.6l-0.7-0.7l2.2-1.8l-2.2-1.9L327,89.9z"/>
      <path fill="#4B508B" d="M332.8,89.9l3.1,2.6l-3.1,2.6l-0.7-0.7l2.2-1.8l-2.2-1.9L332.8,89.9z"/>
      <path fill="#4B508B" d="M338.6,89.9l3.1,2.6l-3.1,2.6l-0.7-0.7l2.2-1.8l-2.2-1.9L338.6,89.9z"/>
	</g>
</g>
  <g id="texto">
	<g>

			<text transform="matrix(0.739 0.6737 -0.6737 0.739 331.0196 321.8475)" fill="#4B508B" font-family="'Consolas-Bold'" font-size="6.6341px">5</text>
	</g>
    <g>

			<text transform="matrix(0.9635 -0.2678 0.2678 0.9635 294.6303 331.1408)" fill="#4B508B" font-family="'Consolas-Bold'" font-size="6.6341px">4</text>
	</g>
    <g>

			<text transform="matrix(0.8617 -0.5074 0.5074 0.8617 236.3648 336.3992)" fill="#4B508B" font-family="'Consolas-Bold'" font-size="6.6341px">3</text>
	</g>
    <g>
		<text transform="matrix(1 0 0 1 178.3104 325.6969)" fill="#4B508B" font-family="'Consolas-Bold'" font-size="6.6341px">2</text>
	</g>
    <g>
		<text transform="matrix(1 0 0 1 330.7847 175.634)" fill="#4B508B" font-family="'Consolas-Bold'" font-size="6.6341px">5</text>
	</g>
    <g>
		<text transform="matrix(1 0 0 1 276.5986 196.6413)" fill="#4B508B" font-family="'Consolas-Bold'" font-size="6.6341px">4</text>
	</g>
    <g>
		<text transform="matrix(1 0 0 1 219.1323 174.4054)" fill="#4B508B" font-family="'Consolas-Bold'" font-size="6.6341px">3</text>
	</g>
    <g>
		<text transform="matrix(1 0 0 1 163.2397 196.2731)" fill="#4B508B" font-family="'Consolas-Bold'" font-size="6.6341px">2</text>
	</g>
    <g>
		<text transform="matrix(1 0 0 1 163.6084 219.6261)" fill="#4B508B" font-family="'Consolas-Bold'" font-size="6.6341px">2</text>
	</g>
    <g>
		<text transform="matrix(1 0 0 1 216.9214 237.6867)" fill="#4B508B" font-family="'Consolas-Bold'" font-size="6.6341px">3</text>
	</g>
    <g>
		<text transform="matrix(1 0 0 1 271.3159 221.8385)" fill="#4B508B" font-family="'Consolas-Bold'" font-size="6.6341px">4</text>
	</g>
    <g>
		<text transform="matrix(1 0 0 1 330.2935 237.3171)" fill="#4B508B" font-family="'Consolas-Bold'" font-size="6.6341px">5</text>
	</g>
    <g>

			<text transform="matrix(0.9972 7.531000e-02 -7.531000e-02 0.9972 79.171 147.3105)" fill="#D0445C" font-family="'Consolas-Bold'" font-size="5px">Cris Blanco</text>
	</g>
    <g>
		<text transform="matrix(0.9972 7.531000e-02 -7.531000e-02 0.9972 89.9407 103.84)"><tspan x="0" y="0" fill="#D0445C" font-family="'Consolas-Bold'" font-size="5px">Historias de </tspan><tspan x="-6.2" y="6" fill="#D0445C" font-family="'Consolas-Bold'" font-size="5px">la colaboracin</tspan></text>
	</g>
    <g>

			<text transform="matrix(0.9925 -0.1224 0.1224 0.9925 106.4043 96.6101)" fill="#D0445C" font-family="'Consolas-Bold'" font-size="5px">01:29:19</text>
	</g>
    <g>

			<text transform="matrix(0.9925 -0.1224 0.1224 0.9925 107.2059 139.7127)" fill="#D0445C" font-family="'Consolas-Bold'" font-size="5px">22:08</text>
	</g>
    <g>

			<text transform="matrix(0.9598 -0.2808 0.2808 0.9598 94.1209 198.3725)" fill="#D0445C" font-family="'Consolas-Bold'" font-size="5px">Git Hub</text>
	</g>
    <g>

			<text transform="matrix(0.9957 9.230000e-02 -9.230000e-02 0.9957 107.3087 185.9049)" fill="#D0445C" font-family="'Consolas-Bold'" font-size="5px">19:40</text>
	</g>
    <g>

			<text transform="matrix(0.9941 0.1081 -0.1081 0.9941 90.2495 236.408)" fill="#D0445C" font-family="'Consolas-Bold'" font-size="5px">FairBnB</text>
	</g>
    <g>

			<text transform="matrix(0.9549 -0.297 0.297 0.9549 108.262 233.0301)" fill="#D0445C" font-family="'Consolas-Bold'" font-size="5px">12:04</text>
	</g>
    <g>
		<text transform="matrix(1.1561 0.166 -0.1957 0.9807 84.5339 287.2123)"><tspan x="0" y="0" fill="#D0445C" font-family="'Consolas-Bold'" font-size="4.2642px">Publicaciones </tspan><tspan x="14.7" y="5.1" fill="#D0445C" font-family="'Consolas-Bold'" font-size="4.2642px">HUL</tspan></text>
	</g>
    <g>

			<text transform="matrix(0.9525 0.3044 -0.3044 0.9525 110.3723 279.7461)" fill="#D0445C" font-family="'Consolas-Bold'" font-size="5px">15:33</text>
	</g>
    <g>

			<text transform="matrix(0.986 0.1669 -0.1669 0.986 87.5677 340.3725)" fill="#D0445C" font-family="'Consolas-Bold'" font-size="5px">intro + CAOS</text>
	</g>
    <g>

			<text transform="matrix(0.986 0.1669 -0.1669 0.986 103.0677 386.3725)" fill="#D0445C" font-family="'Consolas-Bold'" font-size="5px">Convocatoria</text>
	</g>
    <g>
		<text transform="matrix(0.986 0.1669 -0.1669 0.986 83.4875 433.601)"><tspan x="0" y="0" fill="#D0445C" font-family="'Consolas-Bold'" font-size="5px">HUL.- KaRaeoke</tspan><tspan x="-12.5" y="6" fill="#D0445C" font-family="'Consolas-Bold'" font-size="5px">Una ucrona en Ucrania</tspan></text>
	</g>
    <g>

			<text transform="matrix(0.9525 0.3044 -0.3044 0.9525 110.3723 334.7461)" fill="#D0445C" font-family="'Consolas-Bold'" font-size="5px">22:22</text>
	</g>
    <g>

			<text transform="matrix(0.9045 -0.4265 0.4265 0.9045 104.0065 376.8655)" fill="#D0445C" font-family="'Consolas-Bold'" font-size="5px">07:56</text>
	</g>
    <g>

			<text transform="matrix(0.9045 -0.4265 0.4265 0.9045 108.0065 422.6155)" fill="#D0445C" font-family="'Consolas-Bold'" font-size="5px">52:12</text>
	</g>
    <g>
		<text transform="matrix(1 0 0 1 162.5029 138.9679)" fill="#4B508B" font-family="'Consolas-Bold'" font-size="6.6341px">2</text>
	</g>
    <g>
		<text transform="matrix(1 0 0 1 220.2388 129.2624)" fill="#4B508B" font-family="'Consolas-Bold'" font-size="6.6341px">3</text>
	</g>
    <g>
		<text transform="matrix(1 0 0 1 275.3701 142.9001)" fill="#4B508B" font-family="'Consolas-Bold'" font-size="6.6341px">4</text>
	</g>
    <g>
		<text transform="matrix(1 0 0 1 332.2588 130.3688)" fill="#4B508B" font-family="'Consolas-Bold'" font-size="6.6341px">5</text>
	</g>
    <g>
		<text transform="matrix(1 0 0 1 164.3457 288.9645)" fill="#4B508B" font-family="'Consolas-Bold'" font-size="6.6341px">2</text>
	</g>
    <g>
		<text transform="matrix(1 0 0 1 220.9751 288.9645)" fill="#4B508B" font-family="'Consolas-Bold'" font-size="6.6341px">3</text>
	</g>
    <g>
		<text transform="matrix(1 0 0 1 280.1616 288.9645)" fill="#4B508B" font-family="'Consolas-Bold'" font-size="6.6341px">4</text>
	</g>
    <g>
		<text transform="matrix(1 0 0 1 334.3477 288.9645)" fill="#4B508B" font-family="'Consolas-Bold'" font-size="6.6341px">5</text>
	</g>
    <g>
		<text transform="matrix(1 0 0 1 327.8364 412.8122)" fill="#4B508B" font-family="'Consolas-Bold'" font-size="6.6341px">5</text>
	</g>
    <g>
		<text transform="matrix(1 0 0 1 274.3872 430.1349)" fill="#4B508B" font-family="'Consolas-Bold'" font-size="6.6341px">4</text>
	</g>
    <g>
		<text transform="matrix(1 0 0 1 214.3413 413.4264)" fill="#4B508B" font-family="'Consolas-Bold'" font-size="6.6341px">3</text>
	</g>
    <g>
		<text transform="matrix(1 0 0 1 166.9253 431.2399)" fill="#4B508B" font-family="'Consolas-Bold'" font-size="6.6341px">2</text>
	</g>
    <g>
		<text transform="matrix(1 0 0 1 328.9419 365.8507)" fill="#4B508B" font-family="'Consolas-Bold'" font-size="6.6341px">5</text>
	</g>
    <g>
		<text transform="matrix(1 0 0 1 280.2837 389.8073)" fill="#4B508B" font-family="'Consolas-Bold'" font-size="6.6341px">4</text>
	</g>
    <g>
		<text transform="matrix(1 0 0 1 217.2905 364.6227)" fill="#4B508B" font-family="'Consolas-Bold'" font-size="6.6341px">3</text>
	</g>
    <g>
		<text transform="matrix(1 0 0 1 161.3975 386.4904)" fill="#4B508B" font-family="'Consolas-Bold'" font-size="6.6341px">2</text>
	</g>

    <text transform="matrix(0.9603 -0.279 0.279 0.9603 22.6639 109.7289)" fill="#4B508B" font-family="'Consolas-Bold'" font-size="8.8454px">cuerpo</text>

    <text transform="matrix(0.9622 0.2723 -0.2723 0.9622 24.4621 136.025)" fill="#4B508B" font-family="'Consolas-Bold'" font-size="8.8454px">faqs</text>

    <text transform="matrix(0.9945 -0.105 0.105 0.9945 5.5977 191.1038)" fill="#4B508B" font-family="'Consolas-Bold'" font-size="8.8454px">herramientas</text>

    <text transform="matrix(0.9474 -0.3202 0.3202 0.9474 11.831 244.011)" fill="#4B508B" font-family="'Consolas-Bold'" font-size="8.8455px">everywhere</text>

    <text transform="matrix(0.9784 0.2067 -0.2067 0.9784 17.8446 278.6288)" fill="#4B508B" font-family="'Consolas-Bold'" font-size="8.8454px">ARCHIVO</text>

    <text transform="matrix(0.9992 -4.049000e-02 4.049000e-02 0.9992 15.219 331.2138)" fill="#4B508B" font-family="'Consolas-Bold'" font-size="8.8454px">lexic-on</text>

    <text transform="matrix(0.9974 7.178000e-02 -7.178000e-02 0.9974 14.9969 379.2607)" fill="#4B508B" font-family="'Consolas-Bold'" font-size="8.8454px">open.col</text>
    <g>
		<text transform="matrix(1 0 0 1 163.6084 86.506)" fill="#4B508B" font-family="'Consolas-Bold'" font-size="6.6341px">2</text>
	</g>
    <g>
		<text transform="matrix(1 0 0 1 229.6038 104.5665)" fill="#4B508B" font-family="'Consolas-Bold'" font-size="6.6341px">3</text>
	</g>
    <g>
		<text transform="matrix(1 0 0 1 283.9218 88.7184)" fill="#4B508B" font-family="'Consolas-Bold'" font-size="6.6341px">4</text>
	</g>
    <g>
		<text transform="matrix(1 0 0 1 330.2935 104.1964)" fill="#4B508B" font-family="'Consolas-Bold'" font-size="6.6341px">5</text>
	</g>

    <text transform="matrix(0.9945 -0.105 0.105 0.9945 5.599 432.7786)" fill="#4B508B" font-family="'Consolas-Bold'" font-size="8.8454px">PERFORMATIVO</text>
    <g>

			<text transform="matrix(0.7858 -0.6185 0.6185 0.7858 208.6009 67.1979)" fill="#4B508B" font-family="'Consolas-Bold'" font-size="6.634px">CIUDAD FEMEN</text>
	</g>
    <g>

			<text transform="matrix(0.7767 -0.6299 0.6299 0.7767 257.86 72.2892)" fill="#4B508B" font-family="'Consolas-Bold'" font-size="6.6341px">COLLABORATION MY ASS</text>
	</g>
    <g>

			<text transform="matrix(0.8445 0.5355 -0.5355 0.8445 328.1821 56.7494)" fill="#4B508B" font-family="'Consolas-Bold'" font-size="6.634px">FIESTA</text>
	</g>
    <text transform="matrix(0.8208 -0.5712 0.5712 0.8208 92.944 46.2723)"><tspan x="0" y="0" fill="#D0445C" font-family="'Consolas-Bold'" font-size="8.8454px">on01 </tspan><tspan x="24.3" y="0" fill="#D0445C" font-family="'Consolas-Bold'" font-size="6.4999px">.-</tspan><tspan x="31.5" y="0" fill="#D0445C" font-family="'Consolas-Bold'" font-size="8.8454px"> </tspan></text>
    <text transform="matrix(0.4513 -0.8924 0.8924 0.4513 161.4819 56.9621)"><tspan x="0" y="0" fill="#4B508B" font-family="'Consolas-Bold'" font-size="8.8454px">on02 </tspan><tspan x="24.3" y="0" fill="#4B508B" font-family="'Consolas-Bold'" font-size="6.4999px">.-</tspan></text>
    <g>

			<text transform="matrix(0.7959 -0.6055 0.6055 0.7959 147.7158 75.6258)" fill="#4B508B" font-family="'Consolas-Bold'" font-size="6.634px">CO-MADRID POST92 </text>
	</g>
    <g>

			<text transform="matrix(0.9728 -0.2315 0.2315 0.9728 37.1591 65.6632)" fill="#D0445C" font-family="'Consolas-Bold'" font-size="6.4999px">historias de la colaboracin</text>
	</g>
    <text transform="matrix(0.6823 -0.7311 0.7311 0.6823 220.4005 49.7605)"><tspan x="0" y="0" fill="#4B508B" font-family="'Consolas-Bold'" font-size="8.8454px">on03 </tspan><tspan x="24.3" y="0" fill="#4B508B" font-family="'Consolas-Bold'" font-size="6.4999px">.-</tspan></text>
    <text transform="matrix(0.4529 -0.8916 0.8916 0.4529 273.1827 53.3764)"><tspan x="0" y="0" fill="#4B508B" font-family="'Consolas-Bold'" font-size="8.8454px">on04 </tspan><tspan x="24.3" y="0" fill="#4B508B" font-family="'Consolas-Bold'" font-size="6.4999px">.-</tspan></text>
    <text transform="matrix(0.9177 -0.3973 0.3973 0.9177 322.0459 50.6806)"><tspan x="0" y="0" fill="#4B508B" font-family="'Consolas-Bold'" font-size="8.8454px">on05 </tspan><tspan x="24.3" y="0" fill="#4B508B" font-family="'Consolas-Bold'" font-size="6.4999px">.-</tspan></text>
</g>
  <g id="hover">
</g>
</svg>
