<?xml version="1.0" encoding="utf-8"?>
<!-- Generator: Adobe Illustrator 23.0.3, SVG Export Plug-In . SVG Version: 6.00 Build 0)  -->
<svg version="1.1" xmlns="http://www.w3.org/2000/svg" xmlns:xlink="http://www.w3.org/1999/xlink" x="0px" y="0px"
	 viewBox="0 0 49.33 103.94" style="enable-background:new 0 0 49.33 103.94;" xml:space="preserve">
<style type="text/css">
	.st0{fill:#E4E5E3;}
	.st1{opacity:0.35;}
	.st2{fill:none;stroke:#000000;stroke-width:0.1852;stroke-miterlimit:10;}
	.st3{fill:none;stroke:#000000;stroke-miterlimit:10;}
	.st4{opacity:0.14;fill:none;stroke:#4D4D4D;stroke-miterlimit:10;}
	.st5{clip-path:url(#SVGID_2_);}
	.st6{clip-path:url(#SVGID_4_);}
	.st7{fill:none;}
	.st8{opacity:0.4;}
	.st9{fill:none;stroke:#4C4885;stroke-width:0.9301;stroke-linecap:round;stroke-linejoin:round;}
	.st10{fill:none;stroke:#4C4885;stroke-width:0.9301;stroke-linecap:round;stroke-linejoin:round;stroke-dasharray:2.1583,4.3165;}
	.st11{fill:none;stroke:#4C4885;stroke-width:0.9301;stroke-linecap:round;stroke-linejoin:round;stroke-dasharray:2.1575,4.3151;}
	.st12{fill:none;stroke:#4C4885;stroke-width:0.9301;stroke-linecap:round;stroke-linejoin:round;stroke-dasharray:2.1473,4.2945;}
	.st13{fill:none;stroke:#4C4885;stroke-width:0.9301;stroke-linecap:round;stroke-linejoin:round;stroke-dasharray:2.4366,4.8732;}
	.st14{fill:none;stroke:#4C4885;stroke-width:0.9301;stroke-linecap:round;stroke-linejoin:round;stroke-dasharray:2.4507,4.9014;}
	.st15{fill:none;stroke:#D13B54;stroke-width:0.9301;stroke-linecap:round;stroke-linejoin:round;}
	.st16{fill:none;stroke:#D13B54;stroke-width:0.9301;stroke-linecap:round;stroke-linejoin:round;stroke-dasharray:2.1878,4.3757;}
	.st17{fill:none;stroke:#D13B54;stroke-width:0.9301;stroke-linecap:round;stroke-linejoin:round;stroke-dasharray:2.2242,4.4484;}
	.st18{fill:none;stroke:#4C4885;stroke-width:0.9301;stroke-linecap:round;stroke-linejoin:round;stroke-dasharray:1.6524,3.3048;}
	.st19{fill:none;stroke:#4C4885;stroke-width:0.9301;stroke-linecap:round;stroke-linejoin:round;stroke-dasharray:1.6469,3.2938;}
	.st20{fill:none;stroke:#4C4885;stroke-width:0.9301;stroke-linecap:round;stroke-linejoin:round;stroke-dasharray:2.4409,4.8819;}
	.st21{fill:none;stroke:#4C4885;stroke-width:0.9301;stroke-linecap:round;stroke-linejoin:round;stroke-dasharray:2.4454,4.8909;}
	.st22{fill:none;stroke:#4C4885;stroke-width:0.9301;stroke-linecap:round;stroke-linejoin:round;stroke-dasharray:1.8248,3.6497;}
	.st23{fill:none;stroke:#4C4885;stroke-width:0.9301;stroke-linecap:round;stroke-linejoin:round;stroke-dasharray:1.8274,3.6548;}
	.st24{fill:none;stroke:#4C4885;stroke-width:0.6255;stroke-linecap:round;stroke-linejoin:round;}
	.st25{fill:none;stroke:#4C4885;stroke-width:0.6255;stroke-linecap:round;stroke-linejoin:round;stroke-dasharray:1.4513,2.9026;}
	.st26{fill:none;stroke:#4C4885;stroke-width:0.6255;stroke-linecap:round;stroke-linejoin:round;stroke-dasharray:1.4508,2.9016;}
	.st27{fill:none;stroke:#4C4885;stroke-width:0.6255;stroke-linecap:round;stroke-linejoin:round;stroke-dasharray:1.4439,2.8879;}
	.st28{fill:none;stroke:#000000;stroke-width:1.381;stroke-linecap:round;stroke-linejoin:round;}
	.st29{fill:none;stroke:#000000;stroke-width:1.381;stroke-linecap:round;stroke-linejoin:round;stroke-dasharray:2.3205,4.641;}
	.st30{fill:none;stroke:#000000;stroke-width:1.381;stroke-linecap:round;stroke-linejoin:round;stroke-dasharray:2.3197,4.6395;}
	.st31{fill:none;stroke:#000000;stroke-width:1.381;stroke-linecap:round;stroke-linejoin:round;stroke-dasharray:2.3087,4.6174;}
	.st32{fill:none;stroke:#000000;stroke-width:1.5685;stroke-linecap:round;stroke-linejoin:round;}
	.st33{fill:none;stroke:#000000;stroke-width:1.5685;stroke-linecap:round;stroke-linejoin:round;stroke-dasharray:2.6198,5.2396;}
	.st34{fill:none;stroke:#000000;stroke-width:1.5685;stroke-linecap:round;stroke-linejoin:round;stroke-dasharray:2.635,5.2699;}
	.st35{fill:none;stroke:#000000;stroke-width:1.4135;stroke-linecap:round;stroke-linejoin:round;}
	.st36{fill:none;stroke:#000000;stroke-width:1.4135;stroke-linecap:round;stroke-linejoin:round;stroke-dasharray:2.3524,4.7047;}
	.st37{fill:none;stroke:#000000;stroke-width:1.4135;stroke-linecap:round;stroke-linejoin:round;stroke-dasharray:2.3914,4.7829;}
	.st38{fill:none;stroke:#000000;stroke-width:1.0539;stroke-linecap:round;stroke-linejoin:round;}
	.st39{fill:none;stroke:#000000;stroke-width:1.0539;stroke-linecap:round;stroke-linejoin:round;stroke-dasharray:1.7766,3.5532;}
	.st40{fill:none;stroke:#000000;stroke-width:1.0539;stroke-linecap:round;stroke-linejoin:round;stroke-dasharray:1.7707,3.5414;}
	.st41{fill:none;stroke:#000000;stroke-width:1.5685;stroke-linecap:round;stroke-linejoin:round;stroke-dasharray:2.6244,5.2488;}
	.st42{fill:none;stroke:#000000;stroke-width:1.5685;stroke-linecap:round;stroke-linejoin:round;stroke-dasharray:2.6293,5.2585;}
	.st43{fill:none;stroke:#000000;stroke-width:1.17;stroke-linecap:round;stroke-linejoin:round;}
	.st44{fill:none;stroke:#000000;stroke-width:1.17;stroke-linecap:round;stroke-linejoin:round;stroke-dasharray:1.962,3.924;}
	.st45{fill:none;stroke:#000000;stroke-width:1.17;stroke-linecap:round;stroke-linejoin:round;stroke-dasharray:1.9647,3.9295;}
	.st46{fill:none;stroke:#000000;stroke-width:1.7011;stroke-linejoin:round;stroke-miterlimit:10;}
	.st47{fill:none;stroke:#4C4885;stroke-width:1.5822;stroke-linejoin:round;stroke-miterlimit:10;}
	.st48{opacity:0.4;fill:none;stroke:#4C4885;stroke-width:0.8677;stroke-miterlimit:10;}
	.st49{opacity:0.4;fill:none;stroke:#4C4885;stroke-width:0.2635;stroke-miterlimit:10;}
	.st50{opacity:0.4;fill:none;stroke:#D13B54;stroke-width:0.7905;stroke-miterlimit:10;}
	.st51{opacity:0.4;fill:none;stroke:#4C4885;stroke-width:1.054;stroke-miterlimit:10;}
	.st52{opacity:0.4;fill:none;stroke:#4C4885;stroke-width:2.1081;stroke-miterlimit:10;}
	.st53{opacity:0.4;fill:none;stroke:#4C4885;stroke-width:3.1621;stroke-miterlimit:10;}
	.st54{opacity:0.4;fill:#4C4885;}
	.st55{opacity:0.4;fill:none;stroke:#4C4885;stroke-width:0.9993;stroke-miterlimit:10;}
	.st56{opacity:0.4;fill:none;stroke:#D13B54;stroke-width:0.9993;stroke-miterlimit:10;}
	.st57{opacity:0.4;fill:#D13B54;}
	.st58{fill:#4C4885;}
	.st59{fill:none;stroke:#D13B54;stroke-width:1.1866;stroke-miterlimit:10;}
	.st60{opacity:0.4;fill:none;stroke:#4C4885;stroke-width:3.1643;stroke-miterlimit:10;}
	.st61{opacity:0.4;fill:none;stroke:#D13B54;stroke-width:0.8677;stroke-miterlimit:10;}
	.st62{opacity:0.4;fill:none;stroke:#D13B54;stroke-width:3.1643;stroke-miterlimit:10;}
	.st63{fill:#FFFFFF;stroke:#000000;stroke-width:1.6164;stroke-miterlimit:10;}
	.st64{fill:none;stroke:#000000;stroke-width:2;stroke-miterlimit:10;}
	.st65{fill:#FFFFFF;stroke:#000000;stroke-width:0.9329;stroke-miterlimit:10;}
	.st66{fill:none;stroke:#000000;stroke-width:0.2833;stroke-miterlimit:10;}
	.st67{fill:none;stroke:#000000;stroke-width:0.8499;stroke-miterlimit:10;}
	.st68{fill:none;stroke:#000000;stroke-width:1.1332;stroke-miterlimit:10;}
	.st69{fill:none;stroke:#000000;stroke-width:2.2665;stroke-miterlimit:10;}
	.st70{fill:none;stroke:#000000;stroke-width:3.3997;stroke-miterlimit:10;}
	.st71{fill:none;stroke:#000000;stroke-width:1.0744;stroke-miterlimit:10;}
	.st72{fill:none;stroke:#000000;stroke-width:1.2758;stroke-miterlimit:10;}
	.st73{fill:none;stroke:#000000;stroke-width:3.4021;stroke-miterlimit:10;}
	.st74{fill:none;stroke:#4C4885;stroke-width:2;stroke-miterlimit:10;}
	.st75{fill:#FFFFFF;stroke:#4C4885;stroke-width:1.6164;stroke-miterlimit:10;}
	.st76{opacity:0.7;fill:#FFFFFF;}
	.st77{fill:none;stroke:#4C4885;stroke-width:18.0083;stroke-miterlimit:10;}
	.st78{fill:none;stroke:#4C4885;stroke-width:0.5835;stroke-miterlimit:10;}
	.st79{fill:none;stroke:#4C4885;stroke-width:1.4177;stroke-miterlimit:10;}
	.st80{fill:none;stroke:#4C4885;stroke-width:2.1265;stroke-miterlimit:10;}
	.st81{fill:none;stroke:#4C4885;stroke-width:0.6721;stroke-miterlimit:10;}
	.st82{fill:none;stroke:#D13B54;stroke-width:0.798;stroke-miterlimit:10;}
	.st83{fill:none;stroke:#4C4885;stroke-width:2.128;stroke-miterlimit:10;}
	.st84{fill:#D13B54;}
	.st85{fill:none;stroke:#000000;stroke-width:18.0083;stroke-miterlimit:10;}
	.st86{fill:#FF0000;}
	.st87{fill:#00FFFF;}
	.st88{fill:none;stroke:#D13B54;stroke-width:3.5534;stroke-miterlimit:10;}
	.st89{opacity:0.4;fill:#FFFFFF;}
	.st90{opacity:0.4;fill:none;stroke:#D13B54;stroke-width:3.5534;stroke-miterlimit:10;}
	.st91{fill:none;stroke:#D13B54;stroke-width:2.3444;stroke-miterlimit:10;}
	.st92{fill:#FFFFFF;}
</style>
<g id="fondo">
</g>
<g id="malla">
</g>
<g id="ATREZZO">
</g>
<g id="ondas_sonoras">
</g>
<g id="Capa_1">
	<g>
		<path class="st84" d="M32.04,54.46c1.19-0.17,2.38-0.34,3.73-0.54c0.13,1.64,0.23,2.97,0.34,4.49c1.39,0.08,2.74,0.16,4.26,0.25
			c0.09,1.39,0.18,2.73,0.29,4.44c1.31,0.05,2.63,0.1,3.9,0.15c-0.01,9.09-0.03,18.18-0.04,27.45c2.1,0.14,3.42,0.23,4.47,0.3
			c-0.02,4.42-0.03,8.77-0.05,12.93c-16.02-0.01-32.54-0.02-48.94-0.03c0.11-4.07,0.23-8.35,0.35-12.94
			c0.63-0.02,2.05-0.06,3.67-0.11C4,81.66,3.98,72.54,3.97,63.31c1.73-0.07,3.08-0.13,4.67-0.2c0.1-1.39,0.21-2.8,0.32-4.4
			c1.4-0.08,2.73-0.16,4.26-0.25c0.09-1.36,0.17-2.69,0.27-4.23c1.39-0.09,2.71-0.18,4.43-0.3c-0.01-1.3-0.02-2.5-0.03-3.84
			c-1.66-0.13-2.99-0.24-4.4-0.35c-0.09-1.41-0.18-2.75-0.28-4.2c-1.47-0.08-2.81-0.16-4.49-0.26c0.07-1.55,0.14-3,0.22-4.71
			c1.44-0.08,2.86-0.17,4.34-0.25c0.07-1.35,0.13-2.58,0.2-4.01c1.45-0.08,2.78-0.14,4.62-0.24c-0.3-1.59-0.59-3.13-0.99-5.2
			c2.19,0.34,3.53,0.56,5.28,0.83c-0.12,1.03-0.3,2.49-0.51,4.22c-1.01,0.07-2.33,0.16-4,0.28c-0.04,1.18-0.09,2.39-0.16,4.29
			c1.63-0.37,3.12-0.72,4.73-1.09c0.02-0.48,0.08-1.73,0.14-3.1c1.49-0.09,2.82-0.16,4.56-0.27c-0.24-1.56-0.46-3.02-0.73-4.82
			c1.88-0.05,3.19-0.08,5.15-0.13c-0.33,1.68-0.62,3.19-0.95,4.86c-0.79,0.04-2.04,0.09-3.9,0.18c0.19,1.3,0.38,2.6,0.59,4.1
			c1.11,0.06,2.44,0.13,3.92,0.22c0.1,1.47,0.18,2.8,0.28,4.28c1.44-0.1,2.86-0.19,4.5-0.3c0.06-0.94,0.15-2.29,0.26-3.92
			c1.36-0.1,2.76-0.2,3.88-0.29c0.03-9.08,0.05-18,0.07-26.56c-10.32,0-20.9,0.01-31.73,0.01c0.02,8.4,0.04,17.32,0.07,26.8
			c-1.54-0.14-2.86-0.26-4.36-0.4c0.02-8.93,0.04-17.85,0.05-27c-1.62-0.11-2.94-0.2-4.06-0.28C0.26,8.43,0.3,4.07,0.35,0
			c15.91,0,32.42,0,48.98,0c-0.11,4.03-0.24,8.31-0.36,12.82c-0.83,0.03-2.15,0.08-3.68,0.14c0.05,9.04,0.09,18.03,0.14,27.21
			c-1.84,0.08-3.17,0.14-4.73,0.22c-0.07,1.62-0.13,3.16-0.2,4.98c-1.39,0.11-2.79,0.22-4.33,0.35c-0.06,1.37-0.12,2.6-0.18,3.84
			c-0.01,0.41-0.01,0.82-0.02,1.23c-1.43-0.29-2.85-0.57-4.29-0.86c-0.06-1.41-0.11-2.82-0.14-3.69c-1.7-0.33-3.13-0.6-4.69-0.9
			c0.08,1.69,0.13,2.82,0.18,3.92c1.72,0.25,3.24,0.47,4.76,0.69C31.87,51.44,31.96,52.95,32.04,54.46
			c-1.65,0.16-3.3,0.31-4.94,0.46c-0.17-2.12-0.27-3.44-0.4-5c-1.54,0.05-2.89,0.1-4.35,0.15c-0.07,1.48-0.15,2.9-0.22,4.38
			c-1.48,0.05-2.84,0.1-4.3,0.14c-0.06,1.49-0.11,2.91-0.17,4.41c-1.51,0.04-2.88,0.08-4.33,0.12c-0.09,1.58-0.19,3.12-0.28,4.65
			c-1.63,0.1-3.05,0.19-3.84,0.24C9.22,73.1,9.21,81.92,9.19,90.96c1.04,0.01,2.39,0.02,3.85,0.04c0.14-1.57,0.25-2.88,0.37-4.31
			c1.5,0.05,2.81,0.09,4.13,0.13c0.12,1.5,0.21,2.73,0.26,3.39c1.59,0.33,3.01,0.62,4.6,0.95c-0.05-1.92-0.08-3.13-0.11-4.32
			c-1.7-0.11-3.04-0.2-3.8-0.25c-0.29-1.67-0.53-3.1-0.78-4.55c1.84-0.12,3.17-0.22,4.59-0.31c0.06-1.64,0.12-3.09,0.16-4.11
			c1.49-0.29,2.9-0.56,4.44-0.86c-0.05,2.15-0.08,3.56-0.11,4.93c-1.75,0.13-3.07,0.24-4.49,0.34c0.04,1.67,0.08,3.1,0.11,4.55
			c1.59,0.11,2.92,0.21,4.34,0.31c0.07,1.41,0.13,2.62,0.19,3.76c1.63,0.17,3.06,0.33,4.45,0.47c0.16-1.78,0.27-3,0.37-4.21
			c1.55-0.14,2.88-0.25,4.16-0.37c0.13,1.71,0.22,2.94,0.33,4.46c1.53-0.04,2.88-0.07,3.73-0.1c-0.01-9.07-0.03-17.98-0.04-26.95
			c-0.98-0.06-2.31-0.14-3.73-0.22c-0.07-1.61-0.13-3.05-0.2-4.57c-1.47-0.05-2.84-0.1-4.59-0.17
			C31.63,57.43,31.84,55.94,32.04,54.46z M4.49,4.07c-0.21,1.47-0.41,2.9-0.54,3.81c14,0.05,27.58,0.1,40.74,0.15
			c0.19-1.24,0.42-2.69,0.61-3.94C31.42,4.08,17.9,4.08,4.49,4.07z M44.79,95.98c-13.62-0.01-27.11-0.01-40.2-0.02
			c-0.06,1.07-0.14,2.6-0.21,3.95c13.46,0.01,26.88,0.01,40.74,0.02C45.01,98.55,44.88,97.01,44.79,95.98z M26.87,44.9
			c0.09-1.28,0.16-2.39,0.26-3.92c-1.91,0.13-3.33,0.22-4.88,0.32c0.04,1.22,0.08,2.42,0.12,3.7C24.04,44.96,25.38,44.93,26.87,44.9
			z M17.74,41.14c-1.6-0.02-2.99-0.04-4.55-0.06c0.07,1.42,0.12,2.52,0.18,3.79c1.6,0.04,2.94,0.07,4.45,0.1
			C17.79,43.56,17.77,42.46,17.74,41.14z M22.58,45.53c-1.86-0.02-3.28-0.03-4.84-0.04c0.06,1.39,0.11,2.49,0.17,3.87
			c1.63-0.01,3.03-0.02,4.62-0.03C22.55,48.05,22.56,47.02,22.58,45.53z"/>
		<path class="st84" d="M26.32,63.91c-1.06-0.05-2.3-0.11-3.99-0.18c0.26-1.6,0.51-3.14,0.82-5.08c0.72-0.03,2.03-0.07,3.41-0.12
			C26.49,60.28,26.41,61.9,26.32,63.91z"/>
		<path class="st84" d="M27.14,82.04c1.42-0.07,2.74-0.14,4.26-0.22c-0.06,1.78-0.1,3.32-0.14,4.61c-1.42,0.02-2.75,0.04-4.36,0.07
			C26.97,85.09,27.05,83.66,27.14,82.04z"/>
	</g>
</g>
<g id="texto">
</g>
<g id="hover">
</g>
</svg>
