<?xml version="1.0" encoding="utf-8"?>
<!-- Generator: Adobe Illustrator 23.0.3, SVG Export Plug-In . SVG Version: 6.00 Build 0)  -->
<svg version="1.1" xmlns="http://www.w3.org/2000/svg" xmlns:xlink="http://www.w3.org/1999/xlink" x="0px" y="0px"
	 viewBox="0 0 1334.85 1050.46" style="enable-background:new 0 0 1334.85 1050.46;" xml:space="preserve">
<style type="text/css">
	.st0{fill:#E4E5E3;}
	.st1{opacity:0.35;}
	.st2{fill:none;stroke:#000000;stroke-width:0.1852;stroke-miterlimit:10;}
	.st3{fill:none;stroke:#000000;stroke-miterlimit:10;}
	.st4{opacity:0.14;fill:none;stroke:#4D4D4D;stroke-miterlimit:10;}
	.st5{clip-path:url(#SVGID_2_);}
	.st6{clip-path:url(#SVGID_4_);}
	.st7{fill:none;}
	.st8{opacity:0.4;}
	.st9{fill:none;stroke:#4C4885;stroke-width:0.9301;stroke-linecap:round;stroke-linejoin:round;}
	.st10{fill:none;stroke:#4C4885;stroke-width:0.9301;stroke-linecap:round;stroke-linejoin:round;stroke-dasharray:2.1583,4.3165;}
	.st11{fill:none;stroke:#4C4885;stroke-width:0.9301;stroke-linecap:round;stroke-linejoin:round;stroke-dasharray:2.1575,4.3151;}
	.st12{fill:none;stroke:#4C4885;stroke-width:0.9301;stroke-linecap:round;stroke-linejoin:round;stroke-dasharray:2.1473,4.2945;}
	.st13{fill:none;stroke:#4C4885;stroke-width:0.9301;stroke-linecap:round;stroke-linejoin:round;stroke-dasharray:2.4366,4.8732;}
	.st14{fill:none;stroke:#4C4885;stroke-width:0.9301;stroke-linecap:round;stroke-linejoin:round;stroke-dasharray:2.4507,4.9014;}
	.st15{fill:none;stroke:#D13B54;stroke-width:0.9301;stroke-linecap:round;stroke-linejoin:round;}
	.st16{fill:none;stroke:#D13B54;stroke-width:0.9301;stroke-linecap:round;stroke-linejoin:round;stroke-dasharray:2.1878,4.3757;}
	.st17{fill:none;stroke:#D13B54;stroke-width:0.9301;stroke-linecap:round;stroke-linejoin:round;stroke-dasharray:2.2242,4.4484;}
	.st18{fill:none;stroke:#4C4885;stroke-width:0.9301;stroke-linecap:round;stroke-linejoin:round;stroke-dasharray:1.6524,3.3048;}
	.st19{fill:none;stroke:#4C4885;stroke-width:0.9301;stroke-linecap:round;stroke-linejoin:round;stroke-dasharray:1.6469,3.2938;}
	.st20{fill:none;stroke:#4C4885;stroke-width:0.9301;stroke-linecap:round;stroke-linejoin:round;stroke-dasharray:2.4409,4.8819;}
	.st21{fill:none;stroke:#4C4885;stroke-width:0.9301;stroke-linecap:round;stroke-linejoin:round;stroke-dasharray:2.4454,4.8909;}
	.st22{fill:none;stroke:#4C4885;stroke-width:0.9301;stroke-linecap:round;stroke-linejoin:round;stroke-dasharray:1.8248,3.6497;}
	.st23{fill:none;stroke:#4C4885;stroke-width:0.9301;stroke-linecap:round;stroke-linejoin:round;stroke-dasharray:1.8274,3.6548;}
	.st24{fill:none;stroke:#4C4885;stroke-width:0.6255;stroke-linecap:round;stroke-linejoin:round;}
	.st25{fill:none;stroke:#4C4885;stroke-width:0.6255;stroke-linecap:round;stroke-linejoin:round;stroke-dasharray:1.4513,2.9026;}
	.st26{fill:none;stroke:#4C4885;stroke-width:0.6255;stroke-linecap:round;stroke-linejoin:round;stroke-dasharray:1.4508,2.9016;}
	.st27{fill:none;stroke:#4C4885;stroke-width:0.6255;stroke-linecap:round;stroke-linejoin:round;stroke-dasharray:1.4439,2.8879;}
	.st28{fill:none;stroke:#000000;stroke-width:1.381;stroke-linecap:round;stroke-linejoin:round;}
	.st29{fill:none;stroke:#000000;stroke-width:1.381;stroke-linecap:round;stroke-linejoin:round;stroke-dasharray:2.3205,4.641;}
	.st30{fill:none;stroke:#000000;stroke-width:1.381;stroke-linecap:round;stroke-linejoin:round;stroke-dasharray:2.3197,4.6395;}
	.st31{fill:none;stroke:#000000;stroke-width:1.381;stroke-linecap:round;stroke-linejoin:round;stroke-dasharray:2.3087,4.6174;}
	.st32{fill:none;stroke:#000000;stroke-width:1.5685;stroke-linecap:round;stroke-linejoin:round;}
	.st33{fill:none;stroke:#000000;stroke-width:1.5685;stroke-linecap:round;stroke-linejoin:round;stroke-dasharray:2.6198,5.2396;}
	.st34{fill:none;stroke:#000000;stroke-width:1.5685;stroke-linecap:round;stroke-linejoin:round;stroke-dasharray:2.635,5.2699;}
	.st35{fill:none;stroke:#000000;stroke-width:1.4135;stroke-linecap:round;stroke-linejoin:round;}
	.st36{fill:none;stroke:#000000;stroke-width:1.4135;stroke-linecap:round;stroke-linejoin:round;stroke-dasharray:2.3524,4.7047;}
	.st37{fill:none;stroke:#000000;stroke-width:1.4135;stroke-linecap:round;stroke-linejoin:round;stroke-dasharray:2.3914,4.7829;}
	.st38{fill:none;stroke:#000000;stroke-width:1.0539;stroke-linecap:round;stroke-linejoin:round;}
	.st39{fill:none;stroke:#000000;stroke-width:1.0539;stroke-linecap:round;stroke-linejoin:round;stroke-dasharray:1.7766,3.5532;}
	.st40{fill:none;stroke:#000000;stroke-width:1.0539;stroke-linecap:round;stroke-linejoin:round;stroke-dasharray:1.7707,3.5414;}
	.st41{fill:none;stroke:#000000;stroke-width:1.5685;stroke-linecap:round;stroke-linejoin:round;stroke-dasharray:2.6244,5.2488;}
	.st42{fill:none;stroke:#000000;stroke-width:1.5685;stroke-linecap:round;stroke-linejoin:round;stroke-dasharray:2.6293,5.2585;}
	.st43{fill:none;stroke:#000000;stroke-width:1.17;stroke-linecap:round;stroke-linejoin:round;}
	.st44{fill:none;stroke:#000000;stroke-width:1.17;stroke-linecap:round;stroke-linejoin:round;stroke-dasharray:1.962,3.924;}
	.st45{fill:none;stroke:#000000;stroke-width:1.17;stroke-linecap:round;stroke-linejoin:round;stroke-dasharray:1.9647,3.9295;}
	.st46{fill:none;stroke:#000000;stroke-width:1.7011;stroke-linejoin:round;stroke-miterlimit:10;}
	.st47{fill:none;stroke:#4C4885;stroke-width:1.5822;stroke-linejoin:round;stroke-miterlimit:10;}
	.st48{opacity:0.4;fill:none;stroke:#4C4885;stroke-width:0.8677;stroke-miterlimit:10;}
	.st49{opacity:0.4;fill:none;stroke:#4C4885;stroke-width:0.2635;stroke-miterlimit:10;}
	.st50{opacity:0.4;fill:none;stroke:#D13B54;stroke-width:0.7905;stroke-miterlimit:10;}
	.st51{opacity:0.4;fill:none;stroke:#4C4885;stroke-width:1.054;stroke-miterlimit:10;}
	.st52{opacity:0.4;fill:none;stroke:#4C4885;stroke-width:2.1081;stroke-miterlimit:10;}
	.st53{opacity:0.4;fill:none;stroke:#4C4885;stroke-width:3.1621;stroke-miterlimit:10;}
	.st54{opacity:0.4;fill:#4C4885;}
	.st55{opacity:0.4;fill:none;stroke:#4C4885;stroke-width:0.9993;stroke-miterlimit:10;}
	.st56{opacity:0.4;fill:none;stroke:#D13B54;stroke-width:0.9993;stroke-miterlimit:10;}
	.st57{opacity:0.4;fill:#D13B54;}
	.st58{fill:#4C4885;}
	.st59{fill:none;stroke:#D13B54;stroke-width:1.1866;stroke-miterlimit:10;}
	.st60{opacity:0.4;fill:none;stroke:#4C4885;stroke-width:3.1643;stroke-miterlimit:10;}
	.st61{opacity:0.4;fill:none;stroke:#D13B54;stroke-width:0.8677;stroke-miterlimit:10;}
	.st62{opacity:0.4;fill:none;stroke:#D13B54;stroke-width:3.1643;stroke-miterlimit:10;}
	.st63{fill:#FFFFFF;stroke:#000000;stroke-width:1.6164;stroke-miterlimit:10;}
	.st64{fill:none;stroke:#000000;stroke-width:2;stroke-miterlimit:10;}
	.st65{fill:#FFFFFF;stroke:#000000;stroke-width:0.9329;stroke-miterlimit:10;}
	.st66{fill:none;stroke:#000000;stroke-width:0.2833;stroke-miterlimit:10;}
	.st67{fill:none;stroke:#000000;stroke-width:0.8499;stroke-miterlimit:10;}
	.st68{fill:none;stroke:#000000;stroke-width:1.1332;stroke-miterlimit:10;}
	.st69{fill:none;stroke:#000000;stroke-width:2.2665;stroke-miterlimit:10;}
	.st70{fill:none;stroke:#000000;stroke-width:3.3997;stroke-miterlimit:10;}
	.st71{fill:none;stroke:#000000;stroke-width:1.0744;stroke-miterlimit:10;}
	.st72{fill:none;stroke:#000000;stroke-width:1.2758;stroke-miterlimit:10;}
	.st73{fill:none;stroke:#000000;stroke-width:3.4021;stroke-miterlimit:10;}
	.st74{fill:none;stroke:#4C4885;stroke-width:2;stroke-miterlimit:10;}
	.st75{fill:#FFFFFF;stroke:#4C4885;stroke-width:1.6164;stroke-miterlimit:10;}
	.st76{opacity:0.7;fill:#FFFFFF;}
	.st77{fill:none;stroke:#4C4885;stroke-width:18.0083;stroke-miterlimit:10;}
	.st78{fill:none;stroke:#4C4885;stroke-width:0.5835;stroke-miterlimit:10;}
	.st79{fill:none;stroke:#4C4885;stroke-width:1.4177;stroke-miterlimit:10;}
	.st80{fill:none;stroke:#4C4885;stroke-width:2.1265;stroke-miterlimit:10;}
	.st81{fill:none;stroke:#4C4885;stroke-width:0.6721;stroke-miterlimit:10;}
	.st82{fill:none;stroke:#D13B54;stroke-width:0.798;stroke-miterlimit:10;}
	.st83{fill:none;stroke:#4C4885;stroke-width:2.128;stroke-miterlimit:10;}
	.st84{fill:#D13B54;}
	.st85{fill:none;stroke:#000000;stroke-width:18.0083;stroke-miterlimit:10;}
	.st86{fill:#FF0000;}
	.st87{fill:#00FFFF;}
	.st88{fill:none;stroke:#D13B54;stroke-width:3.5534;stroke-miterlimit:10;}
	.st89{opacity:0.4;fill:#FFFFFF;}
	.st90{opacity:0.4;fill:none;stroke:#D13B54;stroke-width:3.5534;stroke-miterlimit:10;}
	.st91{fill:none;stroke:#D13B54;stroke-width:2.3444;stroke-miterlimit:10;}
	.st92{fill:#FFFFFF;}
	.st93{font-family:'Consolas-Bold';}
	.st94{font-size:14.2394px;}
	.st95{letter-spacing:1;}
	.st96{font-size:18.9859px;}
	.st97{font-size:13.9515px;}
</style>
<g id="fondo">
</g>
<g id="malla">
</g>
<g id="ATREZZO">
</g>
<g id="ondas_sonoras">
</g>
<g id="Capa_1">
</g>
<g id="texto">
</g>
<g id="hover">
	<g>
		<g class="st8">
			<g>
				<g>
					<path class="st9" d="M210.53,276.81c0.36-0.01,0.72,0.02,1.07,0.07"/>
					<path class="st10" d="M215.45,278.74c2.77,2.21,4.54,5.53,4.54,5.53l4.39,9.99c0,0,0.68,1.07,3.72,1.2
						c3.04,0.13,6.08-0.93,6.08-0.93l10.89-4.11c0,0,3.76-1.39,5.18-1.42c1.43-0.03,1.8-0.12,3.98,1.42
						c2.18,1.54,6.16,11.69,6.54,12.66c0.38,0.98,1.95,5.8,3,6.39c1.05,0.59,3,4.38,4.51,5.33c1.5,0.95,2.85,2.07,5.86,2.25
						c3,0.18,8.32-2.58,8.32-2.58l7.31-4.05c0,0,1.5-0.53,3.46-0.41c1.95,0.12,3,0.77,3,0.77l10.97,15.09l1.35,1.83
						c0,0,2.1,0.59,3.16,0.59s3.46-0.65,3.61-1.01c0.15-0.36,4.36-5.68,5.71-7.81c1.35-2.13,4.96-15.15,4.81-15.92s0-7.4,0.6-11.07
						s6.46-11.95,7.81-13.61c1.35-1.66,5.11-1.89,5.11-1.89s2.85,0.06,3.61,0.59c0.75,0.53,1.65,1.66,2.55,2.9
						c0.9,1.24,4.51,9.29,6.16,11.84s4.36,3.25,7.06,3.2c2.7-0.06,7.81-2.6,7.81-2.6s8.26-4.08,10.74-4.32
						c2.48-0.24,3.53-0.53,5.18,0.65c1.65,1.18,4.66,4.26,6.16,11.54c1.5,7.28,6.16,12.84,9.01,14.14c2.85,1.3,1.95,1.42,6.31,1.36
						c4.36-0.06,8.41-2.9,11.42-4.38c3-1.48,3.61-1.95,6.91-2.01c3.31-0.06,8.41,2.54,11.72,11.07c3.31,8.52,7.21,7.22,7.96,7.16
						c0.75-0.06,3-0.3,6.46-7.4c2.86-5.89,5.11-9.45,5.54-14.34"/>
					<path class="st9" d="M454.02,304.21c-0.01-0.35-0.02-0.71-0.05-1.08"/>
				</g>
			</g>
			<g>
				<g>
					<path class="st9" d="M455.53,302.91c0,0,0.11-0.38,0.29-1.03"/>
					<path class="st11" d="M457.03,297.73c1.05-3.53,2.46-8.04,3.57-10.8c2.03-5.06,5.07-9.99,10.48-10.12
						c5.41-0.13,9.46,7.46,9.46,7.46l4.39,9.99c0,0,0.68,1.07,3.72,1.2c3.04,0.13,6.08-0.93,6.08-0.93l10.89-4.11
						c0,0,3.76-1.39,5.18-1.42c1.43-0.03,1.8-0.12,3.98,1.42c2.18,1.54,6.16,11.69,6.54,12.66c0.38,0.98,1.95,5.8,3,6.39
						c1.05,0.59,3,4.38,4.51,5.33s2.85,2.07,5.86,2.25c3,0.18,8.32-2.58,8.32-2.58l7.31-4.05c0,0,1.5-0.53,3.46-0.41
						c1.95,0.12,3,0.77,3,0.77l10.97,15.09l1.35,1.83c0,0,2.1,0.59,3.15,0.59s3.46-0.65,3.61-1.01c0.15-0.36,4.36-5.68,5.71-7.81
						c1.35-2.13,4.96-15.15,4.81-15.92c-0.15-0.77,0-7.4,0.6-11.07s6.46-11.95,7.81-13.61c1.35-1.66,5.11-1.89,5.11-1.89
						s2.85,0.06,3.61,0.59c0.75,0.53,1.65,1.66,2.55,2.9c0.9,1.24,4.51,9.29,6.16,11.84s4.36,3.25,7.06,3.2
						c2.7-0.06,7.81-2.6,7.81-2.6s8.26-4.08,10.74-4.32c2.48-0.24,3.53-0.53,5.18,0.65c1.65,1.18,4.66,4.26,6.16,11.54
						s6.16,12.84,9.01,14.14c2.85,1.3,1.95,1.42,6.31,1.36c4.36-0.06,8.41-2.9,11.42-4.38c3-1.48,3.61-1.95,6.91-2.01
						c3.31-0.06,8.41,2.54,11.72,11.07c3.31,8.52,7.21,7.22,7.96,7.16c0.75-0.06,3-0.3,6.46-7.4c2.86-5.88,5.11-9.45,5.54-14.34"/>
					<path class="st9" d="M714.57,304.21c-0.01-0.35-0.02-0.71-0.05-1.08"/>
				</g>
			</g>
			<g>
				<g>
					<path class="st9" d="M716.08,302.91c0,0,0.11-0.38,0.29-1.03"/>
					<path class="st11" d="M717.57,297.73c1.05-3.53,2.46-8.04,3.57-10.8c2.03-5.06,5.07-9.99,10.48-10.12
						c5.41-0.13,9.46,7.46,9.46,7.46l4.39,9.99c0,0,0.68,1.07,3.72,1.2c3.04,0.13,6.08-0.93,6.08-0.93l10.89-4.11
						c0,0,3.76-1.39,5.18-1.42c1.43-0.03,1.8-0.12,3.98,1.42c2.18,1.54,6.16,11.69,6.54,12.66c0.38,0.98,1.95,5.8,3,6.39
						c1.05,0.59,3,4.38,4.51,5.33c1.5,0.95,2.85,2.07,5.86,2.25c3,0.18,8.32-2.58,8.32-2.58l7.31-4.05c0,0,1.5-0.53,3.46-0.41
						c1.95,0.12,3,0.77,3,0.77l10.97,15.09l1.35,1.83c0,0,2.1,0.59,3.16,0.59c1.05,0,3.46-0.65,3.61-1.01
						c0.15-0.36,4.36-5.68,5.71-7.81c1.35-2.13,4.96-15.15,4.81-15.92s0-7.4,0.6-11.07s6.46-11.95,7.81-13.61
						c1.35-1.66,5.11-1.89,5.11-1.89s2.85,0.06,3.61,0.59c0.75,0.53,1.65,1.66,2.55,2.9c0.9,1.24,4.51,9.29,6.16,11.84
						s4.36,3.25,7.06,3.2c2.7-0.06,7.81-2.6,7.81-2.6s8.26-4.08,10.74-4.32c2.48-0.24,3.53-0.53,5.18,0.65
						c1.65,1.18,4.66,4.26,6.16,11.54c1.5,7.28,6.16,12.84,9.01,14.14c2.85,1.3,1.95,1.42,6.31,1.36c4.36-0.06,8.41-2.9,11.42-4.38
						c3-1.48,3.61-1.95,6.91-2.01c3.31-0.06,8.41,2.54,11.72,11.07c3.31,8.52,7.21,7.22,7.96,7.16c0.75-0.06,3-0.3,6.46-7.4
						c2.86-5.88,5.11-9.45,5.54-14.34"/>
					<path class="st9" d="M975.12,304.21c-0.01-0.35-0.02-0.71-0.05-1.08"/>
				</g>
			</g>
			<g>
				<g>
					<path class="st9" d="M976.62,302.91c0,0,0.11-0.38,0.29-1.03"/>
					<path class="st12" d="M978.12,297.75c1.05-3.53,2.47-8.05,3.58-10.82c2.03-5.06,5.07-9.99,10.48-10.12
						c5.41-0.13,9.46,7.46,9.46,7.46l4.39,9.99c0,0,0.68,1.07,3.72,1.2c3.04,0.13,6.08-0.93,6.08-0.93l10.89-4.11
						c0,0,3.76-1.39,5.18-1.42c1.43-0.03,1.8-0.12,3.98,1.42s6.16,11.69,6.54,12.66c0.38,0.98,1.95,5.8,3,6.39
						c1.05,0.59,3,4.38,4.51,5.33s2.85,2.07,5.86,2.25c3,0.18,8.32-2.58,8.32-2.58l7.31-4.05c0,0,1.5-0.53,3.46-0.41
						c1.95,0.12,3,0.77,3,0.77l10.97,15.09l1.35,1.83c0,0,2.1,0.59,3.15,0.59s3.46-0.65,3.61-1.01c0.15-0.36,4.36-5.68,5.71-7.81
						s4.96-15.15,4.81-15.92s0-7.4,0.6-11.07s6.46-11.95,7.81-13.61s5.11-1.89,5.11-1.89s2.85,0.06,3.61,0.59s1.65,1.66,2.55,2.9
						c0.9,1.24,4.51,9.29,6.16,11.84s4.36,3.25,7.06,3.2c2.7-0.06,7.81-2.6,7.81-2.6s8.26-4.08,10.74-4.32
						c2.48-0.24,3.53-0.53,5.18,0.65c1.65,1.18,4.66,4.26,6.16,11.54s6.16,12.84,9.01,14.14c2.85,1.3,1.95,1.42,6.31,1.36
						c4.36-0.06,8.41-2.9,11.42-4.38s3.61-1.95,6.91-2.01c2.89-0.05,7.16,1.93,10.39,8.12"/>
					<path class="st9" d="M1215.23,319.95c0.14,0.32,0.27,0.65,0.41,1"/>
				</g>
			</g>
		</g>
		<g class="st8">
			<g>
				<g>
					<path class="st9" d="M194.98,897.24c0,0,0.11-0.38,0.29-1.03"/>
					<path class="st11" d="M196.48,892.07c1.05-3.53,2.46-8.04,3.57-10.8c2.03-5.06,5.07-9.99,10.48-10.12
						c5.41-0.13,9.46,7.46,9.46,7.46l4.39,9.99c0,0,0.68,1.07,3.72,1.2c3.04,0.13,6.08-0.93,6.08-0.93l10.89-4.11
						c0,0,3.76-1.39,5.18-1.42c1.43-0.03,1.8-0.12,3.98,1.42c2.18,1.54,6.16,11.69,6.54,12.66c0.38,0.98,1.95,5.8,3,6.39
						c1.05,0.59,3,4.38,4.51,5.33c1.5,0.95,2.85,2.07,5.86,2.25c3,0.18,8.32-2.58,8.32-2.58l7.31-4.05c0,0,1.5-0.53,3.46-0.41
						c1.95,0.12,3,0.77,3,0.77l10.97,15.09l1.35,1.83c0,0,2.1,0.59,3.16,0.59s3.46-0.65,3.61-1.01s4.36-5.68,5.71-7.81
						c1.35-2.13,4.96-15.15,4.81-15.92c-0.15-0.77,0-7.4,0.6-11.07s6.46-11.95,7.81-13.61c1.35-1.66,5.11-1.89,5.11-1.89
						s2.85,0.06,3.61,0.59c0.75,0.53,1.65,1.66,2.55,2.9c0.9,1.24,4.51,9.29,6.16,11.84c1.65,2.54,4.36,3.25,7.06,3.2
						c2.7-0.06,7.81-2.6,7.81-2.6s8.26-4.08,10.74-4.32s3.53-0.53,5.18,0.65c1.65,1.18,4.66,4.26,6.16,11.54
						c1.5,7.28,6.16,12.84,9.01,14.14c2.85,1.3,1.95,1.42,6.31,1.36c4.36-0.06,8.41-2.9,11.42-4.38c3-1.48,3.61-1.95,6.91-2.01
						c3.31-0.06,8.41,2.54,11.72,11.07c3.31,8.52,7.21,7.22,7.96,7.16c0.75-0.06,3-0.3,6.46-7.4c2.86-5.88,5.11-9.45,5.54-14.34"/>
					<path class="st9" d="M454.02,898.55c-0.01-0.35-0.02-0.71-0.05-1.08"/>
				</g>
			</g>
			<g>
				<g>
					<path class="st9" d="M455.53,897.24c0,0,0.11-0.38,0.29-1.03"/>
					<path class="st11" d="M457.03,892.07c1.05-3.53,2.46-8.04,3.57-10.8c2.03-5.06,5.07-9.99,10.48-10.12
						c5.41-0.13,9.46,7.46,9.46,7.46l4.39,9.99c0,0,0.68,1.07,3.72,1.2c3.04,0.13,6.08-0.93,6.08-0.93l10.89-4.11
						c0,0,3.76-1.39,5.18-1.42c1.43-0.03,1.8-0.12,3.98,1.42c2.18,1.54,6.16,11.69,6.54,12.66c0.38,0.98,1.95,5.8,3,6.39
						c1.05,0.59,3,4.38,4.51,5.33c1.5,0.95,2.85,2.07,5.86,2.25c3,0.18,8.32-2.58,8.32-2.58l7.31-4.05c0,0,1.5-0.53,3.46-0.41
						c1.95,0.12,3,0.77,3,0.77l10.97,15.09l1.35,1.83c0,0,2.1,0.59,3.15,0.59s3.46-0.65,3.61-1.01c0.15-0.36,4.36-5.68,5.71-7.81
						c1.35-2.13,4.96-15.15,4.81-15.92c-0.15-0.77,0-7.4,0.6-11.07s6.46-11.95,7.81-13.61c1.35-1.66,5.11-1.89,5.11-1.89
						s2.85,0.06,3.61,0.59c0.75,0.53,1.65,1.66,2.55,2.9c0.9,1.24,4.51,9.29,6.16,11.84c1.65,2.54,4.36,3.25,7.06,3.2
						c2.7-0.06,7.81-2.6,7.81-2.6s8.26-4.08,10.74-4.32s3.53-0.53,5.18,0.65c1.65,1.18,4.66,4.26,6.16,11.54
						c1.5,7.28,6.16,12.84,9.01,14.14c2.85,1.3,1.95,1.42,6.31,1.36c4.36-0.06,8.41-2.9,11.42-4.38c3-1.48,3.61-1.95,6.91-2.01
						c3.31-0.06,8.41,2.54,11.72,11.07c3.31,8.52,7.21,7.22,7.96,7.16c0.75-0.06,3-0.3,6.46-7.4c2.86-5.88,5.11-9.45,5.54-14.34"/>
					<path class="st9" d="M714.57,898.55c-0.01-0.35-0.02-0.71-0.05-1.08"/>
				</g>
			</g>
			<g>
				<g>
					<path class="st9" d="M716.08,897.24c0,0,0.11-0.38,0.29-1.03"/>
					<path class="st11" d="M717.57,892.07c1.05-3.53,2.46-8.04,3.57-10.8c2.03-5.06,5.07-9.99,10.48-10.12
						c5.41-0.13,9.46,7.46,9.46,7.46l4.39,9.99c0,0,0.68,1.07,3.72,1.2c3.04,0.13,6.08-0.93,6.08-0.93l10.89-4.11
						c0,0,3.76-1.39,5.18-1.42c1.43-0.03,1.8-0.12,3.98,1.42c2.18,1.54,6.16,11.69,6.54,12.66c0.38,0.98,1.95,5.8,3,6.39
						c1.05,0.59,3,4.38,4.51,5.33c1.5,0.95,2.85,2.07,5.86,2.25c3,0.18,8.32-2.58,8.32-2.58l7.31-4.05c0,0,1.5-0.53,3.46-0.41
						c1.95,0.12,3,0.77,3,0.77l10.97,15.09l1.35,1.83c0,0,2.1,0.59,3.16,0.59c1.05,0,3.46-0.65,3.61-1.01s4.36-5.68,5.71-7.81
						c1.35-2.13,4.96-15.15,4.81-15.92c-0.15-0.77,0-7.4,0.6-11.07s6.46-11.95,7.81-13.61c1.35-1.66,5.11-1.89,5.11-1.89
						s2.85,0.06,3.61,0.59c0.75,0.53,1.65,1.66,2.55,2.9s4.51,9.29,6.16,11.84c1.65,2.54,4.36,3.25,7.06,3.2
						c2.7-0.06,7.81-2.6,7.81-2.6s8.26-4.08,10.74-4.32s3.53-0.53,5.18,0.65c1.65,1.18,4.66,4.26,6.16,11.54
						c1.5,7.28,6.16,12.84,9.01,14.14c2.85,1.3,1.95,1.42,6.31,1.36c4.36-0.06,8.41-2.9,11.42-4.38c3-1.48,3.61-1.95,6.91-2.01
						c3.31-0.06,8.41,2.54,11.72,11.07c3.31,8.52,7.21,7.22,7.96,7.16c0.75-0.06,3-0.3,6.46-7.4c2.86-5.88,5.11-9.45,5.54-14.34"/>
					<path class="st9" d="M975.12,898.55c-0.01-0.35-0.02-0.71-0.05-1.08"/>
				</g>
			</g>
			<g>
				<g>
					<path class="st9" d="M976.62,897.24c0,0,0.11-0.38,0.29-1.03"/>
					<path class="st12" d="M978.12,892.09c1.05-3.53,2.47-8.05,3.58-10.82c2.03-5.06,5.07-9.99,10.48-10.12
						c5.41-0.13,9.46,7.46,9.46,7.46l4.39,9.99c0,0,0.68,1.07,3.72,1.2c3.04,0.13,6.08-0.93,6.08-0.93l10.89-4.11
						c0,0,3.76-1.39,5.18-1.42c1.43-0.03,1.8-0.12,3.98,1.42c2.18,1.54,6.16,11.69,6.54,12.66c0.38,0.98,1.95,5.8,3,6.39
						c1.05,0.59,3,4.38,4.51,5.33c1.5,0.95,2.85,2.07,5.86,2.25c3,0.18,8.32-2.58,8.32-2.58l7.31-4.05c0,0,1.5-0.53,3.46-0.41
						c1.95,0.12,3,0.77,3,0.77l10.97,15.09l1.35,1.83c0,0,2.1,0.59,3.15,0.59s3.46-0.65,3.61-1.01c0.15-0.36,4.36-5.68,5.71-7.81
						c1.35-2.13,4.96-15.15,4.81-15.92c-0.15-0.77,0-7.4,0.6-11.07s6.46-11.95,7.81-13.61s5.11-1.89,5.11-1.89s2.85,0.06,3.61,0.59
						s1.65,1.66,2.55,2.9c0.9,1.24,4.51,9.29,6.16,11.84c1.65,2.54,4.36,3.25,7.06,3.2c2.7-0.06,7.81-2.6,7.81-2.6
						s8.26-4.08,10.74-4.32s3.53-0.53,5.18,0.65c1.65,1.18,4.66,4.26,6.16,11.54c1.5,7.28,6.16,12.84,9.01,14.14
						c2.85,1.3,1.95,1.42,6.31,1.36c4.36-0.06,8.41-2.9,11.42-4.38c3-1.48,3.61-1.95,6.91-2.01c2.89-0.05,7.16,1.93,10.39,8.12"/>
					<path class="st9" d="M1215.23,914.29c0.14,0.32,0.27,0.65,0.41,1"/>
				</g>
			</g>
		</g>
		<g class="st8">
			<g>
				<g>
					<path class="st9" d="M213.2,491.78c0,0,0.15-0.42,0.42-1.15"/>
					<path class="st13" d="M215.34,486.08c1.33-3.44,3.04-7.64,4.4-10.27c2.62-5.06,6.54-9.99,13.52-10.12
						c6.98-0.13,12.21,7.46,12.21,7.46l5.67,9.99c0,0,0.87,1.07,4.8,1.2s7.85-0.93,7.85-0.93l14.04-4.11c0,0,4.85-1.39,6.69-1.42
						c1.84-0.03,2.33-0.12,5.14,1.42c2.81,1.54,7.95,11.69,8.43,12.66c0.48,0.98,2.52,5.8,3.88,6.39c1.36,0.59,3.88,4.38,5.81,5.33
						s3.68,2.07,7.56,2.25s10.73-2.58,10.73-2.58l9.42-4.05c0,0,1.94-0.53,4.46-0.41c2.52,0.12,3.88,0.77,3.88,0.77l14.15,15.09
						l1.74,1.83c0,0,2.71,0.59,4.07,0.59c1.36,0,4.46-0.65,4.65-1.01c0.19-0.36,5.62-5.68,7.36-7.81c1.74-2.13,6.4-15.15,6.2-15.92
						c-0.19-0.77,0-7.4,0.78-11.07c0.78-3.67,8.33-11.95,10.08-13.61c1.74-1.66,6.59-1.89,6.59-1.89s3.68,0.06,4.65,0.59
						c0.97,0.53,2.13,1.66,3.29,2.9c1.16,1.24,5.81,9.29,7.95,11.84c2.13,2.54,5.62,3.25,9.11,3.2c3.49-0.06,10.08-2.6,10.08-2.6
						s10.66-4.08,13.86-4.32c3.2-0.24,4.55-0.53,6.69,0.65c2.13,1.18,6.01,4.26,7.95,11.54c1.94,7.28,7.95,12.84,11.63,14.14
						c3.68,1.3,2.52,1.42,8.14,1.36c5.62-0.06,10.85-2.9,14.73-4.38c3.88-1.48,4.65-1.95,8.91-2.01
						c4.26-0.06,10.85,2.54,15.12,11.07c4.26,8.52,9.3,7.22,10.27,7.16c0.97-0.06,3.88-0.3,8.33-7.4c3.59-5.72,6.42-9.25,7.09-13.92
						"/>
					<path class="st9" d="M547.37,493.23c-0.01-0.4-0.03-0.8-0.06-1.22"/>
				</g>
			</g>
			<g>
				<g>
					<path class="st9" d="M549.3,491.78c0,0,0.15-0.42,0.42-1.15"/>
					<path class="st13" d="M551.44,486.08c1.33-3.44,3.04-7.64,4.4-10.27c2.62-5.06,6.54-9.99,13.52-10.12
						c6.98-0.13,12.21,7.46,12.21,7.46l5.67,9.99c0,0,0.87,1.07,4.8,1.2s7.85-0.93,7.85-0.93l14.04-4.11c0,0,4.85-1.39,6.69-1.42
						c1.84-0.03,2.33-0.12,5.14,1.42c2.81,1.54,7.95,11.69,8.43,12.66c0.48,0.98,2.52,5.8,3.88,6.39c1.36,0.59,3.88,4.38,5.81,5.33
						s3.68,2.07,7.56,2.25c3.88,0.18,10.73-2.58,10.73-2.58l9.42-4.05c0,0,1.94-0.53,4.46-0.41c2.52,0.12,3.88,0.77,3.88,0.77
						l14.15,15.09l1.74,1.83c0,0,2.71,0.59,4.07,0.59c1.36,0,4.46-0.65,4.65-1.01c0.19-0.36,5.62-5.68,7.36-7.81
						c1.74-2.13,6.4-15.15,6.2-15.92c-0.19-0.77,0-7.4,0.78-11.07c0.78-3.67,8.33-11.95,10.08-13.61c1.74-1.66,6.59-1.89,6.59-1.89
						s3.68,0.06,4.65,0.59c0.97,0.53,2.13,1.66,3.29,2.9c1.16,1.24,5.81,9.29,7.95,11.84c2.13,2.54,5.62,3.25,9.11,3.2
						c3.49-0.06,10.08-2.6,10.08-2.6s10.66-4.08,13.86-4.32c3.2-0.24,4.55-0.53,6.69,0.65c2.13,1.18,6.01,4.26,7.95,11.54
						c1.94,7.28,7.95,12.84,11.63,14.14c3.68,1.3,2.52,1.42,8.14,1.36c5.62-0.06,10.85-2.9,14.73-4.38
						c3.88-1.48,4.65-1.95,8.91-2.01c4.26-0.06,10.85,2.54,15.12,11.07c4.26,8.52,9.3,7.22,10.27,7.16c0.97-0.06,3.88-0.3,8.33-7.4
						c3.59-5.72,6.42-9.25,7.09-13.92"/>
					<path class="st9" d="M883.48,493.23c-0.01-0.4-0.03-0.8-0.06-1.22"/>
				</g>
			</g>
			<g>
				<g>
					<path class="st9" d="M884.14,491.78c0,0,0.15-0.42,0.42-1.15"/>
					<path class="st14" d="M886.29,486.05c1.33-3.43,3.04-7.63,4.39-10.25c2.62-5.06,6.54-9.99,13.52-10.12
						c6.98-0.13,12.21,7.46,12.21,7.46l5.67,9.99c0,0,0.87,1.07,4.8,1.2s7.85-0.93,7.85-0.93l14.04-4.11c0,0,4.85-1.39,6.69-1.42
						c1.84-0.03,2.33-0.12,5.14,1.42c2.81,1.54,7.95,11.69,8.43,12.66c0.48,0.98,2.52,5.8,3.88,6.39s3.88,4.38,5.81,5.33
						s3.68,2.07,7.56,2.25c3.88,0.18,10.73-2.58,10.73-2.58l9.42-4.05c0,0,1.94-0.53,4.46-0.41c2.52,0.12,3.88,0.77,3.88,0.77
						l14.15,15.09l1.74,1.83c0,0,2.71,0.59,4.07,0.59c1.36,0,4.46-0.65,4.65-1.01s5.62-5.68,7.36-7.81
						c1.74-2.13,6.4-15.15,6.2-15.92c-0.19-0.77,0-7.4,0.78-11.07s8.33-11.95,10.08-13.61c1.74-1.66,6.59-1.89,6.59-1.89
						s3.68,0.06,4.65,0.59c0.97,0.53,2.13,1.66,3.29,2.9c1.16,1.24,5.81,9.29,7.95,11.84c2.13,2.54,5.62,3.25,9.11,3.2
						s10.08-2.6,10.08-2.6s10.66-4.08,13.86-4.32c3.2-0.24,4.55-0.53,6.69,0.65c2.13,1.18,6.01,4.26,7.95,11.54
						c1.94,7.28,7.95,12.84,11.63,14.14c3.68,1.3,2.52,1.42,8.14,1.36s10.85-2.9,14.73-4.38c3.88-1.48,4.65-1.95,8.91-2.01
						c4.26-0.06,10.85,2.54,15.12,11.07c4.26,8.52,9.3,7.22,10.27,7.16c0.81-0.05,2.96-0.22,6.23-4.38"/>
					<path class="st9" d="M1210.41,510.61c0.22-0.33,0.44-0.67,0.67-1.03"/>
				</g>
			</g>
		</g>
		<g class="st8">
			<g>
				<g>
					<path class="st9" d="M213.2,999.78c0,0,0.15-0.42,0.42-1.15"/>
					<path class="st13" d="M215.34,994.08c1.33-3.44,3.04-7.64,4.4-10.27c2.62-5.06,6.54-9.99,13.52-10.12
						c6.98-0.13,12.21,7.46,12.21,7.46l5.67,9.99c0,0,0.87,1.07,4.8,1.2s7.85-0.93,7.85-0.93l14.04-4.11c0,0,4.85-1.39,6.69-1.42
						c1.84-0.03,2.33-0.12,5.14,1.42s7.95,11.69,8.43,12.66c0.48,0.98,2.52,5.8,3.88,6.39c1.36,0.59,3.88,4.38,5.81,5.33
						c1.94,0.95,3.68,2.07,7.56,2.25s10.73-2.58,10.73-2.58l9.42-4.05c0,0,1.94-0.53,4.46-0.41c2.52,0.12,3.88,0.77,3.88,0.77
						l14.15,15.09l1.74,1.83c0,0,2.71,0.59,4.07,0.59c1.36,0,4.46-0.65,4.65-1.01c0.19-0.35,5.62-5.68,7.36-7.81
						c1.74-2.13,6.4-15.15,6.2-15.92s0-7.4,0.78-11.07c0.78-3.67,8.33-11.95,10.08-13.61c1.74-1.66,6.59-1.89,6.59-1.89
						s3.68,0.06,4.65,0.59c0.97,0.53,2.13,1.66,3.29,2.9c1.16,1.24,5.81,9.29,7.95,11.84s5.62,3.25,9.11,3.2
						c3.49-0.06,10.08-2.6,10.08-2.6s10.66-4.08,13.86-4.32s4.55-0.53,6.69,0.65s6.01,4.26,7.95,11.54
						c1.94,7.28,7.95,12.84,11.63,14.14c3.68,1.3,2.52,1.42,8.14,1.36c5.62-0.06,10.85-2.9,14.73-4.38s4.65-1.95,8.91-2.01
						c4.26-0.06,10.85,2.54,15.12,11.07c4.26,8.52,9.3,7.22,10.27,7.16c0.97-0.06,3.88-0.3,8.33-7.4c3.59-5.72,6.42-9.25,7.09-13.92
						"/>
					<path class="st9" d="M547.37,1001.23c-0.01-0.4-0.03-0.8-0.06-1.22"/>
				</g>
			</g>
			<g>
				<g>
					<path class="st9" d="M549.3,999.78c0,0,0.15-0.42,0.42-1.15"/>
					<path class="st13" d="M551.44,994.08c1.33-3.44,3.04-7.64,4.4-10.27c2.62-5.06,6.54-9.99,13.52-10.12
						c6.98-0.13,12.21,7.46,12.21,7.46l5.67,9.99c0,0,0.87,1.07,4.8,1.2s7.85-0.93,7.85-0.93l14.04-4.11c0,0,4.85-1.39,6.69-1.42
						c1.84-0.03,2.33-0.12,5.14,1.42s7.95,11.69,8.43,12.66c0.48,0.98,2.52,5.8,3.88,6.39c1.36,0.59,3.88,4.38,5.81,5.33
						c1.94,0.95,3.68,2.07,7.56,2.25c3.88,0.18,10.73-2.58,10.73-2.58l9.42-4.05c0,0,1.94-0.53,4.46-0.41
						c2.52,0.12,3.88,0.77,3.88,0.77l14.15,15.09l1.74,1.83c0,0,2.71,0.59,4.07,0.59c1.36,0,4.46-0.65,4.65-1.01
						c0.19-0.35,5.62-5.68,7.36-7.81c1.74-2.13,6.4-15.15,6.2-15.92s0-7.4,0.78-11.07c0.78-3.67,8.33-11.95,10.08-13.61
						c1.74-1.66,6.59-1.89,6.59-1.89s3.68,0.06,4.65,0.59c0.97,0.53,2.13,1.66,3.29,2.9c1.16,1.24,5.81,9.29,7.95,11.84
						s5.62,3.25,9.11,3.2c3.49-0.06,10.08-2.6,10.08-2.6s10.66-4.08,13.86-4.32s4.55-0.53,6.69,0.65s6.01,4.26,7.95,11.54
						c1.94,7.28,7.95,12.84,11.63,14.14c3.68,1.3,2.52,1.42,8.14,1.36c5.62-0.06,10.85-2.9,14.73-4.38
						c3.88-1.48,4.65-1.95,8.91-2.01c4.26-0.06,10.85,2.54,15.12,11.07c4.26,8.52,9.3,7.22,10.27,7.16c0.97-0.06,3.88-0.3,8.33-7.4
						c3.59-5.72,6.42-9.25,7.09-13.92"/>
					<path class="st9" d="M883.48,1001.23c-0.01-0.4-0.03-0.8-0.06-1.22"/>
				</g>
			</g>
			<g>
				<g>
					<path class="st9" d="M884.14,999.78c0,0,0.15-0.42,0.42-1.15"/>
					<path class="st14" d="M886.29,994.05c1.33-3.43,3.04-7.63,4.39-10.25c2.62-5.06,6.54-9.99,13.52-10.12
						c6.98-0.13,12.21,7.46,12.21,7.46l5.67,9.99c0,0,0.87,1.07,4.8,1.2s7.85-0.93,7.85-0.93l14.04-4.11c0,0,4.85-1.39,6.69-1.42
						c1.84-0.03,2.33-0.12,5.14,1.42s7.95,11.69,8.43,12.66c0.48,0.98,2.52,5.8,3.88,6.39s3.88,4.38,5.81,5.33
						c1.94,0.95,3.68,2.07,7.56,2.25c3.88,0.18,10.73-2.58,10.73-2.58l9.42-4.05c0,0,1.94-0.53,4.46-0.41
						c2.52,0.12,3.88,0.77,3.88,0.77l14.15,15.09l1.74,1.83c0,0,2.71,0.59,4.07,0.59c1.36,0,4.46-0.65,4.65-1.01
						c0.19-0.35,5.62-5.68,7.36-7.81s6.4-15.15,6.2-15.92c-0.19-0.77,0-7.4,0.78-11.07s8.33-11.95,10.08-13.61
						c1.74-1.66,6.59-1.89,6.59-1.89s3.68,0.06,4.65,0.59c0.97,0.53,2.13,1.66,3.29,2.9c1.16,1.24,5.81,9.29,7.95,11.84
						s5.62,3.25,9.11,3.2c3.49-0.06,10.08-2.6,10.08-2.6s10.66-4.08,13.86-4.32s4.55-0.53,6.69,0.65s6.01,4.26,7.95,11.54
						c1.94,7.28,7.95,12.84,11.63,14.14c3.68,1.3,2.52,1.42,8.14,1.36c5.62-0.06,10.85-2.9,14.73-4.38
						c3.88-1.48,4.65-1.95,8.91-2.01c4.26-0.06,10.85,2.54,15.12,11.07c4.26,8.52,9.3,7.22,10.27,7.16
						c0.81-0.05,2.96-0.22,6.23-4.38"/>
					<path class="st9" d="M1210.41,1018.61c0.22-0.33,0.44-0.67,0.67-1.03"/>
				</g>
			</g>
		</g>
		<g class="st8">
			<g>
				<g>
					<path class="st15" d="M219.71,588.6c0,0,0.05-0.4,0.15-1.09"/>
					<path class="st16" d="M220.47,583.17c0.5-3.49,1.16-7.86,1.68-10.56c0.98-5.06,2.44-9.99,5.05-10.12
						c2.61-0.13,4.56,7.46,4.56,7.46l2.12,9.99c0,0,0.33,1.07,1.79,1.2c1.47,0.13,2.93-0.93,2.93-0.93l5.25-4.11
						c0,0,1.81-1.39,2.5-1.42c0.69-0.03,0.87-0.12,1.92,1.42c1.05,1.54,2.97,11.69,3.15,12.66c0.18,0.98,0.94,5.8,1.45,6.39
						c0.51,0.59,1.45,4.38,2.17,5.33c0.72,0.95,1.38,2.07,2.82,2.25c1.45,0.18,4.01-2.58,4.01-2.58l3.52-4.05
						c0,0,0.72-0.53,1.67-0.41s1.45,0.77,1.45,0.77l5.28,15.09l0.65,1.83c0,0,1.01,0.59,1.52,0.59c0.51,0,1.66-0.65,1.74-1.01
						c0.07-0.36,2.1-5.68,2.75-7.81s2.39-15.15,2.32-15.92s0-7.4,0.29-11.07c0.29-3.67,3.11-11.95,3.76-13.61
						c0.65-1.66,2.46-1.89,2.46-1.89s1.38,0.06,1.74,0.59c0.36,0.53,0.8,1.66,1.23,2.9c0.43,1.24,2.17,9.29,2.97,11.83
						c0.8,2.54,2.1,3.25,3.4,3.2c1.3-0.06,3.76-2.6,3.76-2.6s3.98-4.08,5.18-4.32c1.19-0.24,1.7-0.53,2.5,0.65
						c0.8,1.18,2.24,4.26,2.97,11.54c0.72,7.28,2.97,12.84,4.34,14.14c1.38,1.3,0.94,1.42,3.04,1.36c2.1-0.06,4.05-2.9,5.5-4.38
						s1.74-1.95,3.33-2.01c1.59-0.06,4.05,2.54,5.65,11.07c1.59,8.52,3.47,7.22,3.84,7.16s1.45-0.3,3.11-7.4
						c1.37-5.86,2.45-9.42,2.66-14.28"/>
					<path class="st15" d="M344.52,589.93c0-0.36-0.01-0.73-0.02-1.1"/>
				</g>
			</g>
			<g>
				<g>
					<path class="st15" d="M345.25,588.6c0,0,0.05-0.4,0.15-1.09"/>
					<path class="st16" d="M346.01,583.17c0.5-3.49,1.16-7.86,1.69-10.56c0.98-5.06,2.44-9.99,5.05-10.12
						c2.61-0.13,4.56,7.46,4.56,7.46l2.12,9.99c0,0,0.33,1.07,1.79,1.2c1.47,0.13,2.93-0.93,2.93-0.93l5.25-4.11
						c0,0,1.81-1.39,2.5-1.42c0.69-0.03,0.87-0.12,1.92,1.42c1.05,1.54,2.97,11.69,3.15,12.66c0.18,0.98,0.94,5.8,1.45,6.39
						c0.51,0.59,1.45,4.38,2.17,5.33c0.72,0.95,1.38,2.07,2.82,2.25c1.45,0.18,4.01-2.58,4.01-2.58l3.52-4.05
						c0,0,0.72-0.53,1.66-0.41c0.94,0.12,1.45,0.77,1.45,0.77l5.28,15.09l0.65,1.83c0,0,1.01,0.59,1.52,0.59s1.67-0.65,1.74-1.01
						c0.07-0.36,2.1-5.68,2.75-7.81s2.39-15.15,2.32-15.92s0-7.4,0.29-11.07c0.29-3.67,3.11-11.95,3.76-13.61
						c0.65-1.66,2.46-1.89,2.46-1.89s1.38,0.06,1.74,0.59c0.36,0.53,0.8,1.66,1.23,2.9c0.43,1.24,2.17,9.29,2.97,11.83
						c0.8,2.54,2.1,3.25,3.4,3.2c1.3-0.06,3.76-2.6,3.76-2.6s3.98-4.08,5.18-4.32c1.19-0.24,1.7-0.53,2.5,0.65
						c0.8,1.18,2.24,4.26,2.97,11.54c0.72,7.28,2.97,12.84,4.34,14.14c1.38,1.3,0.94,1.42,3.04,1.36c2.1-0.06,4.05-2.9,5.5-4.38
						s1.74-1.95,3.33-2.01c1.59-0.06,4.05,2.54,5.65,11.07c1.59,8.52,3.47,7.22,3.84,7.16s1.45-0.3,3.11-7.4
						c1.37-5.86,2.45-9.42,2.66-14.28"/>
					<path class="st15" d="M470.06,589.93c0-0.36-0.01-0.73-0.02-1.1"/>
				</g>
			</g>
			<g>
				<g>
					<path class="st15" d="M470.79,588.6c0,0,0.05-0.4,0.15-1.09"/>
					<path class="st16" d="M471.54,583.17c0.5-3.49,1.16-7.86,1.69-10.56c0.98-5.06,2.44-9.99,5.05-10.12
						c2.61-0.13,4.56,7.46,4.56,7.46l2.12,9.99c0,0,0.33,1.07,1.79,1.2s2.93-0.93,2.93-0.93l5.25-4.11c0,0,1.81-1.39,2.5-1.42
						c0.69-0.03,0.87-0.12,1.92,1.42s2.97,11.69,3.15,12.66c0.18,0.98,0.94,5.8,1.45,6.39c0.51,0.59,1.45,4.38,2.17,5.33
						c0.72,0.95,1.38,2.07,2.82,2.25c1.45,0.18,4.01-2.58,4.01-2.58l3.52-4.05c0,0,0.72-0.53,1.66-0.41
						c0.94,0.12,1.45,0.77,1.45,0.77l5.28,15.09l0.65,1.83c0,0,1.01,0.59,1.52,0.59s1.67-0.65,1.74-1.01
						c0.07-0.36,2.1-5.68,2.75-7.81c0.65-2.13,2.39-15.15,2.32-15.92c-0.07-0.77,0-7.4,0.29-11.07c0.29-3.67,3.11-11.95,3.76-13.61
						c0.65-1.66,2.46-1.89,2.46-1.89s1.38,0.06,1.74,0.59c0.36,0.53,0.8,1.66,1.23,2.9c0.43,1.24,2.17,9.29,2.97,11.83
						c0.8,2.54,2.1,3.25,3.4,3.2c1.3-0.06,3.76-2.6,3.76-2.6s3.98-4.08,5.18-4.32c1.19-0.24,1.7-0.53,2.5,0.65
						c0.8,1.18,2.24,4.26,2.97,11.54c0.72,7.28,2.97,12.84,4.34,14.14c1.38,1.3,0.94,1.42,3.04,1.36c2.1-0.06,4.05-2.9,5.5-4.38
						s1.74-1.95,3.33-2.01c1.59-0.06,4.05,2.54,5.65,11.07s3.47,7.22,3.84,7.16s1.45-0.3,3.11-7.4c1.37-5.86,2.45-9.42,2.66-14.28"
						/>
					<path class="st15" d="M595.6,589.93c0-0.36-0.01-0.73-0.02-1.1"/>
				</g>
			</g>
			<g>
				<g>
					<path class="st15" d="M596.32,588.6c0,0,0.05-0.4,0.15-1.09"/>
					<path class="st16" d="M597.08,583.17c0.5-3.49,1.16-7.86,1.69-10.56c0.98-5.06,2.44-9.99,5.05-10.12
						c2.61-0.13,4.56,7.46,4.56,7.46l2.12,9.99c0,0,0.33,1.07,1.79,1.2s2.93-0.93,2.93-0.93l5.25-4.11c0,0,1.81-1.39,2.5-1.42
						c0.69-0.03,0.87-0.12,1.92,1.42s2.97,11.69,3.15,12.66c0.18,0.98,0.94,5.8,1.45,6.39c0.51,0.59,1.45,4.38,2.17,5.33
						c0.72,0.95,1.38,2.07,2.82,2.25c1.45,0.18,4.01-2.58,4.01-2.58l3.52-4.05c0,0,0.72-0.53,1.66-0.41s1.45,0.77,1.45,0.77
						l5.28,15.09l0.65,1.83c0,0,1.01,0.59,1.52,0.59c0.51,0,1.66-0.65,1.74-1.01c0.07-0.36,2.1-5.68,2.75-7.81
						c0.65-2.13,2.39-15.15,2.32-15.92c-0.07-0.77,0-7.4,0.29-11.07c0.29-3.67,3.11-11.95,3.76-13.61c0.65-1.66,2.46-1.89,2.46-1.89
						s1.38,0.06,1.74,0.59c0.36,0.53,0.8,1.66,1.23,2.9s2.17,9.29,2.97,11.83c0.8,2.54,2.1,3.25,3.4,3.2c1.3-0.06,3.76-2.6,3.76-2.6
						s3.98-4.08,5.18-4.32c1.19-0.24,1.7-0.53,2.5,0.65c0.8,1.18,2.24,4.26,2.97,11.54s2.97,12.84,4.34,14.14
						c1.38,1.3,0.94,1.42,3.04,1.36c2.1-0.06,4.05-2.9,5.5-4.38s1.74-1.95,3.33-2.01c1.59-0.06,4.05,2.54,5.65,11.07
						s3.47,7.22,3.84,7.16c0.36-0.06,1.45-0.3,3.11-7.4c1.37-5.86,2.45-9.42,2.66-14.28"/>
					<path class="st15" d="M721.14,589.93c0-0.36-0.01-0.73-0.02-1.1"/>
				</g>
			</g>
		</g>
		<g class="st8">
			<g>
				<g>
					<path class="st15" d="M721.51,588.6c0,0,0.05-0.4,0.15-1.09"/>
					<path class="st16" d="M722.27,583.17c0.5-3.49,1.16-7.86,1.68-10.56c0.98-5.06,2.44-9.99,5.05-10.12s4.56,7.46,4.56,7.46
						l2.12,9.99c0,0,0.33,1.07,1.79,1.2c1.47,0.13,2.93-0.93,2.93-0.93l5.25-4.11c0,0,1.81-1.39,2.5-1.42
						c0.69-0.03,0.87-0.12,1.92,1.42s2.97,11.69,3.15,12.66c0.18,0.98,0.94,5.8,1.45,6.39c0.51,0.59,1.45,4.38,2.17,5.33
						s1.38,2.07,2.82,2.25c1.45,0.18,4.01-2.58,4.01-2.58l3.52-4.05c0,0,0.72-0.53,1.67-0.41c0.94,0.12,1.45,0.77,1.45,0.77
						l5.28,15.09l0.65,1.83c0,0,1.01,0.59,1.52,0.59c0.51,0,1.66-0.65,1.74-1.01c0.07-0.36,2.1-5.68,2.75-7.81
						c0.65-2.13,2.39-15.15,2.32-15.92c-0.07-0.77,0-7.4,0.29-11.07c0.29-3.67,3.11-11.95,3.76-13.61c0.65-1.66,2.46-1.89,2.46-1.89
						s1.38,0.06,1.74,0.59c0.36,0.53,0.8,1.66,1.23,2.9s2.17,9.29,2.97,11.83c0.8,2.54,2.1,3.25,3.4,3.2s3.76-2.6,3.76-2.6
						s3.98-4.08,5.18-4.32c1.19-0.24,1.7-0.53,2.5,0.65c0.8,1.18,2.24,4.26,2.97,11.54s2.97,12.84,4.34,14.14
						c1.38,1.3,0.94,1.42,3.04,1.36c2.1-0.06,4.05-2.9,5.5-4.38c1.45-1.48,1.74-1.95,3.33-2.01s4.05,2.54,5.65,11.07
						s3.47,7.22,3.84,7.16c0.36-0.06,1.45-0.3,3.11-7.4c1.37-5.86,2.45-9.42,2.66-14.28"/>
					<path class="st15" d="M846.32,589.93c0-0.36-0.01-0.73-0.02-1.1"/>
				</g>
			</g>
			<g>
				<g>
					<path class="st15" d="M847.05,588.6c0,0,0.05-0.4,0.15-1.09"/>
					<path class="st16" d="M847.8,583.17c0.5-3.49,1.16-7.86,1.68-10.56c0.98-5.06,2.44-9.99,5.05-10.12
						c2.61-0.13,4.56,7.46,4.56,7.46l2.12,9.99c0,0,0.33,1.07,1.79,1.2c1.47,0.13,2.93-0.93,2.93-0.93l5.25-4.11
						c0,0,1.81-1.39,2.5-1.42s0.87-0.12,1.92,1.42s2.97,11.69,3.15,12.66s0.94,5.8,1.45,6.39c0.51,0.59,1.45,4.38,2.17,5.33
						s1.38,2.07,2.82,2.25c1.45,0.18,4.01-2.58,4.01-2.58l3.52-4.05c0,0,0.72-0.53,1.66-0.41s1.45,0.77,1.45,0.77l5.28,15.09
						l0.65,1.83c0,0,1.01,0.59,1.52,0.59c0.51,0,1.66-0.65,1.74-1.01c0.07-0.36,2.1-5.68,2.75-7.81c0.65-2.13,2.39-15.15,2.32-15.92
						c-0.07-0.77,0-7.4,0.29-11.07c0.29-3.67,3.11-11.95,3.76-13.61c0.65-1.66,2.46-1.89,2.46-1.89s1.38,0.06,1.74,0.59
						c0.36,0.53,0.8,1.66,1.23,2.9s2.17,9.29,2.97,11.83c0.8,2.54,2.1,3.25,3.4,3.2c1.3-0.06,3.76-2.6,3.76-2.6s3.98-4.08,5.18-4.32
						c1.19-0.24,1.7-0.53,2.5,0.65c0.8,1.18,2.24,4.26,2.97,11.54s2.97,12.84,4.34,14.14c1.38,1.3,0.94,1.42,3.04,1.36
						c2.1-0.06,4.05-2.9,5.5-4.38s1.74-1.95,3.33-2.01c1.59-0.06,4.05,2.54,5.65,11.07s3.47,7.22,3.84,7.16
						c0.36-0.06,1.45-0.3,3.11-7.4c1.37-5.86,2.45-9.42,2.66-14.28"/>
					<path class="st15" d="M971.86,589.93c0-0.36-0.01-0.73-0.02-1.1"/>
				</g>
			</g>
			<g>
				<g>
					<path class="st15" d="M972.58,588.6c0,0,0.05-0.4,0.15-1.09"/>
					<path class="st16" d="M973.34,583.17c0.5-3.49,1.16-7.86,1.68-10.56c0.98-5.06,2.44-9.99,5.05-10.12
						c2.61-0.13,4.56,7.46,4.56,7.46l2.12,9.99c0,0,0.33,1.07,1.79,1.2s2.93-0.93,2.93-0.93l5.25-4.11c0,0,1.81-1.39,2.5-1.42
						s0.87-0.12,1.92,1.42c1.05,1.54,2.97,11.69,3.15,12.66s0.94,5.8,1.45,6.39c0.51,0.59,1.45,4.38,2.17,5.33s1.38,2.07,2.82,2.25
						c1.45,0.18,4.01-2.58,4.01-2.58l3.52-4.05c0,0,0.72-0.53,1.66-0.41c0.94,0.12,1.45,0.77,1.45,0.77l5.28,15.09l0.65,1.83
						c0,0,1.01,0.59,1.52,0.59c0.51,0,1.67-0.65,1.74-1.01c0.07-0.36,2.1-5.68,2.75-7.81c0.65-2.13,2.39-15.15,2.32-15.92
						c-0.07-0.77,0-7.4,0.29-11.07c0.29-3.67,3.11-11.95,3.76-13.61c0.65-1.66,2.46-1.89,2.46-1.89s1.38,0.06,1.74,0.59
						c0.36,0.53,0.8,1.66,1.23,2.9s2.17,9.29,2.97,11.83c0.8,2.54,2.1,3.25,3.4,3.2s3.76-2.6,3.76-2.6s3.98-4.08,5.18-4.32
						c1.19-0.24,1.7-0.53,2.5,0.65c0.8,1.18,2.24,4.26,2.97,11.54c0.72,7.28,2.97,12.84,4.34,14.14c1.38,1.3,0.94,1.42,3.04,1.36
						c2.1-0.06,4.05-2.9,5.5-4.38s1.74-1.95,3.33-2.01s4.05,2.54,5.65,11.07c1.59,8.52,3.47,7.22,3.84,7.16
						c0.36-0.06,1.45-0.3,3.11-7.4c1.37-5.86,2.45-9.42,2.66-14.28"/>
					<path class="st15" d="M1097.4,589.93c0-0.36-0.01-0.73-0.02-1.1"/>
				</g>
			</g>
			<g>
				<g>
					<path class="st15" d="M1098.12,588.6c0,0,0.05-0.4,0.15-1.09"/>
					<path class="st17" d="M1098.89,583.1c0.5-3.48,1.16-7.8,1.67-10.48c0.98-5.06,2.44-9.99,5.05-10.12
						c2.61-0.13,4.56,7.46,4.56,7.46l2.12,9.99c0,0,0.33,1.07,1.79,1.2s2.93-0.93,2.93-0.93l5.25-4.11c0,0,1.81-1.39,2.5-1.42
						c0.69-0.03,0.87-0.12,1.92,1.42c1.05,1.54,2.97,11.69,3.15,12.66s0.94,5.8,1.45,6.39c0.51,0.59,1.45,4.38,2.17,5.33
						s1.38,2.07,2.82,2.25c1.45,0.18,4.01-2.58,4.01-2.58l3.52-4.05c0,0,0.72-0.53,1.66-0.41c0.94,0.12,1.45,0.77,1.45,0.77
						l5.28,15.09l0.65,1.83c0,0,1.01,0.59,1.52,0.59c0.51,0,1.67-0.65,1.74-1.01c0.07-0.36,2.1-5.68,2.75-7.81
						c0.65-2.13,2.39-15.15,2.32-15.92c-0.07-0.77,0-7.4,0.29-11.07c0.29-3.67,3.11-11.95,3.76-13.61c0.65-1.66,2.46-1.89,2.46-1.89
						s1.38,0.06,1.74,0.59c0.36,0.53,0.8,1.66,1.23,2.9s2.17,9.29,2.97,11.83c0.8,2.54,2.1,3.25,3.4,3.2s3.76-2.6,3.76-2.6
						s3.98-4.08,5.18-4.32c1.19-0.24,1.7-0.53,2.5,0.65c0.8,1.18,2.24,4.26,2.97,11.54s2.97,12.84,4.34,14.14
						c1.38,1.3,0.94,1.42,3.04,1.36c2.1-0.06,4.05-2.9,5.5-4.38s1.74-1.95,3.33-2.01c1.37-0.05,3.38,1.87,4.93,7.82"/>
					<path class="st15" d="M1213.07,605.55c0.07,0.35,0.14,0.71,0.21,1.08"/>
				</g>
			</g>
		</g>
		<g class="st8">
			<g>
				<g>
					<path class="st9" d="M213.58,390.17c0,0,0.13-0.27,0.36-0.74"/>
					<path class="st18" d="M215.43,386.49c1-1.93,2.23-4.18,3.23-5.62c2.03-2.95,5.07-5.81,10.48-5.89s9.46,4.34,9.46,4.34
						l4.39,5.82c0,0,0.68,0.62,3.72,0.7s6.08-0.54,6.08-0.54l10.89-2.39c0,0,3.76-0.81,5.18-0.83s1.8-0.07,3.98,0.83
						c2.18,0.9,6.16,6.81,6.54,7.37c0.38,0.57,1.95,3.38,3,3.72s3,2.55,4.51,3.1c1.5,0.55,2.85,1.21,5.86,1.31
						c3,0.1,8.32-1.5,8.32-1.5l7.31-2.36c0,0,1.5-0.31,3.46-0.24c1.95,0.07,3,0.45,3,0.45l10.97,8.79l1.35,1.07
						c0,0,2.1,0.34,3.15,0.34s3.46-0.38,3.61-0.59c0.15-0.21,4.36-3.31,5.71-4.55c1.35-1.24,4.96-8.82,4.81-9.27
						c-0.15-0.45,0-4.31,0.6-6.44c0.6-2.14,6.46-6.96,7.81-7.93c1.35-0.96,5.11-1.1,5.11-1.1s2.85,0.03,3.61,0.34
						c0.75,0.31,1.65,0.96,2.55,1.69c0.9,0.72,4.51,5.41,6.16,6.89s4.36,1.9,7.06,1.86c2.7-0.03,7.81-1.52,7.81-1.52
						s8.26-2.38,10.74-2.52c2.48-0.14,3.53-0.31,5.18,0.38s4.66,2.48,6.16,6.72c1.5,4.24,6.16,7.48,9.01,8.24
						c2.85,0.76,1.95,0.83,6.31,0.79c4.36-0.03,8.41-1.69,11.42-2.55c3-0.86,3.61-1.14,6.91-1.17s8.41,1.48,11.72,6.44
						c3.31,4.96,7.21,4.2,7.96,4.17c0.75-0.03,3-0.17,6.46-4.31c2.67-3.19,4.8-5.21,5.42-7.77"/>
					<path class="st9" d="M472.63,391.12c0-0.26-0.02-0.54-0.05-0.82"/>
				</g>
			</g>
			<g>
				<g>
					<path class="st9" d="M474.13,390.17c0,0,0.13-0.27,0.36-0.74"/>
					<path class="st18" d="M475.97,386.49c1-1.93,2.23-4.18,3.23-5.62c2.03-2.95,5.07-5.81,10.48-5.89s9.46,4.34,9.46,4.34
						l4.39,5.82c0,0,0.68,0.62,3.72,0.7s6.08-0.54,6.08-0.54l10.89-2.39c0,0,3.76-0.81,5.18-0.83s1.8-0.07,3.98,0.83
						c2.18,0.9,6.16,6.81,6.54,7.37s1.95,3.38,3,3.72c1.05,0.34,3,2.55,4.51,3.1c1.5,0.55,2.85,1.21,5.86,1.31
						c3,0.1,8.32-1.5,8.32-1.5l7.31-2.36c0,0,1.5-0.31,3.46-0.24c1.95,0.07,3,0.45,3,0.45l10.97,8.79l1.35,1.07
						c0,0,2.1,0.34,3.15,0.34s3.46-0.38,3.61-0.59c0.15-0.21,4.36-3.31,5.71-4.55c1.35-1.24,4.96-8.82,4.81-9.27
						c-0.15-0.45,0-4.31,0.6-6.44c0.6-2.14,6.46-6.96,7.81-7.93c1.35-0.96,5.11-1.1,5.11-1.1s2.85,0.03,3.61,0.34
						c0.75,0.31,1.65,0.96,2.55,1.69c0.9,0.72,4.51,5.41,6.16,6.89c1.65,1.48,4.36,1.9,7.06,1.86c2.7-0.03,7.81-1.52,7.81-1.52
						s8.26-2.38,10.74-2.52c2.48-0.14,3.53-0.31,5.18,0.38s4.66,2.48,6.16,6.72c1.5,4.24,6.16,7.48,9.01,8.24s1.95,0.83,6.31,0.79
						c4.36-0.03,8.41-1.69,11.42-2.55c3-0.86,3.61-1.14,6.91-1.17s8.41,1.48,11.72,6.44c3.31,4.96,7.21,4.2,7.96,4.17
						c0.75-0.03,3-0.17,6.46-4.31c2.67-3.19,4.8-5.21,5.42-7.77"/>
					<path class="st9" d="M733.18,391.12c0-0.26-0.02-0.54-0.05-0.82"/>
				</g>
			</g>
			<g>
				<g>
					<path class="st9" d="M734.68,390.17c0,0,0.13-0.27,0.36-0.74"/>
					<path class="st18" d="M736.52,386.49c1-1.93,2.23-4.18,3.23-5.62c2.03-2.95,5.07-5.81,10.48-5.89s9.46,4.34,9.46,4.34
						l4.39,5.82c0,0,0.68,0.62,3.72,0.7s6.08-0.54,6.08-0.54l10.89-2.39c0,0,3.76-0.81,5.18-0.83c1.43-0.02,1.8-0.07,3.98,0.83
						c2.18,0.9,6.16,6.81,6.54,7.37c0.38,0.57,1.95,3.38,3,3.72s3,2.55,4.51,3.1c1.5,0.55,2.85,1.21,5.86,1.31
						c3,0.1,8.32-1.5,8.32-1.5l7.31-2.36c0,0,1.5-0.31,3.46-0.24c1.95,0.07,3,0.45,3,0.45l10.97,8.79l1.35,1.07
						c0,0,2.1,0.34,3.16,0.34s3.46-0.38,3.61-0.59s4.36-3.31,5.71-4.55c1.35-1.24,4.96-8.82,4.81-9.27c-0.15-0.45,0-4.31,0.6-6.44
						c0.6-2.14,6.46-6.96,7.81-7.93c1.35-0.96,5.11-1.1,5.11-1.1s2.85,0.03,3.61,0.34c0.75,0.31,1.65,0.96,2.55,1.69
						c0.9,0.72,4.51,5.41,6.16,6.89s4.36,1.9,7.06,1.86c2.7-0.03,7.81-1.52,7.81-1.52s8.26-2.38,10.74-2.52
						c2.48-0.14,3.53-0.31,5.18,0.38s4.66,2.48,6.16,6.72c1.5,4.24,6.16,7.48,9.01,8.24s1.95,0.83,6.31,0.79
						c4.36-0.03,8.41-1.69,11.42-2.55c3-0.86,3.61-1.14,6.91-1.17c3.31-0.03,8.41,1.48,11.72,6.44c3.31,4.96,7.21,4.2,7.96,4.17
						c0.75-0.03,3-0.17,6.46-4.31c2.67-3.19,4.8-5.21,5.42-7.77"/>
					<path class="st9" d="M993.73,391.12c0-0.26-0.02-0.54-0.05-0.82"/>
				</g>
			</g>
			<g>
				<g>
					<path class="st9" d="M995.22,390.17c0,0,0.13-0.27,0.36-0.74"/>
					<path class="st19" d="M997.06,386.5c1-1.93,2.24-4.19,3.23-5.63c2.03-2.95,5.07-5.81,10.48-5.89s9.46,4.34,9.46,4.34l4.39,5.82
						c0,0,0.68,0.62,3.72,0.7s6.08-0.54,6.08-0.54l10.89-2.39c0,0,3.76-0.81,5.18-0.83s1.8-0.07,3.98,0.83
						c2.18,0.9,6.16,6.81,6.54,7.37s1.95,3.38,3,3.72c1.05,0.34,3,2.55,4.51,3.1c1.5,0.55,2.85,1.21,5.86,1.31
						c3,0.1,8.32-1.5,8.32-1.5l7.31-2.36c0,0,1.5-0.31,3.46-0.24c1.95,0.07,3,0.45,3,0.45l10.97,8.79l1.35,1.07
						c0,0,2.1,0.34,3.15,0.34s3.46-0.38,3.61-0.59c0.15-0.21,4.36-3.31,5.71-4.55c1.35-1.24,4.96-8.82,4.81-9.27
						c-0.15-0.45,0-4.31,0.6-6.44c0.6-2.14,6.46-6.96,7.81-7.93s5.11-1.1,5.11-1.1s2.85,0.03,3.61,0.34
						c0.75,0.31,1.65,0.96,2.55,1.69c0.9,0.72,4.51,5.41,6.16,6.89s4.36,1.9,7.06,1.86c2.7-0.03,7.81-1.52,7.81-1.52
						s8.26-2.38,10.74-2.52c2.48-0.14,3.53-0.31,5.18,0.38s4.66,2.48,6.16,6.72c1.5,4.24,6.16,7.48,9.01,8.24
						c2.85,0.76,1.95,0.83,6.31,0.79c3.3-0.03,6.43-0.98,9.06-1.82"/>
					<path class="st9" d="M1214.83,395.63c0.27-0.08,0.53-0.16,0.78-0.23"/>
				</g>
			</g>
		</g>
		<g class="st8">
			<g>
				<g>
					<path class="st9" d="M213.58,817.09c0,0,0.2-0.42,0.54-1.1"/>
					<path class="st20" d="M216.35,811.65c0.78-1.43,1.6-2.85,2.3-3.87c2.03-2.95,5.07-5.81,10.48-5.89
						c5.41-0.08,9.46,4.34,9.46,4.34l4.39,5.82c0,0,0.68,0.62,3.72,0.7c3.04,0.08,6.08-0.54,6.08-0.54l10.89-2.39
						c0,0,3.76-0.81,5.18-0.83c1.43-0.02,1.8-0.07,3.98,0.83c2.18,0.9,6.16,6.81,6.54,7.37c0.38,0.57,1.95,3.38,3,3.72
						s3,2.55,4.51,3.1c1.5,0.55,2.85,1.21,5.86,1.31c3,0.1,8.32-1.5,8.32-1.5l7.31-2.36c0,0,1.5-0.31,3.46-0.24
						c1.95,0.07,3,0.45,3,0.45l10.97,8.79l1.35,1.07c0,0,2.1,0.34,3.15,0.34s3.46-0.38,3.61-0.59c0.15-0.21,4.36-3.31,5.71-4.55
						c1.35-1.24,4.96-8.82,4.81-9.27c-0.15-0.45,0-4.31,0.6-6.44c0.6-2.14,6.46-6.96,7.81-7.93c1.35-0.96,5.11-1.1,5.11-1.1
						s2.85,0.03,3.61,0.34c0.75,0.31,1.65,0.96,2.55,1.69c0.9,0.72,4.51,5.41,6.16,6.89s4.36,1.9,7.06,1.86
						c2.7-0.03,7.81-1.52,7.81-1.52s8.26-2.38,10.74-2.52c2.48-0.14,3.53-0.31,5.18,0.38s4.66,2.48,6.16,6.72
						c1.5,4.24,6.16,7.48,9.01,8.24c2.85,0.76,1.95,0.83,6.31,0.79c4.36-0.03,8.41-1.69,11.42-2.55c3-0.86,3.61-1.14,6.91-1.17
						c3.31-0.03,8.41,1.48,11.72,6.44c3.31,4.96,7.21,4.2,7.96,4.17c0.75-0.03,3-0.17,6.46-4.31c2.27-2.71,4.14-4.58,5.04-6.65"/>
					<path class="st9" d="M472.62,818.44c0.02-0.39,0.01-0.79-0.04-1.22"/>
				</g>
			</g>
			<g>
				<g>
					<path class="st9" d="M474.13,817.09c0,0,0.2-0.42,0.54-1.1"/>
					<path class="st20" d="M476.9,811.65c0.78-1.43,1.6-2.85,2.3-3.87c2.03-2.95,5.07-5.81,10.48-5.89
						c5.41-0.08,9.46,4.34,9.46,4.34l4.39,5.82c0,0,0.68,0.62,3.72,0.7c3.04,0.08,6.08-0.54,6.08-0.54l10.89-2.39
						c0,0,3.76-0.81,5.18-0.83c1.43-0.02,1.8-0.07,3.98,0.83c2.18,0.9,6.16,6.81,6.54,7.37s1.95,3.38,3,3.72
						c1.05,0.34,3,2.55,4.51,3.1c1.5,0.55,2.85,1.21,5.86,1.31c3,0.1,8.32-1.5,8.32-1.5l7.31-2.36c0,0,1.5-0.31,3.46-0.24
						c1.95,0.07,3,0.45,3,0.45l10.97,8.79l1.35,1.07c0,0,2.1,0.34,3.15,0.34s3.46-0.38,3.61-0.59c0.15-0.21,4.36-3.31,5.71-4.55
						c1.35-1.24,4.96-8.82,4.81-9.27c-0.15-0.45,0-4.31,0.6-6.44c0.6-2.14,6.46-6.96,7.81-7.93c1.35-0.96,5.11-1.1,5.11-1.1
						s2.85,0.03,3.61,0.34c0.75,0.31,1.65,0.96,2.55,1.69c0.9,0.72,4.51,5.41,6.16,6.89c1.65,1.48,4.36,1.9,7.06,1.86
						c2.7-0.03,7.81-1.52,7.81-1.52s8.26-2.38,10.74-2.52c2.48-0.14,3.53-0.31,5.18,0.38s4.66,2.48,6.16,6.72
						c1.5,4.24,6.16,7.48,9.01,8.24s1.95,0.83,6.31,0.79c4.36-0.03,8.41-1.69,11.42-2.55c3-0.86,3.61-1.14,6.91-1.17
						c3.31-0.03,8.41,1.48,11.72,6.44c3.31,4.96,7.21,4.2,7.96,4.17s3-0.17,6.46-4.31c2.27-2.71,4.14-4.58,5.04-6.65"/>
					<path class="st9" d="M733.17,818.44c0.02-0.39,0.01-0.79-0.04-1.22"/>
				</g>
			</g>
			<g>
				<g>
					<path class="st9" d="M734.68,817.09c0,0,0.2-0.42,0.54-1.1"/>
					<path class="st20" d="M737.45,811.65c0.78-1.43,1.6-2.85,2.3-3.87c2.03-2.95,5.07-5.81,10.48-5.89
						c5.41-0.08,9.46,4.34,9.46,4.34l4.39,5.82c0,0,0.68,0.62,3.72,0.7c3.04,0.08,6.08-0.54,6.08-0.54l10.89-2.39
						c0,0,3.76-0.81,5.18-0.83c1.43-0.02,1.8-0.07,3.98,0.83c2.18,0.9,6.16,6.81,6.54,7.37c0.38,0.57,1.95,3.38,3,3.72
						s3,2.55,4.51,3.1c1.5,0.55,2.85,1.21,5.86,1.31c3,0.1,8.32-1.5,8.32-1.5l7.31-2.36c0,0,1.5-0.31,3.46-0.24
						c1.95,0.07,3,0.45,3,0.45l10.97,8.79l1.35,1.07c0,0,2.1,0.34,3.16,0.34s3.46-0.38,3.61-0.59c0.15-0.21,4.36-3.31,5.71-4.55
						c1.35-1.24,4.96-8.82,4.81-9.27c-0.15-0.45,0-4.31,0.6-6.44c0.6-2.14,6.46-6.96,7.81-7.93c1.35-0.96,5.11-1.1,5.11-1.1
						s2.85,0.03,3.61,0.34c0.75,0.31,1.65,0.96,2.55,1.69c0.9,0.72,4.51,5.41,6.16,6.89s4.36,1.9,7.06,1.86
						c2.7-0.03,7.81-1.52,7.81-1.52s8.26-2.38,10.74-2.52c2.48-0.14,3.53-0.31,5.18,0.38s4.66,2.48,6.16,6.72
						c1.5,4.24,6.16,7.48,9.01,8.24s1.95,0.83,6.31,0.79c4.36-0.03,8.41-1.69,11.42-2.55c3-0.86,3.61-1.14,6.91-1.17
						c3.31-0.03,8.41,1.48,11.72,6.44c3.31,4.96,7.21,4.2,7.96,4.17s3-0.17,6.46-4.31c2.27-2.71,4.14-4.58,5.04-6.65"/>
					<path class="st9" d="M993.72,818.44c0.02-0.39,0.01-0.79-0.04-1.22"/>
				</g>
			</g>
			<g>
				<g>
					<path class="st9" d="M995.22,817.09c0,0,0.2-0.42,0.54-1.1"/>
					<path class="st21" d="M998,811.64c0.77-1.43,1.59-2.85,2.29-3.86c2.03-2.95,5.07-5.81,10.48-5.89
						c5.41-0.08,9.46,4.34,9.46,4.34l4.39,5.82c0,0,0.68,0.62,3.72,0.7c3.04,0.08,6.08-0.54,6.08-0.54l10.89-2.39
						c0,0,3.76-0.81,5.18-0.83c1.43-0.02,1.8-0.07,3.98,0.83s6.16,6.81,6.54,7.37s1.95,3.38,3,3.72c1.05,0.34,3,2.55,4.51,3.1
						c1.5,0.55,2.85,1.21,5.86,1.31c3,0.1,8.32-1.5,8.32-1.5l7.31-2.36c0,0,1.5-0.31,3.46-0.24c1.95,0.07,3,0.45,3,0.45l10.97,8.79
						l1.35,1.07c0,0,2.1,0.34,3.15,0.34s3.46-0.38,3.61-0.59c0.15-0.21,4.36-3.31,5.71-4.55c1.35-1.24,4.96-8.82,4.81-9.27
						c-0.15-0.45,0-4.31,0.6-6.44c0.6-2.14,6.46-6.96,7.81-7.93s5.11-1.1,5.11-1.1s2.85,0.03,3.61,0.34
						c0.75,0.31,1.65,0.96,2.55,1.69c0.9,0.72,4.51,5.41,6.16,6.89s4.36,1.9,7.06,1.86c2.7-0.03,7.81-1.52,7.81-1.52
						s8.26-2.38,10.74-2.52c2.48-0.14,3.53-0.31,5.18,0.38s4.66,2.48,6.16,6.72c1.5,4.24,6.16,7.48,9.01,8.24
						c2.85,0.76,1.95,0.83,6.31,0.79c4.36-0.03,8.41-1.69,11.42-2.55c1.46-0.42,2.35-0.7,3.26-0.88"/>
					<path class="st9" d="M1221.3,821.18c0.37-0.01,0.77-0.02,1.22-0.03"/>
				</g>
			</g>
		</g>
		<g class="st8">
			<g>
				<g>
					<g>
						<path class="st9" d="M655.65,685.44c0,0-0.02,0.32-0.06,0.9"/>
						<path class="st22" d="M655.34,689.98c-0.43,6.14-1.21,17-1.8,23.03c-0.84,8.73-2.11,17.23-4.36,17.46s-3.94-12.87-3.94-12.87
							l-1.83-17.23c0,0-0.28-1.84-1.55-2.07c-1.27-0.23-2.53,1.61-2.53,1.61l-4.53,7.09c0,0-1.56,2.4-2.16,2.45
							c-0.59,0.05-0.75,0.2-1.66-2.45s-2.56-20.17-2.72-21.86c-0.16-1.69-0.81-10.01-1.25-11.03c-0.44-1.02-1.25-7.56-1.87-9.19
							c-0.62-1.63-1.19-3.57-2.44-3.88s-3.46,4.45-3.46,4.45l-3.04,6.99c0,0-0.62,0.92-1.44,0.71c-0.81-0.2-1.25-1.33-1.25-1.33
							l-4.56-26.05l-0.56-3.17c0,0-0.87-1.02-1.31-1.02c-0.44,0-1.44,1.12-1.5,1.74s-1.81,9.81-2.37,13.48
							c-0.56,3.68-2.06,26.15-2,27.47c0.06,1.33,0,12.77-0.25,19.1c-0.25,6.33-2.69,20.63-3.25,23.49
							c-0.56,2.86-2.12,3.27-2.12,3.27s-1.19-0.1-1.5-1.02s-0.69-2.86-1.06-5c-0.37-2.14-1.87-16.04-2.56-20.43
							c-0.69-4.39-1.81-5.62-2.94-5.52c-1.12,0.1-3.25,4.49-3.25,4.49s-3.44,7.05-4.47,7.46c-1.03,0.41-1.47,0.92-2.16-1.12
							c-0.69-2.04-1.94-7.35-2.56-19.92c-0.62-12.56-2.56-22.16-3.75-24.41c-1.19-2.25-0.81-2.45-2.62-2.35
							c-1.81,0.1-3.5,5-4.75,7.56c-1.25,2.55-1.5,3.37-2.87,3.47c-1.37,0.1-3.5-4.39-4.87-19.1c-1.37-14.71-3-12.46-3.31-12.36
							c-0.31,0.1-1.25,0.51-2.69,12.77c-1.32,11.26-2.32,17.6-2.33,27.59"/>
						<path class="st9" d="M547.94,684.14c0,0.3,0.01,0.6,0.01,0.91"/>
					</g>
				</g>
				<g>
					<g>
						<path class="st9" d="M547.3,685.44c0,0-0.02,0.32-0.06,0.9"/>
						<path class="st22" d="M546.99,689.98c-0.43,6.14-1.21,17-1.8,23.03c-0.84,8.73-2.11,17.23-4.36,17.46s-3.94-12.87-3.94-12.87
							l-1.83-17.23c0,0-0.28-1.84-1.55-2.07c-1.27-0.23-2.53,1.61-2.53,1.61l-4.53,7.09c0,0-1.56,2.4-2.16,2.45
							c-0.59,0.05-0.75,0.2-1.66-2.45s-2.56-20.17-2.72-21.86c-0.16-1.69-0.81-10.01-1.25-11.03c-0.44-1.02-1.25-7.56-1.87-9.19
							c-0.62-1.63-1.19-3.57-2.44-3.88s-3.46,4.45-3.46,4.45l-3.04,6.99c0,0-0.62,0.92-1.44,0.71c-0.81-0.2-1.25-1.33-1.25-1.33
							l-4.56-26.05l-0.56-3.17c0,0-0.87-1.02-1.31-1.02c-0.44,0-1.44,1.12-1.5,1.74s-1.81,9.81-2.37,13.48
							c-0.56,3.68-2.06,26.15-2,27.47c0.06,1.33,0,12.77-0.25,19.1c-0.25,6.33-2.69,20.63-3.25,23.49
							c-0.56,2.86-2.12,3.27-2.12,3.27s-1.19-0.1-1.5-1.02s-0.69-2.86-1.06-5s-1.87-16.04-2.56-20.43
							c-0.69-4.39-1.81-5.62-2.94-5.52c-1.12,0.1-3.25,4.49-3.25,4.49s-3.44,7.05-4.47,7.46c-1.03,0.41-1.47,0.92-2.16-1.12
							c-0.69-2.04-1.94-7.35-2.56-19.92c-0.62-12.56-2.56-22.16-3.75-24.41c-1.19-2.25-0.81-2.45-2.62-2.35
							c-1.81,0.1-3.5,5-4.75,7.56c-1.25,2.55-1.5,3.37-2.87,3.47c-1.37,0.1-3.5-4.39-4.87-19.1c-1.37-14.71-3-12.46-3.31-12.36
							c-0.31,0.1-1.25,0.51-2.69,12.77c-1.32,11.26-2.32,17.6-2.33,27.59"/>
						<path class="st9" d="M439.59,684.14c0,0.3,0.01,0.6,0.01,0.91"/>
					</g>
				</g>
				<g>
					<g>
						<path class="st9" d="M438.95,685.44c0,0-0.02,0.32-0.06,0.9"/>
						<path class="st22" d="M438.64,689.98c-0.43,6.14-1.21,17-1.8,23.03c-0.84,8.73-2.11,17.23-4.36,17.46s-3.94-12.87-3.94-12.87
							l-1.83-17.23c0,0-0.28-1.84-1.55-2.07c-1.27-0.23-2.53,1.61-2.53,1.61l-4.53,7.09c0,0-1.56,2.4-2.16,2.45
							c-0.59,0.05-0.75,0.2-1.66-2.45s-2.56-20.17-2.72-21.86c-0.16-1.69-0.81-10.01-1.25-11.03c-0.44-1.02-1.25-7.56-1.87-9.19
							c-0.62-1.63-1.19-3.57-2.44-3.88s-3.46,4.45-3.46,4.45l-3.04,6.99c0,0-0.62,0.92-1.44,0.71c-0.81-0.2-1.25-1.33-1.25-1.33
							l-4.56-26.05l-0.56-3.17c0,0-0.87-1.02-1.31-1.02c-0.44,0-1.44,1.12-1.5,1.74s-1.81,9.81-2.37,13.48
							c-0.56,3.68-2.06,26.15-2,27.47c0.06,1.33,0,12.77-0.25,19.1c-0.25,6.33-2.69,20.63-3.25,23.49
							c-0.56,2.86-2.12,3.27-2.12,3.27s-1.19-0.1-1.5-1.02s-0.69-2.86-1.06-5s-1.87-16.04-2.56-20.43
							c-0.69-4.39-1.81-5.62-2.94-5.52c-1.12,0.1-3.25,4.49-3.25,4.49s-3.44,7.05-4.47,7.46c-1.03,0.41-1.47,0.92-2.16-1.12
							c-0.69-2.04-1.94-7.35-2.56-19.92c-0.62-12.56-2.56-22.16-3.75-24.41c-1.19-2.25-0.81-2.45-2.62-2.35
							c-1.81,0.1-3.5,5-4.75,7.56c-1.25,2.55-1.5,3.37-2.87,3.47c-1.37,0.1-3.5-4.39-4.87-19.1c-1.37-14.71-3-12.46-3.31-12.36
							c-0.31,0.1-1.25,0.51-2.69,12.77c-1.32,11.26-2.32,17.6-2.33,27.59"/>
						<path class="st9" d="M331.24,684.14c0,0.3,0.01,0.6,0.01,0.91"/>
					</g>
				</g>
				<g>
					<g>
						<path class="st9" d="M330.61,685.44c0,0-0.02,0.32-0.06,0.9"/>
						<path class="st22" d="M330.29,689.98c-0.43,6.14-1.21,17-1.8,23.03c-0.84,8.73-2.11,17.23-4.36,17.46s-3.94-12.87-3.94-12.87
							l-1.83-17.23c0,0-0.28-1.84-1.55-2.07c-1.27-0.23-2.53,1.61-2.53,1.61l-4.53,7.09c0,0-1.56,2.4-2.16,2.45
							c-0.59,0.05-0.75,0.2-1.66-2.45s-2.56-20.17-2.72-21.86c-0.16-1.69-0.81-10.01-1.25-11.03c-0.44-1.02-1.25-7.56-1.87-9.19
							c-0.62-1.63-1.19-3.57-2.44-3.88s-3.46,4.45-3.46,4.45l-3.04,6.99c0,0-0.62,0.92-1.44,0.71c-0.81-0.2-1.25-1.33-1.25-1.33
							l-4.56-26.05l-0.56-3.17c0,0-0.87-1.02-1.31-1.02c-0.44,0-1.44,1.12-1.5,1.74s-1.81,9.81-2.37,13.48
							c-0.56,3.68-2.06,26.15-2,27.47c0.06,1.33,0,12.77-0.25,19.1c-0.25,6.33-2.69,20.63-3.25,23.49
							c-0.56,2.86-2.12,3.27-2.12,3.27s-1.19-0.1-1.5-1.02s-0.69-2.86-1.06-5s-1.87-16.04-2.56-20.43
							c-0.69-4.39-1.81-5.62-2.94-5.52c-1.12,0.1-3.25,4.49-3.25,4.49s-3.44,7.05-4.47,7.46c-1.03,0.41-1.47,0.92-2.16-1.12
							c-0.69-2.04-1.94-7.35-2.56-19.92c-0.62-12.56-2.56-22.16-3.75-24.41c-1.19-2.25-0.81-2.45-2.62-2.35
							c-1.81,0.1-3.5,5-4.75,7.56c-1.25,2.55-1.5,3.37-2.87,3.47c-1.37,0.1-3.5-4.39-4.87-19.1c-1.37-14.71-3-12.46-3.31-12.36
							c-0.31,0.1-1.25,0.51-2.69,12.77c-1.32,11.26-2.32,17.6-2.33,27.59"/>
						<path class="st9" d="M222.89,684.14c0,0.3,0.01,0.6,0.01,0.91"/>
					</g>
				</g>
			</g>
			<g>
				<g>
					<g>
						<path class="st9" d="M1089.08,685.44c0,0-0.02,0.32-0.06,0.9"/>
						<path class="st22" d="M1088.77,689.98c-0.43,6.14-1.21,17-1.8,23.03c-0.84,8.73-2.11,17.23-4.36,17.46s-3.94-12.87-3.94-12.87
							l-1.83-17.23c0,0-0.28-1.84-1.55-2.07c-1.27-0.23-2.53,1.61-2.53,1.61l-4.53,7.09c0,0-1.56,2.4-2.16,2.45s-0.75,0.2-1.66-2.45
							c-0.91-2.66-2.56-20.17-2.72-21.86c-0.16-1.69-0.81-10.01-1.25-11.03c-0.44-1.02-1.25-7.56-1.87-9.19
							c-0.62-1.63-1.19-3.57-2.44-3.88s-3.46,4.45-3.46,4.45l-3.04,6.99c0,0-0.62,0.92-1.44,0.71c-0.81-0.2-1.25-1.33-1.25-1.33
							l-4.56-26.05l-0.56-3.17c0,0-0.87-1.02-1.31-1.02s-1.44,1.12-1.5,1.74c-0.06,0.61-1.81,9.81-2.37,13.48
							c-0.56,3.68-2.06,26.15-2,27.47c0.06,1.33,0,12.77-0.25,19.1c-0.25,6.33-2.69,20.63-3.25,23.49
							c-0.56,2.86-2.12,3.27-2.12,3.27s-1.19-0.1-1.5-1.02c-0.31-0.92-0.69-2.86-1.06-5s-1.87-16.04-2.56-20.43
							c-0.69-4.39-1.81-5.62-2.94-5.52c-1.12,0.1-3.25,4.49-3.25,4.49s-3.44,7.05-4.47,7.46c-1.03,0.41-1.47,0.92-2.16-1.12
							c-0.69-2.04-1.94-7.35-2.56-19.92c-0.62-12.56-2.56-22.16-3.75-24.41s-0.81-2.45-2.62-2.35c-1.81,0.1-3.5,5-4.75,7.56
							c-1.25,2.55-1.5,3.37-2.87,3.47c-1.37,0.1-3.5-4.39-4.87-19.1c-1.37-14.71-3-12.46-3.31-12.36c-0.31,0.1-1.25,0.51-2.69,12.77
							c-1.32,11.26-2.32,17.6-2.33,27.59"/>
						<path class="st9" d="M981.36,684.14c0,0.3,0.01,0.6,0.01,0.91"/>
					</g>
				</g>
				<g>
					<g>
						<path class="st9" d="M980.73,685.44c0,0-0.02,0.32-0.06,0.9"/>
						<path class="st22" d="M980.42,689.98c-0.43,6.14-1.21,17-1.8,23.03c-0.84,8.73-2.11,17.23-4.36,17.46s-3.94-12.87-3.94-12.87
							l-1.83-17.23c0,0-0.28-1.84-1.55-2.07s-2.53,1.61-2.53,1.61l-4.53,7.09c0,0-1.56,2.4-2.16,2.45s-0.75,0.2-1.66-2.45
							s-2.56-20.17-2.72-21.86c-0.16-1.69-0.81-10.01-1.25-11.03c-0.44-1.02-1.25-7.56-1.87-9.19c-0.62-1.63-1.19-3.57-2.44-3.88
							s-3.46,4.45-3.46,4.45l-3.04,6.99c0,0-0.62,0.92-1.44,0.71c-0.81-0.2-1.25-1.33-1.25-1.33l-4.56-26.05l-0.56-3.17
							c0,0-0.87-1.02-1.31-1.02s-1.44,1.12-1.5,1.74s-1.81,9.81-2.37,13.48c-0.56,3.68-2.06,26.15-2,27.47
							c0.06,1.33,0,12.77-0.25,19.1c-0.25,6.33-2.69,20.63-3.25,23.49c-0.56,2.86-2.12,3.27-2.12,3.27s-1.19-0.1-1.5-1.02
							s-0.69-2.86-1.06-5s-1.87-16.04-2.56-20.43s-1.81-5.62-2.94-5.52c-1.12,0.1-3.25,4.49-3.25,4.49s-3.44,7.05-4.47,7.46
							c-1.03,0.41-1.47,0.92-2.16-1.12c-0.69-2.04-1.94-7.35-2.56-19.92c-0.62-12.56-2.56-22.16-3.75-24.41
							c-1.19-2.25-0.81-2.45-2.62-2.35c-1.81,0.1-3.5,5-4.75,7.56c-1.25,2.55-1.5,3.37-2.87,3.47c-1.37,0.1-3.5-4.39-4.87-19.1
							c-1.37-14.71-3-12.46-3.31-12.36c-0.31,0.1-1.25,0.51-2.69,12.77c-1.32,11.26-2.32,17.6-2.33,27.59"/>
						<path class="st9" d="M873.02,684.14c0,0.3,0.01,0.6,0.01,0.91"/>
					</g>
				</g>
				<g>
					<g>
						<path class="st9" d="M872.38,685.44c0,0-0.02,0.32-0.06,0.9"/>
						<path class="st22" d="M872.07,689.98c-0.43,6.14-1.21,17-1.8,23.03c-0.84,8.73-2.11,17.23-4.36,17.46s-3.94-12.87-3.94-12.87
							l-1.83-17.23c0,0-0.28-1.84-1.55-2.07c-1.27-0.23-2.53,1.61-2.53,1.61l-4.53,7.09c0,0-1.56,2.4-2.16,2.45s-0.75,0.2-1.66-2.45
							c-0.91-2.66-2.56-20.17-2.72-21.86c-0.16-1.69-0.81-10.01-1.25-11.03c-0.44-1.02-1.25-7.56-1.87-9.19
							c-0.62-1.63-1.19-3.57-2.44-3.88S836,665.5,836,665.5l-3.04,6.99c0,0-0.62,0.92-1.44,0.71c-0.81-0.2-1.25-1.33-1.25-1.33
							l-4.56-26.05l-0.56-3.17c0,0-0.87-1.02-1.31-1.02s-1.44,1.12-1.5,1.74s-1.81,9.81-2.37,13.48c-0.56,3.68-2.06,26.15-2,27.47
							c0.06,1.33,0,12.77-0.25,19.1c-0.25,6.33-2.69,20.63-3.25,23.49c-0.56,2.86-2.12,3.27-2.12,3.27s-1.19-0.1-1.5-1.02
							s-0.69-2.86-1.06-5s-1.87-16.04-2.56-20.43s-1.81-5.62-2.94-5.52c-1.12,0.1-3.25,4.49-3.25,4.49s-3.44,7.05-4.47,7.46
							c-1.03,0.41-1.47,0.92-2.16-1.12c-0.69-2.04-1.94-7.35-2.56-19.92c-0.62-12.56-2.56-22.16-3.75-24.41
							c-1.19-2.25-0.81-2.45-2.62-2.35c-1.81,0.1-3.5,5-4.75,7.56c-1.25,2.55-1.5,3.37-2.87,3.47c-1.37,0.1-3.5-4.39-4.87-19.1
							c-1.37-14.71-3-12.46-3.31-12.36c-0.31,0.1-1.25,0.51-2.69,12.77c-1.32,11.26-2.32,17.6-2.33,27.59"/>
						<path class="st9" d="M764.67,684.14c0,0.3,0.01,0.6,0.01,0.91"/>
					</g>
				</g>
				<g>
					<g>
						<path class="st9" d="M764.03,685.44c0,0-0.02,0.32-0.06,0.9"/>
						<path class="st22" d="M763.72,689.98c-0.43,6.14-1.21,17-1.8,23.03c-0.84,8.73-2.11,17.23-4.36,17.46s-3.94-12.87-3.94-12.87
							l-1.83-17.23c0,0-0.28-1.84-1.55-2.07c-1.27-0.23-2.53,1.61-2.53,1.61l-4.53,7.09c0,0-1.56,2.4-2.16,2.45s-0.75,0.2-1.66-2.45
							c-0.91-2.66-2.56-20.17-2.72-21.86c-0.16-1.69-0.81-10.01-1.25-11.03c-0.44-1.02-1.25-7.56-1.87-9.19
							c-0.62-1.63-1.19-3.57-2.44-3.88s-3.46,4.45-3.46,4.45l-3.04,6.99c0,0-0.62,0.92-1.44,0.71c-0.81-0.2-1.25-1.33-1.25-1.33
							l-4.56-26.05l-0.56-3.17c0,0-0.87-1.02-1.31-1.02s-1.44,1.12-1.5,1.74s-1.81,9.81-2.37,13.48c-0.56,3.68-2.06,26.15-2,27.47
							c0.06,1.33,0,12.77-0.25,19.1c-0.25,6.33-2.69,20.63-3.25,23.49c-0.56,2.86-2.12,3.27-2.12,3.27s-1.19-0.1-1.5-1.02
							s-0.69-2.86-1.06-5s-1.87-16.04-2.56-20.43s-1.81-5.62-2.94-5.52c-1.12,0.1-3.25,4.49-3.25,4.49s-3.44,7.05-4.47,7.46
							c-1.03,0.41-1.47,0.92-2.16-1.12c-0.69-2.04-1.94-7.35-2.56-19.92c-0.62-12.56-2.56-22.16-3.75-24.41
							c-1.19-2.25-0.81-2.45-2.62-2.35c-1.81,0.1-3.5,5-4.75,7.56c-1.25,2.55-1.5,3.37-2.87,3.47c-1.37,0.1-3.5-4.39-4.87-19.1
							c-1.37-14.71-3-12.46-3.31-12.36c-0.31,0.1-1.25,0.51-2.69,12.77c-1.32,11.26-2.32,17.6-2.33,27.59"/>
						<path class="st9" d="M656.32,684.14c0,0.3,0.01,0.6,0.01,0.91"/>
					</g>
				</g>
			</g>
			<g>
				<g>
					<g>
						<path class="st9" d="M1213.23,669.93c-0.15,0.3-0.28,0.57-0.4,0.82"/>
						<path class="st23" d="M1210.54,673.39c-0.06,0.01-0.12,0.01-0.18,0.02c-1.37,0.1-3.5-4.39-4.87-19.1
							c-1.37-14.71-3-12.46-3.31-12.36c-0.31,0.1-1.25,0.51-2.69,12.77c-1.32,11.26-2.32,17.61-2.33,27.6"/>
						<path class="st9" d="M1197.16,684.14c0,0.3,0.01,0.6,0.01,0.91"/>
					</g>
				</g>
				<g>
					<g>
						<path class="st9" d="M1196.53,685.44c0,0-0.02,0.32-0.06,0.9"/>
						<path class="st22" d="M1196.22,689.98c-0.43,6.14-1.21,17-1.8,23.03c-0.84,8.73-2.11,17.23-4.36,17.46s-3.94-12.87-3.94-12.87
							l-1.83-17.23c0,0-0.28-1.84-1.55-2.07s-2.53,1.61-2.53,1.61l-4.53,7.09c0,0-1.56,2.4-2.16,2.45c-0.59,0.05-0.75,0.2-1.66-2.45
							s-2.56-20.17-2.72-21.86c-0.16-1.69-0.81-10.01-1.25-11.03c-0.44-1.02-1.25-7.56-1.87-9.19c-0.62-1.63-1.19-3.57-2.44-3.88
							s-3.46,4.45-3.46,4.45l-3.04,6.99c0,0-0.62,0.92-1.44,0.71c-0.81-0.2-1.25-1.33-1.25-1.33l-4.56-26.05l-0.56-3.17
							c0,0-0.87-1.02-1.31-1.02c-0.44,0-1.44,1.12-1.5,1.74c-0.06,0.61-1.81,9.81-2.37,13.48c-0.56,3.68-2.06,26.15-2,27.47
							c0.06,1.33,0,12.77-0.25,19.1c-0.25,6.33-2.69,20.63-3.25,23.49c-0.56,2.86-2.12,3.27-2.12,3.27s-1.19-0.1-1.5-1.02
							s-0.69-2.86-1.06-5c-0.38-2.14-1.87-16.04-2.56-20.43s-1.81-5.62-2.94-5.52c-1.12,0.1-3.25,4.49-3.25,4.49
							s-3.44,7.05-4.47,7.46c-1.03,0.41-1.47,0.92-2.16-1.12c-0.69-2.04-1.94-7.35-2.56-19.92c-0.62-12.56-2.56-22.16-3.75-24.41
							c-1.19-2.25-0.81-2.45-2.62-2.35c-1.81,0.1-3.5,5-4.75,7.56c-1.25,2.55-1.5,3.37-2.87,3.47c-1.37,0.1-3.5-4.39-4.87-19.1
							c-1.37-14.71-3-12.46-3.31-12.36c-0.31,0.1-1.25,0.51-2.69,12.77c-1.32,11.26-2.32,17.6-2.33,27.59"/>
						<path class="st9" d="M1088.81,684.14c0,0.3,0.01,0.6,0.01,0.91"/>
					</g>
				</g>
			</g>
		</g>
		<g class="st8">
			<path class="st47" d="M1251.9,332.54c12.01,0,21.75,9.74,21.75,21.75s-9.74,21.75-21.75,21.75"/>
			<polyline class="st47" points="1256.18,369.09 1250.97,376.17 1257.22,382.63 			"/>
		</g>
		<g class="st8">
			<path class="st47" d="M1251.9,433.93c12.01,0,21.75,9.74,21.75,21.75s-9.74,21.75-21.75,21.75"/>
			<polyline class="st47" points="1256.18,470.47 1250.97,477.55 1257.22,484.01 			"/>
		</g>
		<g class="st8">
			<path class="st47" d="M1251.9,535.31c12.01,0,21.75,9.74,21.75,21.75c0,12.01-9.74,21.75-21.75,21.75"/>
			<polyline class="st47" points="1256.18,571.85 1250.97,578.93 1257.22,585.39 			"/>
		</g>
		<g class="st8">
			<path class="st47" d="M1251.9,636.69c12.01,0,21.75,9.74,21.75,21.75c0,12.01-9.74,21.75-21.75,21.75"/>
			<polyline class="st47" points="1256.18,673.23 1250.97,680.31 1257.22,686.77 			"/>
		</g>
		<g class="st8">
			<path class="st47" d="M1251.9,738.07c12.01,0,21.75,9.74,21.75,21.75c0,12.01-9.74,21.75-21.75,21.75"/>
			<polyline class="st47" points="1256.18,774.61 1250.97,781.69 1257.22,788.15 			"/>
		</g>
		<g class="st8">
			<path class="st47" d="M1251.9,839.45c12.01,0,21.75,9.74,21.75,21.75c0,12.01-9.74,21.75-21.75,21.75"/>
			<polyline class="st47" points="1256.18,875.99 1250.97,883.08 1257.22,889.53 			"/>
		</g>
		<circle class="st48" cx="705.06" cy="816.52" r="7.71"/>
		<circle class="st48" cx="259.51" cy="809.79" r="7.71"/>
		<circle class="st48" cx="476.81" cy="780.52" r="7.71"/>
		<line class="st49" x1="1185.31" y1="397.55" x2="1185.31" y2="376.72"/>
		<line class="st49" x1="1170.54" y1="397.55" x2="1170.54" y2="376.72"/>
		<line class="st49" x1="1155.77" y1="397.55" x2="1155.77" y2="376.72"/>
		<line class="st49" x1="1141.01" y1="397.55" x2="1141.01" y2="376.72"/>
		<line class="st50" x1="957.65" y1="397.55" x2="957.65" y2="376.72"/>
		<line class="st50" x1="942.89" y1="397.55" x2="942.89" y2="376.72"/>
		<line class="st50" x1="928.12" y1="397.55" x2="928.12" y2="376.72"/>
		<line class="st50" x1="913.35" y1="397.55" x2="913.35" y2="376.72"/>
		<line class="st51" x1="739.3" y1="397.55" x2="739.3" y2="376.72"/>
		<line class="st51" x1="724.54" y1="397.55" x2="724.54" y2="376.72"/>
		<line class="st51" x1="709.77" y1="397.55" x2="709.77" y2="376.72"/>
		<line class="st51" x1="695" y1="397.55" x2="695" y2="376.72"/>
		<line class="st52" x1="513.56" y1="397.55" x2="513.56" y2="376.72"/>
		<line class="st52" x1="498.79" y1="397.55" x2="498.79" y2="376.72"/>
		<line class="st52" x1="484.03" y1="397.55" x2="484.03" y2="376.72"/>
		<line class="st52" x1="469.26" y1="397.55" x2="469.26" y2="376.72"/>
		<line class="st52" x1="291.37" y1="397.55" x2="291.37" y2="376.72"/>
		<line class="st53" x1="276.61" y1="397.55" x2="276.61" y2="376.72"/>
		<line class="st53" x1="261.84" y1="397.55" x2="261.84" y2="376.72"/>
		<line class="st53" x1="247.07" y1="397.55" x2="247.07" y2="376.72"/>
		<g class="st8">
			<text transform="matrix(1 0 0 1 1250.6377 1026.1116)" class="st58 st93 st94 st95">D.C.</text>
		</g>
		<path class="st54" d="M273.45,670.45v21.86c6-1.62,7.68-5.9,7.68-10.93S279.45,672.07,273.45,670.45z"/>
		<path class="st54" d="M490.45,669.77v23.22c6-0.23,11.21-5.33,11.21-11.61S496.45,669.99,490.45,669.77z"/>
		<path class="st54" d="M716.32,669.75c-1.77,0-2.88,0.41-4.88,1.11v21.04c2,0.71,3.11,1.11,4.88,1.11
			c6.43,0,11.63-5.21,11.63-11.63S722.75,669.75,716.32,669.75z"/>
		<path class="st55" d="M271.65,906.16c-0.82-0.73-1.86-1.32-2.92-1.66c-3.87-1.22-8,0.93-9.22,4.8c-1.22,3.87,0.93,8,4.8,9.22
			c1.07,0.34,2.26,0.44,3.35,0.32"/>
		<path class="st55" d="M500.32,917.93c0.79-0.75,1.48-1.74,1.9-2.77c1.55-3.75-0.24-8.05-4-9.59c-3.75-1.55-8.05,0.24-9.59,4
			c-0.43,1.03-0.63,2.21-0.6,3.31"/>
		<path class="st55" d="M707.84,905.69c-0.28,1.06-0.36,2.25-0.18,3.36c0.63,4.01,4.4,6.74,8.41,6.11c4.01-0.63,6.74-4.4,6.11-8.41
			c-0.17-1.1-0.61-2.22-1.21-3.14"/>
		<path class="st56" d="M938.4,895.59c-1.09-0.11-2.28,0.02-3.34,0.37c-3.85,1.28-5.94,5.44-4.66,9.29
			c1.28,3.85,5.44,5.94,9.29,4.66c1.06-0.35,2.09-0.96,2.9-1.7"/>
		<path class="st55" d="M1151.66,917.48c1.09-0.05,2.25-0.35,3.25-0.85c3.62-1.83,5.08-6.25,3.25-9.87s-6.25-5.08-9.87-3.25
			c-1,0.5-1.93,1.26-2.62,2.11"/>
		<path class="st55" d="M1152.8,911.62c0.82,0.73,1.86,1.32,2.92,1.66c3.87,1.22,8-0.93,9.22-4.8s-0.93-8-4.8-9.22
			c-1.07-0.34-2.26-0.44-3.35-0.32"/>
		<path class="st56" d="M938.36,901.43c-0.79,0.75-1.48,1.74-1.9,2.77c-1.55,3.75,0.24,8.05,4,9.59c3.75,1.55,8.05-0.24,9.59-4
			c0.43-1.03,0.63-2.21,0.6-3.31"/>
		<path class="st55" d="M727.16,908.93c0.28-1.06,0.36-2.25,0.18-3.36c-0.63-4.01-4.4-6.74-8.41-6.11c-4.01,0.63-6.74,4.4-6.11,8.41
			c0.17,1.1,0.61,2.22,1.21,3.14"/>
		<path class="st55" d="M476.55,915.86c1.09,0.11,2.28-0.02,3.34-0.37c3.85-1.28,5.94-5.44,4.66-9.29
			c-1.28-3.85-5.44-5.94-9.29-4.66c-1.06,0.35-2.09,0.96-2.9,1.7"/>
		<path class="st55" d="M260.13,895.55c-1.09,0.05-2.25,0.35-3.25,0.85c-3.62,1.83-5.08,6.25-3.25,9.87
			c1.83,3.62,6.25,5.08,9.87,3.25c1-0.5,1.93-1.26,2.62-2.11"/>
		<path class="st57" d="M935.44,669.75c-3.2,0-5.99,1.29-7.99,3.38v16.5c2,2.09,4.79,3.38,7.99,3.38c6.43,0,11.63-5.21,11.63-11.63
			S941.87,669.75,935.44,669.75z"/>
		<g class="st8">
			<path class="st58" d="M1154.4,669.75c-4.35,0-7.95,2.4-9.95,5.94v11.39c2,3.54,5.6,5.94,9.95,5.94c6.43,0,11.63-5.21,11.63-11.63
				S1160.82,669.75,1154.4,669.75z"/>
		</g>
		<circle class="st54" cx="260.9" cy="489.78" r="4.35"/>
		<circle class="st54" cx="274.35" cy="474.75" r="4.35"/>
		<circle class="st54" cx="478.99" cy="499.87" r="4.35"/>
		<circle class="st54" cx="487.49" cy="487.21" r="4.35"/>
		<circle class="st54" cx="702.09" cy="467.83" r="4.35"/>
		<circle class="st54" cx="714.55" cy="488.79" r="4.35"/>
		<circle class="st57" cx="924.93" cy="490.18" r="4.35"/>
		<circle class="st57" cx="939.36" cy="482.27" r="4.35"/>
		<circle class="st54" cx="1143.81" cy="472.38" r="4.35"/>
		<circle class="st54" cx="1151.91" cy="488.4" r="4.35"/>
		<g class="st8">
			<path class="st47" d="M1251.9,941.93c12.01,0,21.75,9.74,21.75,21.75c0,12.01-9.74,21.75-21.75,21.75"/>
			<polyline class="st47" points="1256.18,978.47 1250.97,985.55 1257.22,992.01 			"/>
		</g>
		<polygon class="st54" points="250.58,299.88 271.36,304.94 266.3,284.16 		"/>
		<polygon class="st54" points="479.52,287.23 496.56,274.3 477.24,265.13 		"/>
		<polygon class="st54" points="699.56,307.8 718.64,298.14 701.28,285.64 		"/>
		<polygon class="st57" points="927.06,277.27 939.28,294.82 949.24,275.89 		"/>
		<polygon class="st54" points="1149.33,309.51 1160.13,291.05 1138.78,289.95 		"/>
		<g class="st8">
			<line class="st59" x1="245.6" y1="589.33" x2="262.74" y2="572.19"/>
			<line class="st59" x1="250.99" y1="589.33" x2="268.13" y2="572.19"/>
			<line class="st59" x1="256.38" y1="589.33" x2="273.52" y2="572.19"/>
			<line class="st59" x1="261.76" y1="589.33" x2="278.9" y2="572.19"/>
		</g>
		<g class="st8">
			<line class="st59" x1="466.86" y1="579.04" x2="484" y2="561.9"/>
			<line class="st59" x1="472.24" y1="579.04" x2="489.38" y2="561.9"/>
			<line class="st59" x1="477.63" y1="579.04" x2="494.77" y2="561.9"/>
			<line class="st59" x1="483.02" y1="579.04" x2="500.16" y2="561.9"/>
			<line class="st59" x1="488.69" y1="579.04" x2="505.83" y2="561.9"/>
		</g>
		<g class="st8">
			<line class="st59" x1="683.63" y1="600.4" x2="700.77" y2="583.26"/>
			<line class="st59" x1="689.02" y1="600.4" x2="706.16" y2="583.26"/>
			<line class="st59" x1="694.41" y1="600.4" x2="711.55" y2="583.26"/>
			<line class="st59" x1="699.8" y1="600.4" x2="716.94" y2="583.26"/>
		</g>
		<g class="st8">
			<line class="st59" x1="901.72" y1="581.42" x2="918.86" y2="564.28"/>
			<line class="st59" x1="907.11" y1="581.42" x2="924.25" y2="564.28"/>
			<line class="st59" x1="912.5" y1="581.42" x2="929.64" y2="564.28"/>
			<line class="st59" x1="917.88" y1="581.42" x2="935.02" y2="564.28"/>
			<line class="st59" x1="923.57" y1="581.42" x2="940.71" y2="564.28"/>
			<line class="st59" x1="928.96" y1="581.42" x2="946.1" y2="564.28"/>
		</g>
		<g class="st8">
			<line class="st59" x1="1143.15" y1="600.01" x2="1160.29" y2="582.87"/>
			<line class="st59" x1="1148.53" y1="600.01" x2="1165.67" y2="582.87"/>
			<line class="st59" x1="1153.92" y1="600.01" x2="1171.06" y2="582.87"/>
			<line class="st59" x1="1159.31" y1="600.01" x2="1176.45" y2="582.87"/>
		</g>
		<g class="st8">
			<line class="st59" x1="1121.19" y1="600.01" x2="1138.33" y2="582.87"/>
			<line class="st59" x1="1126.58" y1="600.01" x2="1143.72" y2="582.87"/>
			<line class="st59" x1="1131.97" y1="600.01" x2="1149.11" y2="582.87"/>
			<line class="st59" x1="1137.36" y1="600.01" x2="1154.5" y2="582.87"/>
		</g>
		<line class="st60" x1="264.7" y1="791" x2="264.7" y2="830.18"/>
		<line class="st60" x1="478.77" y1="781.15" x2="502.11" y2="812.61"/>
		<line class="st60" x1="719.6" y1="782.18" x2="714.87" y2="821.07"/>
		<circle class="st61" cx="927.1" cy="812.96" r="7.71"/>
		<line class="st62" x1="945.61" y1="800.63" x2="913.96" y2="823.72"/>
		<circle class="st48" cx="1153.5" cy="802.67" r="7.71"/>
		<line class="st60" x1="1175.37" y1="814.15" x2="1136.2" y2="814.15"/>
		<g class="st8">
			<path class="st58" d="M248.05,996.4l6.56,5.52l-6.56,5.53l-1.51-1.54l4.82-3.97l-4.82-4L248.05,996.4z"/>
			<path class="st58" d="M260.5,996.4l6.56,5.52l-6.56,5.53l-1.51-1.54l4.82-3.97l-4.82-4L260.5,996.4z"/>
			<path class="st58" d="M272.96,996.4l6.56,5.52l-6.56,5.53l-1.51-1.54l4.82-3.97l-4.82-4L272.96,996.4z"/>
		</g>
		<g class="st8">
			<path class="st58" d="M486.44,988.39l6.56,5.52l-6.56,5.53l-1.51-1.54l4.82-3.97l-4.82-4L486.44,988.39z"/>
			<path class="st58" d="M498.89,988.39l6.56,5.52l-6.56,5.53l-1.51-1.54l4.82-3.97l-4.82-4L498.89,988.39z"/>
			<path class="st58" d="M511.34,988.39l6.56,5.52l-6.56,5.53l-1.51-1.54l4.82-3.97l-4.82-4L511.34,988.39z"/>
		</g>
		<g class="st8">
			<path class="st58" d="M668.36,991.71l6.56,5.52l-6.56,5.53l-1.51-1.54l4.82-3.97l-4.82-4L668.36,991.71z"/>
			<path class="st58" d="M680.81,991.71l6.56,5.52l-6.56,5.53l-1.51-1.54l4.82-3.97l-4.82-4L680.81,991.71z"/>
			<path class="st58" d="M693.26,991.71l6.56,5.52l-6.56,5.53l-1.51-1.54l4.82-3.97l-4.82-4L693.26,991.71z"/>
		</g>
		<g class="st8">
			<path class="st84" d="M894.44,1000.39l6.56,5.52l-6.56,5.53l-1.51-1.54l4.82-3.97l-4.82-4L894.44,1000.39z"/>
			<path class="st84" d="M906.89,1000.39l6.56,5.52l-6.56,5.53l-1.51-1.54l4.82-3.97l-4.82-4L906.89,1000.39z"/>
			<path class="st84" d="M919.34,1000.39l6.56,5.52l-6.56,5.53l-1.51-1.54l4.82-3.97l-4.82-4L919.34,1000.39z"/>
		</g>
		<g class="st8">
			<path class="st58" d="M1155.02,989.04l6.56,5.52l-6.56,5.53l-1.51-1.54l4.82-3.97l-4.82-4L1155.02,989.04z"/>
			<path class="st58" d="M1167.47,989.04l6.56,5.52l-6.56,5.53l-1.51-1.54l4.82-3.97l-4.82-4L1167.47,989.04z"/>
			<path class="st58" d="M1179.92,989.04l6.56,5.52l-6.56,5.53l-1.51-1.54l4.82-3.97l-4.82-4L1179.92,989.04z"/>
		</g>
		<g class="st8">
			<text transform="matrix(1 0 0 1 1148.0063 370.54)" class="st58 st93 st94 st95">yy</text>
		</g>
		<g class="st8">
			<text transform="matrix(1 0 0 1 924.3809 415.6323)" class="st84 st93 st94 st95">yy</text>
		</g>
		<g class="st8">
			<text transform="matrix(1 0 0 1 704.4473 367.9038)" class="st58 st93 st94 st95">yy</text>
		</g>
		<g class="st8">
			<text transform="matrix(1 0 0 1 475.0122 414.8403)" class="st58 st93 st94 st95">yy</text>
		</g>
		<text transform="matrix(1 0 0 1 255.605 370.54)" class="st54 st93 st94 st95">yy</text>
		<g class="st8">
			<text transform="matrix(1 0 0 1 1146.4248 564.9541)" class="st84 st93 st94 st95">yy</text>
		</g>
		<g class="st8">
			<text transform="matrix(1 0 0 1 922.7988 610.0439)" class="st84 st93 st94 st95">yy</text>
		</g>
		<g class="st8">
			<text transform="matrix(1 0 0 1 702.8647 562.3174)" class="st84 st93 st94 st95">yy</text>
		</g>
		<g class="st8">
			<text transform="matrix(1 0 0 1 473.4297 609.2549)" class="st84 st93 st94 st95">yy</text>
		</g>
		<text transform="matrix(1 0 0 1 254.0229 564.9541)" class="st57 st93 st94 st95">yy</text>
		<g class="st8">
			<text transform="matrix(1 0 0 1 249.8042 514.8516)" class="st58 st93 st94 st95">yy</text>
		</g>
		<g class="st8">
			<text transform="matrix(1 0 0 1 474.2207 473.7153)" class="st58 st93 st94 st95">yy</text>
		</g>
		<g class="st8">
			<text transform="matrix(1 0 0 1 698.1187 512.4805)" class="st58 st93 st94 st95">yy</text>
		</g>
		<g class="st8">
			<text transform="matrix(1 0 0 1 911.4604 478.4639)" class="st84 st93 st94 st95">yy</text>
		</g>
		<g class="st8">
			<text transform="matrix(1 0 0 1 1145.3696 511.6865)" class="st58 st93 st94 st95">yy</text>
		</g>
		<g class="st8">
			<text transform="matrix(1 0 0 1 246.9038 277.3857)" class="st58 st93 st94 st95">yy</text>
		</g>
		<g class="st8">
			<text transform="matrix(1 0 0 1 471.8477 300.5898)" class="st58 st93 st94 st95">yy</text>
		</g>
		<g class="st8">
			<text transform="matrix(1 0 0 1 705.2388 279.7578)" class="st58 st93 st94 st95">yy</text>
		</g>
		<g class="st8">
			<text transform="matrix(1 0 0 1 920.1621 309.0298)" class="st84 st93 st94 st95">yy</text>
		</g>
		<g class="st8">
			<text transform="matrix(1 0 0 1 1149.5889 282.1333)" class="st58 st93 st94 st95">yy</text>
		</g>
		<g class="st8">
			<text transform="matrix(1 0 0 1 252.1777 712.6924)" class="st58 st93 st94 st95">yy</text>
		</g>
		<g class="st8">
			<text transform="matrix(1 0 0 1 475.8032 712.6924)" class="st58 st93 st94 st95">yy</text>
		</g>
		<g class="st8">
			<text transform="matrix(1 0 0 1 706.8203 712.6924)" class="st58 st93 st94 st95">yy</text>
		</g>
		<g class="st8">
			<text transform="matrix(1 0 0 1 930.4458 712.6924)" class="st84 st93 st94 st95">yy</text>
		</g>
		<g class="st8">
			<text transform="matrix(1 0 0 1 1154.0723 712.6924)" class="st58 st93 st94 st95">yy</text>
		</g>
		<g class="st8">
			<text transform="matrix(1 0 0 1 1140.0967 890.5176)" class="st58 st93 st94 st95">yy</text>
		</g>
		<g class="st8">
			<text transform="matrix(1 0 0 1 918.0527 927.6992)" class="st84 st93 st94 st95">yy</text>
		</g>
		<g class="st8">
			<text transform="matrix(1 0 0 1 692.5811 891.8369)" class="st58 st93 st94 st95">yy</text>
		</g>
		<g class="st8">
			<text transform="matrix(1 0 0 1 481.3403 930.0713)" class="st58 st93 st94 st95">yy</text>
		</g>
		<text transform="matrix(1 0 0 1 265.0981 930.0713)" class="st54 st93 st94 st95">yy</text>
		<g class="st8">
			<text transform="matrix(1 0 0 1 1142.4688 781.1338)" class="st58 st93 st94 st95">yy</text>
		</g>
		<g class="st8">
			<text transform="matrix(1 0 0 1 930.709 832.5537)" class="st84 st93 st94 st95">yy</text>
		</g>
		<g class="st8">
			<text transform="matrix(1 0 0 1 698.9106 778.4971)" class="st58 st93 st94 st95">yy</text>
		</g>
		<g class="st8">
			<text transform="matrix(1 0 0 1 469.4751 825.4346)" class="st58 st93 st94 st95">yy</text>
		</g>
		<text transform="matrix(1 0 0 1 250.0679 781.1338)" class="st54 st93 st94 st95">yy</text>
		<text transform="matrix(0.9603 -0.279 0.279 0.9603 51.6768 299.4268)" class="st58 st93 st96 st95">BODY</text>
		<text transform="matrix(0.9622 0.2723 -0.2723 0.9622 4.2567 375.5202)" class="st58 st93 st96 st95">cuestionario</text>
		<text transform="matrix(0.9945 -0.105 0.105 0.9945 15.4473 503.4357)" class="st58 st93 st96 st95">EVERYWHERE</text>
		<g>
			<text transform="matrix(0.9474 -0.3202 0.3202 0.9474 5.7406 621.8696)" class="st58 st93 st96 st95">HERRAMIENTAS</text>
		</g>
		<text transform="matrix(0.9784 0.2067 -0.2067 0.9784 29.9273 692.7695)" class="st58 st93 st96 st95">ARCHIVO</text>
		<text transform="matrix(0.9992 -0.0405 0.0405 0.9992 0.6297 806.4541)" class="st58 st93 st96 st95">PERFORMATIVO</text>
		<text transform="matrix(0.9974 0.0718 -0.0718 0.9974 12.0321 901.4193)" class="st58 st93 st96 st95">EN ABIERTO</text>
		<text transform="matrix(0.8208 -0.5712 0.5712 0.8208 269.5254 215.7574)"><tspan x="0" y="0" class="st58 st93 st96">episodio 1 </tspan><tspan x="114.82" y="0" class="st58 st93 st97">.-</tspan><tspan x="130.17" y="0" class="st58 st93 st96"> </tspan><tspan x="140.6" y="0" class="st58 st93 st97">historias de la colaboracin</tspan></text>
		<g>
			<text transform="matrix(0.9999 -0.0113 0.0113 0.9999 59.724 316.0427)" class="st58 st93 st94 st95">xH yy</text>
		</g>
		<g>
			<text transform="matrix(0.9982 -0.0602 0.0602 0.9982 79.752 429.072)" class="st58 st93 st94 st95">xH yy</text>
		</g>
		<g>
			<text transform="matrix(0.9474 0.32 -0.32 0.9474 16.5829 518.5316)" class="st58 st93 st94 st95">xH yy</text>
		</g>
		<g class="st8">
			<text transform="matrix(1 0 0 1 249.8042 1022.8516)" class="st58 st93 st94 st95">yy</text>
		</g>
		<g class="st8">
			<text transform="matrix(1 0 0 1 474.2207 981.7153)" class="st58 st93 st94 st95">yy</text>
		</g>
		<g class="st8">
			<text transform="matrix(1 0 0 1 698.1187 1020.4805)" class="st58 st93 st94 st95">yy</text>
		</g>
		<g class="st8">
			<text transform="matrix(1 0 0 1 911.4604 986.4639)" class="st84 st93 st94 st95">yy</text>
		</g>
		<g class="st8">
			<text transform="matrix(1 0 0 1 1145.3696 1019.6865)" class="st58 st93 st94 st95">yy</text>
		</g>
		<text transform="matrix(0.9945 -0.105 0.105 0.9945 39.0412 1008.9437)" class="st58 st93 st96 st95">lxico</text>
		<g>
			<text transform="matrix(0.9474 0.32 -0.32 0.9474 16.5829 1026.5316)" class="st58 st93 st94 st95">xH yy</text>
		</g>
		<g>
			<text transform="matrix(0.9066 -0.422 0.422 0.9066 92.8885 623.5505)" class="st58 st93 st94 st95">xH yy</text>
		</g>
		<g>
			<text transform="matrix(0.9975 0.0714 -0.0714 0.9975 43.9774 717.5077)" class="st58 st93 st94 st95">xH yy</text>
		</g>
		<g>
			<text transform="matrix(0.9759 0.2183 -0.2183 0.9759 7.4096 825.8948)" class="st58 st93 st94 st95">xH yy</text>
		</g>
		<g>
			<text transform="matrix(0.9998 -0.0212 0.0212 0.9998 22.6184 925.5663)" class="st58 st93 st94 st95">xH yy</text>
		</g>
		<g>
			<text transform="matrix(0.9167 -0.3995 0.3995 0.9167 307.4406 219.9386)" class="st58 st93 st94 st95">xH yy</text>
		</g>
		<g>
			<text transform="matrix(0.4513 -0.8924 0.8924 0.4513 500.6539 221.838)" class="st58 st93 st97">episodio 2 .- /...)</text>
		</g>
		<g>
			<text transform="matrix(0.9728 -0.2315 0.2315 0.9728 532.5006 221.9385)" class="st58 st93 st94 st95">xH yy</text>
		</g>
		<g>
			<text transform="matrix(0.6823 -0.7311 0.7311 0.6823 723.0575 242.937)" class="st58 st93 st97">episodio 3 .- /...)</text>
		</g>
		<g>
			<text transform="matrix(0.9779 -0.2092 0.2092 0.9779 771.5146 223.4447)" class="st58 st93 st94 st95">xH yy</text>
		</g>
		<g>
			<text transform="matrix(0.4529 -0.8916 0.8916 0.4529 954.394 230.6565)" class="st58 st93 st97">episodio 4 .- /...)</text>
		</g>
		<g>
			<text transform="matrix(0.875 -0.4841 0.4841 0.875 988.2817 213.7237)" class="st58 st93 st94 st95">xH yy</text>
		</g>
		<g>
			<text transform="matrix(0.9177 -0.3973 0.3973 0.9177 1165.8413 240.7051)" class="st58 st93 st97">episodio 5 .- /...)</text>
		</g>
		<g>
			<text transform="matrix(0.8445 0.5355 -0.5355 0.8445 1201.1129 242.0972)" class="st58 st93 st94 st95">xH yy</text>
		</g>
		<rect x="41.59" y="191.41" class="st7" width="5.89" height="3.82"/>
	</g>
</g>
</svg>
