<?xml version="1.0" encoding="utf-8"?>
<!-- Generator: Adobe Illustrator 23.0.3, SVG Export Plug-In . SVG Version: 6.00 Build 0)  -->
<svg version="1.1" xmlns="http://www.w3.org/2000/svg" xmlns:xlink="http://www.w3.org/1999/xlink" x="0px" y="0px"
	 viewBox="0 0 417.07 229.73" style="enable-background:new 0 0 417.07 229.73;" xml:space="preserve">
<style type="text/css">
	.st0{fill:#E4E5E3;}
	.st1{opacity:0.35;}
	.st2{fill:none;stroke:#000000;stroke-width:0.1852;stroke-miterlimit:10;}
	.st3{fill:none;stroke:#000000;stroke-miterlimit:10;}
	.st4{opacity:0.14;fill:none;stroke:#4D4D4D;stroke-miterlimit:10;}
	.st5{clip-path:url(#SVGID_2_);}
	.st6{clip-path:url(#SVGID_4_);}
	.st7{fill:none;}
	.st8{opacity:0.4;}
	.st9{fill:none;stroke:#4C4885;stroke-width:0.9301;stroke-linecap:round;stroke-linejoin:round;}
	.st10{fill:none;stroke:#4C4885;stroke-width:0.9301;stroke-linecap:round;stroke-linejoin:round;stroke-dasharray:2.1583,4.3165;}
	.st11{fill:none;stroke:#4C4885;stroke-width:0.9301;stroke-linecap:round;stroke-linejoin:round;stroke-dasharray:2.1575,4.3151;}
	.st12{fill:none;stroke:#4C4885;stroke-width:0.9301;stroke-linecap:round;stroke-linejoin:round;stroke-dasharray:2.1473,4.2945;}
	.st13{fill:none;stroke:#4C4885;stroke-width:0.9301;stroke-linecap:round;stroke-linejoin:round;stroke-dasharray:2.4366,4.8732;}
	.st14{fill:none;stroke:#4C4885;stroke-width:0.9301;stroke-linecap:round;stroke-linejoin:round;stroke-dasharray:2.4507,4.9014;}
	.st15{fill:none;stroke:#D13B54;stroke-width:0.9301;stroke-linecap:round;stroke-linejoin:round;}
	.st16{fill:none;stroke:#D13B54;stroke-width:0.9301;stroke-linecap:round;stroke-linejoin:round;stroke-dasharray:2.1878,4.3757;}
	.st17{fill:none;stroke:#D13B54;stroke-width:0.9301;stroke-linecap:round;stroke-linejoin:round;stroke-dasharray:2.2242,4.4484;}
	.st18{fill:none;stroke:#4C4885;stroke-width:0.9301;stroke-linecap:round;stroke-linejoin:round;stroke-dasharray:1.6524,3.3048;}
	.st19{fill:none;stroke:#4C4885;stroke-width:0.9301;stroke-linecap:round;stroke-linejoin:round;stroke-dasharray:1.6469,3.2938;}
	.st20{fill:none;stroke:#4C4885;stroke-width:0.9301;stroke-linecap:round;stroke-linejoin:round;stroke-dasharray:2.4409,4.8819;}
	.st21{fill:none;stroke:#4C4885;stroke-width:0.9301;stroke-linecap:round;stroke-linejoin:round;stroke-dasharray:2.4454,4.8909;}
	.st22{fill:none;stroke:#4C4885;stroke-width:0.9301;stroke-linecap:round;stroke-linejoin:round;stroke-dasharray:1.8248,3.6497;}
	.st23{fill:none;stroke:#4C4885;stroke-width:0.9301;stroke-linecap:round;stroke-linejoin:round;stroke-dasharray:1.8274,3.6548;}
	.st24{fill:none;stroke:#4C4885;stroke-width:0.6255;stroke-linecap:round;stroke-linejoin:round;}
	.st25{fill:none;stroke:#4C4885;stroke-width:0.6255;stroke-linecap:round;stroke-linejoin:round;stroke-dasharray:1.4513,2.9026;}
	.st26{fill:none;stroke:#4C4885;stroke-width:0.6255;stroke-linecap:round;stroke-linejoin:round;stroke-dasharray:1.4508,2.9016;}
	.st27{fill:none;stroke:#4C4885;stroke-width:0.6255;stroke-linecap:round;stroke-linejoin:round;stroke-dasharray:1.4439,2.8879;}
	.st28{fill:none;stroke:#000000;stroke-width:1.381;stroke-linecap:round;stroke-linejoin:round;}
	.st29{fill:none;stroke:#000000;stroke-width:1.381;stroke-linecap:round;stroke-linejoin:round;stroke-dasharray:2.3205,4.641;}
	.st30{fill:none;stroke:#000000;stroke-width:1.381;stroke-linecap:round;stroke-linejoin:round;stroke-dasharray:2.3197,4.6395;}
	.st31{fill:none;stroke:#000000;stroke-width:1.381;stroke-linecap:round;stroke-linejoin:round;stroke-dasharray:2.3087,4.6174;}
	.st32{fill:none;stroke:#000000;stroke-width:1.5685;stroke-linecap:round;stroke-linejoin:round;}
	.st33{fill:none;stroke:#000000;stroke-width:1.5685;stroke-linecap:round;stroke-linejoin:round;stroke-dasharray:2.6198,5.2396;}
	.st34{fill:none;stroke:#000000;stroke-width:1.5685;stroke-linecap:round;stroke-linejoin:round;stroke-dasharray:2.635,5.2699;}
	.st35{fill:none;stroke:#000000;stroke-width:1.4135;stroke-linecap:round;stroke-linejoin:round;}
	.st36{fill:none;stroke:#000000;stroke-width:1.4135;stroke-linecap:round;stroke-linejoin:round;stroke-dasharray:2.3524,4.7047;}
	.st37{fill:none;stroke:#000000;stroke-width:1.4135;stroke-linecap:round;stroke-linejoin:round;stroke-dasharray:2.3914,4.7829;}
	.st38{fill:none;stroke:#000000;stroke-width:1.0539;stroke-linecap:round;stroke-linejoin:round;}
	.st39{fill:none;stroke:#000000;stroke-width:1.0539;stroke-linecap:round;stroke-linejoin:round;stroke-dasharray:1.7766,3.5532;}
	.st40{fill:none;stroke:#000000;stroke-width:1.0539;stroke-linecap:round;stroke-linejoin:round;stroke-dasharray:1.7707,3.5414;}
	.st41{fill:none;stroke:#000000;stroke-width:1.5685;stroke-linecap:round;stroke-linejoin:round;stroke-dasharray:2.6244,5.2488;}
	.st42{fill:none;stroke:#000000;stroke-width:1.5685;stroke-linecap:round;stroke-linejoin:round;stroke-dasharray:2.6293,5.2585;}
	.st43{fill:none;stroke:#000000;stroke-width:1.17;stroke-linecap:round;stroke-linejoin:round;}
	.st44{fill:none;stroke:#000000;stroke-width:1.17;stroke-linecap:round;stroke-linejoin:round;stroke-dasharray:1.962,3.924;}
	.st45{fill:none;stroke:#000000;stroke-width:1.17;stroke-linecap:round;stroke-linejoin:round;stroke-dasharray:1.9647,3.9295;}
	.st46{fill:none;stroke:#000000;stroke-width:1.7011;stroke-linejoin:round;stroke-miterlimit:10;}
	.st47{fill:none;stroke:#4C4885;stroke-width:1.5822;stroke-linejoin:round;stroke-miterlimit:10;}
	.st48{opacity:0.4;fill:none;stroke:#4C4885;stroke-width:0.8677;stroke-miterlimit:10;}
	.st49{opacity:0.4;fill:none;stroke:#4C4885;stroke-width:0.2635;stroke-miterlimit:10;}
	.st50{opacity:0.4;fill:none;stroke:#D13B54;stroke-width:0.7905;stroke-miterlimit:10;}
	.st51{opacity:0.4;fill:none;stroke:#4C4885;stroke-width:1.054;stroke-miterlimit:10;}
	.st52{opacity:0.4;fill:none;stroke:#4C4885;stroke-width:2.1081;stroke-miterlimit:10;}
	.st53{opacity:0.4;fill:none;stroke:#4C4885;stroke-width:3.1621;stroke-miterlimit:10;}
	.st54{opacity:0.4;fill:#4C4885;}
	.st55{opacity:0.4;fill:none;stroke:#4C4885;stroke-width:0.9993;stroke-miterlimit:10;}
	.st56{opacity:0.4;fill:none;stroke:#D13B54;stroke-width:0.9993;stroke-miterlimit:10;}
	.st57{opacity:0.4;fill:#D13B54;}
	.st58{fill:#4C4885;}
	.st59{fill:none;stroke:#D13B54;stroke-width:1.1866;stroke-miterlimit:10;}
	.st60{opacity:0.4;fill:none;stroke:#4C4885;stroke-width:3.1643;stroke-miterlimit:10;}
	.st61{opacity:0.4;fill:none;stroke:#D13B54;stroke-width:0.8677;stroke-miterlimit:10;}
	.st62{opacity:0.4;fill:none;stroke:#D13B54;stroke-width:3.1643;stroke-miterlimit:10;}
	.st63{fill:#FFFFFF;stroke:#000000;stroke-width:1.6164;stroke-miterlimit:10;}
	.st64{fill:none;stroke:#000000;stroke-width:2;stroke-miterlimit:10;}
	.st65{fill:#FFFFFF;stroke:#000000;stroke-width:0.9329;stroke-miterlimit:10;}
	.st66{fill:none;stroke:#000000;stroke-width:0.2833;stroke-miterlimit:10;}
	.st67{fill:none;stroke:#000000;stroke-width:0.8499;stroke-miterlimit:10;}
	.st68{fill:none;stroke:#000000;stroke-width:1.1332;stroke-miterlimit:10;}
	.st69{fill:none;stroke:#000000;stroke-width:2.2665;stroke-miterlimit:10;}
	.st70{fill:none;stroke:#000000;stroke-width:3.3997;stroke-miterlimit:10;}
	.st71{fill:none;stroke:#000000;stroke-width:1.0744;stroke-miterlimit:10;}
	.st72{fill:none;stroke:#000000;stroke-width:1.2758;stroke-miterlimit:10;}
	.st73{fill:none;stroke:#000000;stroke-width:3.4021;stroke-miterlimit:10;}
	.st74{fill:none;stroke:#4C4885;stroke-width:2;stroke-miterlimit:10;}
	.st75{fill:#FFFFFF;stroke:#4C4885;stroke-width:1.6164;stroke-miterlimit:10;}
	.st76{opacity:0.7;fill:#FFFFFF;}
	.st77{fill:none;stroke:#4C4885;stroke-width:18.0083;stroke-miterlimit:10;}
	.st78{fill:none;stroke:#4C4885;stroke-width:0.5835;stroke-miterlimit:10;}
	.st79{fill:none;stroke:#4C4885;stroke-width:1.4177;stroke-miterlimit:10;}
	.st80{fill:none;stroke:#4C4885;stroke-width:2.1265;stroke-miterlimit:10;}
	.st81{fill:none;stroke:#4C4885;stroke-width:0.6721;stroke-miterlimit:10;}
	.st82{fill:none;stroke:#D13B54;stroke-width:0.798;stroke-miterlimit:10;}
	.st83{fill:none;stroke:#4C4885;stroke-width:2.128;stroke-miterlimit:10;}
	.st84{fill:#D13B54;}
	.st85{fill:none;stroke:#000000;stroke-width:18.0083;stroke-miterlimit:10;}
	.st86{fill:#FF0000;}
	.st87{fill:#00FFFF;}
	.st88{fill:none;stroke:#D13B54;stroke-width:3.5534;stroke-miterlimit:10;}
	.st89{opacity:0.4;fill:#FFFFFF;}
	.st90{opacity:0.4;fill:none;stroke:#D13B54;stroke-width:3.5534;stroke-miterlimit:10;}
	.st91{fill:none;stroke:#D13B54;stroke-width:2.3444;stroke-miterlimit:10;}
	.st92{fill:#FFFFFF;}
</style>
<g id="fondo">
</g>
<g id="malla">
</g>
<g id="ATREZZO">
</g>
<g id="ondas_sonoras">
</g>
<g id="Capa_1">
</g>
<g id="texto">
	<g>
		<path class="st84" d="M321.04,96.87c0.01-0.54,0.03-1.09,0.03-1.63c-0.21-20.13-0.43-40.25-0.65-60.37
			c-0.01-0.53-0.01-1.07-0.02-1.7c3.57-1.48,7.04-2.92,10.65-4.42c0.04,3.42,0.07,6.88,0.11,10.5c1.81-0.75,3.49-1.45,5.34-2.21
			c0.04,3.6,0.08,7.06,0.11,10.59c3.64-1.51,7.11-2.95,10.7-4.44c-0.04-3.47-0.07-6.9-0.11-10.5c1.81-0.75,3.53-1.46,5.41-2.24
			c-0.04-3.63-0.08-7.09-0.11-10.61c3.6-1.49,7.04-2.92,10.63-4.41c0.23,21.26,0.46,42.49,0.68,63.72c-3.5,1.45-7,2.9-10.5,4.36
			c-0.04-0.48-0.11-0.94-0.12-1.44c-0.11-9.62-0.21-19.25-0.31-28.88c-0.01-0.48-0.01-0.96-0.02-1.41
			c-1.91,0.79-3.63,1.51-5.46,2.26c0.04,3.53,0.07,6.96,0.11,10.36c-3.58,1.49-7.06,2.93-10.67,4.42
			c-0.04-3.52-0.07-6.94-0.11-10.39c-1.82,0.75-3.5,1.45-5.27,2.19c0.11,10.65,0.23,21.22,0.34,31.8
			C328.21,93.9,324.63,95.39,321.04,96.87z"/>
		<path class="st84" d="M54.2,207.53c0.01-0.54,0.03-1.09,0.03-1.63c-0.21-20.13-0.43-40.25-0.65-60.37
			c-0.01-0.53-0.01-1.07-0.02-1.7c10.69-4.43,21.29-8.83,32.03-13.28c0.02,1.67,0.04,3.35,0.06,5.17c1.83-0.76,3.51-1.46,5.34-2.21
			c0.02,1.82,0.04,3.5,0.06,5.32c1.82-0.76,3.51-1.46,5.27-2.19c0.08,7.14,0.15,14.14,0.23,21.26c-1.65,0.69-3.34,1.38-5.17,2.14
			c0.02,1.8,0.04,3.47,0.06,5.28c-1.83,0.76-3.52,1.46-5.3,2.2c0.02,1.82,0.04,3.49,0.06,5.33c1.69-0.7,3.38-1.4,5.19-2.15
			c0.02,1.83,0.04,3.52,0.06,5.32c1.81-0.75,3.49-1.45,5.36-2.22c0.06,5.41,0.11,10.71,0.17,16c-3.5,1.45-7,2.9-10.5,4.36
			c-0.04-0.44-0.11-0.86-0.12-1.31c-0.06-4.39-0.1-8.79-0.15-13.18c0-0.44-0.01-0.88-0.02-1.46c-1.9,0.79-3.62,1.5-5.44,2.25
			c-0.02-1.82-0.04-3.5-0.06-5.22c-5.36,2.22-10.62,4.41-15.96,6.62c0.08,7.13,0.15,14.17,0.23,21.22
			C61.37,204.56,57.79,206.05,54.2,207.53z M80.38,143.34c-5.36,2.22-10.62,4.41-15.91,6.6c0.08,7.1,0.15,14.12,0.23,21.14
			c5.34-2.21,10.6-4.4,15.97-6.62c-0.02-1.77-0.04-3.45-0.06-5.3c1.82-0.76,3.55-1.47,5.28-2.19c-0.04-3.59-0.08-7.02-0.11-10.58
			c-1.8,0.74-3.52,1.46-5.33,2.21C80.41,146.78,80.4,145.1,80.38,143.34z"/>
		<path class="st84" d="M214.26,141.16c0.01-0.54,0.03-1.09,0.03-1.63c-0.21-20.13-0.43-40.25-0.65-60.37
			c-0.01-0.53-0.01-1.07-0.02-1.7c10.69-4.43,21.29-8.83,32.03-13.28c0.02,1.67,0.04,3.35,0.06,5.17c1.83-0.76,3.51-1.46,5.34-2.21
			c0.02,1.82,0.04,3.5,0.06,5.32c1.82-0.76,3.51-1.46,5.27-2.19c0.08,7.14,0.15,14.14,0.23,21.26c-1.65,0.69-3.34,1.38-5.17,2.14
			c0.02,1.8,0.04,3.47,0.06,5.28c-1.83,0.76-3.52,1.46-5.3,2.2c0.02,1.82,0.04,3.49,0.06,5.33c1.69-0.7,3.38-1.4,5.19-2.15
			c0.02,1.83,0.04,3.52,0.06,5.32c1.81-0.75,3.49-1.45,5.36-2.22c0.06,5.41,0.11,10.71,0.17,16c-3.5,1.45-7,2.9-10.5,4.36
			c-0.04-0.44-0.11-0.86-0.12-1.31c-0.06-4.39-0.1-8.79-0.15-13.18c0-0.44-0.01-0.88-0.02-1.46c-1.9,0.79-3.62,1.5-5.44,2.25
			c-0.02-1.82-0.04-3.5-0.06-5.22c-5.36,2.22-10.62,4.41-15.96,6.62c0.08,7.13,0.15,14.17,0.23,21.22
			C221.42,138.19,217.84,139.67,214.26,141.16z M245.9,90.68c-0.04-3.66-0.08-7.11-0.11-10.66c-1.8,0.75-3.49,1.45-5.32,2.21
			c-0.02-1.81-0.04-3.52-0.06-5.26c-5.37,2.23-10.6,4.4-15.9,6.59c0.08,7.09,0.15,14.11,0.23,21.16c5.33-2.21,10.59-4.39,15.96-6.62
			c-0.02-1.76-0.04-3.44-0.06-5.24C242.43,92.12,244.12,91.42,245.9,90.68z"/>
		<path class="st84" d="M171.49,158.89c-0.02-1.7-0.04-3.39-0.06-5.23c-1.75,0.73-3.43,1.42-5.28,2.19
			c-0.02-1.86-0.04-3.57-0.06-5.4c-1.86,0.77-3.55,1.47-5.34,2.21c-0.15-14.2-0.3-28.28-0.46-42.53c1.77-0.73,3.49-1.45,5.31-2.2
			c-0.02-1.82-0.04-3.47-0.06-5.26c1.77-0.74,3.46-1.43,5.26-2.18c-0.02-1.82-0.04-3.5-0.06-5.28c7.17-2.97,14.22-5.9,21.41-8.88
			c0.02,1.72,0.04,3.4,0.06,5.22c1.83-0.76,3.51-1.46,5.33-2.21c0.02,1.82,0.04,3.5,0.06,5.32c1.82-0.76,3.51-1.46,5.25-2.18
			c0.02,1.83,0.04,3.51,0.06,5.27c-5.27,2.18-10.5,4.36-15.88,6.58c-0.02-1.68-0.04-3.4-0.06-5.2c-3.65,1.51-7.16,2.97-10.78,4.47
			c0.02,1.77,0.04,3.46,0.06,5.27c-1.79,0.74-3.48,1.44-5.23,2.17c0.11,10.65,0.23,21.17,0.34,31.83c1.67-0.69,3.36-1.39,5.19-2.15
			c0.02,1.8,0.04,3.47,0.06,5.24c3.62-1.5,7.1-2.94,10.7-4.44c-0.02-1.65-0.04-3.33-0.06-5.15c1.84-0.77,3.57-1.48,5.37-2.23
			c-0.02-1.82-0.04-3.51-0.06-5.35c-3.5,1.45-6.97,2.89-10.53,4.37c-0.04-3.58-0.08-7.01-0.11-10.53c7-2.9,14.02-5.81,21.22-8.8
			c0.11,10.58,0.23,21.18,0.34,31.78c-3.5,1.45-7,2.9-10.5,4.36c-0.02-1.72-0.04-3.45-0.06-5.18c-1.99,0.83-3.71,1.54-5.5,2.28
			c0.02,1.79,0.04,3.48,0.06,5.18C182.16,154.47,176.83,156.68,171.49,158.89z"/>
		<path class="st84" d="M118.22,180.98c-0.02-1.7-0.04-3.39-0.06-5.23c-1.75,0.73-3.43,1.42-5.28,2.19
			c-0.02-1.86-0.04-3.57-0.06-5.4c-1.86,0.77-3.55,1.47-5.34,2.21c-0.15-14.19-0.3-28.27-0.46-42.52c1.76-0.73,3.48-1.44,5.3-2.2
			c-0.02-1.82-0.04-3.47-0.06-5.25c1.77-0.74,3.46-1.43,5.26-2.18c-0.02-1.82-0.04-3.5-0.06-5.28c7.16-2.97,14.21-5.89,21.41-8.88
			c0.02,1.7,0.04,3.38,0.06,5.19c1.83-0.76,3.51-1.46,5.33-2.21c0.02,1.82,0.04,3.5,0.06,5.32c1.82-0.76,3.51-1.46,5.26-2.18
			c0.15,14.23,0.3,28.31,0.46,42.49c-1.71,0.71-3.36,1.4-5.18,2.15c0.02,1.81,0.04,3.52,0.06,5.37c-1.85,0.77-3.54,1.47-5.5,2.28
			c0.02,1.86,0.04,3.59,0.06,5.31C132.39,175.11,125.31,178.05,118.22,180.98z M123.42,168.04c3.66-1.52,7.13-2.96,10.73-4.45
			c-0.02-1.76-0.04-3.44-0.06-5.2c1.82-0.75,3.51-1.46,5.28-2.19c-0.11-10.65-0.23-21.2-0.34-31.89c-1.79,0.74-3.52,1.46-5.33,2.21
			c-0.02-1.82-0.04-3.51-0.06-5.23c-3.6,1.49-7.11,2.95-10.73,4.45c0.02,1.79,0.04,3.47,0.06,5.28c-1.79,0.74-3.48,1.44-5.18,2.15
			c0.11,10.67,0.23,21.22,0.34,31.89c1.76-0.73,3.45-1.43,5.23-2.17C123.38,164.65,123.4,166.3,123.42,168.04z"/>
		<path class="st84" d="M267.52,119.07c0.01-0.71,0.03-1.43,0.02-2.13c-0.16-14.69-0.31-29.38-0.47-44.07
			c-0.01-0.49-0.01-0.98-0.02-1.61c1.83-0.76,3.56-1.48,5.41-2.24c-0.02-1.82-0.04-3.51-0.06-5.33c1.81-0.75,3.5-1.45,5.3-2.2
			c-0.02-1.83-0.04-3.51-0.06-5.33c1.8-0.75,3.49-1.45,5.3-2.2c-0.02-1.82-0.04-3.5-0.06-5.25c3.61-1.5,7.09-2.94,10.68-4.43
			c0.02,1.72,0.04,3.4,0.06,5.21c1.8-0.75,3.48-1.45,5.33-2.21c0.02,1.8,0.04,3.48,0.06,5.31c1.84-0.76,3.53-1.46,5.34-2.21
			c0.02,1.83,0.04,3.52,0.06,5.32c1.81-0.75,3.5-1.45,5.36-2.22c0.17,16.04,0.34,31.96,0.51,47.87c-3.5,1.45-7,2.9-10.5,4.36
			c-0.04-0.44-0.11-0.86-0.12-1.31c-0.06-4.39-0.1-8.78-0.15-13.17c0-0.44-0.01-0.89-0.01-1.32c-7.22,2.99-14.27,5.92-21.4,8.87
			c0.06,5.34,0.11,10.6,0.17,15.85C274.69,116.1,271.11,117.58,267.52,119.07z M293.7,54.88c-3.62,1.5-7.1,2.94-10.74,4.45
			c0.02,1.8,0.04,3.51,0.06,5.34c-1.84,0.76-3.53,1.46-5.16,2.14c0.08,7.12,0.15,14.11,0.23,21.07c7.12-2.95,14.15-5.87,21.21-8.8
			c-0.08-7.07-0.15-14.06-0.23-21.19c-1.81,0.75-3.54,1.47-5.32,2.2C293.74,58.31,293.72,56.66,293.7,54.88z"/>
		<path class="st84" d="M374.31,74.78c0.01-0.67,0.03-1.34,0.02-2.01c-0.16-14.72-0.31-29.45-0.47-44.17
			c-0.01-0.49-0.01-0.98-0.02-1.62c1.81-0.75,3.53-1.47,5.38-2.23c-0.02-1.82-0.04-3.5-0.06-5.33c1.81-0.75,3.49-1.45,5.29-2.19
			c-0.02-1.83-0.04-3.51-0.06-5.33c1.8-0.75,3.49-1.45,5.3-2.2c-0.02-1.81-0.04-3.49-0.06-5.26c3.61-1.5,7.08-2.94,10.72-4.44
			c0.02,1.68,0.04,3.4,0.06,5.23c1.84-0.76,3.53-1.46,5.37-2.23c0.02,1.8,0.04,3.48,0.06,5.3c1.84-0.76,3.52-1.46,5.33-2.21
			c0.02,1.83,0.04,3.52,0.06,5.35c1.86-0.77,3.59-1.49,5.33-2.21c0.17,15.94,0.34,31.87,0.51,47.81c-3.5,1.45-7,2.9-10.5,4.36
			c-0.04-0.44-0.11-0.86-0.12-1.31c-0.06-4.39-0.1-8.78-0.15-13.17c0-0.44-0.01-0.89-0.01-1.32c-7.22,2.99-14.27,5.92-21.4,8.87
			c0.06,5.34,0.11,10.6,0.17,15.85C381.48,71.81,377.89,73.3,374.31,74.78z M389.86,20.38c-1.89,0.78-3.57,1.48-5.21,2.16
			c0.08,7.12,0.15,14.11,0.23,21.07c7.12-2.95,14.15-5.87,21.21-8.8c-0.08-7.07-0.15-14.06-0.23-21.19
			c-1.81,0.75-3.54,1.47-5.36,2.22c-0.02-1.82-0.04-3.51-0.06-5.22c-3.58,1.48-7.06,2.93-10.65,4.42
			C389.82,16.8,389.84,18.48,389.86,20.38z"/>
		<path class="st84" d="M0,165.98c8.54-3.56,17.08-7.11,25.61-10.67c2.11-0.88,4.23-1.75,6.49-2.69c0.02,1.8,0.04,3.48,0.06,5.3
			c1.82-0.76,3.51-1.46,5.33-2.21c0.02,1.82,0.04,3.5,0.06,5.32c1.82-0.76,3.51-1.45,5.26-2.18c0.08,7.14,0.15,14.13,0.23,21.25
			c-1.67,0.69-3.36,1.39-5.19,2.15c0.02,1.8,0.04,3.47,0.06,5.28c-1.83,0.76-3.51,1.46-5.36,2.22c0.02,1.81,0.04,3.49,0.06,5.3
			c-7.18,2.98-14.19,5.89-21.4,8.87c0.08,7.21,0.15,14.28,0.23,21.35c-3.58,1.48-7.16,2.97-10.75,4.46
			C0.46,208.48,0.23,187.23,0,165.98z M26.9,165.54c-5.44,2.26-10.7,4.44-15.94,6.61c0.08,7.12,0.15,14.14,0.23,21.15
			c5.33-2.21,10.56-4.38,15.94-6.61c-0.02-1.77-0.04-3.49-0.06-5.32c1.84-0.76,3.53-1.46,5.26-2.18c-0.04-3.58-0.08-7.03-0.11-10.57
			c-1.79,0.74-3.48,1.44-5.27,2.19C26.94,169.01,26.92,167.33,26.9,165.54z"/>
	</g>
</g>
<g id="hover">
</g>
</svg>
