<?xml version="1.0" encoding="utf-8"?>
<!-- Generator: Adobe Illustrator 23.0.3, SVG Export Plug-In . SVG Version: 6.00 Build 0)  -->
<svg version="1.1" xmlns="http://www.w3.org/2000/svg" xmlns:xlink="http://www.w3.org/1999/xlink" x="0px" y="0px"
	 viewBox="0 0 503.68 521.88" style="enable-background:new 0 0 503.68 521.88;" xml:space="preserve">
<style type="text/css">
	.st0{fill:#E4E5E3;}
	.st1{opacity:0.35;}
	.st2{fill:none;stroke:#000000;stroke-width:0.1852;stroke-miterlimit:10;}
	.st3{fill:none;stroke:#000000;stroke-miterlimit:10;}
	.st4{opacity:0.14;fill:none;stroke:#4D4D4D;stroke-miterlimit:10;}
	.st5{clip-path:url(#SVGID_2_);}
	.st6{clip-path:url(#SVGID_4_);}
	.st7{fill:none;}
	.st8{opacity:0.4;}
	.st9{fill:none;stroke:#4C4885;stroke-width:0.9301;stroke-linecap:round;stroke-linejoin:round;}
	.st10{fill:none;stroke:#4C4885;stroke-width:0.9301;stroke-linecap:round;stroke-linejoin:round;stroke-dasharray:2.1583,4.3165;}
	.st11{fill:none;stroke:#4C4885;stroke-width:0.9301;stroke-linecap:round;stroke-linejoin:round;stroke-dasharray:2.1575,4.3151;}
	.st12{fill:none;stroke:#4C4885;stroke-width:0.9301;stroke-linecap:round;stroke-linejoin:round;stroke-dasharray:2.1473,4.2945;}
	.st13{fill:none;stroke:#4C4885;stroke-width:0.9301;stroke-linecap:round;stroke-linejoin:round;stroke-dasharray:2.4366,4.8732;}
	.st14{fill:none;stroke:#4C4885;stroke-width:0.9301;stroke-linecap:round;stroke-linejoin:round;stroke-dasharray:2.4507,4.9014;}
	.st15{fill:none;stroke:#D13B54;stroke-width:0.9301;stroke-linecap:round;stroke-linejoin:round;}
	.st16{fill:none;stroke:#D13B54;stroke-width:0.9301;stroke-linecap:round;stroke-linejoin:round;stroke-dasharray:2.1878,4.3757;}
	.st17{fill:none;stroke:#D13B54;stroke-width:0.9301;stroke-linecap:round;stroke-linejoin:round;stroke-dasharray:2.2242,4.4484;}
	.st18{fill:none;stroke:#4C4885;stroke-width:0.9301;stroke-linecap:round;stroke-linejoin:round;stroke-dasharray:1.6524,3.3048;}
	.st19{fill:none;stroke:#4C4885;stroke-width:0.9301;stroke-linecap:round;stroke-linejoin:round;stroke-dasharray:1.6469,3.2938;}
	.st20{fill:none;stroke:#4C4885;stroke-width:0.9301;stroke-linecap:round;stroke-linejoin:round;stroke-dasharray:2.4409,4.8819;}
	.st21{fill:none;stroke:#4C4885;stroke-width:0.9301;stroke-linecap:round;stroke-linejoin:round;stroke-dasharray:2.4454,4.8909;}
	.st22{fill:none;stroke:#4C4885;stroke-width:0.9301;stroke-linecap:round;stroke-linejoin:round;stroke-dasharray:1.8248,3.6497;}
	.st23{fill:none;stroke:#4C4885;stroke-width:0.9301;stroke-linecap:round;stroke-linejoin:round;stroke-dasharray:1.8274,3.6548;}
	.st24{fill:none;stroke:#4C4885;stroke-width:0.6255;stroke-linecap:round;stroke-linejoin:round;}
	.st25{fill:none;stroke:#4C4885;stroke-width:0.6255;stroke-linecap:round;stroke-linejoin:round;stroke-dasharray:1.4513,2.9026;}
	.st26{fill:none;stroke:#4C4885;stroke-width:0.6255;stroke-linecap:round;stroke-linejoin:round;stroke-dasharray:1.4508,2.9016;}
	.st27{fill:none;stroke:#4C4885;stroke-width:0.6255;stroke-linecap:round;stroke-linejoin:round;stroke-dasharray:1.4439,2.8879;}
	.st28{fill:none;stroke:#000000;stroke-width:1.381;stroke-linecap:round;stroke-linejoin:round;}
	.st29{fill:none;stroke:#000000;stroke-width:1.381;stroke-linecap:round;stroke-linejoin:round;stroke-dasharray:2.3205,4.641;}
	.st30{fill:none;stroke:#000000;stroke-width:1.381;stroke-linecap:round;stroke-linejoin:round;stroke-dasharray:2.3197,4.6395;}
	.st31{fill:none;stroke:#000000;stroke-width:1.381;stroke-linecap:round;stroke-linejoin:round;stroke-dasharray:2.3087,4.6174;}
	.st32{fill:none;stroke:#000000;stroke-width:1.5685;stroke-linecap:round;stroke-linejoin:round;}
	.st33{fill:none;stroke:#000000;stroke-width:1.5685;stroke-linecap:round;stroke-linejoin:round;stroke-dasharray:2.6198,5.2396;}
	.st34{fill:none;stroke:#000000;stroke-width:1.5685;stroke-linecap:round;stroke-linejoin:round;stroke-dasharray:2.635,5.2699;}
	.st35{fill:none;stroke:#000000;stroke-width:1.4135;stroke-linecap:round;stroke-linejoin:round;}
	.st36{fill:none;stroke:#000000;stroke-width:1.4135;stroke-linecap:round;stroke-linejoin:round;stroke-dasharray:2.3524,4.7047;}
	.st37{fill:none;stroke:#000000;stroke-width:1.4135;stroke-linecap:round;stroke-linejoin:round;stroke-dasharray:2.3914,4.7829;}
	.st38{fill:none;stroke:#000000;stroke-width:1.0539;stroke-linecap:round;stroke-linejoin:round;}
	.st39{fill:none;stroke:#000000;stroke-width:1.0539;stroke-linecap:round;stroke-linejoin:round;stroke-dasharray:1.7766,3.5532;}
	.st40{fill:none;stroke:#000000;stroke-width:1.0539;stroke-linecap:round;stroke-linejoin:round;stroke-dasharray:1.7707,3.5414;}
	.st41{fill:none;stroke:#000000;stroke-width:1.5685;stroke-linecap:round;stroke-linejoin:round;stroke-dasharray:2.6244,5.2488;}
	.st42{fill:none;stroke:#000000;stroke-width:1.5685;stroke-linecap:round;stroke-linejoin:round;stroke-dasharray:2.6293,5.2585;}
	.st43{fill:none;stroke:#000000;stroke-width:1.17;stroke-linecap:round;stroke-linejoin:round;}
	.st44{fill:none;stroke:#000000;stroke-width:1.17;stroke-linecap:round;stroke-linejoin:round;stroke-dasharray:1.962,3.924;}
	.st45{fill:none;stroke:#000000;stroke-width:1.17;stroke-linecap:round;stroke-linejoin:round;stroke-dasharray:1.9647,3.9295;}
	.st46{fill:none;stroke:#000000;stroke-width:1.7011;stroke-linejoin:round;stroke-miterlimit:10;}
	.st47{fill:none;stroke:#4C4885;stroke-width:1.5822;stroke-linejoin:round;stroke-miterlimit:10;}
	.st48{opacity:0.4;fill:none;stroke:#4C4885;stroke-width:0.8677;stroke-miterlimit:10;}
	.st49{opacity:0.4;fill:none;stroke:#4C4885;stroke-width:0.2635;stroke-miterlimit:10;}
	.st50{opacity:0.4;fill:none;stroke:#D13B54;stroke-width:0.7905;stroke-miterlimit:10;}
	.st51{opacity:0.4;fill:none;stroke:#4C4885;stroke-width:1.054;stroke-miterlimit:10;}
	.st52{opacity:0.4;fill:none;stroke:#4C4885;stroke-width:2.1081;stroke-miterlimit:10;}
	.st53{opacity:0.4;fill:none;stroke:#4C4885;stroke-width:3.1621;stroke-miterlimit:10;}
	.st54{opacity:0.4;fill:#4C4885;}
	.st55{opacity:0.4;fill:none;stroke:#4C4885;stroke-width:0.9993;stroke-miterlimit:10;}
	.st56{opacity:0.4;fill:none;stroke:#D13B54;stroke-width:0.9993;stroke-miterlimit:10;}
	.st57{opacity:0.4;fill:#D13B54;}
	.st58{fill:#4C4885;}
	.st59{fill:none;stroke:#D13B54;stroke-width:1.1866;stroke-miterlimit:10;}
	.st60{opacity:0.4;fill:none;stroke:#4C4885;stroke-width:3.1643;stroke-miterlimit:10;}
	.st61{opacity:0.4;fill:none;stroke:#D13B54;stroke-width:0.8677;stroke-miterlimit:10;}
	.st62{opacity:0.4;fill:none;stroke:#D13B54;stroke-width:3.1643;stroke-miterlimit:10;}
	.st63{fill:#FFFFFF;stroke:#000000;stroke-width:1.6164;stroke-miterlimit:10;}
	.st64{fill:none;stroke:#000000;stroke-width:2;stroke-miterlimit:10;}
	.st65{fill:#FFFFFF;stroke:#000000;stroke-width:0.9329;stroke-miterlimit:10;}
	.st66{fill:none;stroke:#000000;stroke-width:0.2833;stroke-miterlimit:10;}
	.st67{fill:none;stroke:#000000;stroke-width:0.8499;stroke-miterlimit:10;}
	.st68{fill:none;stroke:#000000;stroke-width:1.1332;stroke-miterlimit:10;}
	.st69{fill:none;stroke:#000000;stroke-width:2.2665;stroke-miterlimit:10;}
	.st70{fill:none;stroke:#000000;stroke-width:3.3997;stroke-miterlimit:10;}
	.st71{fill:none;stroke:#000000;stroke-width:1.0744;stroke-miterlimit:10;}
	.st72{fill:none;stroke:#000000;stroke-width:1.2758;stroke-miterlimit:10;}
	.st73{fill:none;stroke:#000000;stroke-width:3.4021;stroke-miterlimit:10;}
	.st74{fill:none;stroke:#4C4885;stroke-width:2;stroke-miterlimit:10;}
	.st75{fill:#FFFFFF;stroke:#4C4885;stroke-width:1.6164;stroke-miterlimit:10;}
	.st76{opacity:0.7;fill:#FFFFFF;}
	.st77{fill:none;stroke:#4C4885;stroke-width:18.0083;stroke-miterlimit:10;}
	.st78{fill:none;stroke:#4C4885;stroke-width:0.5835;stroke-miterlimit:10;}
	.st79{fill:none;stroke:#4C4885;stroke-width:1.4177;stroke-miterlimit:10;}
	.st80{fill:none;stroke:#4C4885;stroke-width:2.1265;stroke-miterlimit:10;}
	.st81{fill:none;stroke:#4C4885;stroke-width:0.6721;stroke-miterlimit:10;}
	.st82{fill:none;stroke:#D13B54;stroke-width:0.798;stroke-miterlimit:10;}
	.st83{fill:none;stroke:#4C4885;stroke-width:2.128;stroke-miterlimit:10;}
	.st84{fill:#D13B54;}
	.st85{fill:none;stroke:#000000;stroke-width:18.0083;stroke-miterlimit:10;}
	.st86{fill:#FF0000;}
	.st87{fill:#00FFFF;}
	.st88{fill:none;stroke:#D13B54;stroke-width:3.5534;stroke-miterlimit:10;}
	.st89{opacity:0.4;fill:#FFFFFF;}
	.st90{opacity:0.4;fill:none;stroke:#D13B54;stroke-width:3.5534;stroke-miterlimit:10;}
	.st91{fill:none;stroke:#D13B54;stroke-width:2.3444;stroke-miterlimit:10;}
	.st92{fill:#FFFFFF;}
</style>
<g id="fondo">
</g>
<g id="malla">
</g>
<g id="ATREZZO">
</g>
<g id="ondas_sonoras">
</g>
<g id="Capa_1">
</g>
<g id="texto">
	<g>
		<g>
			<path class="st84" d="M441.42,228.71c0-2.24,0-4.11,0-5.98c0-60.13,0-120.25,0.02-180.39c0-1.84-0.4-3.59,0.51-5.7
				c3.33-1.8,49.36-20.48,53.98-21.88c0.15,0.67,0.42,1.36,0.47,2.15c0.08,1.26,0.03,2.59,0.03,3.89c0,105.8,0,211.6,0,317.4
				c0,1.87,0,3.74,0,5.43c-1.41,1.97-2.94,2.13-4.32,2.69c-13.15,5.35-26.31,10.65-39.46,15.96c-3.46,1.4-6.92,2.8-10.12,4.09
				c-1.36-0.51-1.08-1.86-1.09-2.96c-0.03-6.49,0-13.01-0.04-19.5c-0.01-1.41,0.32-3.02-0.7-4.19c-4.26,1.2-8.73,3.38-13.17,5.1
				c-4.31,1.67-8.63,3.47-12.92,5.2c-1.01-1.33-0.65-3.1-0.65-4.63c-0.03-14.87-0.02-29.77-0.03-44.65c0-1.56-0.09-3.09-0.15-4.9
				c-1.16,0.34-2.11,0.53-3.07,0.91c-6.5,2.6-13.01,5.25-19.51,7.86c-1.42,0.57-2.84,1.04-4.35,1.59c-0.76-1.36-0.49-3.07-0.49-4.61
				c-0.02-15.02,0-30.06-0.03-45.08c0-1.55,0.25-3.25-0.45-4.74c-3.01,0.81-6.03,2.27-9.02,3.44c-2.89,1.13-5.78,2.35-8.67,3.49
				c-2.99,1.18-6,2.6-9.19,3.49c-0.46-3.08-0.2-6.21-0.24-9.19c-0.04-3.02-0.01-6.07-0.01-9.1s0-6.07,0-9.11c0-2.89,0-5.78,0-8.67
				c0-3.04,0.03-6.08-0.01-9.1c-0.03-2.98,0.17-6.07-0.16-8.85c-3.62,0.82-21.83,8.07-26.89,10.69c-0.13,0.76-0.36,1.66-0.39,2.48
				c-0.07,1.62-0.03,3.19-0.03,4.78c0,59.69,0,119.39-0.01,179.08c0,1.86-0.08,3.74-0.13,5.82c-4.7,2.61-9.15,3.95-13.57,5.81
				c-4.62,1.95-9.25,3.76-13.88,5.62c-4.48,1.81-8.96,3.67-13.44,5.42c-4.45,1.74-8.92,3.86-13.6,5.27
				c-0.13-0.87-0.31-1.61-0.36-2.42c-0.06-1.13-0.02-2.3-0.02-3.46c0-105.94,0-211.89,0-317.83c0-1.86,0.04-3.73,0.07-5.8
				c1.07-0.6,1.88-1.18,2.7-1.51c16.48-6.68,32.95-13.33,49.43-19.98c0.71-0.29,1.43-0.46,2.43-0.78c0.13,1.1,0.35,2.11,0.36,3.22
				c0.04,6.35,0.01,12.71,0.02,19.07c0,1.43,0.07,2.83,0.11,4.46c1.19-0.31,2.15-0.45,3.1-0.83c6.5-2.59,13.01-5.25,19.51-7.85
				c1.41-0.57,2.82-1.02,4.35-1.57c0.57,1.51,0.39,3.17,0.39,4.72c0.02,14.88,0.01,29.77,0.02,44.65c0,1.56,0.09,3.08,0.14,4.44
				c1.6,0.45,3.09-0.51,4.49-1.07c6.07-2.41,12.14-4.9,18.21-7.33c1.42-0.57,2.83-1.02,4.25-1.53c0.76,1.46,0.48,3.18,0.48,4.72
				c0.02,14.88,0.01,29.77,0.02,44.65c0,1.57,0.05,3.11,0.09,4.87c1.21-0.33,2.17-0.5,3.14-0.88c6.5-2.6,13.01-5.25,19.51-7.86
				c1.42-0.57,2.85-1.07,4.17-1.57c1.08,1.25,0.66,3.05,0.66,4.59c0.04,14.87,0.02,29.77,0.03,44.65c0,1.57,0.08,3.1,0.12,4.81
				c2.41-0.23,4.72-1.56,6.98-2.4c2.17-0.81,4.34-1.74,6.5-2.61c2.31-0.93,4.63-1.83,6.94-2.81
				C436.62,231,438.79,230.43,441.42,228.71z"/>
			<path class="st84" d="M221.28,394.66c0.01-69.39,0.01-138.77,0.01-208.15c0-1.01,0.05-2.05-0.02-3.03
				c-0.06-0.81-0.25-1.56-0.43-2.59c-1.55,0.6-2.98,1.12-4.41,1.69c-6.36,2.56-12.11,5.1-18.47,7.65c-1.12,0.45-2.94,1.16-2.94,0.4
				c0-1.14,0-2.58,0-4.01c0-6.5-0.59-13.33-0.63-19.82c-0.01-0.95-0.64-2.05-0.82-3.18c-1.68,0.68-3.24,1.26-4.68,1.84
				c-6.5,2.63-13.17,5.58-19.67,8.16c-0.94,0.37-1.2,0.74-3.2,1.02c0-1.68,0-3.12,0-4.55c0-6.36,0.11-12.99,0.08-19.34
				c-0.01-1.1,0.31-2.65-1.11-3.27c-1.27,0.51-3.25,1.15-4.83,1.79c-7.34,2.97-14.14,5.88-22.14,8.78v57.2
				c0,0.68,0.37,1.47,0.38,2.15c0.04,6.34,0.17,12.74,0.19,19.09c0,1.42,0.18,2.82,0.26,4.75c9.33-3.68,18.14-7.32,27.06-10.84
				c0.12,1.57,0.28,2.64,0.29,3.76c0.54,44.07,0.26,156.59-0.43,161.19c-0.9,0.47-1.86,1.07-2.83,1.47c-6.5,2.66-13,5.26-19.51,7.91
				c-1.42,0.58-2.87,0.93-4.51,2.3c-0.37,4.56-0.08,8.91-0.18,13.4c-0.1,4.34,0.24,8.52-0.24,13.21c-1,0.54-1.83,1.09-2.65,1.43
				c-16.48,6.68-32.95,13.33-49.43,19.97c-0.71,0.29-1.42,0.43-2.36,0.71c-0.14-0.95-0.19-1.86-0.19-2.82
				C83.8,446.61,84,440.2,84,433.84c0-1.43,0-2.86,0-4.54c-1,0.3-2.27,0.09-3.22,0.47c-6.5,2.59-13.15,4.95-19.66,7.58
				c-1.43,0.58-2.89,1.16-4.5,1.81c-0.22-1.11-0.48-1.31-0.56-2.09c-0.09-0.97-0.03-1.85-0.03-2.86c0-51.31,0-102.53,0.01-153.84
				c0-1.7-0.21-3.31,0.26-5.04c1.51-1.63,3-1.85,4.4-2.42c6.07-2.49,12.14-4.9,18.21-7.37c1.41-0.57,2.82-1.26,4.4-1.98
				c0.62-4.96,0.2-9.24,0.3-13.72c0.09-4.35-0.02-8.59,0.2-13.21c0.03-0.02,0.17-0.04,0.17-0.06v-56.25
				c-7,2.97-14.78,5.94-22.14,8.91c-1.01,0.41-2.07,1.09-3.07,1.57c-0.81,0.39-1.64,1.1-2.6,1.67c-0.05,1.66-0.13,3.2-0.13,4.63
				c-0.01,6.37,0.01,12.4-0.03,18.77c-0.01,1.11,0.32,1.9-1.02,3.64c-1.1,0.45-2.53,1.02-3.96,1.6c-6.36,2.57-12.72,5.49-19.08,8.09
				c-0.96,0.39-1.93,1.18-3.08,1.79c-0.05,1.66-0.14,3.2-0.14,4.63c-0.02,6.37,0.01,12.76-0.02,19.13c0,1.12-0.29,2.23-1.6,3.96
				C18.67,262.37,11,265.49,0,269.63c0,2.49,0,4.35,0,6.22c0,69.09,0,138.19,0,207.28c0,1.16,0.55,2.34,0.6,3.48
				c0.04,0.82,0.48,1.59,0.6,2.59c1.62-0.58,3.18-1.04,4.59-1.61c6.36-2.55,12.79-5.15,19.15-7.68c1.11-0.44,2.25-0.66,3.58-1.05
				c0.06,1.65,0.18,3.03,0.18,4.45c0.02,6.35,0,12.5,0.04,18.85c0.01,1.09,0.24,2.05,0.4,3.19c1.7-0.69,3.12-1.26,4.55-1.84
				c6.36-2.57,12.72-4.93,19.08-7.47c0.97-0.39,1.93-0.45,3.12-0.79c0.05,1.6,0.14,3.04,0.14,4.46c0.02,6.35-0.01,12.75,0.02,19.1
				c0.01,1.11,0.21,2.14,0.31,3.07c0.56-0.01,0.82,0.07,1.08-0.02c1.01-0.35,2.02-0.72,3.03-1.13
				c34.83-14.11,69.67-28.22,104.5-42.34c0.13-0.05,0.28-0.17,0.4-0.29c0.12-0.12,0.22-0.27,0.63-0.79
				c0.05-1.16,0.16-2.61,0.17-4.03c0.02-6.51,0-13.01,0.02-19.52c0-0.97,0.18-2.01,0.3-3.28c1.63-0.73,3.04-1.42,4.45-1.99
				c6.5-2.65,13.01-5.26,19.51-7.91c0.97-0.39,1.93-0.94,3.11-1.52c0.07-1.7,0.18-3.16,0.19-4.58c0.02-6.51,0-13.01,0.02-19.52
				c0-0.96,0.2-1.99,0.32-3.16c3.12-1.68,6-2.62,8.87-3.81c3.04-1.27,6.07-2.41,9.11-3.7c2.87-1.22,5.76-2,8.91-4
				C221.43,398.32,221.28,396.51,221.28,394.66z"/>
		</g>
		<g>
			<path class="st58" d="M448.66,213.95c0-2.24,0-4.11,0-5.98c0-60.13,0-120.25,0.02-180.39c0-1.84-0.4-3.59,0.51-5.7
				c3.33-1.8,49.36-20.48,53.98-21.88c0.15,0.67,0.42,1.36,0.47,2.15c0.08,1.26,0.03,2.59,0.03,3.89c0,105.8,0,211.6,0,317.4
				c0,1.87,0,3.74,0,5.43c-1.41,1.97-2.94,2.13-4.32,2.69c-13.15,5.35-26.31,10.65-39.46,15.96c-3.46,1.4-6.92,2.8-10.12,4.09
				c-1.36-0.51-1.08-1.86-1.09-2.96c-0.03-6.49,0-13.01-0.04-19.5c-0.01-1.41,0.32-3.02-0.7-4.19c-4.26,1.2-8.73,3.38-13.17,5.1
				c-4.31,1.67-8.63,3.47-12.92,5.2c-1.01-1.33-0.65-3.1-0.65-4.63c-0.03-14.87-0.02-29.77-0.03-44.65c0-1.56-0.09-3.09-0.15-4.9
				c-1.16,0.34-2.11,0.53-3.07,0.91c-6.5,2.6-13.01,5.25-19.51,7.86c-1.42,0.57-2.84,1.04-4.35,1.59c-0.76-1.36-0.49-3.07-0.49-4.61
				c-0.02-15.02,0-30.06-0.03-45.08c0-1.55,0.25-3.25-0.45-4.74c-3.01,0.81-6.03,2.27-9.02,3.44c-2.89,1.13-5.78,2.35-8.67,3.49
				c-2.99,1.18-6,2.6-9.19,3.49c-0.46-3.08-0.2-6.21-0.24-9.19c-0.04-3.02-0.01-6.07-0.01-9.1c0-3.04,0-6.07,0-9.11
				c0-2.89,0-5.78,0-8.67c0-3.04,0.03-6.08-0.01-9.1c-0.03-2.98,0.17-6.07-0.16-8.85c-3.62,0.82-21.83,8.07-26.89,10.69
				c-0.13,0.76-0.36,1.66-0.39,2.48c-0.07,1.62-0.03,3.19-0.03,4.78c0,59.69,0,119.39-0.01,179.08c0,1.86-0.08,3.74-0.13,5.82
				c-4.7,2.61-9.15,3.95-13.57,5.81c-4.62,1.95-9.25,3.76-13.88,5.62c-4.48,1.81-8.96,3.67-13.44,5.42
				c-4.45,1.74-8.92,3.86-13.6,5.27c-0.13-0.87-0.31-1.61-0.36-2.42c-0.06-1.13-0.02-2.3-0.02-3.46c0-105.94,0-211.89,0-317.83
				c0-1.86,0.04-3.73,0.07-5.8c1.07-0.6,1.88-1.18,2.7-1.51c16.48-6.68,32.95-13.33,49.43-19.98c0.71-0.29,1.43-0.46,2.43-0.78
				c0.13,1.1,0.35,2.11,0.36,3.22c0.04,6.35,0.01,12.71,0.02,19.07c0,1.43,0.07,2.83,0.11,4.46c1.19-0.31,2.15-0.45,3.1-0.83
				c6.5-2.59,13.01-5.25,19.51-7.85c1.41-0.57,2.82-1.02,4.35-1.57c0.57,1.51,0.39,3.17,0.39,4.72c0.02,14.88,0.01,29.77,0.02,44.65
				c0,1.56,0.09,3.08,0.14,4.44c1.6,0.45,3.09-0.51,4.49-1.07c6.07-2.41,12.14-4.9,18.21-7.33c1.42-0.57,2.83-1.02,4.25-1.53
				c0.76,1.46,0.48,3.18,0.48,4.72c0.02,14.88,0.01,29.77,0.02,44.65c0,1.57,0.05,3.11,0.09,4.87c1.21-0.33,2.17-0.5,3.14-0.88
				c6.5-2.6,13.01-5.25,19.51-7.86c1.42-0.57,2.85-1.07,4.17-1.57c1.08,1.25,0.66,3.05,0.66,4.59c0.04,14.87,0.02,29.77,0.03,44.65
				c0,1.57,0.08,3.1,0.12,4.81c2.41-0.23,4.72-1.56,6.98-2.4c2.17-0.81,4.34-1.74,6.5-2.61c2.31-0.93,4.63-1.83,6.94-2.81
				C443.87,216.24,446.03,215.67,448.66,213.95z"/>
			<path class="st58" d="M228.52,379.9c0.01-69.39,0.01-138.77,0.01-208.15c0-1.01,0.05-2.05-0.02-3.03
				c-0.06-0.81-0.25-1.56-0.43-2.59c-1.55,0.6-2.98,1.12-4.41,1.69c-6.36,2.56-12.24,5.1-18.6,7.65c-1.12,0.45-3.07,1.16-3.07,0.4
				c0-1.14,0-2.58,0-4.01c0-6.5-0.47-13.33-0.51-19.82c-0.01-0.95-0.58-2.05-0.76-3.18c-1.68,0.68-3.21,1.26-4.65,1.84
				c-6.5,2.63-12.77,5.58-19.28,8.16c-0.94,0.37-0.81,0.74-2.81,1.02c0-1.68,0-3.12,0-4.55c0-6.36-0.27-12.99-0.3-19.34
				c-0.01-1.1,0.12-2.65-1.3-3.27c-1.27,0.51-2.97,1.15-4.54,1.79c-7.34,2.97-13.85,5.88-21.85,8.78v57.2c0,0.68-0.01,1.47,0,2.15
				c0.04,6.34-0.02,12.74,0,19.09c0,1.42,0.09,2.82,0.16,4.75c9.33-3.68,18.09-7.32,27.01-10.84c0.12,1.57,0.25,2.64,0.27,3.76
				c0.54,44.07,0.25,156.59-0.44,161.19c-0.9,0.47-1.87,1.07-2.84,1.47c-6.5,2.66-13.01,5.26-19.51,7.91
				c-1.42,0.58-2.87,0.93-4.51,2.3c-0.37,4.56-0.08,8.91-0.18,13.4c-0.1,4.34,0.24,8.52-0.24,13.21c-1,0.54-1.83,1.09-2.65,1.43
				c-16.48,6.68-32.95,13.33-49.43,19.97c-0.71,0.29-1.42,0.43-2.36,0.71c-0.14-0.95-0.31-1.86-0.31-2.82
				c-0.03-6.34,0.04-12.75,0.04-19.11c0-1.43,0-2.86,0-4.54c-2,0.3-2.15,0.09-3.1,0.47c-6.5,2.59-13.09,4.95-19.6,7.58
				c-1.43,0.58-2.86,1.16-4.47,1.81c-0.22-1.11-0.47-1.31-0.54-2.09c-0.09-0.97-0.03-1.85-0.03-2.86c0-51.31,0-102.53,0.01-153.84
				c0-1.7-0.21-3.31,0.26-5.04c1.51-1.63,3-1.85,4.4-2.42c6.07-2.49,12.14-4.9,18.21-7.37c1.41-0.57,2.82-1.26,4.4-1.98
				c0.62-4.96,0.2-9.24,0.3-13.72c0.09-4.35-0.14-8.59,0.08-13.21c0.03-0.02,0.05-0.04,0.05-0.06v-56.25
				c-7,2.97-14.66,5.94-22.02,8.91c-1.01,0.41-2.01,1.09-3.01,1.57c-0.81,0.39-1.61,1.1-2.57,1.67c-0.05,1.66-0.12,3.2-0.12,4.63
				c-0.01,6.37,0.01,12.4-0.02,18.77c-0.01,1.11,0.33,1.9-1.02,3.64c-1.1,0.45-2.53,1.02-3.96,1.6c-6.36,2.57-12.72,5.49-19.08,8.09
				c-0.96,0.39-1.93,1.18-3.08,1.79c-0.05,1.66-0.14,3.2-0.14,4.63c-0.02,6.37,0.01,12.76-0.02,19.13c0,1.12-0.41,2.23-1.72,3.96
				C25.79,247.61,18,250.73,7,254.87c0,2.49,0,4.35,0,6.22c0,69.09,0,138.19,0,207.28c0,1.16,0.67,2.34,0.72,3.48
				c0.04,0.82,0.54,1.59,0.66,2.59c1.62-0.58,3.21-1.04,4.62-1.61c6.36-2.55,12.81-5.15,19.17-7.68c1.11-0.44,2.25-0.66,3.59-1.05
				c0.06,1.65,0.18,3.03,0.19,4.45c0.02,6.35,0,12.5,0.04,18.85c0.01,1.09,0.24,2.05,0.4,3.19c1.7-0.69,3.12-1.26,4.55-1.84
				c6.36-2.57,12.72-4.93,19.08-7.47c0.97-0.39,1.93-0.45,3.12-0.79c0.05,1.6,0.14,3.04,0.14,4.46c0.02,6.35-0.01,12.75,0.02,19.1
				c0.01,1.11,0.21,2.14,0.31,3.07c0.56-0.01,0.82,0.07,1.08-0.02c1.01-0.35,2.02-0.72,3.03-1.13
				c34.83-14.11,69.67-28.22,104.5-42.34c0.13-0.05,0.28-0.17,0.4-0.29c0.12-0.12,0.22-0.27,0.63-0.79
				c0.05-1.16,0.16-2.61,0.17-4.03c0.02-6.51,0-13.01,0.02-19.52c0-0.97,0.18-2.01,0.3-3.28c1.63-0.73,3.04-1.42,4.45-1.99
				c6.5-2.65,13.01-5.26,19.51-7.91c0.97-0.39,1.93-0.94,3.11-1.52c0.07-1.7,0.18-3.16,0.19-4.58c0.02-6.51,0-13.01,0.02-19.52
				c0-0.96,0.2-1.99,0.32-3.16c3.12-1.68,6-2.62,8.87-3.81c3.04-1.27,6.07-2.41,9.11-3.7c2.87-1.22,5.76-2,8.91-4
				C228.67,383.56,228.52,381.75,228.52,379.9z"/>
		</g>
	</g>
</g>
<g id="hover">
</g>
</svg>
